M48
METRIC,LZ,000.000
;FILE_FORMAT=3:3
;TYPE=PLATED
;Layer: Drill PTH
;EasyEDA v6.4.20.6, 2021-08-10T12:41:07+02:00
;b7c102a2acce44a19693fb55b2eed2e6,dded15cb907e4d9595cc142038e9c969,10
;Gerber Generator version 0.2
;Holesize 1 = 0.306 mm
T01C0.306
;Holesize 2 = 0.813 mm
T02C0.813
;Holesize 3 = 0.915 mm
T03C0.915
;Holesize 4 = 1.000 mm
T04C1.000
;Holesize 5 = 1.001 mm
T05C1.001
;Holesize 6 = 1.016 mm
T06C1.016
;Holesize 7 = 1.200 mm
T07C1.200
;Holesize 8 = 1.400 mm
T08C1.400
;Holesize 9 = 1.501 mm
T09C1.501
%
G05
G90
T01
X027858Y-133622
T02
X084582Y-141862G85X084582Y-141856
X094739Y-141859G85X094745Y-141859
X045339Y-117859G85X045339Y-117853
X047876Y-117856G85X047882Y-117856
X025908Y-115446G85X025908Y-115440
X036065Y-115443G85X036071Y-115443
T03
X067310Y-151511
X064770Y-151511
X062230Y-151511
X059690Y-151511
X059690Y-154051
X062230Y-154051
X064770Y-154051
X067310Y-154051
X059690Y-156591
X062230Y-156591
X064770Y-156591
X067310Y-156591
X082550Y-153670
X085090Y-153670
X080010Y-153670
X085217Y-158750
X082677Y-158750
X080137Y-158750
T04
X058293Y-135636G85X058293Y-135636
X060833Y-135636G85X060833Y-135636
X063373Y-135636G85X063373Y-135636
X065913Y-135636G85X065913Y-135636
X068453Y-135636G85X068453Y-135636
X070993Y-135636G85X070993Y-135636
X073533Y-135636G85X073533Y-135636
X076073Y-135636G85X076073Y-135636
X078613Y-135636G85X078613Y-135636
X081153Y-135636G85X081153Y-135636
X083693Y-135636G85X083693Y-135636
X086233Y-135636G85X086233Y-135636
X058293Y-120396G85X058293Y-120396
X060833Y-120396G85X060833Y-120396
X063373Y-120396G85X063373Y-120396
X065913Y-120396G85X065913Y-120396
X068453Y-120396G85X068453Y-120396
X070993Y-120396G85X070993Y-120396
X076073Y-120396G85X076073Y-120396
X078613Y-120396G85X078613Y-120396
X083693Y-120396G85X083693Y-120396
X086233Y-120396G85X086233Y-120396
X081153Y-120396G85X081153Y-120396
X073533Y-120396G85X073533Y-120396
X088773Y-135636G85X088773Y-135636
X091313Y-135636G85X091313Y-135636
X093853Y-135636G85X093853Y-135636
X088773Y-120396G85X088773Y-120396
X091313Y-120396G85X091313Y-120396
X093853Y-120396G85X093853Y-120396
T05
X049149Y-140997
X046609Y-140997
X044069Y-140997
X041529Y-140997
X038989Y-140997
X051689Y-140997
X033909Y-141097
X051689Y-141097
X036449Y-141097
X038989Y-141097
X041529Y-141097
X044069Y-141097
X046609Y-141097
X049149Y-141097
T06
X091183Y-149987G85X091189Y-149987
X096263Y-149987G85X096269Y-149987
X028445Y-125730G85X028451Y-125730
X028445Y-128270G85X028451Y-128270
X028445Y-130810G85X028451Y-130810
T07
X061468Y-142494
X064008Y-142494
X012700Y-141859
X012700Y-136779
X012700Y-131699
X020320Y-141859
X020320Y-136779
X020320Y-131699
X020320Y-126619
X020320Y-121539
X012700Y-126619
X012700Y-121539
X012700Y-146939
X020320Y-146939
X012700Y-152019
X020320Y-152019
X012700Y-157099
X020320Y-157099
T08
X074168Y-142494
X079248Y-142494
T09
X045429Y-157552
X040349Y-157552
M30
