G04 Layer: BottomLayer*
G04 EasyEDA v6.4.20.6, 2021-08-10T12:41:07+02:00*
G04 b7c102a2acce44a19693fb55b2eed2e6,dded15cb907e4d9595cc142038e9c969,10*
G04 Gerber Generator version 0.2*
G04 Scale: 100 percent, Rotated: No, Reflected: No *
G04 Dimensions in millimeters *
G04 leading zeros omitted , absolute positions ,4 integer and 5 decimal *
%FSLAX45Y45*%
%MOMM*%

%ADD11C,0.5000*%
%ADD12C,2.5000*%
%ADD13C,0.6100*%
%ADD15C,2.5400*%
%ADD16C,1.7780*%
%ADD17C,1.9304*%
%ADD18C,1.8000*%
%ADD19C,2.0000*%
%ADD20R,1.7780X1.7780*%
%ADD23C,2.0320*%
%ADD24C,3.0000*%
%ADD25C,3.0480*%
%ADD26C,1.5000*%
%ADD27C,1.5240*%

%LPD*%
G36*
X753516Y-16179800D02*
G01*
X749604Y-16179038D01*
X746302Y-16176802D01*
X739546Y-16170046D01*
X737362Y-16166795D01*
X736600Y-16162883D01*
X724408Y-11534140D01*
X724408Y-11351768D01*
X725170Y-11347856D01*
X727405Y-11344605D01*
X730656Y-11342370D01*
X734568Y-11341608D01*
X816660Y-11341608D01*
X5359400Y-11366500D01*
X9844989Y-11353850D01*
X9848900Y-11354612D01*
X9852202Y-11356797D01*
X9854438Y-11360099D01*
X9855200Y-11364010D01*
X9855200Y-16169640D01*
X9854438Y-16173551D01*
X9852202Y-16176802D01*
X9848951Y-16179038D01*
X9845040Y-16179800D01*
G37*

%LPC*%
G36*
X2163368Y-13850823D02*
G01*
X2167382Y-13850213D01*
X2184654Y-13845743D01*
X2201367Y-13839545D01*
X2217369Y-13831671D01*
X2232507Y-13822273D01*
X2246579Y-13811351D01*
X2259482Y-13799108D01*
X2271115Y-13785545D01*
X2281275Y-13770965D01*
X2287778Y-13759230D01*
X2163368Y-13759230D01*
G37*
G36*
X4025239Y-16105479D02*
G01*
X4044543Y-16105479D01*
X4063746Y-16103650D01*
X4082745Y-16099993D01*
X4101236Y-16094557D01*
X4119168Y-16087394D01*
X4136339Y-16078504D01*
X4152595Y-16068090D01*
X4167784Y-16056152D01*
X4181754Y-16042843D01*
X4194403Y-16028212D01*
X4205579Y-16012515D01*
X4215231Y-15995802D01*
X4223258Y-15978225D01*
X4229557Y-15959988D01*
X4234129Y-15941192D01*
X4236872Y-15922091D01*
X4237786Y-15902584D01*
X4237786Y-15607842D01*
X4236872Y-15588335D01*
X4234129Y-15569234D01*
X4229557Y-15550438D01*
X4223258Y-15532201D01*
X4215231Y-15514624D01*
X4205579Y-15497911D01*
X4194403Y-15482214D01*
X4181754Y-15467584D01*
X4167784Y-15454274D01*
X4152595Y-15442336D01*
X4136339Y-15431922D01*
X4119168Y-15423032D01*
X4101236Y-15415869D01*
X4082745Y-15410434D01*
X4063746Y-15406776D01*
X4044543Y-15404947D01*
X4025239Y-15404947D01*
X4006037Y-15406776D01*
X3987037Y-15410434D01*
X3968546Y-15415869D01*
X3957065Y-15420492D01*
X3953205Y-15421203D01*
X3949344Y-15420390D01*
X3946093Y-15418206D01*
X3097834Y-14569948D01*
X3087776Y-14560651D01*
X3084576Y-14557959D01*
X3073755Y-14549780D01*
X3070250Y-14547443D01*
X3058617Y-14540382D01*
X3054959Y-14538401D01*
X3042666Y-14532559D01*
X3038805Y-14530984D01*
X3026003Y-14526412D01*
X3021990Y-14525193D01*
X3008782Y-14521942D01*
X3004667Y-14521180D01*
X2991205Y-14519300D01*
X2987040Y-14518894D01*
X2973374Y-14518386D01*
X2231491Y-14518386D01*
X2227173Y-14517420D01*
X2208733Y-14508683D01*
X2190191Y-14502028D01*
X2171090Y-14497253D01*
X2151634Y-14494357D01*
X2131771Y-14493392D01*
X1932228Y-14493392D01*
X1912366Y-14494357D01*
X1892909Y-14497253D01*
X1873808Y-14502028D01*
X1855266Y-14508683D01*
X1837486Y-14517065D01*
X1820621Y-14527174D01*
X1804822Y-14538909D01*
X1790242Y-14552117D01*
X1777034Y-14566696D01*
X1765300Y-14582495D01*
X1755190Y-14599412D01*
X1746757Y-14617192D01*
X1740154Y-14635683D01*
X1735378Y-14654784D01*
X1732483Y-14674240D01*
X1731518Y-14693900D01*
X1732483Y-14713559D01*
X1735378Y-14733016D01*
X1740154Y-14752116D01*
X1746757Y-14770607D01*
X1755190Y-14788388D01*
X1765300Y-14805304D01*
X1777034Y-14821103D01*
X1790242Y-14835682D01*
X1804822Y-14848890D01*
X1820621Y-14860625D01*
X1837486Y-14870734D01*
X1855266Y-14879116D01*
X1873808Y-14885771D01*
X1892909Y-14890546D01*
X1912366Y-14893442D01*
X1932228Y-14894407D01*
X2131771Y-14894407D01*
X2151634Y-14893442D01*
X2171090Y-14890546D01*
X2190191Y-14885771D01*
X2208733Y-14879116D01*
X2227173Y-14870379D01*
X2231491Y-14869413D01*
X2896666Y-14869413D01*
X2900578Y-14870176D01*
X2903880Y-14872360D01*
X3828999Y-15797530D01*
X3831234Y-15800832D01*
X3831996Y-15804743D01*
X3831996Y-15902584D01*
X3832910Y-15922091D01*
X3835654Y-15941192D01*
X3840226Y-15959988D01*
X3846525Y-15978225D01*
X3854551Y-15995802D01*
X3864203Y-16012515D01*
X3875379Y-16028212D01*
X3888028Y-16042843D01*
X3901998Y-16056152D01*
X3917187Y-16068090D01*
X3933444Y-16078504D01*
X3950614Y-16087394D01*
X3968546Y-16094557D01*
X3987037Y-16099993D01*
X4006037Y-16103650D01*
G37*
G36*
X2657602Y-16060674D02*
G01*
X2676398Y-16060674D01*
X2695143Y-16058743D01*
X2713583Y-16054984D01*
X2731566Y-16049345D01*
X2748889Y-16041878D01*
X2765348Y-16032734D01*
X2780792Y-16022015D01*
X2795066Y-16009721D01*
X2808071Y-15996107D01*
X2819552Y-15981172D01*
X2829560Y-15965220D01*
X2837840Y-15948304D01*
X2844393Y-15930626D01*
X2849067Y-15912439D01*
X2851962Y-15893796D01*
X2852877Y-15875000D01*
X2851962Y-15856204D01*
X2849067Y-15837560D01*
X2844393Y-15819374D01*
X2837840Y-15801695D01*
X2829560Y-15784779D01*
X2819552Y-15768828D01*
X2808071Y-15753892D01*
X2795066Y-15740278D01*
X2780792Y-15727984D01*
X2765348Y-15717266D01*
X2748889Y-15708122D01*
X2731566Y-15700654D01*
X2713583Y-15695015D01*
X2695143Y-15691256D01*
X2676398Y-15689326D01*
X2657602Y-15689326D01*
X2638856Y-15691256D01*
X2620416Y-15695015D01*
X2602433Y-15700654D01*
X2585110Y-15708122D01*
X2568651Y-15717266D01*
X2553208Y-15727984D01*
X2538933Y-15740278D01*
X2525928Y-15753892D01*
X2514447Y-15768828D01*
X2504440Y-15784779D01*
X2496159Y-15801695D01*
X2489606Y-15819374D01*
X2484932Y-15837560D01*
X2482037Y-15856204D01*
X2481122Y-15875000D01*
X2482037Y-15893796D01*
X2484932Y-15912439D01*
X2489606Y-15930626D01*
X2496159Y-15948304D01*
X2504440Y-15965220D01*
X2514447Y-15981172D01*
X2525928Y-15996107D01*
X2538933Y-16009721D01*
X2553208Y-16022015D01*
X2568651Y-16032734D01*
X2585110Y-16041878D01*
X2602433Y-16049345D01*
X2620416Y-16054984D01*
X2638856Y-16058743D01*
G37*
G36*
X9515602Y-16060674D02*
G01*
X9534398Y-16060674D01*
X9553143Y-16058743D01*
X9571583Y-16054984D01*
X9589566Y-16049345D01*
X9606889Y-16041878D01*
X9623348Y-16032734D01*
X9638792Y-16022015D01*
X9653066Y-16009721D01*
X9666071Y-15996107D01*
X9677552Y-15981172D01*
X9687560Y-15965220D01*
X9695840Y-15948304D01*
X9702393Y-15930626D01*
X9707067Y-15912439D01*
X9709962Y-15893796D01*
X9710877Y-15875000D01*
X9709962Y-15856204D01*
X9707067Y-15837560D01*
X9702393Y-15819374D01*
X9695840Y-15801695D01*
X9687560Y-15784779D01*
X9677552Y-15768828D01*
X9666071Y-15753892D01*
X9653066Y-15740278D01*
X9638792Y-15727984D01*
X9623348Y-15717266D01*
X9606889Y-15708122D01*
X9589566Y-15700654D01*
X9571583Y-15695015D01*
X9553143Y-15691256D01*
X9534398Y-15689326D01*
X9515602Y-15689326D01*
X9496856Y-15691256D01*
X9478416Y-15695015D01*
X9460433Y-15700654D01*
X9443110Y-15708122D01*
X9426651Y-15717266D01*
X9411208Y-15727984D01*
X9396933Y-15740278D01*
X9383928Y-15753892D01*
X9372447Y-15768828D01*
X9362440Y-15784779D01*
X9354159Y-15801695D01*
X9347606Y-15819374D01*
X9342932Y-15837560D01*
X9340037Y-15856204D01*
X9339122Y-15875000D01*
X9340037Y-15893796D01*
X9342932Y-15912439D01*
X9347606Y-15930626D01*
X9354159Y-15948304D01*
X9362440Y-15965220D01*
X9372447Y-15981172D01*
X9383928Y-15996107D01*
X9396933Y-16009721D01*
X9411208Y-16022015D01*
X9426651Y-16032734D01*
X9443110Y-16041878D01*
X9460433Y-16049345D01*
X9478416Y-16054984D01*
X9496856Y-16058743D01*
G37*
G36*
X8312150Y-15977107D02*
G01*
X8343341Y-15977107D01*
X8349640Y-15976396D01*
X8355126Y-15974466D01*
X8360003Y-15971418D01*
X8364118Y-15967303D01*
X8367166Y-15962426D01*
X8369096Y-15956940D01*
X8369808Y-15950641D01*
X8369808Y-15919450D01*
X8312150Y-15919450D01*
G37*
G36*
X8192058Y-15977107D02*
G01*
X8223250Y-15977107D01*
X8223250Y-15919450D01*
X8165592Y-15919450D01*
X8165592Y-15950641D01*
X8166303Y-15956940D01*
X8168233Y-15962426D01*
X8171281Y-15967303D01*
X8175396Y-15971418D01*
X8180273Y-15974466D01*
X8185759Y-15976396D01*
G37*
G36*
X8446058Y-15977107D02*
G01*
X8597341Y-15977107D01*
X8603640Y-15976396D01*
X8609126Y-15974466D01*
X8614003Y-15971418D01*
X8618118Y-15967303D01*
X8621166Y-15962426D01*
X8623096Y-15956940D01*
X8623808Y-15950641D01*
X8623808Y-15799358D01*
X8623096Y-15793059D01*
X8621166Y-15787573D01*
X8618118Y-15782696D01*
X8614003Y-15778581D01*
X8609126Y-15775533D01*
X8603640Y-15773603D01*
X8597341Y-15772892D01*
X8582761Y-15772892D01*
X8578900Y-15772130D01*
X8575598Y-15769894D01*
X8573363Y-15766643D01*
X8572601Y-15762732D01*
X8572601Y-15479268D01*
X8573363Y-15475356D01*
X8575598Y-15472105D01*
X8578900Y-15469869D01*
X8582761Y-15469107D01*
X8584641Y-15469107D01*
X8590940Y-15468396D01*
X8596426Y-15466466D01*
X8601303Y-15463418D01*
X8605418Y-15459303D01*
X8608466Y-15454426D01*
X8610396Y-15448940D01*
X8611108Y-15442641D01*
X8611108Y-15428061D01*
X8611870Y-15424200D01*
X8614105Y-15420898D01*
X8617356Y-15418663D01*
X8621268Y-15417901D01*
X8635238Y-15417901D01*
X8639860Y-15417698D01*
X8644280Y-15417139D01*
X8648598Y-15416174D01*
X8652865Y-15414853D01*
X8656929Y-15413126D01*
X8660892Y-15411094D01*
X8664651Y-15408706D01*
X8668156Y-15406014D01*
X8671610Y-15402864D01*
X8982913Y-15091511D01*
X8986520Y-15089174D01*
X8990736Y-15088565D01*
X8994851Y-15089733D01*
X8998102Y-15092476D01*
X9003284Y-15099131D01*
X9015069Y-15111171D01*
X9028074Y-15121890D01*
X9042146Y-15131084D01*
X9057182Y-15138704D01*
X9072981Y-15144597D01*
X9089288Y-15148763D01*
X9105950Y-15151049D01*
X9122816Y-15151557D01*
X9139580Y-15150134D01*
X9156141Y-15146934D01*
X9172194Y-15141905D01*
X9187637Y-15135098D01*
X9202216Y-15126716D01*
X9215780Y-15116708D01*
X9228175Y-15105329D01*
X9239250Y-15092629D01*
X9248851Y-15078760D01*
X9256877Y-15063927D01*
X9263227Y-15048331D01*
X9267799Y-15032126D01*
X9270542Y-15015514D01*
X9271508Y-14998700D01*
X9270542Y-14981885D01*
X9267799Y-14965273D01*
X9263227Y-14949068D01*
X9256877Y-14933472D01*
X9248851Y-14918639D01*
X9239250Y-14904770D01*
X9228175Y-14892070D01*
X9215780Y-14880691D01*
X9202216Y-14870684D01*
X9187637Y-14862301D01*
X9172194Y-14855494D01*
X9156141Y-14850465D01*
X9139580Y-14847265D01*
X9122816Y-14845842D01*
X9105950Y-14846350D01*
X9089288Y-14848636D01*
X9072981Y-14852802D01*
X9057182Y-14858695D01*
X9042146Y-14866315D01*
X9028074Y-14875510D01*
X9015069Y-14886228D01*
X9003284Y-14898268D01*
X8992971Y-14911578D01*
X8984132Y-14925954D01*
X8976969Y-14941143D01*
X8971280Y-14957602D01*
X8969044Y-14961311D01*
X8628430Y-15301976D01*
X8625179Y-15304211D01*
X8621268Y-15304973D01*
X8617356Y-15304211D01*
X8614105Y-15301976D01*
X8611870Y-15298674D01*
X8611108Y-15294813D01*
X8611108Y-15291358D01*
X8610396Y-15285059D01*
X8608466Y-15279573D01*
X8605418Y-15274696D01*
X8601303Y-15270581D01*
X8596426Y-15267533D01*
X8590940Y-15265603D01*
X8584641Y-15264892D01*
X8433358Y-15264892D01*
X8427059Y-15265603D01*
X8421573Y-15267533D01*
X8416696Y-15270581D01*
X8412581Y-15274696D01*
X8409533Y-15279573D01*
X8407603Y-15285059D01*
X8406892Y-15291358D01*
X8406892Y-15442641D01*
X8407603Y-15448940D01*
X8409533Y-15454426D01*
X8412581Y-15459303D01*
X8416696Y-15463418D01*
X8421573Y-15466466D01*
X8427059Y-15468396D01*
X8433358Y-15469107D01*
X8460638Y-15469107D01*
X8464499Y-15469869D01*
X8467801Y-15472105D01*
X8470036Y-15475356D01*
X8470798Y-15479268D01*
X8470798Y-15762732D01*
X8470036Y-15766643D01*
X8467801Y-15769894D01*
X8464499Y-15772130D01*
X8460638Y-15772892D01*
X8446058Y-15772892D01*
X8439759Y-15773603D01*
X8434273Y-15775533D01*
X8429396Y-15778581D01*
X8425281Y-15782696D01*
X8422233Y-15787573D01*
X8420303Y-15793059D01*
X8419592Y-15799358D01*
X8419592Y-15950641D01*
X8420303Y-15956940D01*
X8422233Y-15962426D01*
X8425281Y-15967303D01*
X8429396Y-15971418D01*
X8434273Y-15974466D01*
X8439759Y-15976396D01*
G37*
G36*
X7938058Y-15977107D02*
G01*
X8089341Y-15977107D01*
X8095640Y-15976396D01*
X8101126Y-15974466D01*
X8106003Y-15971418D01*
X8110118Y-15967303D01*
X8113166Y-15962426D01*
X8115096Y-15956940D01*
X8115808Y-15950641D01*
X8115808Y-15799358D01*
X8115096Y-15793059D01*
X8113166Y-15787573D01*
X8110118Y-15782696D01*
X8106003Y-15778581D01*
X8101126Y-15775533D01*
X8095640Y-15773603D01*
X8089341Y-15772892D01*
X8074761Y-15772892D01*
X8070900Y-15772130D01*
X8067598Y-15769894D01*
X8065363Y-15766643D01*
X8064601Y-15762732D01*
X8064601Y-15748762D01*
X8064398Y-15744139D01*
X8063839Y-15739719D01*
X8062874Y-15735401D01*
X8061553Y-15731134D01*
X8059826Y-15727070D01*
X8057794Y-15723107D01*
X8055406Y-15719348D01*
X8052714Y-15715843D01*
X8049564Y-15712389D01*
X7928406Y-15591282D01*
X7926222Y-15587980D01*
X7925460Y-15584119D01*
X7925460Y-15479268D01*
X7926222Y-15475356D01*
X7928406Y-15472105D01*
X7931708Y-15469869D01*
X7935620Y-15469107D01*
X8076641Y-15469107D01*
X8082940Y-15468396D01*
X8088426Y-15466466D01*
X8093303Y-15463418D01*
X8097418Y-15459303D01*
X8100466Y-15454426D01*
X8102396Y-15448940D01*
X8103108Y-15442641D01*
X8103108Y-15428061D01*
X8103870Y-15424200D01*
X8106105Y-15420898D01*
X8109356Y-15418663D01*
X8113268Y-15417901D01*
X8126984Y-15417901D01*
X8136280Y-15417088D01*
X8140090Y-15416072D01*
X8143798Y-15415768D01*
X8147354Y-15416834D01*
X8150301Y-15419069D01*
X8152231Y-15422219D01*
X8152892Y-15425877D01*
X8152892Y-15442641D01*
X8153603Y-15448940D01*
X8155533Y-15454426D01*
X8158581Y-15459303D01*
X8162696Y-15463418D01*
X8167573Y-15466466D01*
X8173059Y-15468396D01*
X8179358Y-15469107D01*
X8210550Y-15469107D01*
X8210550Y-15411450D01*
X8177682Y-15411450D01*
X8173415Y-15410484D01*
X8169909Y-15407843D01*
X8167878Y-15403931D01*
X8167674Y-15399512D01*
X8169351Y-15395448D01*
X8171484Y-15392450D01*
X8175244Y-15384373D01*
X8177530Y-15375839D01*
X8178342Y-15366542D01*
X8178342Y-15332710D01*
X8179104Y-15328798D01*
X8181340Y-15325547D01*
X8184642Y-15323312D01*
X8188502Y-15322550D01*
X8210550Y-15322550D01*
X8210550Y-15264688D01*
X8206536Y-15263012D01*
X8203641Y-15259761D01*
X8202320Y-15255544D01*
X8202930Y-15251226D01*
X8205266Y-15247569D01*
X8779002Y-14673834D01*
X8782304Y-14671598D01*
X8786164Y-14670836D01*
X9354210Y-14670836D01*
X9358833Y-14670633D01*
X9363252Y-14670074D01*
X9367570Y-14669109D01*
X9371838Y-14667788D01*
X9375902Y-14666061D01*
X9379864Y-14664029D01*
X9383623Y-14661642D01*
X9387128Y-14658949D01*
X9390583Y-14655800D01*
X9739680Y-14306702D01*
X9742830Y-14303248D01*
X9745522Y-14299742D01*
X9747910Y-14295983D01*
X9749942Y-14292021D01*
X9751669Y-14287957D01*
X9752990Y-14283690D01*
X9753955Y-14279372D01*
X9754514Y-14274952D01*
X9754717Y-14270329D01*
X9754717Y-13557656D01*
X9754514Y-13552982D01*
X9753955Y-13548613D01*
X9752990Y-13544245D01*
X9751669Y-13540028D01*
X9749942Y-13535913D01*
X9747910Y-13532002D01*
X9745522Y-13528243D01*
X9742830Y-13524687D01*
X9739680Y-13521283D01*
X9452864Y-13234466D01*
X9449460Y-13231317D01*
X9445904Y-13228624D01*
X9442145Y-13226237D01*
X9438233Y-13224205D01*
X9434118Y-13222478D01*
X9429902Y-13221157D01*
X9425533Y-13220192D01*
X9421164Y-13219633D01*
X9416491Y-13219430D01*
X9117330Y-13219430D01*
X9113418Y-13218668D01*
X9110167Y-13216432D01*
X8066125Y-12172442D01*
X8063738Y-12168682D01*
X8063179Y-12164314D01*
X8064550Y-12160097D01*
X8067548Y-12156846D01*
X8071662Y-12155220D01*
X8076082Y-12155474D01*
X8089138Y-12159183D01*
X8104022Y-12161469D01*
X8119059Y-12161926D01*
X8134096Y-12160554D01*
X8148777Y-12157354D01*
X8163001Y-12152325D01*
X8176514Y-12145619D01*
X8189061Y-12137288D01*
X8200491Y-12127484D01*
X8210651Y-12116358D01*
X8219389Y-12104065D01*
X8226501Y-12090755D01*
X8231936Y-12076684D01*
X8232495Y-12074550D01*
X8234425Y-12070689D01*
X8237829Y-12067946D01*
X8242046Y-12066879D01*
X8246313Y-12067692D01*
X8249869Y-12070181D01*
X8252002Y-12073940D01*
X8255152Y-12083796D01*
X8261451Y-12097512D01*
X8269376Y-12110313D01*
X8278825Y-12122048D01*
X8289645Y-12132564D01*
X8301685Y-12141657D01*
X8314740Y-12149175D01*
X8328609Y-12155068D01*
X8343138Y-12159183D01*
X8358022Y-12161469D01*
X8373059Y-12161926D01*
X8388096Y-12160554D01*
X8402777Y-12157354D01*
X8417001Y-12152325D01*
X8430514Y-12145619D01*
X8443061Y-12137288D01*
X8454491Y-12127484D01*
X8464651Y-12116358D01*
X8473389Y-12104065D01*
X8480501Y-12090755D01*
X8485936Y-12076684D01*
X8486495Y-12074550D01*
X8488426Y-12070689D01*
X8491829Y-12067946D01*
X8496046Y-12066879D01*
X8500313Y-12067692D01*
X8503869Y-12070181D01*
X8506002Y-12073940D01*
X8509152Y-12083796D01*
X8515451Y-12097512D01*
X8523376Y-12110313D01*
X8532825Y-12122048D01*
X8543645Y-12132564D01*
X8555685Y-12141657D01*
X8568740Y-12149175D01*
X8582609Y-12155068D01*
X8597138Y-12159183D01*
X8612022Y-12161469D01*
X8627059Y-12161926D01*
X8642096Y-12160554D01*
X8656777Y-12157354D01*
X8671001Y-12152325D01*
X8684514Y-12145619D01*
X8697061Y-12137288D01*
X8708491Y-12127484D01*
X8718651Y-12116358D01*
X8727389Y-12104065D01*
X8734501Y-12090755D01*
X8739936Y-12076684D01*
X8740495Y-12074550D01*
X8742426Y-12070689D01*
X8745829Y-12067946D01*
X8750046Y-12066879D01*
X8754313Y-12067692D01*
X8757869Y-12070181D01*
X8760002Y-12073940D01*
X8763152Y-12083796D01*
X8769451Y-12097512D01*
X8777376Y-12110313D01*
X8786825Y-12122048D01*
X8797645Y-12132564D01*
X8809685Y-12141657D01*
X8822740Y-12149175D01*
X8836609Y-12155068D01*
X8851138Y-12159183D01*
X8866022Y-12161469D01*
X8881059Y-12161926D01*
X8896096Y-12160554D01*
X8910777Y-12157354D01*
X8925001Y-12152325D01*
X8938514Y-12145619D01*
X8951061Y-12137288D01*
X8962491Y-12127484D01*
X8972651Y-12116358D01*
X8981389Y-12104065D01*
X8988501Y-12090755D01*
X8993936Y-12076684D01*
X8994495Y-12074550D01*
X8996426Y-12070689D01*
X8999829Y-12067946D01*
X9004046Y-12066879D01*
X9008313Y-12067692D01*
X9011869Y-12070181D01*
X9014002Y-12073940D01*
X9017152Y-12083796D01*
X9023451Y-12097512D01*
X9031376Y-12110313D01*
X9040825Y-12122048D01*
X9051645Y-12132564D01*
X9063685Y-12141657D01*
X9076740Y-12149175D01*
X9090609Y-12155068D01*
X9105138Y-12159183D01*
X9120022Y-12161469D01*
X9135059Y-12161926D01*
X9150096Y-12160554D01*
X9164777Y-12157354D01*
X9179001Y-12152325D01*
X9192514Y-12145619D01*
X9205061Y-12137288D01*
X9216491Y-12127484D01*
X9226651Y-12116358D01*
X9235389Y-12104065D01*
X9242501Y-12090755D01*
X9247936Y-12076684D01*
X9248495Y-12074550D01*
X9250426Y-12070689D01*
X9253829Y-12067946D01*
X9258046Y-12066879D01*
X9262313Y-12067692D01*
X9265869Y-12070181D01*
X9268002Y-12073940D01*
X9271152Y-12083796D01*
X9277451Y-12097512D01*
X9285376Y-12110313D01*
X9294825Y-12122048D01*
X9305645Y-12132564D01*
X9317685Y-12141657D01*
X9330740Y-12149175D01*
X9344609Y-12155068D01*
X9359138Y-12159183D01*
X9374022Y-12161469D01*
X9389059Y-12161926D01*
X9404096Y-12160554D01*
X9418777Y-12157354D01*
X9433001Y-12152325D01*
X9446514Y-12145619D01*
X9459061Y-12137288D01*
X9470491Y-12127484D01*
X9480651Y-12116358D01*
X9489389Y-12104065D01*
X9496501Y-12090755D01*
X9501936Y-12076684D01*
X9505645Y-12062104D01*
X9507474Y-12047118D01*
X9507474Y-12032081D01*
X9505645Y-12017095D01*
X9501936Y-12002516D01*
X9496501Y-11988444D01*
X9489389Y-11975185D01*
X9480651Y-11962841D01*
X9470491Y-11951716D01*
X9459061Y-11941911D01*
X9446514Y-11933580D01*
X9433001Y-11926874D01*
X9418777Y-11921845D01*
X9404096Y-11918645D01*
X9389059Y-11917273D01*
X9374022Y-11917730D01*
X9359138Y-11920016D01*
X9344609Y-11924131D01*
X9330740Y-11930024D01*
X9317685Y-11937542D01*
X9305645Y-11946636D01*
X9294825Y-11957151D01*
X9285376Y-11968886D01*
X9277451Y-11981688D01*
X9271152Y-11995404D01*
X9268002Y-12005259D01*
X9265869Y-12009018D01*
X9262313Y-12011507D01*
X9258046Y-12012320D01*
X9253829Y-12011253D01*
X9250426Y-12008510D01*
X9248495Y-12004649D01*
X9247936Y-12002516D01*
X9242501Y-11988444D01*
X9235389Y-11975185D01*
X9226651Y-11962841D01*
X9216491Y-11951716D01*
X9205061Y-11941911D01*
X9192514Y-11933580D01*
X9179001Y-11926874D01*
X9164777Y-11921845D01*
X9150096Y-11918645D01*
X9135059Y-11917273D01*
X9120022Y-11917730D01*
X9105138Y-11920016D01*
X9090609Y-11924131D01*
X9076740Y-11930024D01*
X9063685Y-11937542D01*
X9051645Y-11946636D01*
X9040825Y-11957151D01*
X9031376Y-11968886D01*
X9023451Y-11981688D01*
X9017152Y-11995404D01*
X9014002Y-12005259D01*
X9011869Y-12009018D01*
X9008313Y-12011507D01*
X9004046Y-12012320D01*
X8999829Y-12011253D01*
X8996426Y-12008510D01*
X8994495Y-12004649D01*
X8993936Y-12002516D01*
X8988501Y-11988444D01*
X8981389Y-11975185D01*
X8972651Y-11962841D01*
X8962491Y-11951716D01*
X8951061Y-11941911D01*
X8938514Y-11933580D01*
X8925001Y-11926874D01*
X8910777Y-11921845D01*
X8896096Y-11918645D01*
X8881059Y-11917273D01*
X8866022Y-11917730D01*
X8851138Y-11920016D01*
X8836609Y-11924131D01*
X8822740Y-11930024D01*
X8809685Y-11937542D01*
X8797645Y-11946636D01*
X8786825Y-11957151D01*
X8777376Y-11968886D01*
X8769451Y-11981688D01*
X8763152Y-11995404D01*
X8760002Y-12005259D01*
X8757869Y-12009018D01*
X8754313Y-12011507D01*
X8750046Y-12012320D01*
X8745829Y-12011253D01*
X8742426Y-12008510D01*
X8740495Y-12004649D01*
X8739936Y-12002516D01*
X8734501Y-11988444D01*
X8727389Y-11975185D01*
X8718651Y-11962841D01*
X8708491Y-11951716D01*
X8697061Y-11941911D01*
X8684514Y-11933580D01*
X8671001Y-11926874D01*
X8656777Y-11921845D01*
X8642096Y-11918645D01*
X8627059Y-11917273D01*
X8612022Y-11917730D01*
X8597138Y-11920016D01*
X8582609Y-11924131D01*
X8568740Y-11930024D01*
X8555685Y-11937542D01*
X8543645Y-11946636D01*
X8532825Y-11957151D01*
X8523376Y-11968886D01*
X8515451Y-11981688D01*
X8509152Y-11995404D01*
X8506002Y-12005259D01*
X8503869Y-12009018D01*
X8500313Y-12011507D01*
X8496046Y-12012320D01*
X8491829Y-12011253D01*
X8488426Y-12008510D01*
X8486495Y-12004649D01*
X8485936Y-12002516D01*
X8480501Y-11988444D01*
X8473389Y-11975185D01*
X8464651Y-11962841D01*
X8454491Y-11951716D01*
X8443061Y-11941911D01*
X8430514Y-11933580D01*
X8417001Y-11926874D01*
X8402777Y-11921845D01*
X8388096Y-11918645D01*
X8373059Y-11917273D01*
X8358022Y-11917730D01*
X8343138Y-11920016D01*
X8328609Y-11924131D01*
X8314740Y-11930024D01*
X8301685Y-11937542D01*
X8289645Y-11946636D01*
X8278825Y-11957151D01*
X8269376Y-11968886D01*
X8261451Y-11981688D01*
X8255152Y-11995404D01*
X8252002Y-12005259D01*
X8249869Y-12009018D01*
X8246313Y-12011507D01*
X8242046Y-12012320D01*
X8237829Y-12011253D01*
X8234425Y-12008510D01*
X8232495Y-12004649D01*
X8231936Y-12002516D01*
X8226501Y-11988444D01*
X8219389Y-11975185D01*
X8210651Y-11962841D01*
X8200491Y-11951716D01*
X8189061Y-11941911D01*
X8176514Y-11933580D01*
X8163001Y-11926874D01*
X8148777Y-11921845D01*
X8134096Y-11918645D01*
X8119059Y-11917273D01*
X8104022Y-11917730D01*
X8089138Y-11920016D01*
X8074609Y-11924131D01*
X8060740Y-11930024D01*
X8047685Y-11937542D01*
X8035645Y-11946636D01*
X8024825Y-11957151D01*
X8015376Y-11968886D01*
X8007451Y-11981688D01*
X8001152Y-11995404D01*
X7998002Y-12005259D01*
X7995869Y-12009018D01*
X7992313Y-12011507D01*
X7988046Y-12012320D01*
X7983829Y-12011253D01*
X7980425Y-12008510D01*
X7978495Y-12004649D01*
X7977936Y-12002516D01*
X7972501Y-11988444D01*
X7965389Y-11975185D01*
X7956651Y-11962841D01*
X7946491Y-11951716D01*
X7935061Y-11941911D01*
X7922514Y-11933580D01*
X7909001Y-11926874D01*
X7894777Y-11921845D01*
X7880096Y-11918645D01*
X7865059Y-11917273D01*
X7850022Y-11917730D01*
X7835138Y-11920016D01*
X7820609Y-11924131D01*
X7806740Y-11930024D01*
X7793685Y-11937542D01*
X7781645Y-11946636D01*
X7770825Y-11957151D01*
X7761376Y-11968886D01*
X7753451Y-11981688D01*
X7747152Y-11995404D01*
X7744002Y-12005259D01*
X7741869Y-12009018D01*
X7738313Y-12011507D01*
X7734046Y-12012320D01*
X7729829Y-12011253D01*
X7726425Y-12008510D01*
X7724495Y-12004649D01*
X7723936Y-12002516D01*
X7718501Y-11988444D01*
X7711389Y-11975185D01*
X7702651Y-11962841D01*
X7692491Y-11951716D01*
X7681061Y-11941911D01*
X7668514Y-11933580D01*
X7655001Y-11926874D01*
X7640777Y-11921845D01*
X7626096Y-11918645D01*
X7611059Y-11917273D01*
X7596022Y-11917730D01*
X7581138Y-11920016D01*
X7566609Y-11924131D01*
X7552740Y-11930024D01*
X7539685Y-11937542D01*
X7527645Y-11946636D01*
X7516825Y-11957151D01*
X7507376Y-11968886D01*
X7499451Y-11981688D01*
X7493152Y-11995404D01*
X7490002Y-12005259D01*
X7487869Y-12009018D01*
X7484313Y-12011507D01*
X7480046Y-12012320D01*
X7475829Y-12011253D01*
X7472425Y-12008510D01*
X7470495Y-12004649D01*
X7469936Y-12002516D01*
X7464501Y-11988444D01*
X7457389Y-11975185D01*
X7448651Y-11962841D01*
X7438491Y-11951716D01*
X7427061Y-11941911D01*
X7414514Y-11933580D01*
X7401001Y-11926874D01*
X7386777Y-11921845D01*
X7372096Y-11918645D01*
X7357059Y-11917273D01*
X7342022Y-11917730D01*
X7327138Y-11920016D01*
X7312609Y-11924131D01*
X7298740Y-11930024D01*
X7285685Y-11937542D01*
X7273645Y-11946636D01*
X7262825Y-11957151D01*
X7253376Y-11968886D01*
X7245451Y-11981688D01*
X7239152Y-11995404D01*
X7236002Y-12005259D01*
X7233869Y-12009018D01*
X7230313Y-12011507D01*
X7226046Y-12012320D01*
X7221829Y-12011253D01*
X7218425Y-12008510D01*
X7216495Y-12004649D01*
X7215936Y-12002516D01*
X7210501Y-11988444D01*
X7203389Y-11975185D01*
X7194651Y-11962841D01*
X7184491Y-11951716D01*
X7173061Y-11941911D01*
X7160514Y-11933580D01*
X7147001Y-11926874D01*
X7132777Y-11921845D01*
X7118096Y-11918645D01*
X7103059Y-11917273D01*
X7088022Y-11917730D01*
X7073138Y-11920016D01*
X7058609Y-11924131D01*
X7044740Y-11930024D01*
X7031685Y-11937542D01*
X7019645Y-11946636D01*
X7008825Y-11957151D01*
X6999376Y-11968886D01*
X6991451Y-11981688D01*
X6985152Y-11995404D01*
X6982002Y-12005259D01*
X6979869Y-12009018D01*
X6976313Y-12011507D01*
X6972046Y-12012320D01*
X6967829Y-12011253D01*
X6964425Y-12008510D01*
X6962495Y-12004649D01*
X6961936Y-12002516D01*
X6956501Y-11988444D01*
X6949389Y-11975185D01*
X6940651Y-11962841D01*
X6930491Y-11951716D01*
X6919061Y-11941911D01*
X6906514Y-11933580D01*
X6893001Y-11926874D01*
X6878777Y-11921845D01*
X6864096Y-11918645D01*
X6849059Y-11917273D01*
X6834022Y-11917730D01*
X6819138Y-11920016D01*
X6804609Y-11924131D01*
X6790740Y-11930024D01*
X6777685Y-11937542D01*
X6765645Y-11946636D01*
X6754825Y-11957151D01*
X6745376Y-11968886D01*
X6737451Y-11981688D01*
X6731152Y-11995404D01*
X6728002Y-12005259D01*
X6725869Y-12009018D01*
X6722313Y-12011507D01*
X6718046Y-12012320D01*
X6713829Y-12011253D01*
X6710425Y-12008510D01*
X6708495Y-12004649D01*
X6707936Y-12002516D01*
X6702501Y-11988444D01*
X6695389Y-11975185D01*
X6686651Y-11962841D01*
X6676491Y-11951716D01*
X6665061Y-11941911D01*
X6652514Y-11933580D01*
X6639001Y-11926874D01*
X6624777Y-11921845D01*
X6610096Y-11918645D01*
X6595059Y-11917273D01*
X6580022Y-11917730D01*
X6565138Y-11920016D01*
X6550609Y-11924131D01*
X6536740Y-11930024D01*
X6523685Y-11937542D01*
X6511645Y-11946636D01*
X6500825Y-11957151D01*
X6491376Y-11968886D01*
X6483451Y-11981688D01*
X6477152Y-11995404D01*
X6474002Y-12005259D01*
X6471869Y-12009018D01*
X6468313Y-12011507D01*
X6464046Y-12012320D01*
X6459829Y-12011253D01*
X6456426Y-12008510D01*
X6454495Y-12004649D01*
X6453936Y-12002516D01*
X6448501Y-11988444D01*
X6441389Y-11975185D01*
X6432651Y-11962841D01*
X6422491Y-11951716D01*
X6411061Y-11941911D01*
X6398514Y-11933580D01*
X6385001Y-11926874D01*
X6370777Y-11921845D01*
X6356096Y-11918645D01*
X6341059Y-11917273D01*
X6326022Y-11917730D01*
X6311138Y-11920016D01*
X6296609Y-11924131D01*
X6282740Y-11930024D01*
X6269685Y-11937542D01*
X6257645Y-11946636D01*
X6246825Y-11957151D01*
X6237376Y-11968886D01*
X6229451Y-11981688D01*
X6223152Y-11995404D01*
X6220002Y-12005259D01*
X6217869Y-12009018D01*
X6214313Y-12011507D01*
X6210046Y-12012320D01*
X6205829Y-12011253D01*
X6202426Y-12008510D01*
X6200495Y-12004649D01*
X6199936Y-12002516D01*
X6194501Y-11988444D01*
X6187389Y-11975185D01*
X6178651Y-11962841D01*
X6168491Y-11951716D01*
X6157061Y-11941911D01*
X6144514Y-11933580D01*
X6131001Y-11926874D01*
X6116777Y-11921845D01*
X6102096Y-11918645D01*
X6087059Y-11917273D01*
X6072022Y-11917730D01*
X6057138Y-11920016D01*
X6042609Y-11924131D01*
X6028740Y-11930024D01*
X6015685Y-11937542D01*
X6003645Y-11946636D01*
X5992825Y-11957151D01*
X5983376Y-11968886D01*
X5975451Y-11981688D01*
X5969152Y-11995404D01*
X5966002Y-12005259D01*
X5963869Y-12009018D01*
X5960313Y-12011507D01*
X5956046Y-12012320D01*
X5951829Y-12011253D01*
X5948426Y-12008510D01*
X5946495Y-12004649D01*
X5945936Y-12002516D01*
X5940501Y-11988444D01*
X5933389Y-11975185D01*
X5924651Y-11962841D01*
X5914491Y-11951716D01*
X5903061Y-11941911D01*
X5890514Y-11933580D01*
X5877001Y-11926874D01*
X5862777Y-11921845D01*
X5848096Y-11918645D01*
X5833059Y-11917273D01*
X5818022Y-11917730D01*
X5803138Y-11920016D01*
X5788609Y-11924131D01*
X5774740Y-11930024D01*
X5761685Y-11937542D01*
X5749645Y-11946636D01*
X5738825Y-11957151D01*
X5729376Y-11968886D01*
X5721451Y-11981688D01*
X5715152Y-11995404D01*
X5710580Y-12009729D01*
X5707837Y-12024563D01*
X5706872Y-12039600D01*
X5707837Y-12054636D01*
X5710580Y-12069470D01*
X5715152Y-12083796D01*
X5721451Y-12097512D01*
X5729376Y-12110313D01*
X5738825Y-12122048D01*
X5749645Y-12132564D01*
X5761685Y-12141657D01*
X5774740Y-12149175D01*
X5788609Y-12155068D01*
X5803138Y-12159183D01*
X5818022Y-12161469D01*
X5833059Y-12161926D01*
X5848096Y-12160554D01*
X5862777Y-12157354D01*
X5877001Y-12152325D01*
X5890514Y-12145619D01*
X5903061Y-12137288D01*
X5914491Y-12127484D01*
X5924651Y-12116358D01*
X5933389Y-12104065D01*
X5940501Y-12090755D01*
X5945936Y-12076684D01*
X5946495Y-12074550D01*
X5948426Y-12070689D01*
X5951829Y-12067946D01*
X5956046Y-12066879D01*
X5960313Y-12067692D01*
X5963869Y-12070181D01*
X5966002Y-12073940D01*
X5969152Y-12083796D01*
X5975451Y-12097512D01*
X5983376Y-12110313D01*
X5992825Y-12122048D01*
X6003645Y-12132564D01*
X6015685Y-12141657D01*
X6028740Y-12149175D01*
X6042609Y-12155068D01*
X6057138Y-12159183D01*
X6072022Y-12161469D01*
X6087059Y-12161926D01*
X6102096Y-12160554D01*
X6116777Y-12157354D01*
X6131001Y-12152325D01*
X6144514Y-12145619D01*
X6157061Y-12137288D01*
X6168491Y-12127484D01*
X6178651Y-12116358D01*
X6187389Y-12104065D01*
X6194501Y-12090755D01*
X6199936Y-12076684D01*
X6200495Y-12074550D01*
X6202426Y-12070689D01*
X6205829Y-12067946D01*
X6210046Y-12066879D01*
X6214313Y-12067692D01*
X6217869Y-12070181D01*
X6220002Y-12073940D01*
X6223152Y-12083796D01*
X6229451Y-12097512D01*
X6237376Y-12110313D01*
X6246825Y-12122048D01*
X6257645Y-12132564D01*
X6269685Y-12141657D01*
X6282740Y-12149175D01*
X6296609Y-12155068D01*
X6311138Y-12159183D01*
X6326022Y-12161469D01*
X6341059Y-12161926D01*
X6356096Y-12160554D01*
X6370777Y-12157354D01*
X6376111Y-12155474D01*
X6379972Y-12154916D01*
X6383731Y-12155830D01*
X6386880Y-12158065D01*
X6388963Y-12161367D01*
X6389674Y-12165177D01*
X6388862Y-12168987D01*
X6386677Y-12172238D01*
X5325262Y-13233603D01*
X5322011Y-13235838D01*
X5318099Y-13236600D01*
X2905861Y-13236600D01*
X2902000Y-13235838D01*
X2898698Y-13233603D01*
X2896463Y-13230301D01*
X2895701Y-13226440D01*
X2895701Y-13193268D01*
X2896463Y-13189356D01*
X2898698Y-13186105D01*
X2902000Y-13183869D01*
X2905861Y-13183107D01*
X2920644Y-13183107D01*
X2934309Y-13182193D01*
X2947416Y-13179602D01*
X2960065Y-13175335D01*
X2972054Y-13169392D01*
X2983128Y-13161975D01*
X2993186Y-13153186D01*
X3001975Y-13143128D01*
X3009392Y-13132054D01*
X3015335Y-13120065D01*
X3019602Y-13107416D01*
X3022193Y-13094309D01*
X3023108Y-13081000D01*
X3022193Y-13067690D01*
X3019602Y-13054584D01*
X3015335Y-13041934D01*
X3009392Y-13029946D01*
X3001975Y-13018871D01*
X2993186Y-13008813D01*
X2983128Y-13000024D01*
X2972054Y-12992608D01*
X2960065Y-12986664D01*
X2947416Y-12982397D01*
X2934309Y-12979806D01*
X2920644Y-12978892D01*
X2768955Y-12978892D01*
X2755290Y-12979806D01*
X2742184Y-12982397D01*
X2729534Y-12986664D01*
X2717546Y-12992608D01*
X2706471Y-13000024D01*
X2696413Y-13008813D01*
X2687624Y-13018871D01*
X2680208Y-13029946D01*
X2674264Y-13041934D01*
X2669997Y-13054584D01*
X2667406Y-13067690D01*
X2666492Y-13081000D01*
X2667406Y-13094309D01*
X2669997Y-13107416D01*
X2674264Y-13120065D01*
X2680208Y-13132054D01*
X2687624Y-13143128D01*
X2696413Y-13153186D01*
X2706471Y-13161975D01*
X2717546Y-13169392D01*
X2729534Y-13175335D01*
X2742184Y-13179602D01*
X2755290Y-13182193D01*
X2768955Y-13183107D01*
X2783738Y-13183107D01*
X2787599Y-13183869D01*
X2790901Y-13186105D01*
X2793136Y-13189356D01*
X2793898Y-13193268D01*
X2793898Y-13265505D01*
X2794457Y-13273024D01*
X2794152Y-13277189D01*
X2792171Y-13280898D01*
X2788869Y-13283438D01*
X2784856Y-13284504D01*
X2780741Y-13283793D01*
X2777236Y-13281507D01*
X2434488Y-12938810D01*
X2432304Y-12935508D01*
X2431542Y-12931648D01*
X2432304Y-12927736D01*
X2434488Y-12924434D01*
X2626664Y-12732308D01*
X2629814Y-12728854D01*
X2632506Y-12725349D01*
X2634894Y-12721590D01*
X2636926Y-12717627D01*
X2638653Y-12713563D01*
X2639974Y-12709296D01*
X2640939Y-12704978D01*
X2641498Y-12700558D01*
X2641701Y-12695936D01*
X2641701Y-12643967D01*
X2642666Y-12639700D01*
X2645308Y-12636246D01*
X2649118Y-12634214D01*
X2653487Y-12633960D01*
X2657551Y-12635585D01*
X2660548Y-12638735D01*
X2664358Y-12644983D01*
X2673756Y-12657023D01*
X2684576Y-12667843D01*
X2696616Y-12677241D01*
X2709722Y-12685166D01*
X2723692Y-12691465D01*
X2738272Y-12695986D01*
X2753309Y-12698780D01*
X2768904Y-12699695D01*
X2920695Y-12699695D01*
X2936290Y-12698780D01*
X2951327Y-12695986D01*
X2965907Y-12691465D01*
X2979877Y-12685166D01*
X2992983Y-12677241D01*
X3005023Y-12667843D01*
X3015843Y-12657023D01*
X3025241Y-12644983D01*
X3033166Y-12631877D01*
X3039465Y-12617907D01*
X3043986Y-12603327D01*
X3046780Y-12588290D01*
X3047695Y-12573000D01*
X3046780Y-12557709D01*
X3043986Y-12542672D01*
X3039465Y-12528092D01*
X3033166Y-12514122D01*
X3025241Y-12501016D01*
X3015843Y-12488976D01*
X3005023Y-12478156D01*
X2992983Y-12468758D01*
X2979877Y-12460833D01*
X2965907Y-12454534D01*
X2951327Y-12450013D01*
X2936290Y-12447219D01*
X2920695Y-12446304D01*
X2768904Y-12446304D01*
X2753309Y-12447219D01*
X2738272Y-12450013D01*
X2723692Y-12454534D01*
X2709722Y-12460833D01*
X2696616Y-12468758D01*
X2684576Y-12478156D01*
X2673756Y-12488976D01*
X2664358Y-12501016D01*
X2660548Y-12507264D01*
X2657551Y-12510414D01*
X2653487Y-12512040D01*
X2649118Y-12511786D01*
X2645308Y-12509754D01*
X2642666Y-12506299D01*
X2641701Y-12502032D01*
X2641701Y-11653266D01*
X2642260Y-11649913D01*
X2643886Y-11646966D01*
X2646426Y-11644680D01*
X2658262Y-11637162D01*
X2669387Y-11627967D01*
X2679242Y-11617452D01*
X2687726Y-11605818D01*
X2694686Y-11593169D01*
X2699969Y-11579758D01*
X2703576Y-11565788D01*
X2705354Y-11551513D01*
X2705354Y-11537086D01*
X2703576Y-11522811D01*
X2699969Y-11508841D01*
X2694686Y-11495430D01*
X2687726Y-11482781D01*
X2679242Y-11471148D01*
X2669387Y-11460632D01*
X2658262Y-11451437D01*
X2646121Y-11443716D01*
X2633065Y-11437569D01*
X2619349Y-11433098D01*
X2605176Y-11430406D01*
X2590800Y-11429492D01*
X2576423Y-11430406D01*
X2562250Y-11433098D01*
X2548534Y-11437569D01*
X2535478Y-11443716D01*
X2523337Y-11451437D01*
X2512212Y-11460632D01*
X2502357Y-11471148D01*
X2493873Y-11482781D01*
X2486914Y-11495430D01*
X2481630Y-11508841D01*
X2478024Y-11522811D01*
X2476246Y-11537086D01*
X2476246Y-11551513D01*
X2478024Y-11565788D01*
X2481630Y-11579758D01*
X2486914Y-11593169D01*
X2493873Y-11605818D01*
X2502357Y-11617452D01*
X2512212Y-11627967D01*
X2523337Y-11637162D01*
X2535174Y-11644680D01*
X2537714Y-11646966D01*
X2539339Y-11649913D01*
X2539898Y-11653266D01*
X2539898Y-12670840D01*
X2539136Y-12674752D01*
X2536901Y-12678003D01*
X2337206Y-12877749D01*
X2333904Y-12879933D01*
X2330043Y-12880695D01*
X2270506Y-12880695D01*
X2265832Y-12880898D01*
X2261463Y-12881508D01*
X2257094Y-12882473D01*
X2252878Y-12883794D01*
X2248763Y-12885470D01*
X2244852Y-12887553D01*
X2241092Y-12889941D01*
X2237536Y-12892633D01*
X2234133Y-12895783D01*
X2090470Y-13039445D01*
X2086864Y-13041782D01*
X2082495Y-13042392D01*
X1981504Y-13042392D01*
X1965807Y-13043357D01*
X1950669Y-13046100D01*
X1935988Y-13050672D01*
X1921967Y-13057022D01*
X1908759Y-13064998D01*
X1896668Y-13074497D01*
X1885797Y-13085368D01*
X1876298Y-13097459D01*
X1868322Y-13110667D01*
X1861972Y-13124688D01*
X1857400Y-13139369D01*
X1854657Y-13154507D01*
X1853692Y-13169900D01*
X1854657Y-13185292D01*
X1857400Y-13200430D01*
X1861972Y-13215112D01*
X1868322Y-13229132D01*
X1876298Y-13242340D01*
X1885797Y-13254431D01*
X1896668Y-13265302D01*
X1908759Y-13274801D01*
X1921967Y-13282777D01*
X1935988Y-13289127D01*
X1950669Y-13293699D01*
X1965807Y-13296442D01*
X1981504Y-13297407D01*
X2082495Y-13297407D01*
X2098192Y-13296442D01*
X2113330Y-13293699D01*
X2128012Y-13289127D01*
X2142032Y-13282777D01*
X2155240Y-13274801D01*
X2167331Y-13265302D01*
X2178202Y-13254431D01*
X2187702Y-13242340D01*
X2195677Y-13229132D01*
X2202027Y-13215112D01*
X2206599Y-13200430D01*
X2209342Y-13185292D01*
X2210308Y-13169900D01*
X2209342Y-13154507D01*
X2206599Y-13139369D01*
X2202027Y-13124688D01*
X2195677Y-13110667D01*
X2187600Y-13097256D01*
X2186178Y-13092988D01*
X2186686Y-13088569D01*
X2189073Y-13084810D01*
X2288387Y-12985496D01*
X2291689Y-12983311D01*
X2295550Y-12982549D01*
X2330043Y-12982549D01*
X2333904Y-12983311D01*
X2337206Y-12985496D01*
X2731363Y-13379704D01*
X2733395Y-13382599D01*
X2737053Y-13390321D01*
X2742641Y-13398398D01*
X2749600Y-13405357D01*
X2762351Y-13413994D01*
X2764434Y-13417245D01*
X2765094Y-13421106D01*
X2764282Y-13424865D01*
X2762097Y-13428065D01*
X2128926Y-14061287D01*
X2125929Y-14063370D01*
X2122373Y-14064234D01*
X2118715Y-14063776D01*
X2113330Y-14062100D01*
X2098192Y-14059357D01*
X2082495Y-14058392D01*
X1981504Y-14058392D01*
X1965807Y-14059357D01*
X1950669Y-14062100D01*
X1935988Y-14066672D01*
X1921967Y-14073022D01*
X1908759Y-14080998D01*
X1896668Y-14090497D01*
X1885797Y-14101368D01*
X1876298Y-14113459D01*
X1868322Y-14126667D01*
X1861972Y-14140688D01*
X1857400Y-14155369D01*
X1854657Y-14170507D01*
X1853692Y-14185900D01*
X1854657Y-14201292D01*
X1857400Y-14216430D01*
X1861972Y-14231112D01*
X1868322Y-14245132D01*
X1876298Y-14258340D01*
X1885797Y-14270431D01*
X1896668Y-14281302D01*
X1908759Y-14290801D01*
X1921967Y-14298777D01*
X1935988Y-14305127D01*
X1950669Y-14309699D01*
X1965807Y-14312442D01*
X1981504Y-14313407D01*
X2082495Y-14313407D01*
X2098192Y-14312442D01*
X2113330Y-14309699D01*
X2128012Y-14305127D01*
X2142032Y-14298777D01*
X2155240Y-14290801D01*
X2167331Y-14281302D01*
X2178202Y-14270431D01*
X2187702Y-14258340D01*
X2195677Y-14245132D01*
X2202027Y-14231112D01*
X2206599Y-14216430D01*
X2209342Y-14201292D01*
X2210308Y-14185900D01*
X2209342Y-14170507D01*
X2206599Y-14155369D01*
X2201824Y-14140078D01*
X2201367Y-14136420D01*
X2202230Y-14132864D01*
X2204313Y-14129867D01*
X2902458Y-13431774D01*
X2905607Y-13428319D01*
X2908300Y-13424814D01*
X2910687Y-13421055D01*
X2912719Y-13417092D01*
X2914446Y-13413028D01*
X2915767Y-13408761D01*
X2916732Y-13404443D01*
X2917291Y-13400024D01*
X2917494Y-13395401D01*
X2917494Y-13348563D01*
X2918256Y-13344702D01*
X2920492Y-13341400D01*
X2923794Y-13339165D01*
X2927654Y-13338403D01*
X5107838Y-13338403D01*
X5111699Y-13339165D01*
X5115001Y-13341400D01*
X5117236Y-13344702D01*
X5117998Y-13348563D01*
X5117998Y-13967206D01*
X5117439Y-13970457D01*
X5115915Y-13973403D01*
X5113477Y-13975638D01*
X5107482Y-13979651D01*
X5097576Y-13988338D01*
X5088839Y-13998295D01*
X5081524Y-14009268D01*
X5075682Y-14021104D01*
X5071465Y-14033601D01*
X5069992Y-14040815D01*
X5068976Y-14043710D01*
X5065064Y-14050822D01*
X5059730Y-14064234D01*
X5056174Y-14078204D01*
X5054346Y-14092478D01*
X5054346Y-14106906D01*
X5056174Y-14121231D01*
X5059730Y-14135150D01*
X5065064Y-14148562D01*
X5067655Y-14153997D01*
X5068874Y-14172844D01*
X5071465Y-14185798D01*
X5075682Y-14198295D01*
X5081524Y-14210131D01*
X5088839Y-14221104D01*
X5090566Y-14223085D01*
X5092496Y-14226387D01*
X5093055Y-14230197D01*
X5092192Y-14233956D01*
X5089956Y-14237106D01*
X5086705Y-14239189D01*
X5082946Y-14239900D01*
X5000853Y-14239900D01*
X4997094Y-14239189D01*
X4993843Y-14237106D01*
X4991608Y-14233956D01*
X4990744Y-14230197D01*
X4991303Y-14226387D01*
X4993233Y-14223085D01*
X4994960Y-14221104D01*
X5002276Y-14210131D01*
X5008118Y-14198295D01*
X5012334Y-14185798D01*
X5013807Y-14178534D01*
X4965700Y-14178534D01*
X4965700Y-14217599D01*
X4964836Y-14221713D01*
X4962347Y-14225117D01*
X4958740Y-14227251D01*
X4958740Y-14229740D01*
X4957978Y-14233651D01*
X4955794Y-14236954D01*
X4952492Y-14239138D01*
X4948580Y-14239900D01*
X4881219Y-14239900D01*
X4877308Y-14239138D01*
X4874006Y-14236954D01*
X4871821Y-14233651D01*
X4871059Y-14229740D01*
X4871059Y-14227251D01*
X4867402Y-14225117D01*
X4864963Y-14221713D01*
X4864100Y-14217599D01*
X4864100Y-14178534D01*
X4805934Y-14178534D01*
X4802073Y-14177772D01*
X4798771Y-14175587D01*
X4771440Y-14148257D01*
X4769256Y-14145006D01*
X4768494Y-14141196D01*
X4769205Y-14137335D01*
X4770069Y-14135150D01*
X4773625Y-14121180D01*
X4775454Y-14106906D01*
X4775454Y-14092478D01*
X4773625Y-14078153D01*
X4770069Y-14064183D01*
X4764735Y-14050822D01*
X4760823Y-14043710D01*
X4759756Y-14040764D01*
X4758334Y-14033601D01*
X4754118Y-14021104D01*
X4748276Y-14009268D01*
X4740960Y-13998295D01*
X4732223Y-13988338D01*
X4722317Y-13979651D01*
X4711344Y-13972336D01*
X4699508Y-13966494D01*
X4687011Y-13962227D01*
X4674057Y-13959687D01*
X4660900Y-13958824D01*
X4647742Y-13959687D01*
X4634788Y-13962227D01*
X4622292Y-13966494D01*
X4610455Y-13972336D01*
X4599482Y-13979651D01*
X4589576Y-13988338D01*
X4580839Y-13998295D01*
X4573524Y-14009268D01*
X4567682Y-14021104D01*
X4563465Y-14033601D01*
X4562043Y-14040713D01*
X4560976Y-14043609D01*
X4557014Y-14050822D01*
X4551730Y-14064183D01*
X4548124Y-14078153D01*
X4546346Y-14092478D01*
X4546346Y-14106906D01*
X4548124Y-14121180D01*
X4551730Y-14135150D01*
X4557014Y-14148562D01*
X4559655Y-14154048D01*
X4560417Y-14166088D01*
X4559858Y-14170101D01*
X4557776Y-14173606D01*
X4554474Y-14175994D01*
X4550511Y-14176908D01*
X4546498Y-14176146D01*
X4543094Y-14173911D01*
X4517440Y-14148257D01*
X4515256Y-14145006D01*
X4514494Y-14141196D01*
X4515205Y-14137335D01*
X4516069Y-14135150D01*
X4519625Y-14121180D01*
X4521454Y-14106906D01*
X4521454Y-14092478D01*
X4519625Y-14078153D01*
X4516069Y-14064183D01*
X4510735Y-14050822D01*
X4506823Y-14043710D01*
X4505756Y-14040764D01*
X4504334Y-14033601D01*
X4500118Y-14021104D01*
X4494276Y-14009268D01*
X4486960Y-13998295D01*
X4478223Y-13988338D01*
X4468317Y-13979651D01*
X4457344Y-13972336D01*
X4445508Y-13966494D01*
X4433011Y-13962227D01*
X4420057Y-13959687D01*
X4406900Y-13958824D01*
X4393742Y-13959687D01*
X4380788Y-13962227D01*
X4368292Y-13966494D01*
X4356455Y-13972336D01*
X4345482Y-13979651D01*
X4335576Y-13988338D01*
X4326839Y-13998295D01*
X4319524Y-14009268D01*
X4313682Y-14021104D01*
X4309465Y-14033601D01*
X4308043Y-14040713D01*
X4306976Y-14043609D01*
X4303014Y-14050822D01*
X4297730Y-14064183D01*
X4294124Y-14078153D01*
X4292346Y-14092478D01*
X4292346Y-14106906D01*
X4294124Y-14121180D01*
X4297730Y-14135150D01*
X4303014Y-14148562D01*
X4305655Y-14154048D01*
X4306874Y-14172844D01*
X4309465Y-14185798D01*
X4313682Y-14198295D01*
X4319524Y-14210131D01*
X4326839Y-14221104D01*
X4335576Y-14231061D01*
X4345482Y-14239748D01*
X4356455Y-14247063D01*
X4368292Y-14252905D01*
X4380788Y-14257172D01*
X4393742Y-14259712D01*
X4406900Y-14260576D01*
X4420057Y-14259712D01*
X4433011Y-14257172D01*
X4445508Y-14252905D01*
X4457344Y-14247063D01*
X4459376Y-14245742D01*
X4462526Y-14244319D01*
X4465980Y-14244066D01*
X4469333Y-14244980D01*
X4472178Y-14246961D01*
X4627219Y-14402003D01*
X4630623Y-14405152D01*
X4634179Y-14407845D01*
X4637938Y-14410232D01*
X4641850Y-14412315D01*
X4645964Y-14413992D01*
X4650181Y-14415312D01*
X4654550Y-14416278D01*
X4658918Y-14416887D01*
X4663592Y-14417090D01*
X5254142Y-14417090D01*
X5258816Y-14416887D01*
X5263184Y-14416278D01*
X5267553Y-14415312D01*
X5271770Y-14413992D01*
X5275884Y-14412315D01*
X5279796Y-14410232D01*
X5283555Y-14407845D01*
X5287111Y-14405152D01*
X5290515Y-14402003D01*
X5666689Y-14025829D01*
X5669838Y-14022425D01*
X5672531Y-14018869D01*
X5674918Y-14015110D01*
X5677001Y-14011198D01*
X5678678Y-14007084D01*
X5679998Y-14002867D01*
X5680964Y-13998498D01*
X5681573Y-13994130D01*
X5681776Y-13989456D01*
X5681776Y-13538504D01*
X5682538Y-13534593D01*
X5684723Y-13531342D01*
X5697169Y-13518896D01*
X5700420Y-13516711D01*
X5704332Y-13515949D01*
X5708243Y-13516711D01*
X5711494Y-13518896D01*
X5713730Y-13522198D01*
X5714492Y-13526109D01*
X5714492Y-13651941D01*
X5715203Y-13658240D01*
X5717133Y-13663726D01*
X5720181Y-13668603D01*
X5724296Y-13672718D01*
X5729173Y-13675766D01*
X5734659Y-13677696D01*
X5740958Y-13678407D01*
X5917641Y-13678407D01*
X5923940Y-13677696D01*
X5929426Y-13675766D01*
X5934303Y-13672718D01*
X5938418Y-13668603D01*
X5941466Y-13663726D01*
X5943396Y-13658240D01*
X5944108Y-13651941D01*
X5944108Y-13593521D01*
X5945022Y-13589355D01*
X5947511Y-13585951D01*
X5951220Y-13583869D01*
X5955487Y-13583462D01*
X5959500Y-13584834D01*
X5962599Y-13587730D01*
X5964275Y-13591692D01*
X5964580Y-13593470D01*
X5969152Y-13607796D01*
X5975451Y-13621512D01*
X5983376Y-13634313D01*
X5992825Y-13646048D01*
X6003645Y-13656563D01*
X6015685Y-13665657D01*
X6028740Y-13673175D01*
X6042609Y-13679068D01*
X6057138Y-13683183D01*
X6072022Y-13685469D01*
X6087059Y-13685926D01*
X6102096Y-13684554D01*
X6116777Y-13681354D01*
X6131001Y-13676325D01*
X6144514Y-13669619D01*
X6157061Y-13661288D01*
X6168491Y-13651484D01*
X6178651Y-13640358D01*
X6187389Y-13628065D01*
X6194501Y-13614755D01*
X6199936Y-13600684D01*
X6200495Y-13598550D01*
X6202426Y-13594689D01*
X6205829Y-13591946D01*
X6210046Y-13590879D01*
X6214313Y-13591692D01*
X6217869Y-13594181D01*
X6220002Y-13597940D01*
X6223152Y-13607796D01*
X6229451Y-13621512D01*
X6237376Y-13634313D01*
X6246825Y-13646048D01*
X6257645Y-13656563D01*
X6269685Y-13665657D01*
X6282740Y-13673175D01*
X6296609Y-13679068D01*
X6311138Y-13683183D01*
X6326022Y-13685469D01*
X6341059Y-13685926D01*
X6356096Y-13684554D01*
X6370777Y-13681354D01*
X6385001Y-13676325D01*
X6398514Y-13669619D01*
X6411061Y-13661288D01*
X6422491Y-13651484D01*
X6432651Y-13640358D01*
X6441389Y-13628065D01*
X6448501Y-13614755D01*
X6453936Y-13600684D01*
X6457645Y-13586104D01*
X6459474Y-13571118D01*
X6459474Y-13556081D01*
X6457645Y-13541095D01*
X6453936Y-13526516D01*
X6448501Y-13512444D01*
X6441389Y-13499185D01*
X6432651Y-13486841D01*
X6422491Y-13475716D01*
X6411061Y-13465911D01*
X6398514Y-13457580D01*
X6385001Y-13450874D01*
X6370777Y-13445845D01*
X6356096Y-13442645D01*
X6341059Y-13441273D01*
X6326022Y-13441730D01*
X6311138Y-13444016D01*
X6296609Y-13448131D01*
X6282740Y-13454024D01*
X6269685Y-13461542D01*
X6257645Y-13470636D01*
X6246825Y-13481151D01*
X6237376Y-13492886D01*
X6229451Y-13505688D01*
X6223152Y-13519404D01*
X6220002Y-13529259D01*
X6217869Y-13533018D01*
X6214313Y-13535507D01*
X6210046Y-13536320D01*
X6205829Y-13535253D01*
X6202426Y-13532510D01*
X6200495Y-13528649D01*
X6199936Y-13526516D01*
X6194501Y-13512444D01*
X6187389Y-13499185D01*
X6178651Y-13486841D01*
X6168491Y-13475716D01*
X6157061Y-13465911D01*
X6144514Y-13457580D01*
X6131001Y-13450874D01*
X6116777Y-13445845D01*
X6102096Y-13442645D01*
X6087059Y-13441273D01*
X6072022Y-13441730D01*
X6057138Y-13444016D01*
X6042609Y-13448131D01*
X6028740Y-13454024D01*
X6015685Y-13461542D01*
X6003645Y-13470636D01*
X5992825Y-13481151D01*
X5983376Y-13492886D01*
X5975451Y-13505688D01*
X5969152Y-13519404D01*
X5964580Y-13533729D01*
X5964275Y-13535507D01*
X5962599Y-13539469D01*
X5959500Y-13542365D01*
X5955487Y-13543737D01*
X5951220Y-13543330D01*
X5947511Y-13541248D01*
X5945022Y-13537844D01*
X5944108Y-13533678D01*
X5944108Y-13475258D01*
X5943396Y-13468959D01*
X5941466Y-13463473D01*
X5938418Y-13458596D01*
X5934303Y-13454481D01*
X5929426Y-13451433D01*
X5923940Y-13449503D01*
X5917641Y-13448792D01*
X5791809Y-13448792D01*
X5787898Y-13448030D01*
X5784596Y-13445794D01*
X5782411Y-13442543D01*
X5781649Y-13438632D01*
X5782411Y-13434720D01*
X5784596Y-13431469D01*
X6115456Y-13100608D01*
X6118758Y-13098373D01*
X6122619Y-13097611D01*
X6599986Y-13097611D01*
X6604660Y-13097408D01*
X6609029Y-13096849D01*
X6613398Y-13095833D01*
X6617614Y-13094512D01*
X6621729Y-13092836D01*
X6625640Y-13090804D01*
X6629400Y-13088365D01*
X6632956Y-13085673D01*
X6636359Y-13082524D01*
X7560259Y-12158675D01*
X7563154Y-12156592D01*
X7566659Y-12155728D01*
X7570216Y-12156084D01*
X7581138Y-12159183D01*
X7596022Y-12161469D01*
X7611059Y-12161926D01*
X7626096Y-12160554D01*
X7640777Y-12157354D01*
X7655001Y-12152325D01*
X7668514Y-12145619D01*
X7681061Y-12137288D01*
X7692491Y-12127484D01*
X7702651Y-12116358D01*
X7711389Y-12104065D01*
X7718501Y-12090755D01*
X7723936Y-12076684D01*
X7724495Y-12074550D01*
X7726425Y-12070689D01*
X7729829Y-12067946D01*
X7734046Y-12066879D01*
X7738313Y-12067692D01*
X7741869Y-12070181D01*
X7744002Y-12073940D01*
X7747152Y-12083796D01*
X7753451Y-12097512D01*
X7761376Y-12110313D01*
X7770825Y-12122048D01*
X7781645Y-12132564D01*
X7793685Y-12141657D01*
X7806740Y-12149175D01*
X7820609Y-12155068D01*
X7835138Y-12159183D01*
X7850022Y-12161469D01*
X7865059Y-12161926D01*
X7880096Y-12160554D01*
X7894777Y-12157354D01*
X7897825Y-12156287D01*
X7901533Y-12155678D01*
X7905242Y-12156541D01*
X7908391Y-12158675D01*
X9055862Y-13306196D01*
X9059316Y-13309346D01*
X9062821Y-13312038D01*
X9066580Y-13314426D01*
X9070543Y-13316457D01*
X9074607Y-13318185D01*
X9078874Y-13319506D01*
X9083192Y-13320471D01*
X9087612Y-13321030D01*
X9092234Y-13321233D01*
X9391446Y-13321233D01*
X9395307Y-13321995D01*
X9398609Y-13324230D01*
X9412427Y-13337997D01*
X9414611Y-13341299D01*
X9415373Y-13345210D01*
X9414611Y-13349071D01*
X9412427Y-13352373D01*
X9409125Y-13354608D01*
X9405213Y-13355370D01*
X8018830Y-13355370D01*
X8014208Y-13355574D01*
X8009788Y-13356132D01*
X8005470Y-13357098D01*
X8001203Y-13358418D01*
X7997139Y-13360146D01*
X7993176Y-13362178D01*
X7989417Y-13364565D01*
X7985912Y-13367257D01*
X7982458Y-13370407D01*
X7908391Y-13444524D01*
X7905242Y-13446658D01*
X7901533Y-13447522D01*
X7897825Y-13446912D01*
X7894777Y-13445845D01*
X7880096Y-13442645D01*
X7865059Y-13441273D01*
X7850022Y-13441730D01*
X7835138Y-13444016D01*
X7820609Y-13448131D01*
X7806740Y-13454024D01*
X7793685Y-13461542D01*
X7781645Y-13470636D01*
X7770825Y-13481151D01*
X7761376Y-13492886D01*
X7753451Y-13505688D01*
X7747152Y-13519404D01*
X7744002Y-13529259D01*
X7741869Y-13533018D01*
X7738313Y-13535507D01*
X7734046Y-13536320D01*
X7729829Y-13535253D01*
X7726425Y-13532510D01*
X7724495Y-13528649D01*
X7723936Y-13526516D01*
X7718501Y-13512444D01*
X7711389Y-13499185D01*
X7702651Y-13486841D01*
X7692491Y-13475716D01*
X7681061Y-13465911D01*
X7668514Y-13457580D01*
X7655001Y-13450874D01*
X7640777Y-13445845D01*
X7626096Y-13442645D01*
X7611059Y-13441273D01*
X7596022Y-13441730D01*
X7581138Y-13444016D01*
X7566609Y-13448131D01*
X7552740Y-13454024D01*
X7539685Y-13461542D01*
X7527645Y-13470636D01*
X7516825Y-13481151D01*
X7507376Y-13492886D01*
X7499451Y-13505688D01*
X7493152Y-13519404D01*
X7490002Y-13529259D01*
X7487869Y-13533018D01*
X7484313Y-13535507D01*
X7480046Y-13536320D01*
X7475829Y-13535253D01*
X7472425Y-13532510D01*
X7470495Y-13528649D01*
X7469936Y-13526516D01*
X7464501Y-13512444D01*
X7457389Y-13499185D01*
X7448651Y-13486841D01*
X7438491Y-13475716D01*
X7427061Y-13465911D01*
X7414514Y-13457580D01*
X7401001Y-13450874D01*
X7386777Y-13445845D01*
X7372096Y-13442645D01*
X7357059Y-13441273D01*
X7342022Y-13441730D01*
X7327138Y-13444016D01*
X7312609Y-13448131D01*
X7298740Y-13454024D01*
X7285685Y-13461542D01*
X7273645Y-13470636D01*
X7262825Y-13481151D01*
X7253376Y-13492886D01*
X7245451Y-13505688D01*
X7239152Y-13519404D01*
X7236002Y-13529259D01*
X7233869Y-13533018D01*
X7230313Y-13535507D01*
X7226046Y-13536320D01*
X7221829Y-13535253D01*
X7218425Y-13532510D01*
X7216495Y-13528649D01*
X7215936Y-13526516D01*
X7210501Y-13512444D01*
X7203389Y-13499185D01*
X7194651Y-13486841D01*
X7184491Y-13475716D01*
X7173061Y-13465911D01*
X7160514Y-13457580D01*
X7147001Y-13450874D01*
X7132777Y-13445845D01*
X7118096Y-13442645D01*
X7103059Y-13441273D01*
X7088022Y-13441730D01*
X7073138Y-13444016D01*
X7058609Y-13448131D01*
X7044740Y-13454024D01*
X7031685Y-13461542D01*
X7019645Y-13470636D01*
X7008825Y-13481151D01*
X6999376Y-13492886D01*
X6991451Y-13505688D01*
X6985152Y-13519404D01*
X6982002Y-13529259D01*
X6979869Y-13533018D01*
X6976313Y-13535507D01*
X6972046Y-13536320D01*
X6967829Y-13535253D01*
X6964425Y-13532510D01*
X6962495Y-13528649D01*
X6961936Y-13526516D01*
X6956501Y-13512444D01*
X6949389Y-13499185D01*
X6940651Y-13486841D01*
X6930491Y-13475716D01*
X6919061Y-13465911D01*
X6906514Y-13457580D01*
X6893001Y-13450874D01*
X6878777Y-13445845D01*
X6864096Y-13442645D01*
X6849059Y-13441273D01*
X6834022Y-13441730D01*
X6819138Y-13444016D01*
X6804609Y-13448131D01*
X6790740Y-13454024D01*
X6777685Y-13461542D01*
X6765645Y-13470636D01*
X6754825Y-13481151D01*
X6745376Y-13492886D01*
X6737451Y-13505688D01*
X6731152Y-13519404D01*
X6726580Y-13533729D01*
X6723837Y-13548563D01*
X6722872Y-13563600D01*
X6723837Y-13578636D01*
X6726580Y-13593470D01*
X6731152Y-13607796D01*
X6737451Y-13621512D01*
X6745376Y-13634313D01*
X6754825Y-13646048D01*
X6765645Y-13656563D01*
X6769404Y-13659408D01*
X6772148Y-13662558D01*
X6773418Y-13666571D01*
X6772909Y-13670737D01*
X6770827Y-13674344D01*
X6767423Y-13676782D01*
X6763308Y-13677646D01*
X6673443Y-13677646D01*
X6669430Y-13676833D01*
X6666077Y-13674496D01*
X6663893Y-13671042D01*
X6663283Y-13666978D01*
X6664299Y-13663015D01*
X6666788Y-13659764D01*
X6676491Y-13651484D01*
X6686651Y-13640358D01*
X6695389Y-13628065D01*
X6700672Y-13618210D01*
X6645909Y-13618210D01*
X6645909Y-13676528D01*
X6645351Y-13679881D01*
X6643725Y-13682827D01*
X6641185Y-13685113D01*
X6634886Y-13689584D01*
X6631482Y-13692733D01*
X6188608Y-14135557D01*
X6185763Y-14137589D01*
X6182410Y-14138503D01*
X6178905Y-14138249D01*
X6168491Y-14135557D01*
X6154064Y-14133728D01*
X6139535Y-14133728D01*
X6125108Y-14135557D01*
X6110986Y-14139163D01*
X6097473Y-14144548D01*
X6084722Y-14151559D01*
X6072936Y-14160093D01*
X6062319Y-14170050D01*
X6053023Y-14181277D01*
X6045250Y-14193570D01*
X6039053Y-14206728D01*
X6034532Y-14220596D01*
X6031839Y-14234871D01*
X6030925Y-14249400D01*
X6031839Y-14263928D01*
X6034532Y-14278203D01*
X6039053Y-14292072D01*
X6045250Y-14305229D01*
X6053023Y-14317522D01*
X6062319Y-14328749D01*
X6072936Y-14338706D01*
X6084722Y-14347240D01*
X6097473Y-14354251D01*
X6110986Y-14359636D01*
X6125108Y-14363242D01*
X6139535Y-14365071D01*
X6154064Y-14365071D01*
X6168491Y-14363242D01*
X6182614Y-14359636D01*
X6196126Y-14354251D01*
X6208877Y-14347240D01*
X6220663Y-14338706D01*
X6231280Y-14328749D01*
X6240576Y-14317522D01*
X6248349Y-14305229D01*
X6254546Y-14292072D01*
X6259068Y-14278203D01*
X6261760Y-14263928D01*
X6262674Y-14249400D01*
X6261760Y-14234871D01*
X6259068Y-14220596D01*
X6258153Y-14217853D01*
X6257696Y-14214195D01*
X6258560Y-14210588D01*
X6260642Y-14207540D01*
X6279946Y-14188236D01*
X6283350Y-14186001D01*
X6287312Y-14185239D01*
X6291224Y-14186103D01*
X6294526Y-14188440D01*
X6296660Y-14191843D01*
X6297320Y-14195806D01*
X6296761Y-14198041D01*
X6349441Y-14198041D01*
X6349441Y-14145209D01*
X6345123Y-14145209D01*
X6341211Y-14143380D01*
X6338366Y-14140129D01*
X6337147Y-14135963D01*
X6337808Y-14131696D01*
X6340144Y-14128089D01*
X6685737Y-13782446D01*
X6689039Y-13780262D01*
X6692900Y-13779500D01*
X7275423Y-13779500D01*
X7279284Y-13780262D01*
X7282586Y-13782446D01*
X7284821Y-13785748D01*
X7285583Y-13789660D01*
X7284821Y-13793520D01*
X7282586Y-13796822D01*
X6058408Y-15021001D01*
X6055258Y-15024455D01*
X6052566Y-15027960D01*
X6050178Y-15031719D01*
X6048095Y-15035682D01*
X6046470Y-15039695D01*
X6045504Y-15042946D01*
X6043422Y-15046706D01*
X6039967Y-15049296D01*
X6035751Y-15050211D01*
X5894578Y-15050211D01*
X5888228Y-15050922D01*
X5882792Y-15052801D01*
X5877864Y-15055900D01*
X5873800Y-15059964D01*
X5870702Y-15064892D01*
X5868822Y-15070328D01*
X5868111Y-15076678D01*
X5868111Y-15225522D01*
X5868822Y-15231872D01*
X5870702Y-15237307D01*
X5873800Y-15242235D01*
X5877864Y-15246299D01*
X5882792Y-15249398D01*
X5888228Y-15251277D01*
X5894578Y-15251988D01*
X6043422Y-15251988D01*
X6049772Y-15251277D01*
X6055207Y-15249398D01*
X6060135Y-15246299D01*
X6064199Y-15242235D01*
X6067298Y-15237307D01*
X6069177Y-15231872D01*
X6069888Y-15225522D01*
X6069888Y-15212161D01*
X6070701Y-15208300D01*
X6072886Y-15204998D01*
X6076188Y-15202763D01*
X6080048Y-15202001D01*
X6093815Y-15202001D01*
X6103061Y-15201188D01*
X6109309Y-15199512D01*
X6113018Y-15199258D01*
X6116523Y-15200274D01*
X6119469Y-15202560D01*
X6121400Y-15205710D01*
X6122111Y-15209367D01*
X6122111Y-15225522D01*
X6122822Y-15231872D01*
X6124702Y-15237307D01*
X6127800Y-15242235D01*
X6131864Y-15246299D01*
X6136792Y-15249398D01*
X6142228Y-15251277D01*
X6148578Y-15251988D01*
X6297422Y-15251988D01*
X6303772Y-15251277D01*
X6309207Y-15249398D01*
X6314135Y-15246299D01*
X6318199Y-15242235D01*
X6321298Y-15237307D01*
X6323177Y-15231872D01*
X6323888Y-15225522D01*
X6323888Y-15212161D01*
X6324701Y-15208300D01*
X6326886Y-15204998D01*
X6330188Y-15202763D01*
X6334048Y-15202001D01*
X6347815Y-15202001D01*
X6357061Y-15201188D01*
X6363309Y-15199512D01*
X6367018Y-15199258D01*
X6370523Y-15200274D01*
X6373469Y-15202560D01*
X6375400Y-15205710D01*
X6376111Y-15209367D01*
X6376111Y-15225522D01*
X6376822Y-15231872D01*
X6378702Y-15237307D01*
X6381800Y-15242235D01*
X6385864Y-15246299D01*
X6390792Y-15249398D01*
X6396228Y-15251277D01*
X6402578Y-15251988D01*
X6551422Y-15251988D01*
X6557772Y-15251277D01*
X6563207Y-15249398D01*
X6568135Y-15246299D01*
X6572199Y-15242235D01*
X6575298Y-15237307D01*
X6577177Y-15231872D01*
X6577888Y-15225522D01*
X6577888Y-15212161D01*
X6578701Y-15208300D01*
X6580886Y-15204998D01*
X6584188Y-15202763D01*
X6588048Y-15202001D01*
X6601815Y-15202001D01*
X6611061Y-15201188D01*
X6617309Y-15199512D01*
X6621018Y-15199258D01*
X6624523Y-15200274D01*
X6627469Y-15202560D01*
X6629400Y-15205710D01*
X6630111Y-15209367D01*
X6630111Y-15225522D01*
X6630822Y-15231872D01*
X6632702Y-15237307D01*
X6635800Y-15242235D01*
X6639864Y-15246299D01*
X6644792Y-15249398D01*
X6650228Y-15251277D01*
X6656578Y-15251988D01*
X6805422Y-15251988D01*
X6811772Y-15251277D01*
X6817207Y-15249398D01*
X6822135Y-15246299D01*
X6826199Y-15242235D01*
X6829298Y-15237307D01*
X6831177Y-15231872D01*
X6831888Y-15225522D01*
X6831888Y-15212161D01*
X6832701Y-15208300D01*
X6834886Y-15204998D01*
X6838188Y-15202763D01*
X6842048Y-15202001D01*
X7707528Y-15202001D01*
X7712151Y-15201798D01*
X7716570Y-15201239D01*
X7720888Y-15200274D01*
X7725156Y-15198953D01*
X7729220Y-15197226D01*
X7733182Y-15195194D01*
X7736941Y-15192806D01*
X7740446Y-15190114D01*
X7743901Y-15186964D01*
X9167164Y-13763701D01*
X9170314Y-13760246D01*
X9173006Y-13756741D01*
X9175394Y-13752982D01*
X9177426Y-13749019D01*
X9179153Y-13744956D01*
X9180474Y-13740688D01*
X9181439Y-13736370D01*
X9181998Y-13731951D01*
X9182201Y-13727328D01*
X9182201Y-13681049D01*
X9182912Y-13677341D01*
X9184843Y-13674191D01*
X9187840Y-13671956D01*
X9192514Y-13669619D01*
X9205061Y-13661288D01*
X9216491Y-13651484D01*
X9226651Y-13640358D01*
X9235389Y-13628065D01*
X9242501Y-13614755D01*
X9247936Y-13600684D01*
X9248495Y-13598550D01*
X9250426Y-13594689D01*
X9253829Y-13591946D01*
X9258046Y-13590879D01*
X9262313Y-13591692D01*
X9265869Y-13594181D01*
X9268002Y-13597940D01*
X9271152Y-13607796D01*
X9277451Y-13621512D01*
X9285376Y-13634313D01*
X9294825Y-13646048D01*
X9305645Y-13656563D01*
X9317685Y-13665657D01*
X9329318Y-13672362D01*
X9332010Y-13674598D01*
X9333788Y-13677696D01*
X9334398Y-13681151D01*
X9334398Y-14096796D01*
X9334601Y-14101419D01*
X9335160Y-14105839D01*
X9336125Y-14110157D01*
X9337446Y-14114424D01*
X9339173Y-14118488D01*
X9341205Y-14122450D01*
X9343593Y-14126210D01*
X9346285Y-14129715D01*
X9349435Y-14133169D01*
X9354972Y-14138706D01*
X9357004Y-14141551D01*
X9357918Y-14144904D01*
X9357664Y-14148358D01*
X9353854Y-14163395D01*
X9352026Y-14178381D01*
X9352026Y-14193418D01*
X9353854Y-14208404D01*
X9357563Y-14222984D01*
X9362998Y-14237055D01*
X9370110Y-14250365D01*
X9378848Y-14262658D01*
X9389008Y-14273784D01*
X9400438Y-14283588D01*
X9412986Y-14291919D01*
X9426498Y-14298625D01*
X9440722Y-14303654D01*
X9455404Y-14306854D01*
X9464598Y-14307718D01*
X9468256Y-14308785D01*
X9471253Y-14311122D01*
X9473234Y-14314373D01*
X9473793Y-14318132D01*
X9472980Y-14321840D01*
X9470847Y-14324990D01*
X9415119Y-14380718D01*
X9411817Y-14382953D01*
X9407956Y-14383715D01*
X8695232Y-14383715D01*
X8690610Y-14383918D01*
X8686190Y-14384477D01*
X8681872Y-14385442D01*
X8677605Y-14386763D01*
X8673541Y-14388490D01*
X8669578Y-14390522D01*
X8665819Y-14392910D01*
X8662314Y-14395602D01*
X8658860Y-14398751D01*
X7838694Y-15218968D01*
X7835544Y-15222372D01*
X7832852Y-15225928D01*
X7830464Y-15229687D01*
X7828381Y-15233599D01*
X7826705Y-15237713D01*
X7825384Y-15241930D01*
X7824419Y-15246299D01*
X7823809Y-15250668D01*
X7823606Y-15255341D01*
X7823606Y-15609163D01*
X7823809Y-15613837D01*
X7824419Y-15618206D01*
X7825384Y-15622574D01*
X7826705Y-15626791D01*
X7828381Y-15630906D01*
X7830464Y-15634817D01*
X7832852Y-15638576D01*
X7835544Y-15642132D01*
X7838694Y-15645536D01*
X7948675Y-15755569D01*
X7950911Y-15758820D01*
X7951673Y-15762732D01*
X7950911Y-15766643D01*
X7948675Y-15769894D01*
X7945374Y-15772130D01*
X7941513Y-15772892D01*
X7938058Y-15772892D01*
X7931759Y-15773603D01*
X7926273Y-15775533D01*
X7921396Y-15778581D01*
X7917281Y-15782696D01*
X7914233Y-15787573D01*
X7912303Y-15793059D01*
X7911592Y-15799358D01*
X7911592Y-15950641D01*
X7912303Y-15956940D01*
X7914233Y-15962426D01*
X7917281Y-15967303D01*
X7921396Y-15971418D01*
X7926273Y-15974466D01*
X7931759Y-15976396D01*
G37*
G36*
X1219504Y-15837407D02*
G01*
X1320495Y-15837407D01*
X1336192Y-15836442D01*
X1351330Y-15833699D01*
X1366012Y-15829127D01*
X1380032Y-15822777D01*
X1393240Y-15814801D01*
X1405331Y-15805302D01*
X1416202Y-15794431D01*
X1425702Y-15782340D01*
X1433677Y-15769132D01*
X1440027Y-15755112D01*
X1444599Y-15740430D01*
X1447342Y-15725292D01*
X1448308Y-15709900D01*
X1447342Y-15694507D01*
X1444599Y-15679369D01*
X1440027Y-15664688D01*
X1433677Y-15650667D01*
X1425702Y-15637459D01*
X1416202Y-15625368D01*
X1405331Y-15614497D01*
X1393240Y-15604998D01*
X1380032Y-15597022D01*
X1366012Y-15590672D01*
X1351330Y-15586100D01*
X1336192Y-15583357D01*
X1320495Y-15582392D01*
X1219504Y-15582392D01*
X1203807Y-15583357D01*
X1188669Y-15586100D01*
X1173988Y-15590672D01*
X1159967Y-15597022D01*
X1146759Y-15604998D01*
X1134668Y-15614497D01*
X1123797Y-15625368D01*
X1114298Y-15637459D01*
X1106322Y-15650667D01*
X1099972Y-15664688D01*
X1095400Y-15679369D01*
X1092657Y-15694507D01*
X1091692Y-15709900D01*
X1092657Y-15725292D01*
X1095400Y-15740430D01*
X1099972Y-15755112D01*
X1106322Y-15769132D01*
X1114298Y-15782340D01*
X1123797Y-15794431D01*
X1134668Y-15805302D01*
X1146759Y-15814801D01*
X1159967Y-15822777D01*
X1173988Y-15829127D01*
X1188669Y-15833699D01*
X1203807Y-15836442D01*
G37*
G36*
X1981504Y-15837407D02*
G01*
X2082495Y-15837407D01*
X2098192Y-15836442D01*
X2113330Y-15833699D01*
X2128012Y-15829127D01*
X2142032Y-15822777D01*
X2155240Y-15814801D01*
X2167331Y-15805302D01*
X2178202Y-15794431D01*
X2187702Y-15782340D01*
X2195677Y-15769132D01*
X2202027Y-15755112D01*
X2206599Y-15740430D01*
X2209342Y-15725292D01*
X2210308Y-15709900D01*
X2209342Y-15694507D01*
X2206599Y-15679369D01*
X2202027Y-15664688D01*
X2195677Y-15650667D01*
X2187702Y-15637459D01*
X2178202Y-15625368D01*
X2167331Y-15614497D01*
X2155240Y-15604998D01*
X2142032Y-15597022D01*
X2128012Y-15590672D01*
X2113330Y-15586100D01*
X2098192Y-15583357D01*
X2082495Y-15582392D01*
X1981504Y-15582392D01*
X1965807Y-15583357D01*
X1950669Y-15586100D01*
X1935988Y-15590672D01*
X1921967Y-15597022D01*
X1908759Y-15604998D01*
X1896668Y-15614497D01*
X1885797Y-15625368D01*
X1876298Y-15637459D01*
X1868322Y-15650667D01*
X1861972Y-15664688D01*
X1857400Y-15679369D01*
X1854657Y-15694507D01*
X1853692Y-15709900D01*
X1854657Y-15725292D01*
X1857400Y-15740430D01*
X1861972Y-15755112D01*
X1868322Y-15769132D01*
X1876298Y-15782340D01*
X1885797Y-15794431D01*
X1896668Y-15805302D01*
X1908759Y-15814801D01*
X1921967Y-15822777D01*
X1935988Y-15829127D01*
X1950669Y-15833699D01*
X1965807Y-15836442D01*
G37*
G36*
X8165592Y-15830550D02*
G01*
X8223250Y-15830550D01*
X8223250Y-15772892D01*
X8192058Y-15772892D01*
X8185759Y-15773603D01*
X8180273Y-15775533D01*
X8175396Y-15778581D01*
X8171281Y-15782696D01*
X8168233Y-15787573D01*
X8166303Y-15793059D01*
X8165592Y-15799358D01*
G37*
G36*
X8312150Y-15830550D02*
G01*
X8369808Y-15830550D01*
X8369808Y-15799358D01*
X8369096Y-15793059D01*
X8367166Y-15787573D01*
X8364118Y-15782696D01*
X8360003Y-15778581D01*
X8355126Y-15775533D01*
X8349640Y-15773603D01*
X8343341Y-15772892D01*
X8312150Y-15772892D01*
G37*
G36*
X6148578Y-15759988D02*
G01*
X6297422Y-15759988D01*
X6303772Y-15759277D01*
X6309207Y-15757398D01*
X6314135Y-15754299D01*
X6318199Y-15750235D01*
X6321298Y-15745307D01*
X6323177Y-15739872D01*
X6323888Y-15733522D01*
X6323888Y-15584678D01*
X6323177Y-15578328D01*
X6321298Y-15572892D01*
X6318199Y-15567964D01*
X6314135Y-15563900D01*
X6309207Y-15560801D01*
X6303772Y-15558922D01*
X6297422Y-15558211D01*
X6148578Y-15558211D01*
X6142228Y-15558922D01*
X6136792Y-15560801D01*
X6131864Y-15563900D01*
X6127800Y-15567964D01*
X6124702Y-15572892D01*
X6122822Y-15578328D01*
X6122111Y-15584678D01*
X6122111Y-15733522D01*
X6122822Y-15739872D01*
X6124702Y-15745307D01*
X6127800Y-15750235D01*
X6131864Y-15754299D01*
X6136792Y-15757398D01*
X6142228Y-15759277D01*
G37*
G36*
X6656578Y-15759988D02*
G01*
X6805422Y-15759988D01*
X6811772Y-15759277D01*
X6817207Y-15757398D01*
X6822135Y-15754299D01*
X6826199Y-15750235D01*
X6829298Y-15745307D01*
X6831177Y-15739872D01*
X6831888Y-15733522D01*
X6831888Y-15584678D01*
X6831177Y-15578328D01*
X6829298Y-15572892D01*
X6826199Y-15567964D01*
X6822135Y-15563900D01*
X6817207Y-15560801D01*
X6811772Y-15558922D01*
X6805422Y-15558211D01*
X6656578Y-15558211D01*
X6650228Y-15558922D01*
X6644792Y-15560801D01*
X6639864Y-15563900D01*
X6635800Y-15567964D01*
X6632702Y-15572892D01*
X6630822Y-15578328D01*
X6630111Y-15584678D01*
X6630111Y-15733522D01*
X6630822Y-15739872D01*
X6632702Y-15745307D01*
X6635800Y-15750235D01*
X6639864Y-15754299D01*
X6644792Y-15757398D01*
X6650228Y-15759277D01*
G37*
G36*
X6402578Y-15759988D02*
G01*
X6551422Y-15759988D01*
X6557772Y-15759277D01*
X6563207Y-15757398D01*
X6568135Y-15754299D01*
X6572199Y-15750235D01*
X6575298Y-15745307D01*
X6577177Y-15739872D01*
X6577888Y-15733522D01*
X6577888Y-15584678D01*
X6577177Y-15578328D01*
X6575298Y-15572892D01*
X6572199Y-15567964D01*
X6568135Y-15563900D01*
X6563207Y-15560801D01*
X6557772Y-15558922D01*
X6551422Y-15558211D01*
X6402578Y-15558211D01*
X6396228Y-15558922D01*
X6390792Y-15560801D01*
X6385864Y-15563900D01*
X6381800Y-15567964D01*
X6378702Y-15572892D01*
X6376822Y-15578328D01*
X6376111Y-15584678D01*
X6376111Y-15733522D01*
X6376822Y-15739872D01*
X6378702Y-15745307D01*
X6381800Y-15750235D01*
X6385864Y-15754299D01*
X6390792Y-15757398D01*
X6396228Y-15759277D01*
G37*
G36*
X5894578Y-15759988D02*
G01*
X6043422Y-15759988D01*
X6049772Y-15759277D01*
X6055207Y-15757398D01*
X6060135Y-15754299D01*
X6064199Y-15750235D01*
X6067298Y-15745307D01*
X6069177Y-15739872D01*
X6069888Y-15733522D01*
X6069888Y-15584678D01*
X6069177Y-15578328D01*
X6067298Y-15572892D01*
X6064199Y-15567964D01*
X6060135Y-15563900D01*
X6055207Y-15560801D01*
X6049772Y-15558922D01*
X6043422Y-15558211D01*
X5894578Y-15558211D01*
X5888228Y-15558922D01*
X5882792Y-15560801D01*
X5877864Y-15563900D01*
X5873800Y-15567964D01*
X5870702Y-15572892D01*
X5868822Y-15578328D01*
X5868111Y-15584678D01*
X5868111Y-15733522D01*
X5868822Y-15739872D01*
X5870702Y-15745307D01*
X5873800Y-15750235D01*
X5877864Y-15754299D01*
X5882792Y-15757398D01*
X5888228Y-15759277D01*
G37*
G36*
X6520840Y-15505988D02*
G01*
X6551422Y-15505988D01*
X6557772Y-15505277D01*
X6563207Y-15503398D01*
X6568135Y-15500299D01*
X6572199Y-15496235D01*
X6575298Y-15491307D01*
X6577177Y-15485872D01*
X6577888Y-15479522D01*
X6577888Y-15448940D01*
X6520840Y-15448940D01*
G37*
G36*
X6148578Y-15505988D02*
G01*
X6179159Y-15505988D01*
X6179159Y-15448940D01*
X6122111Y-15448940D01*
X6122111Y-15479522D01*
X6122822Y-15485872D01*
X6124702Y-15491307D01*
X6127800Y-15496235D01*
X6131864Y-15500299D01*
X6136792Y-15503398D01*
X6142228Y-15505277D01*
G37*
G36*
X6266840Y-15505988D02*
G01*
X6297422Y-15505988D01*
X6303772Y-15505277D01*
X6309207Y-15503398D01*
X6314135Y-15500299D01*
X6318199Y-15496235D01*
X6321298Y-15491307D01*
X6323177Y-15485872D01*
X6323888Y-15479522D01*
X6323888Y-15448940D01*
X6266840Y-15448940D01*
G37*
G36*
X6402578Y-15505988D02*
G01*
X6433159Y-15505988D01*
X6433159Y-15448940D01*
X6376111Y-15448940D01*
X6376111Y-15479522D01*
X6376822Y-15485872D01*
X6378702Y-15491307D01*
X6381800Y-15496235D01*
X6385864Y-15500299D01*
X6390792Y-15503398D01*
X6396228Y-15505277D01*
G37*
G36*
X6656578Y-15505988D02*
G01*
X6687159Y-15505988D01*
X6687159Y-15448940D01*
X6630111Y-15448940D01*
X6630111Y-15479522D01*
X6630822Y-15485872D01*
X6632702Y-15491307D01*
X6635800Y-15496235D01*
X6639864Y-15500299D01*
X6644792Y-15503398D01*
X6650228Y-15505277D01*
G37*
G36*
X5894578Y-15505988D02*
G01*
X5925159Y-15505988D01*
X5925159Y-15448940D01*
X5868111Y-15448940D01*
X5868111Y-15479522D01*
X5868822Y-15485872D01*
X5870702Y-15491307D01*
X5873800Y-15496235D01*
X5877864Y-15500299D01*
X5882792Y-15503398D01*
X5888228Y-15505277D01*
G37*
G36*
X6012840Y-15505988D02*
G01*
X6043422Y-15505988D01*
X6049772Y-15505277D01*
X6055207Y-15503398D01*
X6060135Y-15500299D01*
X6064199Y-15496235D01*
X6067298Y-15491307D01*
X6069177Y-15485872D01*
X6069888Y-15479522D01*
X6069888Y-15448940D01*
X6012840Y-15448940D01*
G37*
G36*
X6774840Y-15505988D02*
G01*
X6805422Y-15505988D01*
X6811772Y-15505277D01*
X6817207Y-15503398D01*
X6822135Y-15500299D01*
X6826199Y-15496235D01*
X6829298Y-15491307D01*
X6831177Y-15485872D01*
X6831888Y-15479522D01*
X6831888Y-15448940D01*
X6774840Y-15448940D01*
G37*
G36*
X8299450Y-15469107D02*
G01*
X8330641Y-15469107D01*
X8336940Y-15468396D01*
X8342426Y-15466466D01*
X8347303Y-15463418D01*
X8351418Y-15459303D01*
X8354466Y-15454426D01*
X8356396Y-15448940D01*
X8357108Y-15442641D01*
X8357108Y-15411450D01*
X8299450Y-15411450D01*
G37*
G36*
X3603040Y-11666626D02*
G01*
X3618077Y-11666169D01*
X3632962Y-11663883D01*
X3647490Y-11659768D01*
X3661359Y-11653875D01*
X3674414Y-11646357D01*
X3686454Y-11637264D01*
X3697274Y-11626748D01*
X3706723Y-11615013D01*
X3714648Y-11602212D01*
X3720947Y-11588496D01*
X3725519Y-11574170D01*
X3728262Y-11559336D01*
X3729228Y-11544300D01*
X3728262Y-11529263D01*
X3725519Y-11514429D01*
X3720947Y-11500104D01*
X3714648Y-11486388D01*
X3706723Y-11473586D01*
X3697274Y-11461851D01*
X3686454Y-11451336D01*
X3674414Y-11442242D01*
X3661359Y-11434724D01*
X3647490Y-11428831D01*
X3632962Y-11424716D01*
X3618077Y-11422430D01*
X3603040Y-11421973D01*
X3588004Y-11423345D01*
X3573322Y-11426545D01*
X3559098Y-11431574D01*
X3545586Y-11438280D01*
X3533038Y-11446611D01*
X3521608Y-11456416D01*
X3511448Y-11467541D01*
X3502710Y-11479885D01*
X3495598Y-11493144D01*
X3490163Y-11507216D01*
X3486454Y-11521795D01*
X3484626Y-11536781D01*
X3484626Y-11551818D01*
X3486454Y-11566804D01*
X3490163Y-11581384D01*
X3495598Y-11595455D01*
X3502710Y-11608765D01*
X3511448Y-11621058D01*
X3521608Y-11632184D01*
X3533038Y-11641988D01*
X3545586Y-11650319D01*
X3559098Y-11657025D01*
X3573322Y-11662054D01*
X3588004Y-11665254D01*
G37*
G36*
X4703876Y-11748719D02*
G01*
X4751070Y-11748719D01*
X4751070Y-11701576D01*
X4748276Y-11703100D01*
X4743958Y-11706606D01*
X4708906Y-11741658D01*
X4705400Y-11745976D01*
G37*
G36*
X4824730Y-11748719D02*
G01*
X4871923Y-11748719D01*
X4870399Y-11745976D01*
X4866894Y-11741658D01*
X4831842Y-11706606D01*
X4827524Y-11703100D01*
X4824730Y-11701576D01*
G37*
G36*
X1170228Y-15402407D02*
G01*
X1369771Y-15402407D01*
X1389634Y-15401442D01*
X1409090Y-15398546D01*
X1428191Y-15393771D01*
X1446733Y-15387116D01*
X1464513Y-15378734D01*
X1481378Y-15368625D01*
X1497177Y-15356890D01*
X1511757Y-15343682D01*
X1524965Y-15329103D01*
X1536700Y-15313304D01*
X1546809Y-15296388D01*
X1555242Y-15278607D01*
X1561846Y-15260116D01*
X1566621Y-15241016D01*
X1569516Y-15221559D01*
X1570482Y-15201900D01*
X1569516Y-15182240D01*
X1566621Y-15162784D01*
X1561846Y-15143683D01*
X1555242Y-15125192D01*
X1546809Y-15107412D01*
X1536700Y-15090495D01*
X1524965Y-15074696D01*
X1511757Y-15060117D01*
X1497177Y-15046909D01*
X1481378Y-15035174D01*
X1464513Y-15025065D01*
X1446733Y-15016683D01*
X1428191Y-15010028D01*
X1409090Y-15005253D01*
X1389634Y-15002357D01*
X1369771Y-15001392D01*
X1170228Y-15001392D01*
X1150366Y-15002357D01*
X1130909Y-15005253D01*
X1111808Y-15010028D01*
X1093266Y-15016683D01*
X1075486Y-15025065D01*
X1058621Y-15035174D01*
X1042822Y-15046909D01*
X1028242Y-15060117D01*
X1015034Y-15074696D01*
X1003300Y-15090495D01*
X993190Y-15107412D01*
X984758Y-15125192D01*
X978153Y-15143683D01*
X973378Y-15162784D01*
X970483Y-15182240D01*
X969518Y-15201900D01*
X970483Y-15221559D01*
X973378Y-15241016D01*
X978153Y-15260116D01*
X984758Y-15278607D01*
X993190Y-15296388D01*
X1003300Y-15313304D01*
X1015034Y-15329103D01*
X1028242Y-15343682D01*
X1042822Y-15356890D01*
X1058621Y-15368625D01*
X1075486Y-15378734D01*
X1093266Y-15387116D01*
X1111808Y-15393771D01*
X1130909Y-15398546D01*
X1150366Y-15401442D01*
G37*
G36*
X1932228Y-15402407D02*
G01*
X2131771Y-15402407D01*
X2151634Y-15401442D01*
X2171090Y-15398546D01*
X2190191Y-15393771D01*
X2208733Y-15387116D01*
X2226513Y-15378734D01*
X2243378Y-15368625D01*
X2259177Y-15356890D01*
X2273757Y-15343682D01*
X2286965Y-15329103D01*
X2298700Y-15313304D01*
X2308809Y-15296388D01*
X2317242Y-15278607D01*
X2323846Y-15260116D01*
X2328621Y-15241016D01*
X2331516Y-15221559D01*
X2332482Y-15201900D01*
X2331516Y-15182240D01*
X2328621Y-15162784D01*
X2323846Y-15143683D01*
X2317242Y-15125192D01*
X2308809Y-15107412D01*
X2298700Y-15090495D01*
X2286965Y-15074696D01*
X2273757Y-15060117D01*
X2259177Y-15046909D01*
X2243378Y-15035174D01*
X2226513Y-15025065D01*
X2208733Y-15016683D01*
X2190191Y-15010028D01*
X2171090Y-15005253D01*
X2151634Y-15002357D01*
X2131771Y-15001392D01*
X1932228Y-15001392D01*
X1912366Y-15002357D01*
X1892909Y-15005253D01*
X1873808Y-15010028D01*
X1855266Y-15016683D01*
X1837486Y-15025065D01*
X1820621Y-15035174D01*
X1804822Y-15046909D01*
X1790242Y-15060117D01*
X1777034Y-15074696D01*
X1765300Y-15090495D01*
X1755190Y-15107412D01*
X1746757Y-15125192D01*
X1740154Y-15143683D01*
X1735378Y-15162784D01*
X1732483Y-15182240D01*
X1731518Y-15201900D01*
X1732483Y-15221559D01*
X1735378Y-15241016D01*
X1740154Y-15260116D01*
X1746757Y-15278607D01*
X1755190Y-15296388D01*
X1765300Y-15313304D01*
X1777034Y-15329103D01*
X1790242Y-15343682D01*
X1804822Y-15356890D01*
X1820621Y-15368625D01*
X1837486Y-15378734D01*
X1855266Y-15387116D01*
X1873808Y-15393771D01*
X1892909Y-15398546D01*
X1912366Y-15401442D01*
G37*
G36*
X6122111Y-15361259D02*
G01*
X6179159Y-15361259D01*
X6179159Y-15304211D01*
X6148578Y-15304211D01*
X6142228Y-15304922D01*
X6136792Y-15306801D01*
X6131864Y-15309900D01*
X6127800Y-15313964D01*
X6124702Y-15318892D01*
X6122822Y-15324328D01*
X6122111Y-15330678D01*
G37*
G36*
X6520840Y-15361259D02*
G01*
X6577888Y-15361259D01*
X6577888Y-15330678D01*
X6577177Y-15324328D01*
X6575298Y-15318892D01*
X6572199Y-15313964D01*
X6568135Y-15309900D01*
X6563207Y-15306801D01*
X6557772Y-15304922D01*
X6551422Y-15304211D01*
X6520840Y-15304211D01*
G37*
G36*
X6266840Y-15361259D02*
G01*
X6323888Y-15361259D01*
X6323888Y-15330678D01*
X6323177Y-15324328D01*
X6321298Y-15318892D01*
X6318199Y-15313964D01*
X6314135Y-15309900D01*
X6309207Y-15306801D01*
X6303772Y-15304922D01*
X6297422Y-15304211D01*
X6266840Y-15304211D01*
G37*
G36*
X6376111Y-15361259D02*
G01*
X6433159Y-15361259D01*
X6433159Y-15304211D01*
X6402578Y-15304211D01*
X6396228Y-15304922D01*
X6390792Y-15306801D01*
X6385864Y-15309900D01*
X6381800Y-15313964D01*
X6378702Y-15318892D01*
X6376822Y-15324328D01*
X6376111Y-15330678D01*
G37*
G36*
X6012840Y-15361259D02*
G01*
X6069888Y-15361259D01*
X6069888Y-15330678D01*
X6069177Y-15324328D01*
X6067298Y-15318892D01*
X6064199Y-15313964D01*
X6060135Y-15309900D01*
X6055207Y-15306801D01*
X6049772Y-15304922D01*
X6043422Y-15304211D01*
X6012840Y-15304211D01*
G37*
G36*
X5868111Y-15361259D02*
G01*
X5925159Y-15361259D01*
X5925159Y-15304211D01*
X5894578Y-15304211D01*
X5888228Y-15304922D01*
X5882792Y-15306801D01*
X5877864Y-15309900D01*
X5873800Y-15313964D01*
X5870702Y-15318892D01*
X5868822Y-15324328D01*
X5868111Y-15330678D01*
G37*
G36*
X6774840Y-15361259D02*
G01*
X6831888Y-15361259D01*
X6831888Y-15330678D01*
X6831177Y-15324328D01*
X6829298Y-15318892D01*
X6826199Y-15313964D01*
X6822135Y-15309900D01*
X6817207Y-15306801D01*
X6811772Y-15304922D01*
X6805422Y-15304211D01*
X6774840Y-15304211D01*
G37*
G36*
X6630111Y-15361259D02*
G01*
X6687159Y-15361259D01*
X6687159Y-15304211D01*
X6656578Y-15304211D01*
X6650228Y-15304922D01*
X6644792Y-15306801D01*
X6639864Y-15309900D01*
X6635800Y-15313964D01*
X6632702Y-15318892D01*
X6630822Y-15324328D01*
X6630111Y-15330678D01*
G37*
G36*
X8299450Y-15322550D02*
G01*
X8357108Y-15322550D01*
X8357108Y-15291358D01*
X8356396Y-15285059D01*
X8354466Y-15279573D01*
X8351418Y-15274696D01*
X8347303Y-15270581D01*
X8342426Y-15267533D01*
X8336940Y-15265603D01*
X8330641Y-15264892D01*
X8299450Y-15264892D01*
G37*
G36*
X9502902Y-11806174D02*
G01*
X9521698Y-11806174D01*
X9540443Y-11804243D01*
X9558883Y-11800484D01*
X9576866Y-11794845D01*
X9594189Y-11787378D01*
X9610648Y-11778234D01*
X9626092Y-11767515D01*
X9640366Y-11755221D01*
X9653371Y-11741607D01*
X9664852Y-11726672D01*
X9674860Y-11710720D01*
X9683140Y-11693804D01*
X9689693Y-11676126D01*
X9694367Y-11657939D01*
X9697262Y-11639296D01*
X9698177Y-11620500D01*
X9697262Y-11601704D01*
X9694367Y-11583060D01*
X9689693Y-11564874D01*
X9683140Y-11547195D01*
X9674860Y-11530279D01*
X9664852Y-11514328D01*
X9653371Y-11499392D01*
X9640366Y-11485778D01*
X9626092Y-11473484D01*
X9610648Y-11462766D01*
X9594189Y-11453622D01*
X9576866Y-11446154D01*
X9558883Y-11440515D01*
X9540443Y-11436756D01*
X9521698Y-11434826D01*
X9502902Y-11434826D01*
X9484156Y-11436756D01*
X9465716Y-11440515D01*
X9447733Y-11446154D01*
X9430410Y-11453622D01*
X9413951Y-11462766D01*
X9398508Y-11473484D01*
X9384233Y-11485778D01*
X9371228Y-11499392D01*
X9359747Y-11514328D01*
X9349740Y-11530279D01*
X9341459Y-11547195D01*
X9334906Y-11564874D01*
X9330232Y-11583060D01*
X9327337Y-11601704D01*
X9326422Y-11620500D01*
X9327337Y-11639296D01*
X9330232Y-11657939D01*
X9334906Y-11676126D01*
X9341459Y-11693804D01*
X9349740Y-11710720D01*
X9359747Y-11726672D01*
X9371228Y-11741607D01*
X9384233Y-11755221D01*
X9398508Y-11767515D01*
X9413951Y-11778234D01*
X9430410Y-11787378D01*
X9447733Y-11794845D01*
X9465716Y-11800484D01*
X9484156Y-11804243D01*
G37*
G36*
X4824730Y-11869623D02*
G01*
X4827524Y-11868099D01*
X4831842Y-11864594D01*
X4866894Y-11829542D01*
X4870399Y-11825224D01*
X4871923Y-11822480D01*
X4824730Y-11822480D01*
G37*
G36*
X4751070Y-11869623D02*
G01*
X4751070Y-11822480D01*
X4703876Y-11822480D01*
X4705400Y-11825224D01*
X4708906Y-11829542D01*
X4743958Y-11864594D01*
X4748276Y-11868099D01*
G37*
G36*
X4509109Y-11872518D02*
G01*
X4558690Y-11872518D01*
X4564227Y-11871960D01*
X4569053Y-11870486D01*
X4573524Y-11868099D01*
X4577842Y-11864594D01*
X4612894Y-11829542D01*
X4616399Y-11825224D01*
X4618786Y-11820753D01*
X4620260Y-11815927D01*
X4620818Y-11810390D01*
X4620818Y-11760809D01*
X4620260Y-11755272D01*
X4618786Y-11750446D01*
X4616399Y-11745976D01*
X4612894Y-11741658D01*
X4577842Y-11706606D01*
X4573524Y-11703100D01*
X4569053Y-11700713D01*
X4564227Y-11699240D01*
X4558690Y-11698681D01*
X4509109Y-11698681D01*
X4503572Y-11699240D01*
X4498746Y-11700713D01*
X4494276Y-11703100D01*
X4489958Y-11706606D01*
X4454906Y-11741658D01*
X4451400Y-11745976D01*
X4449013Y-11750446D01*
X4447540Y-11755272D01*
X4446981Y-11760809D01*
X4446981Y-11810390D01*
X4447540Y-11815927D01*
X4449013Y-11820753D01*
X4451400Y-11825224D01*
X4454906Y-11829542D01*
X4489958Y-11864594D01*
X4494276Y-11868099D01*
X4498746Y-11870486D01*
X4503572Y-11871960D01*
G37*
G36*
X2163368Y-12072569D02*
G01*
X2287778Y-12072569D01*
X2281275Y-12060834D01*
X2271115Y-12046254D01*
X2259482Y-12032691D01*
X2246579Y-12020448D01*
X2232507Y-12009526D01*
X2217369Y-12000128D01*
X2201367Y-11992254D01*
X2184654Y-11986056D01*
X2167382Y-11981586D01*
X2163368Y-11980976D01*
G37*
G36*
X1014221Y-12072569D02*
G01*
X1138631Y-12072569D01*
X1138631Y-11980976D01*
X1134618Y-11981586D01*
X1117346Y-11986056D01*
X1100632Y-11992254D01*
X1084630Y-12000128D01*
X1069492Y-12009526D01*
X1055420Y-12020448D01*
X1042517Y-12032691D01*
X1030884Y-12046254D01*
X1020724Y-12060834D01*
G37*
G36*
X9561576Y-15135860D02*
G01*
X9561576Y-15063724D01*
X9489440Y-15063724D01*
X9491319Y-15065959D01*
X9559340Y-15133980D01*
G37*
G36*
X9691624Y-15135860D02*
G01*
X9693859Y-15133980D01*
X9761880Y-15065959D01*
X9763760Y-15063724D01*
X9691624Y-15063724D01*
G37*
G36*
X1776222Y-12072569D02*
G01*
X1900631Y-12072569D01*
X1900631Y-11980976D01*
X1896618Y-11981586D01*
X1879346Y-11986056D01*
X1862632Y-11992254D01*
X1846630Y-12000128D01*
X1831492Y-12009526D01*
X1817420Y-12020448D01*
X1804517Y-12032691D01*
X1792884Y-12046254D01*
X1782724Y-12060834D01*
G37*
G36*
X1401368Y-12072569D02*
G01*
X1525778Y-12072569D01*
X1519275Y-12060834D01*
X1509115Y-12046254D01*
X1497482Y-12032691D01*
X1484579Y-12020448D01*
X1470507Y-12009526D01*
X1455369Y-12000128D01*
X1439367Y-11992254D01*
X1422654Y-11986056D01*
X1405382Y-11981586D01*
X1401368Y-11980976D01*
G37*
G36*
X9489440Y-14933676D02*
G01*
X9561576Y-14933676D01*
X9561576Y-14861540D01*
X9559340Y-14863419D01*
X9491319Y-14931440D01*
G37*
G36*
X9691624Y-14933676D02*
G01*
X9763760Y-14933676D01*
X9761880Y-14931440D01*
X9693859Y-14863419D01*
X9691624Y-14861540D01*
G37*
G36*
X1170228Y-14894407D02*
G01*
X1369771Y-14894407D01*
X1389634Y-14893442D01*
X1409090Y-14890546D01*
X1428191Y-14885771D01*
X1446733Y-14879116D01*
X1464513Y-14870734D01*
X1481378Y-14860625D01*
X1497177Y-14848890D01*
X1511757Y-14835682D01*
X1524965Y-14821103D01*
X1536700Y-14805304D01*
X1546809Y-14788388D01*
X1555242Y-14770607D01*
X1561846Y-14752116D01*
X1566621Y-14733016D01*
X1569516Y-14713559D01*
X1570482Y-14693900D01*
X1569516Y-14674240D01*
X1566621Y-14654784D01*
X1561846Y-14635683D01*
X1555242Y-14617192D01*
X1546809Y-14599412D01*
X1536700Y-14582495D01*
X1524965Y-14566696D01*
X1511757Y-14552117D01*
X1497177Y-14538909D01*
X1481378Y-14527174D01*
X1464513Y-14517065D01*
X1446733Y-14508683D01*
X1428191Y-14502028D01*
X1409090Y-14497253D01*
X1389634Y-14494357D01*
X1369771Y-14493392D01*
X1170228Y-14493392D01*
X1150366Y-14494357D01*
X1130909Y-14497253D01*
X1111808Y-14502028D01*
X1093266Y-14508683D01*
X1075486Y-14517065D01*
X1058621Y-14527174D01*
X1042822Y-14538909D01*
X1028242Y-14552117D01*
X1015034Y-14566696D01*
X1003300Y-14582495D01*
X993190Y-14599412D01*
X984758Y-14617192D01*
X978153Y-14635683D01*
X973378Y-14654784D01*
X970483Y-14674240D01*
X969518Y-14693900D01*
X970483Y-14713559D01*
X973378Y-14733016D01*
X978153Y-14752116D01*
X984758Y-14770607D01*
X993190Y-14788388D01*
X1003300Y-14805304D01*
X1015034Y-14821103D01*
X1028242Y-14835682D01*
X1042822Y-14848890D01*
X1058621Y-14860625D01*
X1075486Y-14870734D01*
X1093266Y-14879116D01*
X1111808Y-14885771D01*
X1130909Y-14890546D01*
X1150366Y-14893442D01*
G37*
G36*
X3914901Y-12123674D02*
G01*
X3933698Y-12123674D01*
X3952443Y-12121743D01*
X3970883Y-12117984D01*
X3988866Y-12112345D01*
X4006189Y-12104878D01*
X4022648Y-12095734D01*
X4038092Y-12085015D01*
X4052366Y-12072721D01*
X4065371Y-12059107D01*
X4076852Y-12044172D01*
X4086860Y-12028220D01*
X4095140Y-12011304D01*
X4101693Y-11993626D01*
X4106367Y-11975439D01*
X4109262Y-11956796D01*
X4110177Y-11938000D01*
X4109262Y-11919204D01*
X4106367Y-11900560D01*
X4101693Y-11882374D01*
X4095140Y-11864695D01*
X4086860Y-11847779D01*
X4076852Y-11831828D01*
X4065371Y-11816892D01*
X4052366Y-11803278D01*
X4038092Y-11790984D01*
X4022648Y-11780266D01*
X4006189Y-11771122D01*
X3988866Y-11763654D01*
X3970883Y-11758015D01*
X3952443Y-11754256D01*
X3933698Y-11752326D01*
X3914901Y-11752326D01*
X3896156Y-11754256D01*
X3877716Y-11758015D01*
X3859733Y-11763654D01*
X3842410Y-11771122D01*
X3825951Y-11780266D01*
X3810508Y-11790984D01*
X3796233Y-11803278D01*
X3783228Y-11816892D01*
X3771747Y-11831828D01*
X3761740Y-11847779D01*
X3753459Y-11864695D01*
X3746906Y-11882374D01*
X3742232Y-11900560D01*
X3739337Y-11919204D01*
X3738422Y-11938000D01*
X3739337Y-11956796D01*
X3742232Y-11975439D01*
X3746906Y-11993626D01*
X3753459Y-12011304D01*
X3761740Y-12028220D01*
X3771747Y-12044172D01*
X3783228Y-12059107D01*
X3796233Y-12072721D01*
X3810508Y-12085015D01*
X3825951Y-12095734D01*
X3842410Y-12104878D01*
X3859733Y-12112345D01*
X3877716Y-12117984D01*
X3896156Y-12121743D01*
G37*
G36*
X2163368Y-12326823D02*
G01*
X2167382Y-12326213D01*
X2184654Y-12321743D01*
X2201367Y-12315545D01*
X2217369Y-12307671D01*
X2232507Y-12298273D01*
X2246579Y-12287351D01*
X2259482Y-12275108D01*
X2271115Y-12261545D01*
X2281275Y-12246965D01*
X2287778Y-12235230D01*
X2163368Y-12235230D01*
G37*
G36*
X1138631Y-12326823D02*
G01*
X1138631Y-12235230D01*
X1014221Y-12235230D01*
X1020724Y-12246965D01*
X1030884Y-12261545D01*
X1042517Y-12275108D01*
X1055420Y-12287351D01*
X1069492Y-12298273D01*
X1084630Y-12307671D01*
X1100632Y-12315545D01*
X1117346Y-12321743D01*
X1134618Y-12326213D01*
G37*
G36*
X1900631Y-12326823D02*
G01*
X1900631Y-12235230D01*
X1776222Y-12235230D01*
X1782724Y-12246965D01*
X1792884Y-12261545D01*
X1804517Y-12275108D01*
X1817420Y-12287351D01*
X1831492Y-12298273D01*
X1846630Y-12307671D01*
X1862632Y-12315545D01*
X1879346Y-12321743D01*
X1896618Y-12326213D01*
G37*
G36*
X1401368Y-12326823D02*
G01*
X1405382Y-12326213D01*
X1422654Y-12321743D01*
X1439367Y-12315545D01*
X1455369Y-12307671D01*
X1470507Y-12298273D01*
X1484579Y-12287351D01*
X1497482Y-12275108D01*
X1509115Y-12261545D01*
X1519275Y-12246965D01*
X1525778Y-12235230D01*
X1401368Y-12235230D01*
G37*
G36*
X1105357Y-12604750D02*
G01*
X1187450Y-12604750D01*
X1187450Y-12538506D01*
X1173988Y-12542672D01*
X1159967Y-12549022D01*
X1146759Y-12556998D01*
X1134668Y-12566497D01*
X1123797Y-12577368D01*
X1114298Y-12589459D01*
X1106322Y-12602667D01*
G37*
G36*
X6452158Y-14353133D02*
G01*
X6462877Y-14347240D01*
X6474663Y-14338706D01*
X6485280Y-14328749D01*
X6494576Y-14317522D01*
X6502349Y-14305229D01*
X6504482Y-14300758D01*
X6452158Y-14300758D01*
G37*
G36*
X6349441Y-14353133D02*
G01*
X6349441Y-14300758D01*
X6297117Y-14300758D01*
X6299250Y-14305229D01*
X6307023Y-14317522D01*
X6316319Y-14328749D01*
X6326936Y-14338706D01*
X6338722Y-14347240D01*
G37*
G36*
X1352550Y-12604750D02*
G01*
X1434642Y-12604750D01*
X1433677Y-12602667D01*
X1425702Y-12589459D01*
X1416202Y-12577368D01*
X1405331Y-12566497D01*
X1393240Y-12556998D01*
X1380032Y-12549022D01*
X1366012Y-12542672D01*
X1352550Y-12538506D01*
G37*
G36*
X1219504Y-14313407D02*
G01*
X1320495Y-14313407D01*
X1336192Y-14312442D01*
X1351330Y-14309699D01*
X1366012Y-14305127D01*
X1380032Y-14298777D01*
X1393240Y-14290801D01*
X1405331Y-14281302D01*
X1416202Y-14270431D01*
X1425702Y-14258340D01*
X1433677Y-14245132D01*
X1440027Y-14231112D01*
X1444599Y-14216430D01*
X1447342Y-14201292D01*
X1448308Y-14185900D01*
X1447342Y-14170507D01*
X1444599Y-14155369D01*
X1440027Y-14140688D01*
X1433677Y-14126667D01*
X1425702Y-14113459D01*
X1416202Y-14101368D01*
X1405331Y-14090497D01*
X1393240Y-14080998D01*
X1380032Y-14073022D01*
X1366012Y-14066672D01*
X1351330Y-14062100D01*
X1336192Y-14059357D01*
X1320495Y-14058392D01*
X1219504Y-14058392D01*
X1203807Y-14059357D01*
X1188669Y-14062100D01*
X1173988Y-14066672D01*
X1159967Y-14073022D01*
X1146759Y-14080998D01*
X1134668Y-14090497D01*
X1123797Y-14101368D01*
X1114298Y-14113459D01*
X1106322Y-14126667D01*
X1099972Y-14140688D01*
X1095400Y-14155369D01*
X1092657Y-14170507D01*
X1091692Y-14185900D01*
X1092657Y-14201292D01*
X1095400Y-14216430D01*
X1099972Y-14231112D01*
X1106322Y-14245132D01*
X1114298Y-14258340D01*
X1123797Y-14270431D01*
X1134668Y-14281302D01*
X1146759Y-14290801D01*
X1159967Y-14298777D01*
X1173988Y-14305127D01*
X1188669Y-14309699D01*
X1203807Y-14312442D01*
G37*
G36*
X2114550Y-12604750D02*
G01*
X2196642Y-12604750D01*
X2195677Y-12602667D01*
X2187702Y-12589459D01*
X2178202Y-12577368D01*
X2167331Y-12566497D01*
X2155240Y-12556998D01*
X2142032Y-12549022D01*
X2128012Y-12542672D01*
X2114550Y-12538506D01*
G37*
G36*
X3644900Y-14260576D02*
G01*
X3658057Y-14259712D01*
X3671011Y-14257172D01*
X3683508Y-14252905D01*
X3695344Y-14247063D01*
X3706317Y-14239748D01*
X3716223Y-14231061D01*
X3724960Y-14221104D01*
X3732276Y-14210131D01*
X3738118Y-14198295D01*
X3742334Y-14185798D01*
X3744925Y-14172844D01*
X3745788Y-14159382D01*
X3745788Y-14060017D01*
X3744925Y-14046555D01*
X3742334Y-14033601D01*
X3738118Y-14021104D01*
X3732276Y-14009268D01*
X3724960Y-13998295D01*
X3716223Y-13988338D01*
X3706317Y-13979651D01*
X3695344Y-13972336D01*
X3683508Y-13966494D01*
X3671011Y-13962227D01*
X3658057Y-13959687D01*
X3644900Y-13958824D01*
X3631742Y-13959687D01*
X3618788Y-13962227D01*
X3606292Y-13966494D01*
X3594455Y-13972336D01*
X3583482Y-13979651D01*
X3573576Y-13988338D01*
X3564839Y-13998295D01*
X3557524Y-14009268D01*
X3551682Y-14021104D01*
X3547465Y-14033601D01*
X3544874Y-14046555D01*
X3544011Y-14060017D01*
X3544011Y-14159382D01*
X3544874Y-14172844D01*
X3547465Y-14185798D01*
X3551682Y-14198295D01*
X3557524Y-14210131D01*
X3564839Y-14221104D01*
X3573576Y-14231061D01*
X3583482Y-14239748D01*
X3594455Y-14247063D01*
X3606292Y-14252905D01*
X3618788Y-14257172D01*
X3631742Y-14259712D01*
G37*
G36*
X3390900Y-14260576D02*
G01*
X3404057Y-14259712D01*
X3417011Y-14257172D01*
X3429508Y-14252905D01*
X3441344Y-14247063D01*
X3452317Y-14239748D01*
X3462223Y-14231061D01*
X3470960Y-14221104D01*
X3478276Y-14210131D01*
X3484118Y-14198295D01*
X3488334Y-14185798D01*
X3490925Y-14172844D01*
X3491788Y-14159382D01*
X3491788Y-14060017D01*
X3490925Y-14046555D01*
X3488334Y-14033601D01*
X3484118Y-14021104D01*
X3478276Y-14009268D01*
X3470960Y-13998295D01*
X3462223Y-13988338D01*
X3452317Y-13979651D01*
X3441344Y-13972336D01*
X3429508Y-13966494D01*
X3417011Y-13962227D01*
X3404057Y-13959687D01*
X3390900Y-13958824D01*
X3377742Y-13959687D01*
X3364788Y-13962227D01*
X3352292Y-13966494D01*
X3340455Y-13972336D01*
X3329482Y-13979651D01*
X3319576Y-13988338D01*
X3310839Y-13998295D01*
X3303524Y-14009268D01*
X3297682Y-14021104D01*
X3293465Y-14033601D01*
X3290874Y-14046555D01*
X3290011Y-14060017D01*
X3290011Y-14159382D01*
X3290874Y-14172844D01*
X3293465Y-14185798D01*
X3297682Y-14198295D01*
X3303524Y-14210131D01*
X3310839Y-14221104D01*
X3319576Y-14231061D01*
X3329482Y-14239748D01*
X3340455Y-14247063D01*
X3352292Y-14252905D01*
X3364788Y-14257172D01*
X3377742Y-14259712D01*
G37*
G36*
X3898900Y-14260576D02*
G01*
X3912057Y-14259712D01*
X3925011Y-14257172D01*
X3937508Y-14252905D01*
X3949344Y-14247063D01*
X3960317Y-14239748D01*
X3970223Y-14231061D01*
X3978960Y-14221104D01*
X3986276Y-14210131D01*
X3992118Y-14198295D01*
X3996334Y-14185798D01*
X3998925Y-14172844D01*
X4000144Y-14154048D01*
X4002786Y-14148562D01*
X4008069Y-14135150D01*
X4011676Y-14121231D01*
X4013454Y-14106906D01*
X4013454Y-14092478D01*
X4011676Y-14078204D01*
X4008069Y-14064234D01*
X4002786Y-14050822D01*
X3998823Y-14043660D01*
X3997756Y-14040764D01*
X3996334Y-14033601D01*
X3992118Y-14021104D01*
X3986276Y-14009268D01*
X3978960Y-13998295D01*
X3970223Y-13988338D01*
X3960317Y-13979651D01*
X3949344Y-13972336D01*
X3937508Y-13966494D01*
X3925011Y-13962227D01*
X3912057Y-13959687D01*
X3898900Y-13958824D01*
X3885742Y-13959687D01*
X3872788Y-13962227D01*
X3860292Y-13966494D01*
X3848455Y-13972336D01*
X3837482Y-13979651D01*
X3827576Y-13988338D01*
X3818839Y-13998295D01*
X3811524Y-14009268D01*
X3805682Y-14021104D01*
X3801465Y-14033601D01*
X3799992Y-14040815D01*
X3798976Y-14043710D01*
X3795064Y-14050822D01*
X3789730Y-14064234D01*
X3786174Y-14078204D01*
X3784346Y-14092478D01*
X3784346Y-14106906D01*
X3786174Y-14121231D01*
X3789730Y-14135150D01*
X3795064Y-14148562D01*
X3797655Y-14153997D01*
X3798874Y-14172844D01*
X3801465Y-14185798D01*
X3805682Y-14198295D01*
X3811524Y-14210131D01*
X3818839Y-14221104D01*
X3827576Y-14231061D01*
X3837482Y-14239748D01*
X3848455Y-14247063D01*
X3860292Y-14252905D01*
X3872788Y-14257172D01*
X3885742Y-14259712D01*
G37*
G36*
X4152900Y-14260576D02*
G01*
X4166057Y-14259712D01*
X4179011Y-14257172D01*
X4191508Y-14252905D01*
X4203344Y-14247063D01*
X4214317Y-14239748D01*
X4224223Y-14231061D01*
X4232960Y-14221104D01*
X4240276Y-14210131D01*
X4246118Y-14198295D01*
X4250334Y-14185798D01*
X4252925Y-14172844D01*
X4254144Y-14153997D01*
X4256735Y-14148562D01*
X4262069Y-14135150D01*
X4265625Y-14121180D01*
X4267454Y-14106906D01*
X4267454Y-14092478D01*
X4265625Y-14078153D01*
X4262069Y-14064183D01*
X4256735Y-14050822D01*
X4252823Y-14043710D01*
X4251756Y-14040764D01*
X4250334Y-14033601D01*
X4246118Y-14021104D01*
X4240276Y-14009268D01*
X4232960Y-13998295D01*
X4224223Y-13988338D01*
X4214317Y-13979651D01*
X4203344Y-13972336D01*
X4191508Y-13966494D01*
X4179011Y-13962227D01*
X4166057Y-13959687D01*
X4152900Y-13958824D01*
X4139742Y-13959687D01*
X4126788Y-13962227D01*
X4114292Y-13966494D01*
X4102455Y-13972336D01*
X4091482Y-13979651D01*
X4081576Y-13988338D01*
X4072839Y-13998295D01*
X4065524Y-14009268D01*
X4059682Y-14021104D01*
X4055465Y-14033601D01*
X4054043Y-14040713D01*
X4052976Y-14043609D01*
X4049014Y-14050822D01*
X4043730Y-14064183D01*
X4040124Y-14078153D01*
X4038346Y-14092478D01*
X4038346Y-14106906D01*
X4040124Y-14121180D01*
X4043730Y-14135150D01*
X4049014Y-14148562D01*
X4051655Y-14154048D01*
X4052874Y-14172844D01*
X4055465Y-14185798D01*
X4059682Y-14198295D01*
X4065524Y-14210131D01*
X4072839Y-14221104D01*
X4081576Y-14231061D01*
X4091482Y-14239748D01*
X4102455Y-14247063D01*
X4114292Y-14252905D01*
X4126788Y-14257172D01*
X4139742Y-14259712D01*
G37*
G36*
X1867357Y-12604750D02*
G01*
X1949450Y-12604750D01*
X1949450Y-12538506D01*
X1935988Y-12542672D01*
X1921967Y-12549022D01*
X1908759Y-12556998D01*
X1896668Y-12566497D01*
X1885797Y-12577368D01*
X1876298Y-12589459D01*
X1868322Y-12602667D01*
G37*
G36*
X2676956Y-12782550D02*
G01*
X2762250Y-12782550D01*
X2762250Y-12725349D01*
X2755290Y-12725806D01*
X2742184Y-12728397D01*
X2729534Y-12732664D01*
X2717546Y-12738608D01*
X2706471Y-12746024D01*
X2696413Y-12754813D01*
X2687624Y-12764871D01*
X2680208Y-12775946D01*
G37*
G36*
X2927350Y-12782550D02*
G01*
X3012643Y-12782550D01*
X3009392Y-12775946D01*
X3001975Y-12764871D01*
X2993186Y-12754813D01*
X2983128Y-12746024D01*
X2972054Y-12738608D01*
X2960065Y-12732664D01*
X2947416Y-12728397D01*
X2934309Y-12725806D01*
X2927350Y-12725349D01*
G37*
G36*
X6452158Y-14198041D02*
G01*
X6504482Y-14198041D01*
X6502349Y-14193570D01*
X6494576Y-14181277D01*
X6485280Y-14170050D01*
X6474663Y-14160093D01*
X6462877Y-14151559D01*
X6452158Y-14145666D01*
G37*
G36*
X1187450Y-12785293D02*
G01*
X1187450Y-12719050D01*
X1105357Y-12719050D01*
X1106322Y-12721132D01*
X1114298Y-12734340D01*
X1123797Y-12746431D01*
X1134668Y-12757302D01*
X1146759Y-12766802D01*
X1159967Y-12774777D01*
X1173988Y-12781127D01*
G37*
G36*
X1352550Y-12785293D02*
G01*
X1366012Y-12781127D01*
X1380032Y-12774777D01*
X1393240Y-12766802D01*
X1405331Y-12757302D01*
X1416202Y-12746431D01*
X1425702Y-12734340D01*
X1433677Y-12721132D01*
X1434642Y-12719050D01*
X1352550Y-12719050D01*
G37*
G36*
X2114550Y-12785293D02*
G01*
X2128012Y-12781127D01*
X2142032Y-12774777D01*
X2155240Y-12766802D01*
X2167331Y-12757302D01*
X2178202Y-12746431D01*
X2187702Y-12734340D01*
X2195677Y-12721132D01*
X2196642Y-12719050D01*
X2114550Y-12719050D01*
G37*
G36*
X1949450Y-12785293D02*
G01*
X1949450Y-12719050D01*
X1867357Y-12719050D01*
X1868322Y-12721132D01*
X1876298Y-12734340D01*
X1885797Y-12746431D01*
X1896668Y-12757302D01*
X1908759Y-12766802D01*
X1921967Y-12774777D01*
X1935988Y-12781127D01*
G37*
G36*
X2927350Y-12928650D02*
G01*
X2934309Y-12928193D01*
X2947416Y-12925602D01*
X2960065Y-12921335D01*
X2972054Y-12915392D01*
X2983128Y-12907975D01*
X2993186Y-12899186D01*
X3001975Y-12889128D01*
X3009392Y-12878054D01*
X3012643Y-12871450D01*
X2927350Y-12871450D01*
G37*
G36*
X2762250Y-12928650D02*
G01*
X2762250Y-12871450D01*
X2676956Y-12871450D01*
X2680208Y-12878054D01*
X2687624Y-12889128D01*
X2696413Y-12899186D01*
X2706471Y-12907975D01*
X2717546Y-12915392D01*
X2729534Y-12921335D01*
X2742184Y-12925602D01*
X2755290Y-12928193D01*
G37*
G36*
X1219504Y-13297407D02*
G01*
X1320495Y-13297407D01*
X1336192Y-13296442D01*
X1351330Y-13293699D01*
X1366012Y-13289127D01*
X1380032Y-13282777D01*
X1393240Y-13274801D01*
X1405331Y-13265302D01*
X1416202Y-13254431D01*
X1425702Y-13242340D01*
X1433677Y-13229132D01*
X1440027Y-13215112D01*
X1444599Y-13200430D01*
X1447342Y-13185292D01*
X1448308Y-13169900D01*
X1447342Y-13154507D01*
X1444599Y-13139369D01*
X1440027Y-13124688D01*
X1433677Y-13110667D01*
X1425702Y-13097459D01*
X1416202Y-13085368D01*
X1405331Y-13074497D01*
X1393240Y-13064998D01*
X1380032Y-13057022D01*
X1366012Y-13050672D01*
X1351330Y-13046100D01*
X1336192Y-13043357D01*
X1320495Y-13042392D01*
X1219504Y-13042392D01*
X1203807Y-13043357D01*
X1188669Y-13046100D01*
X1173988Y-13050672D01*
X1159967Y-13057022D01*
X1146759Y-13064998D01*
X1134668Y-13074497D01*
X1123797Y-13085368D01*
X1114298Y-13097459D01*
X1106322Y-13110667D01*
X1099972Y-13124688D01*
X1095400Y-13139369D01*
X1092657Y-13154507D01*
X1091692Y-13169900D01*
X1092657Y-13185292D01*
X1095400Y-13200430D01*
X1099972Y-13215112D01*
X1106322Y-13229132D01*
X1114298Y-13242340D01*
X1123797Y-13254431D01*
X1134668Y-13265302D01*
X1146759Y-13274801D01*
X1159967Y-13282777D01*
X1173988Y-13289127D01*
X1188669Y-13293699D01*
X1203807Y-13296442D01*
G37*
G36*
X4965700Y-14040866D02*
G01*
X5013807Y-14040866D01*
X5012334Y-14033601D01*
X5008118Y-14021104D01*
X5002276Y-14009268D01*
X4994960Y-13998295D01*
X4986223Y-13988338D01*
X4976317Y-13979651D01*
X4965344Y-13972336D01*
X4958740Y-13969085D01*
X4958740Y-13972082D01*
X4962347Y-13974216D01*
X4964836Y-13977619D01*
X4965700Y-13981734D01*
G37*
G36*
X4815992Y-14040866D02*
G01*
X4864100Y-14040866D01*
X4864100Y-13981734D01*
X4864963Y-13977619D01*
X4867402Y-13974216D01*
X4871059Y-13972082D01*
X4871059Y-13969085D01*
X4864455Y-13972336D01*
X4853482Y-13979651D01*
X4843576Y-13988338D01*
X4834839Y-13998295D01*
X4827524Y-14009268D01*
X4821682Y-14021104D01*
X4817465Y-14033601D01*
G37*
G36*
X1401368Y-13850823D02*
G01*
X1405382Y-13850213D01*
X1422654Y-13845743D01*
X1439367Y-13839545D01*
X1455369Y-13831671D01*
X1470507Y-13822273D01*
X1484579Y-13811351D01*
X1497482Y-13799108D01*
X1509115Y-13785545D01*
X1519275Y-13770965D01*
X1525778Y-13759230D01*
X1401368Y-13759230D01*
G37*
G36*
X1900631Y-13850823D02*
G01*
X1900631Y-13759230D01*
X1776222Y-13759230D01*
X1782724Y-13770965D01*
X1792884Y-13785545D01*
X1804517Y-13799108D01*
X1817420Y-13811351D01*
X1831492Y-13822273D01*
X1846630Y-13831671D01*
X1862632Y-13839545D01*
X1879346Y-13845743D01*
X1896618Y-13850213D01*
G37*
G36*
X1138631Y-13850823D02*
G01*
X1138631Y-13759230D01*
X1014221Y-13759230D01*
X1020724Y-13770965D01*
X1030884Y-13785545D01*
X1042517Y-13799108D01*
X1055420Y-13811351D01*
X1069492Y-13822273D01*
X1084630Y-13831671D01*
X1100632Y-13839545D01*
X1117346Y-13845743D01*
X1134618Y-13850213D01*
G37*
G36*
X4533239Y-16105479D02*
G01*
X4552543Y-16105479D01*
X4571746Y-16103650D01*
X4590745Y-16099993D01*
X4609236Y-16094557D01*
X4627168Y-16087394D01*
X4644339Y-16078504D01*
X4660595Y-16068090D01*
X4675784Y-16056152D01*
X4689754Y-16042843D01*
X4702403Y-16028212D01*
X4713579Y-16012515D01*
X4723231Y-15995802D01*
X4731258Y-15978225D01*
X4737557Y-15959988D01*
X4742129Y-15941192D01*
X4744872Y-15922091D01*
X4745786Y-15902584D01*
X4745786Y-15607842D01*
X4744872Y-15588335D01*
X4742129Y-15569234D01*
X4737557Y-15550438D01*
X4731258Y-15532201D01*
X4723231Y-15514624D01*
X4713579Y-15497911D01*
X4702403Y-15482214D01*
X4689754Y-15467584D01*
X4675784Y-15454274D01*
X4660595Y-15442336D01*
X4644339Y-15431922D01*
X4627168Y-15423032D01*
X4609236Y-15415869D01*
X4590745Y-15410434D01*
X4571746Y-15406776D01*
X4552543Y-15404947D01*
X4533239Y-15404947D01*
X4514037Y-15406776D01*
X4495038Y-15410434D01*
X4476546Y-15415869D01*
X4458614Y-15423032D01*
X4441444Y-15431922D01*
X4425188Y-15442336D01*
X4409998Y-15454274D01*
X4396028Y-15467584D01*
X4383379Y-15482214D01*
X4372203Y-15497911D01*
X4362551Y-15514624D01*
X4354525Y-15532201D01*
X4348226Y-15550438D01*
X4343654Y-15569234D01*
X4340910Y-15588335D01*
X4339996Y-15607842D01*
X4339996Y-15902584D01*
X4340910Y-15922091D01*
X4343654Y-15941192D01*
X4348226Y-15959988D01*
X4354525Y-15978225D01*
X4362551Y-15995802D01*
X4372203Y-16012515D01*
X4383379Y-16028212D01*
X4396028Y-16042843D01*
X4409998Y-16056152D01*
X4425188Y-16068090D01*
X4441444Y-16078504D01*
X4458614Y-16087394D01*
X4476546Y-16094557D01*
X4495038Y-16099993D01*
X4514037Y-16103650D01*
G37*
G36*
X6481927Y-13508990D02*
G01*
X6536690Y-13508990D01*
X6536690Y-13454075D01*
X6523685Y-13461542D01*
X6511645Y-13470636D01*
X6500825Y-13481151D01*
X6491376Y-13492886D01*
X6483451Y-13505688D01*
G37*
G36*
X6645909Y-13508990D02*
G01*
X6700672Y-13508990D01*
X6695389Y-13499185D01*
X6686651Y-13486841D01*
X6676491Y-13475716D01*
X6665061Y-13465911D01*
X6652514Y-13457580D01*
X6645909Y-13454329D01*
G37*
G36*
X2163368Y-13596569D02*
G01*
X2287778Y-13596569D01*
X2281275Y-13584834D01*
X2271115Y-13570254D01*
X2259482Y-13556691D01*
X2246579Y-13544448D01*
X2232507Y-13533526D01*
X2217369Y-13524128D01*
X2201367Y-13516254D01*
X2184654Y-13510056D01*
X2167382Y-13505586D01*
X2163368Y-13504976D01*
G37*
G36*
X1776222Y-13596569D02*
G01*
X1900631Y-13596569D01*
X1900631Y-13504976D01*
X1896618Y-13505586D01*
X1879346Y-13510056D01*
X1862632Y-13516254D01*
X1846630Y-13524128D01*
X1831492Y-13533526D01*
X1817420Y-13544448D01*
X1804517Y-13556691D01*
X1792884Y-13570254D01*
X1782724Y-13584834D01*
G37*
G36*
X1014221Y-13596569D02*
G01*
X1138631Y-13596569D01*
X1138631Y-13504976D01*
X1134618Y-13505586D01*
X1117346Y-13510056D01*
X1100632Y-13516254D01*
X1084630Y-13524128D01*
X1069492Y-13533526D01*
X1055420Y-13544448D01*
X1042517Y-13556691D01*
X1030884Y-13570254D01*
X1020724Y-13584834D01*
G37*
G36*
X6536690Y-13673124D02*
G01*
X6536690Y-13618210D01*
X6481927Y-13618210D01*
X6483451Y-13621512D01*
X6491376Y-13634313D01*
X6500825Y-13646048D01*
X6511645Y-13656563D01*
X6523685Y-13665657D01*
G37*
G36*
X1401368Y-13596569D02*
G01*
X1525778Y-13596569D01*
X1519275Y-13584834D01*
X1509115Y-13570254D01*
X1497482Y-13556691D01*
X1484579Y-13544448D01*
X1470507Y-13533526D01*
X1455369Y-13524128D01*
X1439367Y-13516254D01*
X1422654Y-13510056D01*
X1405382Y-13505586D01*
X1401368Y-13504976D01*
G37*

%LPD*%
G36*
X6451752Y-15050211D02*
G01*
X6447840Y-15049398D01*
X6444589Y-15047213D01*
X6442354Y-15043912D01*
X6441592Y-15040051D01*
X6442354Y-15036139D01*
X6444589Y-15032837D01*
X7281925Y-14195501D01*
X7285685Y-14193113D01*
X7290104Y-14192554D01*
X7294372Y-14193977D01*
X7297572Y-14197076D01*
X7299147Y-14201241D01*
X7298791Y-14205712D01*
X7294575Y-14219275D01*
X7291831Y-14234210D01*
X7290917Y-14249400D01*
X7291831Y-14264589D01*
X7294575Y-14279524D01*
X7299096Y-14294053D01*
X7305344Y-14307921D01*
X7313218Y-14320926D01*
X7322566Y-14332864D01*
X7333335Y-14343634D01*
X7345273Y-14352981D01*
X7358278Y-14360855D01*
X7372146Y-14367103D01*
X7386675Y-14371624D01*
X7401610Y-14374368D01*
X7416800Y-14375282D01*
X7431989Y-14374368D01*
X7446924Y-14371624D01*
X7461453Y-14367103D01*
X7475321Y-14360855D01*
X7488326Y-14352981D01*
X7500264Y-14343634D01*
X7511034Y-14332864D01*
X7520381Y-14320926D01*
X7528255Y-14307921D01*
X7534503Y-14294053D01*
X7539024Y-14279524D01*
X7541768Y-14264589D01*
X7542682Y-14249400D01*
X7541768Y-14234210D01*
X7539024Y-14219275D01*
X7534503Y-14204746D01*
X7528255Y-14190878D01*
X7520381Y-14177873D01*
X7511034Y-14165935D01*
X7500264Y-14155166D01*
X7488326Y-14145818D01*
X7475321Y-14137944D01*
X7461453Y-14131696D01*
X7446924Y-14127175D01*
X7431989Y-14124432D01*
X7416800Y-14123517D01*
X7401610Y-14124432D01*
X7386675Y-14127175D01*
X7373112Y-14131391D01*
X7368641Y-14131747D01*
X7364475Y-14130172D01*
X7361377Y-14126972D01*
X7359954Y-14122704D01*
X7360513Y-14118285D01*
X7362901Y-14114526D01*
X7397445Y-14079982D01*
X7400696Y-14077797D01*
X7404608Y-14077035D01*
X8160562Y-14077035D01*
X8165236Y-14076832D01*
X8169605Y-14076222D01*
X8173974Y-14075257D01*
X8178190Y-14073936D01*
X8182305Y-14072260D01*
X8186216Y-14070177D01*
X8189975Y-14067790D01*
X8193531Y-14065097D01*
X8196935Y-14061948D01*
X8576259Y-13682675D01*
X8579154Y-13680592D01*
X8582660Y-13679728D01*
X8586216Y-13680084D01*
X8597138Y-13683183D01*
X8612022Y-13685469D01*
X8627059Y-13685926D01*
X8642096Y-13684554D01*
X8656777Y-13681354D01*
X8662111Y-13679474D01*
X8665972Y-13678916D01*
X8669731Y-13679830D01*
X8672880Y-13682065D01*
X8674963Y-13685367D01*
X8675674Y-13689177D01*
X8674862Y-13692987D01*
X8672677Y-13696238D01*
X8055254Y-14313662D01*
X8051901Y-14315897D01*
X8047939Y-14316659D01*
X8044027Y-14315846D01*
X8040725Y-14313560D01*
X8038592Y-14310156D01*
X8037982Y-14305737D01*
X7981137Y-14305737D01*
X7981137Y-14362582D01*
X7985556Y-14363192D01*
X7988960Y-14365325D01*
X7991246Y-14368627D01*
X7992059Y-14372539D01*
X7991297Y-14376501D01*
X7989062Y-14379854D01*
X7396937Y-14971979D01*
X7393635Y-14974163D01*
X7389774Y-14974925D01*
X6633768Y-14974925D01*
X6629095Y-14975128D01*
X6624726Y-14975738D01*
X6620357Y-14976703D01*
X6616141Y-14978024D01*
X6612026Y-14979700D01*
X6608114Y-14981783D01*
X6604355Y-14984171D01*
X6600799Y-14986863D01*
X6597396Y-14990013D01*
X6566408Y-15021001D01*
X6563258Y-15024404D01*
X6560566Y-15027960D01*
X6558178Y-15031719D01*
X6556095Y-15035631D01*
X6554470Y-15039644D01*
X6553454Y-15042946D01*
X6551371Y-15046706D01*
X6547967Y-15049296D01*
X6543751Y-15050211D01*
G37*

%LPC*%
G36*
X7981137Y-14193062D02*
G01*
X8037220Y-14193062D01*
X8036255Y-14190878D01*
X8028381Y-14177873D01*
X8019034Y-14165935D01*
X8008264Y-14155166D01*
X7996326Y-14145818D01*
X7983321Y-14137944D01*
X7981137Y-14136979D01*
G37*
G36*
X7812379Y-14193062D02*
G01*
X7868462Y-14193062D01*
X7868462Y-14136979D01*
X7866278Y-14137944D01*
X7853273Y-14145818D01*
X7841335Y-14155166D01*
X7830566Y-14165935D01*
X7821218Y-14177873D01*
X7813344Y-14190878D01*
G37*
G36*
X7868462Y-14361820D02*
G01*
X7868462Y-14305737D01*
X7812379Y-14305737D01*
X7813344Y-14307921D01*
X7821218Y-14320926D01*
X7830566Y-14332864D01*
X7841335Y-14343634D01*
X7853273Y-14352981D01*
X7866278Y-14360855D01*
G37*

%LPD*%
D11*
X9131300Y-13563600D02*
G01*
X9131300Y-13727531D01*
X7707731Y-15151100D01*
X6731000Y-15151100D01*
X6477000Y-15151100D02*
G01*
X6602247Y-15151100D01*
X8877300Y-13563600D02*
G01*
X7415047Y-15025852D01*
X6633540Y-15025852D01*
X6602247Y-15057145D01*
X6602247Y-15151100D01*
X6223000Y-15151100D02*
G01*
X6348247Y-15151100D01*
X8623300Y-13563600D02*
G01*
X8160791Y-14026108D01*
X7379309Y-14026108D01*
X6348247Y-15057170D01*
X6348247Y-15151100D01*
X5969000Y-15151100D02*
G01*
X6094247Y-15151100D01*
X8369300Y-13563600D02*
G01*
X8128990Y-13803909D01*
X7347508Y-13803909D01*
X6094247Y-15057170D01*
X6094247Y-15151100D01*
X8521700Y-15367000D02*
G01*
X8635441Y-15367000D01*
X8509000Y-15367000D02*
G01*
X8521700Y-15367000D01*
X8521700Y-15875000D02*
G01*
X8521700Y-15367000D01*
X9118600Y-14998700D02*
G01*
X9003741Y-14998700D01*
X8635441Y-15367000D01*
X2866593Y-13287502D02*
G01*
X2844800Y-13265708D01*
X2844800Y-13081000D01*
X5168900Y-13287502D02*
G01*
X2866593Y-13287502D01*
X2032000Y-14185900D02*
G01*
X2076297Y-14185900D01*
X2866593Y-13395604D01*
X2866593Y-13287502D01*
X6591300Y-12039600D02*
G01*
X5343397Y-13287502D01*
X5168900Y-13287502D01*
X5168900Y-13287502D02*
G01*
X5168900Y-14099692D01*
X5168900Y-14109700D02*
G01*
X5168900Y-14099692D01*
X8127441Y-15367000D02*
G01*
X8127441Y-15253385D01*
X8760891Y-14619935D01*
X9354413Y-14619935D01*
X9703815Y-14270532D01*
X9703815Y-13557427D01*
X9416719Y-13270331D01*
X9092031Y-13270331D01*
X7861300Y-12039600D01*
X8001000Y-15367000D02*
G01*
X8127441Y-15367000D01*
X8013700Y-15875000D02*
G01*
X8013700Y-15748558D01*
X7861300Y-13563600D02*
G01*
X8018627Y-13406272D01*
X9446158Y-13406272D01*
X9628504Y-13588619D01*
X9628504Y-14239341D01*
X9433229Y-14434616D01*
X8695029Y-14434616D01*
X7874533Y-15255112D01*
X7874533Y-15609392D01*
X8013700Y-15748558D01*
X9385300Y-13563600D02*
G01*
X9385300Y-14097000D01*
X9474200Y-14185900D01*
X3898900Y-14109700D02*
G01*
X3898900Y-14099692D01*
X4152900Y-14109700D02*
G01*
X4152874Y-14109674D01*
X4152874Y-14099667D01*
X4406900Y-14109700D02*
G01*
X4663363Y-14366163D01*
X5254370Y-14366163D01*
X5630849Y-13989685D01*
X5630849Y-13513206D01*
X6097346Y-13046710D01*
X6600215Y-13046710D01*
X6600215Y-13046684D01*
X7607300Y-12039600D01*
X4406900Y-14109700D02*
G01*
X4406874Y-14109674D01*
X4406874Y-14099667D01*
X7353300Y-12039600D02*
G01*
X7049109Y-12343790D01*
X6675704Y-12343790D01*
X5342737Y-13676756D01*
X5342737Y-14171244D01*
X5223154Y-14290827D01*
X4842027Y-14290827D01*
X4660900Y-14109700D01*
X4660900Y-14109700D02*
G01*
X4660874Y-14109674D01*
X4660874Y-14099667D01*
X2355316Y-12931622D02*
G01*
X2785846Y-13362152D01*
X2590800Y-11544300D02*
G01*
X2590800Y-12696139D01*
X2355316Y-12931622D01*
X2355316Y-12931622D02*
G01*
X2270277Y-12931622D01*
X2032000Y-13169900D01*
X6146800Y-14249400D02*
G01*
X6667627Y-13728572D01*
X7950327Y-13728572D01*
X8115300Y-13563600D01*
D12*
X4034891Y-15755213D02*
G01*
X2973577Y-14693900D01*
X2032000Y-14693900D01*
D15*
G01*
X9118600Y-14998700D03*
G36*
X9743922Y-14950109D02*
G01*
X9675190Y-14881377D01*
X9578009Y-14881377D01*
X9509277Y-14950109D01*
X9509277Y-15047290D01*
X9578009Y-15116022D01*
X9675190Y-15116022D01*
X9743922Y-15047290D01*
G37*
D16*
G01*
X8458200Y-14185900D03*
D17*
G01*
X9474200Y-14185900D03*
D18*
G01*
X6146800Y-14249400D03*
G01*
X6400800Y-14249400D03*
D19*
G01*
X7416800Y-14249400D03*
G01*
X7924800Y-14249400D03*
G36*
X4594910Y-11760327D02*
G01*
X4559172Y-11724589D01*
X4508627Y-11724589D01*
X4472889Y-11760327D01*
X4472889Y-11810872D01*
X4508627Y-11846610D01*
X4559172Y-11846610D01*
X4594910Y-11810872D01*
G37*
G36*
X4848910Y-11760327D02*
G01*
X4813172Y-11724589D01*
X4762627Y-11724589D01*
X4726889Y-11760327D01*
X4726889Y-11810872D01*
X4762627Y-11846610D01*
X4813172Y-11846610D01*
X4848910Y-11810872D01*
G37*
D16*
G01*
X4914874Y-14099667D03*
G01*
X4660874Y-14099667D03*
G01*
X4406874Y-14099667D03*
G01*
X4152874Y-14099667D03*
G01*
X3898900Y-14099692D03*
G01*
X5168900Y-14099692D03*
D20*
G01*
X5829300Y-13563600D03*
D17*
G01*
X6083300Y-13563600D03*
G01*
X6337300Y-13563600D03*
G01*
X6591300Y-13563600D03*
G01*
X6845300Y-13563600D03*
G01*
X7099300Y-13563600D03*
G01*
X7353300Y-13563600D03*
G01*
X7607300Y-13563600D03*
G01*
X7861300Y-13563600D03*
G01*
X8115300Y-13563600D03*
G01*
X8369300Y-13563600D03*
G01*
X8623300Y-13563600D03*
G01*
X5829300Y-12039600D03*
G01*
X6083300Y-12039600D03*
G01*
X6337300Y-12039600D03*
G01*
X6591300Y-12039600D03*
G01*
X6845300Y-12039600D03*
G01*
X7099300Y-12039600D03*
G01*
X7607300Y-12039600D03*
G01*
X7861300Y-12039600D03*
G01*
X8369300Y-12039600D03*
G01*
X8623300Y-12039600D03*
G01*
X8115300Y-12039600D03*
G01*
X7353300Y-12039600D03*
G01*
X8877300Y-13563600D03*
G01*
X9131300Y-13563600D03*
G01*
X9385300Y-13563600D03*
G01*
X8877300Y-12039600D03*
G01*
X9131300Y-12039600D03*
G01*
X9385300Y-12039600D03*
D16*
G01*
X2590800Y-11544300D03*
D17*
G01*
X3606800Y-11544300D03*
G36*
X6655998Y-15076098D02*
G01*
X6806001Y-15076098D01*
X6806001Y-15226101D01*
X6655998Y-15226101D01*
G37*
G36*
X6401998Y-15076098D02*
G01*
X6552001Y-15076098D01*
X6552001Y-15226101D01*
X6401998Y-15226101D01*
G37*
G36*
X6147998Y-15076098D02*
G01*
X6298001Y-15076098D01*
X6298001Y-15226101D01*
X6147998Y-15226101D01*
G37*
G36*
X5893998Y-15076098D02*
G01*
X6044001Y-15076098D01*
X6044001Y-15226101D01*
X5893998Y-15226101D01*
G37*
G36*
X5893998Y-15330098D02*
G01*
X6044001Y-15330098D01*
X6044001Y-15480101D01*
X5893998Y-15480101D01*
G37*
G36*
X6147998Y-15330098D02*
G01*
X6298001Y-15330098D01*
X6298001Y-15480101D01*
X6147998Y-15480101D01*
G37*
G36*
X6401998Y-15330098D02*
G01*
X6552001Y-15330098D01*
X6552001Y-15480101D01*
X6401998Y-15480101D01*
G37*
G36*
X6655998Y-15330098D02*
G01*
X6806001Y-15330098D01*
X6806001Y-15480101D01*
X6655998Y-15480101D01*
G37*
G36*
X5893998Y-15584098D02*
G01*
X6044001Y-15584098D01*
X6044001Y-15734101D01*
X5893998Y-15734101D01*
G37*
G36*
X6147998Y-15584098D02*
G01*
X6298001Y-15584098D01*
X6298001Y-15734101D01*
X6147998Y-15734101D01*
G37*
G36*
X6401998Y-15584098D02*
G01*
X6552001Y-15584098D01*
X6552001Y-15734101D01*
X6401998Y-15734101D01*
G37*
G36*
X6655998Y-15584098D02*
G01*
X6806001Y-15584098D01*
X6806001Y-15734101D01*
X6655998Y-15734101D01*
G37*
G36*
X8178800Y-15290800D02*
G01*
X8331200Y-15290800D01*
X8331200Y-15443200D01*
X8178800Y-15443200D01*
G37*
G36*
X8432800Y-15290800D02*
G01*
X8585200Y-15290800D01*
X8585200Y-15443200D01*
X8432800Y-15443200D01*
G37*
G36*
X7924800Y-15290800D02*
G01*
X8077200Y-15290800D01*
X8077200Y-15443200D01*
X7924800Y-15443200D01*
G37*
G36*
X8445500Y-15798800D02*
G01*
X8597900Y-15798800D01*
X8597900Y-15951200D01*
X8445500Y-15951200D01*
G37*
G36*
X8191500Y-15798800D02*
G01*
X8343900Y-15798800D01*
X8343900Y-15951200D01*
X8191500Y-15951200D01*
G37*
G36*
X7937500Y-15798800D02*
G01*
X8089900Y-15798800D01*
X8089900Y-15951200D01*
X7937500Y-15951200D01*
G37*
D13*
G01*
X2785846Y-13362152D03*
D23*
X1219200Y-14185900D02*
G01*
X1320800Y-14185900D01*
D24*
X1170000Y-13677900D02*
G01*
X1369999Y-13677900D01*
D23*
X1219200Y-13169900D02*
G01*
X1320800Y-13169900D01*
X1981200Y-14185900D02*
G01*
X2082800Y-14185900D01*
D24*
X1932000Y-13677900D02*
G01*
X2131999Y-13677900D01*
D23*
X1981200Y-13169900D02*
G01*
X2082800Y-13169900D01*
X1981200Y-12661900D02*
G01*
X2082800Y-12661900D01*
D24*
X1932000Y-12153900D02*
G01*
X2131999Y-12153900D01*
D23*
X1219200Y-12661900D02*
G01*
X1320800Y-12661900D01*
D24*
X1170000Y-12153900D02*
G01*
X1369999Y-12153900D01*
X1170000Y-14693900D02*
G01*
X1369999Y-14693900D01*
X1932000Y-14693900D02*
G01*
X2131999Y-14693900D01*
X1170000Y-15201900D02*
G01*
X1369999Y-15201900D01*
X1932000Y-15201900D02*
G01*
X2131999Y-15201900D01*
D23*
X1219200Y-15709900D02*
G01*
X1320800Y-15709900D01*
X1981200Y-15709900D02*
G01*
X2082800Y-15709900D01*
D25*
X4542891Y-15607614D02*
G01*
X4542891Y-15902812D01*
X4034891Y-15902812D02*
G01*
X4034891Y-15607614D01*
D26*
X3390900Y-14159699D02*
G01*
X3390900Y-14059700D01*
X5168900Y-14159699D02*
G01*
X5168900Y-14059700D01*
X3644900Y-14159699D02*
G01*
X3644900Y-14059700D01*
X3898900Y-14159699D02*
G01*
X3898900Y-14059700D01*
X4152900Y-14159699D02*
G01*
X4152900Y-14059700D01*
X4406900Y-14159699D02*
G01*
X4406900Y-14059700D01*
X4660900Y-14159699D02*
G01*
X4660900Y-14059700D01*
X4914900Y-14159699D02*
G01*
X4914900Y-14059700D01*
D27*
X2768600Y-12573000D02*
G01*
X2921000Y-12573000D01*
X2768600Y-12827000D02*
G01*
X2921000Y-12827000D01*
X2768600Y-13081000D02*
G01*
X2921000Y-13081000D01*
M02*
