G04 Layer: TopLayer*
G04 EasyEDA v6.4.20.6, 2021-08-10T12:41:07+02:00*
G04 b7c102a2acce44a19693fb55b2eed2e6,dded15cb907e4d9595cc142038e9c969,10*
G04 Gerber Generator version 0.2*
G04 Scale: 100 percent, Rotated: No, Reflected: No *
G04 Dimensions in millimeters *
G04 leading zeros omitted , absolute positions ,4 integer and 5 decimal *
%FSLAX45Y45*%
%MOMM*%

%ADD11C,0.5000*%
%ADD12C,2.5000*%
%ADD13C,0.6100*%
%ADD15C,2.5400*%
%ADD16C,1.7780*%
%ADD17C,1.9304*%
%ADD18C,1.8000*%
%ADD19C,2.0000*%
%ADD20R,1.7780X1.7780*%
%ADD23C,2.0320*%
%ADD24C,3.0000*%
%ADD25C,3.0480*%
%ADD26C,1.5000*%
%ADD27C,1.5240*%

%LPD*%
G36*
X753516Y-16179800D02*
G01*
X749604Y-16179038D01*
X746302Y-16176802D01*
X739546Y-16170046D01*
X737362Y-16166795D01*
X736600Y-16162883D01*
X724408Y-11534140D01*
X724408Y-11351768D01*
X725170Y-11347856D01*
X727405Y-11344605D01*
X730656Y-11342370D01*
X734568Y-11341608D01*
X816660Y-11341608D01*
X5359400Y-11366500D01*
X9844989Y-11353850D01*
X9848900Y-11354612D01*
X9852202Y-11356797D01*
X9854438Y-11360099D01*
X9855200Y-11364010D01*
X9855200Y-16169640D01*
X9854438Y-16173551D01*
X9852202Y-16176802D01*
X9848951Y-16179038D01*
X9845040Y-16179800D01*
X4765294Y-16179800D01*
X4761433Y-16179038D01*
X4758131Y-16176802D01*
X4755896Y-16173551D01*
X4755134Y-16169640D01*
X4755896Y-16165728D01*
X4758131Y-16162477D01*
X5850737Y-15069819D01*
X5854039Y-15067635D01*
X5857951Y-15066822D01*
X5861812Y-15067635D01*
X5865114Y-15069819D01*
X5867298Y-15073122D01*
X5868111Y-15076982D01*
X5868111Y-15225522D01*
X5868822Y-15231872D01*
X5870702Y-15237307D01*
X5873800Y-15242235D01*
X5877864Y-15246299D01*
X5882792Y-15249398D01*
X5888228Y-15251277D01*
X5894578Y-15251988D01*
X6043422Y-15251988D01*
X6049772Y-15251277D01*
X6055207Y-15249398D01*
X6060135Y-15246299D01*
X6064199Y-15242235D01*
X6067298Y-15237307D01*
X6069177Y-15231872D01*
X6069888Y-15225522D01*
X6069888Y-15076678D01*
X6069177Y-15070328D01*
X6067298Y-15064892D01*
X6064199Y-15059964D01*
X6060135Y-15055900D01*
X6055207Y-15052801D01*
X6049772Y-15050922D01*
X6043422Y-15050211D01*
X5894882Y-15050211D01*
X5891022Y-15049398D01*
X5887720Y-15047213D01*
X5885535Y-15043912D01*
X5884722Y-15040051D01*
X5885535Y-15036139D01*
X5887720Y-15032837D01*
X6617309Y-14303298D01*
X6620560Y-14301063D01*
X6624472Y-14300301D01*
X7295337Y-14300301D01*
X7299147Y-14301063D01*
X7302398Y-14303146D01*
X7304582Y-14306296D01*
X7305344Y-14307921D01*
X7313218Y-14320926D01*
X7322566Y-14332864D01*
X7333335Y-14343634D01*
X7345273Y-14352981D01*
X7358278Y-14360855D01*
X7372146Y-14367103D01*
X7386675Y-14371624D01*
X7401610Y-14374368D01*
X7416800Y-14375282D01*
X7431989Y-14374368D01*
X7446924Y-14371624D01*
X7461453Y-14367103D01*
X7475321Y-14360855D01*
X7488326Y-14352981D01*
X7500264Y-14343634D01*
X7511034Y-14332864D01*
X7520381Y-14320926D01*
X7528255Y-14307921D01*
X7534503Y-14294053D01*
X7539024Y-14279524D01*
X7541768Y-14264589D01*
X7542682Y-14249400D01*
X7541768Y-14234210D01*
X7539024Y-14219275D01*
X7534503Y-14204746D01*
X7528255Y-14190878D01*
X7526121Y-14187373D01*
X7524750Y-14183410D01*
X7525105Y-14179245D01*
X7527036Y-14175587D01*
X7530338Y-14172996D01*
X7534402Y-14171980D01*
X7538516Y-14172641D01*
X7542022Y-14174927D01*
X8401608Y-15034564D01*
X8405063Y-15037714D01*
X8408568Y-15040406D01*
X8412327Y-15042794D01*
X8416290Y-15044826D01*
X8420354Y-15046553D01*
X8424621Y-15047874D01*
X8428939Y-15048839D01*
X8433358Y-15049398D01*
X8437981Y-15049601D01*
X8967419Y-15049601D01*
X8971178Y-15050312D01*
X8974378Y-15052344D01*
X8976614Y-15055443D01*
X8984132Y-15071496D01*
X8992971Y-15085822D01*
X9003284Y-15099131D01*
X9015069Y-15111171D01*
X9028074Y-15121890D01*
X9042146Y-15131084D01*
X9057182Y-15138704D01*
X9072981Y-15144597D01*
X9089288Y-15148763D01*
X9105950Y-15151049D01*
X9122816Y-15151557D01*
X9139580Y-15150134D01*
X9156141Y-15146934D01*
X9172194Y-15141905D01*
X9187637Y-15135098D01*
X9202216Y-15126716D01*
X9215780Y-15116708D01*
X9228175Y-15105329D01*
X9239250Y-15092629D01*
X9248851Y-15078760D01*
X9256877Y-15063927D01*
X9263227Y-15048331D01*
X9267799Y-15032126D01*
X9270542Y-15015514D01*
X9271508Y-14998700D01*
X9270542Y-14981885D01*
X9267799Y-14965273D01*
X9263227Y-14949068D01*
X9256877Y-14933472D01*
X9248851Y-14918639D01*
X9239250Y-14904770D01*
X9228175Y-14892070D01*
X9215780Y-14880691D01*
X9202216Y-14870684D01*
X9187637Y-14862301D01*
X9172194Y-14855494D01*
X9156141Y-14850465D01*
X9139580Y-14847265D01*
X9122816Y-14845842D01*
X9105950Y-14846350D01*
X9089288Y-14848636D01*
X9072981Y-14852802D01*
X9057182Y-14858695D01*
X9042146Y-14866315D01*
X9028074Y-14875510D01*
X9015069Y-14886228D01*
X9003284Y-14898268D01*
X8992971Y-14911578D01*
X8984132Y-14925903D01*
X8976614Y-14941956D01*
X8974378Y-14945055D01*
X8971178Y-14947087D01*
X8967419Y-14947798D01*
X8463076Y-14947798D01*
X8459165Y-14947036D01*
X8455914Y-14944801D01*
X7871409Y-14360347D01*
X7869224Y-14357045D01*
X7868462Y-14353184D01*
X7868462Y-14305737D01*
X7821015Y-14305737D01*
X7817154Y-14304975D01*
X7813852Y-14302790D01*
X7559395Y-14048333D01*
X7555992Y-14045184D01*
X7552436Y-14042491D01*
X7548676Y-14040104D01*
X7544765Y-14038021D01*
X7540650Y-14036344D01*
X7536434Y-14035024D01*
X7532065Y-14034058D01*
X7527696Y-14033449D01*
X7523022Y-14033246D01*
X5273497Y-14033246D01*
X5269433Y-14032382D01*
X5266029Y-14029944D01*
X5263896Y-14026388D01*
X5262118Y-14021104D01*
X5256276Y-14009268D01*
X5248960Y-13998295D01*
X5240223Y-13988338D01*
X5230317Y-13979651D01*
X5219344Y-13972336D01*
X5207508Y-13966494D01*
X5195011Y-13962227D01*
X5182057Y-13959687D01*
X5168900Y-13958824D01*
X5155742Y-13959687D01*
X5142788Y-13962227D01*
X5130292Y-13966494D01*
X5118455Y-13972336D01*
X5107482Y-13979651D01*
X5097576Y-13988338D01*
X5088839Y-13998295D01*
X5081524Y-14009268D01*
X5075682Y-14021104D01*
X5071465Y-14033601D01*
X5069992Y-14040815D01*
X5068976Y-14043710D01*
X5065064Y-14050822D01*
X5059730Y-14064234D01*
X5056174Y-14078204D01*
X5054346Y-14092478D01*
X5054346Y-14106906D01*
X5056174Y-14121231D01*
X5059730Y-14135150D01*
X5065064Y-14148562D01*
X5067655Y-14153997D01*
X5068874Y-14172844D01*
X5071465Y-14185798D01*
X5075682Y-14198295D01*
X5081524Y-14210131D01*
X5088839Y-14221104D01*
X5097576Y-14231061D01*
X5107482Y-14239748D01*
X5118455Y-14247063D01*
X5130292Y-14252905D01*
X5142788Y-14257172D01*
X5155742Y-14259712D01*
X5168900Y-14260576D01*
X5182057Y-14259712D01*
X5195011Y-14257172D01*
X5207508Y-14252905D01*
X5219344Y-14247063D01*
X5230317Y-14239748D01*
X5240223Y-14231061D01*
X5248960Y-14221104D01*
X5256276Y-14210131D01*
X5262118Y-14198295D01*
X5266334Y-14185798D01*
X5268925Y-14172844D01*
X5270144Y-14154048D01*
X5272786Y-14148562D01*
X5275580Y-14141500D01*
X5277764Y-14138148D01*
X5281066Y-14135862D01*
X5285028Y-14135100D01*
X6076086Y-14135100D01*
X6080252Y-14135963D01*
X6083655Y-14138452D01*
X6085789Y-14142110D01*
X6086195Y-14146326D01*
X6084925Y-14150340D01*
X6082080Y-14153438D01*
X6072936Y-14160093D01*
X6062319Y-14170050D01*
X6053023Y-14181277D01*
X6045250Y-14193570D01*
X6039053Y-14206728D01*
X6034532Y-14220596D01*
X6031839Y-14234871D01*
X6030925Y-14249400D01*
X6031839Y-14263928D01*
X6034532Y-14278203D01*
X6039053Y-14292072D01*
X6045250Y-14305229D01*
X6053023Y-14317522D01*
X6062319Y-14328749D01*
X6072936Y-14338706D01*
X6084722Y-14347240D01*
X6097473Y-14354251D01*
X6110986Y-14359636D01*
X6125108Y-14363242D01*
X6139535Y-14365071D01*
X6154064Y-14365071D01*
X6168491Y-14363242D01*
X6182614Y-14359636D01*
X6196126Y-14354251D01*
X6208877Y-14347240D01*
X6220663Y-14338706D01*
X6231280Y-14328749D01*
X6240576Y-14317522D01*
X6248349Y-14305229D01*
X6254546Y-14292072D01*
X6259068Y-14278203D01*
X6261760Y-14263928D01*
X6262674Y-14249400D01*
X6261760Y-14234871D01*
X6259068Y-14220596D01*
X6254546Y-14206728D01*
X6248349Y-14193570D01*
X6240576Y-14181277D01*
X6231280Y-14170050D01*
X6220663Y-14160093D01*
X6211519Y-14153438D01*
X6208674Y-14150340D01*
X6207404Y-14146326D01*
X6207810Y-14142110D01*
X6209944Y-14138452D01*
X6213348Y-14135963D01*
X6217513Y-14135100D01*
X6330086Y-14135100D01*
X6334252Y-14135963D01*
X6337655Y-14138452D01*
X6339789Y-14142110D01*
X6340195Y-14146326D01*
X6338925Y-14150340D01*
X6336080Y-14153438D01*
X6326936Y-14160093D01*
X6316319Y-14170050D01*
X6307023Y-14181277D01*
X6299250Y-14193570D01*
X6297117Y-14198041D01*
X6349441Y-14198041D01*
X6349441Y-14145260D01*
X6350203Y-14141348D01*
X6352438Y-14138046D01*
X6355740Y-14135862D01*
X6359601Y-14135100D01*
X6441998Y-14135100D01*
X6445859Y-14135862D01*
X6449161Y-14138046D01*
X6451396Y-14141348D01*
X6452158Y-14145260D01*
X6452158Y-14198041D01*
X6504482Y-14198041D01*
X6502349Y-14193570D01*
X6494576Y-14181277D01*
X6485280Y-14170050D01*
X6474663Y-14160093D01*
X6465519Y-14153438D01*
X6462674Y-14150340D01*
X6461404Y-14146326D01*
X6461810Y-14142110D01*
X6463944Y-14138452D01*
X6467348Y-14135963D01*
X6471513Y-14135100D01*
X7329525Y-14135100D01*
X7333589Y-14135912D01*
X7336993Y-14138351D01*
X7339126Y-14141907D01*
X7339634Y-14146072D01*
X7338466Y-14150035D01*
X7335774Y-14153235D01*
X7333335Y-14155166D01*
X7322566Y-14165935D01*
X7313218Y-14177873D01*
X7305344Y-14190878D01*
X7304582Y-14192504D01*
X7302398Y-14195653D01*
X7299147Y-14197736D01*
X7295337Y-14198498D01*
X6599377Y-14198498D01*
X6594754Y-14198701D01*
X6590334Y-14199260D01*
X6586016Y-14200225D01*
X6581749Y-14201546D01*
X6577685Y-14203273D01*
X6573723Y-14205305D01*
X6569964Y-14207693D01*
X6566458Y-14210385D01*
X6563004Y-14213535D01*
X6478828Y-14297761D01*
X6475526Y-14299996D01*
X6471615Y-14300758D01*
X6452158Y-14300758D01*
X6452158Y-14320215D01*
X6451396Y-14324126D01*
X6449161Y-14327428D01*
X4696510Y-16080028D01*
X4693259Y-16082263D01*
X4689348Y-16083026D01*
X4670958Y-16083026D01*
X4666894Y-16082162D01*
X4663490Y-16079774D01*
X4661357Y-16076168D01*
X4660798Y-16072053D01*
X4662017Y-16068040D01*
X4664659Y-16064890D01*
X4675784Y-16056152D01*
X4689754Y-16042843D01*
X4702403Y-16028212D01*
X4713579Y-16012515D01*
X4723231Y-15995802D01*
X4731258Y-15978225D01*
X4737557Y-15959988D01*
X4742129Y-15941192D01*
X4744872Y-15922091D01*
X4745786Y-15902584D01*
X4745786Y-15607842D01*
X4744872Y-15588335D01*
X4742129Y-15569234D01*
X4737557Y-15550438D01*
X4731258Y-15532201D01*
X4723231Y-15514624D01*
X4713579Y-15497911D01*
X4702403Y-15482214D01*
X4689754Y-15467584D01*
X4675784Y-15454274D01*
X4660595Y-15442336D01*
X4644339Y-15431922D01*
X4627168Y-15423032D01*
X4609236Y-15415869D01*
X4590745Y-15410434D01*
X4577943Y-15407944D01*
X4575098Y-15406979D01*
X4572660Y-15405201D01*
X3895598Y-14728139D01*
X3885590Y-14718842D01*
X3882390Y-14716150D01*
X3871518Y-14707971D01*
X3868064Y-14705634D01*
X3856431Y-14698573D01*
X3852722Y-14696592D01*
X3840479Y-14690750D01*
X3836568Y-14689175D01*
X3823766Y-14684603D01*
X3819753Y-14683384D01*
X3806545Y-14680133D01*
X3802430Y-14679371D01*
X3789019Y-14677491D01*
X3784803Y-14677085D01*
X3771188Y-14676577D01*
X2693517Y-14676577D01*
X2689656Y-14675815D01*
X2686354Y-14673630D01*
X2684170Y-14670328D01*
X2683357Y-14666417D01*
X2683357Y-13164159D01*
X2684119Y-13160400D01*
X2686202Y-13157149D01*
X2689352Y-13154913D01*
X2693111Y-13154050D01*
X2696921Y-13154609D01*
X2700223Y-13156539D01*
X2706471Y-13161975D01*
X2717546Y-13169392D01*
X2729534Y-13175335D01*
X2742184Y-13179602D01*
X2755290Y-13182193D01*
X2768955Y-13183107D01*
X2920644Y-13183107D01*
X2934309Y-13182193D01*
X2947416Y-13179602D01*
X2960065Y-13175335D01*
X2972054Y-13169392D01*
X2983128Y-13161975D01*
X2993186Y-13153186D01*
X3001975Y-13143128D01*
X3009392Y-13132054D01*
X3015335Y-13120065D01*
X3019602Y-13107416D01*
X3022193Y-13094309D01*
X3023108Y-13081000D01*
X3022193Y-13067690D01*
X3019602Y-13054584D01*
X3015335Y-13041934D01*
X3009392Y-13029946D01*
X3001975Y-13018871D01*
X2993186Y-13008813D01*
X2983128Y-13000024D01*
X2972054Y-12992608D01*
X2960065Y-12986664D01*
X2947416Y-12982397D01*
X2934309Y-12979806D01*
X2920644Y-12978892D01*
X2768955Y-12978892D01*
X2755290Y-12979806D01*
X2742184Y-12982397D01*
X2729534Y-12986664D01*
X2717546Y-12992608D01*
X2706471Y-13000024D01*
X2700223Y-13005460D01*
X2696921Y-13007390D01*
X2693111Y-13007949D01*
X2689352Y-13007086D01*
X2686202Y-13004850D01*
X2684119Y-13001599D01*
X2683357Y-12997840D01*
X2683357Y-12910159D01*
X2684119Y-12906400D01*
X2686202Y-12903149D01*
X2689352Y-12900914D01*
X2693111Y-12900050D01*
X2696921Y-12900609D01*
X2700223Y-12902539D01*
X2706471Y-12907975D01*
X2717546Y-12915392D01*
X2729534Y-12921335D01*
X2742184Y-12925602D01*
X2755290Y-12928193D01*
X2762250Y-12928650D01*
X2762250Y-12871450D01*
X2693517Y-12871450D01*
X2689656Y-12870688D01*
X2686354Y-12868452D01*
X2684170Y-12865201D01*
X2683357Y-12861290D01*
X2683357Y-12802260D01*
X2684170Y-12798399D01*
X2686354Y-12795097D01*
X2695905Y-12785547D01*
X2699207Y-12783312D01*
X2703118Y-12782550D01*
X2762250Y-12782550D01*
X2762250Y-12758674D01*
X2763012Y-12754762D01*
X2765247Y-12751460D01*
X2768498Y-12749276D01*
X2772410Y-12748514D01*
X2844546Y-12748514D01*
X2862529Y-12747599D01*
X2880106Y-12744907D01*
X2897327Y-12740436D01*
X2913684Y-12734391D01*
X2917494Y-12733782D01*
X2921304Y-12734645D01*
X2924505Y-12736830D01*
X2926588Y-12740132D01*
X2927350Y-12743942D01*
X2927350Y-12782550D01*
X3012643Y-12782550D01*
X3009392Y-12775946D01*
X3001975Y-12764871D01*
X2993186Y-12754813D01*
X2983128Y-12746024D01*
X2972054Y-12738608D01*
X2960065Y-12732664D01*
X2953512Y-12730429D01*
X2949752Y-12728194D01*
X2947314Y-12724587D01*
X2946603Y-12720320D01*
X2947771Y-12716154D01*
X2950514Y-12712801D01*
X2959100Y-12706146D01*
X2972003Y-12693904D01*
X2977997Y-12686893D01*
X2980486Y-12684810D01*
X2992983Y-12677241D01*
X3005023Y-12667843D01*
X3015843Y-12657023D01*
X3025241Y-12644983D01*
X3033166Y-12631877D01*
X3039465Y-12617907D01*
X3043986Y-12603327D01*
X3046780Y-12588290D01*
X3047695Y-12573000D01*
X3046780Y-12557709D01*
X3043986Y-12542672D01*
X3039465Y-12528092D01*
X3033166Y-12514122D01*
X3025241Y-12501016D01*
X3015843Y-12488976D01*
X3005023Y-12478156D01*
X2992983Y-12468758D01*
X2980486Y-12461189D01*
X2977997Y-12459106D01*
X2972003Y-12452096D01*
X2959100Y-12439853D01*
X2945079Y-12428982D01*
X2929991Y-12419533D01*
X2913989Y-12411710D01*
X2897327Y-12405563D01*
X2880106Y-12401092D01*
X2862529Y-12398400D01*
X2844546Y-12397486D01*
X2660446Y-12397486D01*
X2646781Y-12397994D01*
X2642616Y-12398400D01*
X2629154Y-12400280D01*
X2625039Y-12401042D01*
X2611831Y-12404293D01*
X2607818Y-12405512D01*
X2595016Y-12410084D01*
X2591155Y-12411659D01*
X2578862Y-12417501D01*
X2575204Y-12419482D01*
X2563571Y-12426543D01*
X2560066Y-12428880D01*
X2549245Y-12437059D01*
X2546045Y-12439751D01*
X2535986Y-12449048D01*
X2383891Y-12601143D01*
X2374595Y-12611150D01*
X2371953Y-12614351D01*
X2363724Y-12625222D01*
X2361387Y-12628676D01*
X2354376Y-12640310D01*
X2352344Y-12644018D01*
X2346553Y-12656261D01*
X2344928Y-12660172D01*
X2340356Y-12672974D01*
X2339187Y-12676987D01*
X2335936Y-12690195D01*
X2335123Y-12694310D01*
X2333244Y-12707772D01*
X2332888Y-12711938D01*
X2332380Y-12725552D01*
X2332380Y-14603933D01*
X2331618Y-14607743D01*
X2329484Y-14610994D01*
X2326284Y-14613229D01*
X2322474Y-14614093D01*
X2318664Y-14613432D01*
X2315311Y-14611400D01*
X2313025Y-14608251D01*
X2308809Y-14599412D01*
X2298700Y-14582495D01*
X2286965Y-14566696D01*
X2273757Y-14552117D01*
X2259177Y-14538909D01*
X2243378Y-14527174D01*
X2226513Y-14517065D01*
X2208733Y-14508683D01*
X2190191Y-14502028D01*
X2171090Y-14497253D01*
X2151634Y-14494357D01*
X2131771Y-14493392D01*
X1170228Y-14493392D01*
X1150366Y-14494357D01*
X1130909Y-14497253D01*
X1111808Y-14502028D01*
X1093266Y-14508683D01*
X1075486Y-14517065D01*
X1058621Y-14527174D01*
X1042822Y-14538909D01*
X1028242Y-14552117D01*
X1015034Y-14566696D01*
X1003300Y-14582495D01*
X993190Y-14599412D01*
X984758Y-14617192D01*
X978153Y-14635683D01*
X973378Y-14654784D01*
X970483Y-14674240D01*
X969518Y-14693900D01*
X970483Y-14713559D01*
X973378Y-14733016D01*
X978153Y-14752116D01*
X984758Y-14770607D01*
X993190Y-14788388D01*
X1003300Y-14805304D01*
X1015034Y-14821103D01*
X1028242Y-14835682D01*
X1042822Y-14848890D01*
X1058621Y-14860625D01*
X1075486Y-14870734D01*
X1093266Y-14879116D01*
X1111808Y-14885771D01*
X1130909Y-14890546D01*
X1150366Y-14893442D01*
X1170228Y-14894407D01*
X2131771Y-14894407D01*
X2151634Y-14893442D01*
X2171090Y-14890546D01*
X2190191Y-14885771D01*
X2203348Y-14881047D01*
X2207209Y-14880488D01*
X2210968Y-14881402D01*
X2214118Y-14883638D01*
X2216200Y-14886940D01*
X2216912Y-14890750D01*
X2216099Y-14894560D01*
X2213965Y-14897811D01*
X2113330Y-14998395D01*
X2110028Y-15000630D01*
X2106168Y-15001392D01*
X1170228Y-15001392D01*
X1150366Y-15002357D01*
X1130909Y-15005253D01*
X1111808Y-15010028D01*
X1093266Y-15016683D01*
X1075486Y-15025065D01*
X1058621Y-15035174D01*
X1042822Y-15046909D01*
X1028242Y-15060117D01*
X1015034Y-15074696D01*
X1003300Y-15090495D01*
X993190Y-15107412D01*
X984758Y-15125192D01*
X978153Y-15143683D01*
X973378Y-15162784D01*
X970483Y-15182240D01*
X969518Y-15201900D01*
X970483Y-15221559D01*
X973378Y-15241016D01*
X978153Y-15260116D01*
X984758Y-15278607D01*
X993190Y-15296388D01*
X1003300Y-15313304D01*
X1015034Y-15329103D01*
X1028242Y-15343682D01*
X1042822Y-15356890D01*
X1058621Y-15368625D01*
X1075486Y-15378734D01*
X1093266Y-15387116D01*
X1111808Y-15393771D01*
X1130909Y-15398546D01*
X1150366Y-15401442D01*
X1170228Y-15402407D01*
X2131771Y-15402407D01*
X2151634Y-15401442D01*
X2171090Y-15398546D01*
X2190191Y-15393771D01*
X2208733Y-15387116D01*
X2226513Y-15378734D01*
X2243378Y-15368625D01*
X2259177Y-15356890D01*
X2273757Y-15343682D01*
X2286965Y-15329103D01*
X2298700Y-15313304D01*
X2303780Y-15304820D01*
X2305304Y-15302839D01*
X2577592Y-15030551D01*
X2580894Y-15028367D01*
X2584754Y-15027605D01*
X3694480Y-15027605D01*
X3698341Y-15028367D01*
X3701643Y-15030551D01*
X4059377Y-15388285D01*
X4061612Y-15391739D01*
X4062323Y-15395803D01*
X4061358Y-15399816D01*
X4058869Y-15403118D01*
X4055313Y-15405150D01*
X4051198Y-15405607D01*
X4044543Y-15404947D01*
X4025239Y-15404947D01*
X4006037Y-15406776D01*
X3987037Y-15410434D01*
X3968546Y-15415869D01*
X3950614Y-15423032D01*
X3933444Y-15431922D01*
X3917187Y-15442336D01*
X3901998Y-15454274D01*
X3888028Y-15467584D01*
X3875379Y-15482214D01*
X3864203Y-15497911D01*
X3854551Y-15514624D01*
X3846525Y-15532201D01*
X3840226Y-15550438D01*
X3835654Y-15569234D01*
X3832910Y-15588335D01*
X3831996Y-15607842D01*
X3831996Y-15902584D01*
X3832910Y-15922091D01*
X3835654Y-15941192D01*
X3840226Y-15959988D01*
X3846525Y-15978225D01*
X3854551Y-15995802D01*
X3864203Y-16012515D01*
X3875379Y-16028212D01*
X3888028Y-16042843D01*
X3901998Y-16056152D01*
X3913124Y-16064890D01*
X3915765Y-16068040D01*
X3916984Y-16072053D01*
X3916426Y-16076168D01*
X3914292Y-16079774D01*
X3910888Y-16082162D01*
X3906824Y-16083026D01*
X2481326Y-16083026D01*
X2477414Y-16082263D01*
X2474163Y-16080028D01*
X2189073Y-15794990D01*
X2186686Y-15791230D01*
X2186178Y-15786811D01*
X2187600Y-15782544D01*
X2195677Y-15769132D01*
X2202027Y-15755112D01*
X2206599Y-15740430D01*
X2209342Y-15725292D01*
X2210308Y-15709900D01*
X2209342Y-15694507D01*
X2206599Y-15679369D01*
X2202027Y-15664688D01*
X2195677Y-15650667D01*
X2187702Y-15637459D01*
X2178202Y-15625368D01*
X2167331Y-15614497D01*
X2155240Y-15604998D01*
X2142032Y-15597022D01*
X2128012Y-15590672D01*
X2113330Y-15586100D01*
X2098192Y-15583357D01*
X2082495Y-15582392D01*
X1981504Y-15582392D01*
X1965807Y-15583357D01*
X1950669Y-15586100D01*
X1935988Y-15590672D01*
X1921967Y-15597022D01*
X1908759Y-15604998D01*
X1896668Y-15614497D01*
X1885797Y-15625368D01*
X1876298Y-15637459D01*
X1868322Y-15650667D01*
X1867255Y-15653004D01*
X1865020Y-15656153D01*
X1861769Y-15658236D01*
X1858010Y-15658998D01*
X1443990Y-15658998D01*
X1440230Y-15658236D01*
X1436979Y-15656153D01*
X1434744Y-15653004D01*
X1433677Y-15650667D01*
X1425702Y-15637459D01*
X1416202Y-15625368D01*
X1405331Y-15614497D01*
X1393240Y-15604998D01*
X1380032Y-15597022D01*
X1366012Y-15590672D01*
X1351330Y-15586100D01*
X1336192Y-15583357D01*
X1320495Y-15582392D01*
X1219504Y-15582392D01*
X1203807Y-15583357D01*
X1188669Y-15586100D01*
X1173988Y-15590672D01*
X1159967Y-15597022D01*
X1146759Y-15604998D01*
X1134668Y-15614497D01*
X1123797Y-15625368D01*
X1114298Y-15637459D01*
X1106322Y-15650667D01*
X1099972Y-15664688D01*
X1095400Y-15679369D01*
X1092657Y-15694507D01*
X1091692Y-15709900D01*
X1092657Y-15725292D01*
X1095400Y-15740430D01*
X1099972Y-15755112D01*
X1106322Y-15769132D01*
X1114298Y-15782340D01*
X1123797Y-15794431D01*
X1134668Y-15805302D01*
X1146759Y-15814801D01*
X1159967Y-15822777D01*
X1173988Y-15829127D01*
X1188669Y-15833699D01*
X1203807Y-15836442D01*
X1219504Y-15837407D01*
X1320495Y-15837407D01*
X1336192Y-15836442D01*
X1351330Y-15833699D01*
X1366012Y-15829127D01*
X1380032Y-15822777D01*
X1393240Y-15814801D01*
X1405331Y-15805302D01*
X1416202Y-15794431D01*
X1425702Y-15782340D01*
X1433677Y-15769132D01*
X1434744Y-15766796D01*
X1436979Y-15763646D01*
X1440230Y-15761563D01*
X1443990Y-15760801D01*
X1858010Y-15760801D01*
X1861769Y-15761563D01*
X1865020Y-15763646D01*
X1867255Y-15766796D01*
X1868322Y-15769132D01*
X1876298Y-15782340D01*
X1885797Y-15794431D01*
X1896668Y-15805302D01*
X1908759Y-15814801D01*
X1921967Y-15822777D01*
X1935988Y-15829127D01*
X1950669Y-15833699D01*
X1965807Y-15836442D01*
X1981504Y-15837407D01*
X2082647Y-15837407D01*
X2086864Y-15838017D01*
X2090470Y-15840354D01*
X2412542Y-16162477D01*
X2414778Y-16165728D01*
X2415540Y-16169640D01*
X2414778Y-16173551D01*
X2412542Y-16176802D01*
X2409240Y-16179038D01*
X2405380Y-16179800D01*
G37*

%LPC*%
G36*
X2590800Y-11659108D02*
G01*
X2605176Y-11658193D01*
X2619349Y-11655501D01*
X2633065Y-11651030D01*
X2646121Y-11644884D01*
X2658262Y-11637162D01*
X2669387Y-11627967D01*
X2679242Y-11617452D01*
X2687726Y-11605818D01*
X2694686Y-11593169D01*
X2699969Y-11579758D01*
X2703576Y-11565788D01*
X2705354Y-11551513D01*
X2705354Y-11537086D01*
X2703576Y-11522811D01*
X2699969Y-11508841D01*
X2694686Y-11495430D01*
X2687726Y-11482781D01*
X2679242Y-11471148D01*
X2669387Y-11460632D01*
X2658262Y-11451437D01*
X2646121Y-11443716D01*
X2633065Y-11437569D01*
X2619349Y-11433098D01*
X2605176Y-11430406D01*
X2590800Y-11429492D01*
X2576423Y-11430406D01*
X2562250Y-11433098D01*
X2548534Y-11437569D01*
X2535478Y-11443716D01*
X2523337Y-11451437D01*
X2512212Y-11460632D01*
X2502357Y-11471148D01*
X2493873Y-11482781D01*
X2486914Y-11495430D01*
X2481630Y-11508841D01*
X2478024Y-11522811D01*
X2476246Y-11537086D01*
X2476246Y-11551513D01*
X2478024Y-11565788D01*
X2481630Y-11579758D01*
X2486914Y-11593169D01*
X2493873Y-11605818D01*
X2502357Y-11617452D01*
X2512212Y-11627967D01*
X2523337Y-11637162D01*
X2535478Y-11644884D01*
X2548534Y-11651030D01*
X2562250Y-11655501D01*
X2576423Y-11658193D01*
G37*
G36*
X2657602Y-16060674D02*
G01*
X2676398Y-16060674D01*
X2695143Y-16058743D01*
X2713583Y-16054984D01*
X2731566Y-16049345D01*
X2748889Y-16041878D01*
X2765348Y-16032734D01*
X2780792Y-16022015D01*
X2795066Y-16009721D01*
X2808071Y-15996107D01*
X2819552Y-15981172D01*
X2829560Y-15965220D01*
X2837840Y-15948304D01*
X2844393Y-15930626D01*
X2849067Y-15912439D01*
X2851962Y-15893796D01*
X2852877Y-15875000D01*
X2851962Y-15856204D01*
X2849067Y-15837560D01*
X2844393Y-15819374D01*
X2837840Y-15801695D01*
X2829560Y-15784779D01*
X2819552Y-15768828D01*
X2808071Y-15753892D01*
X2795066Y-15740278D01*
X2780792Y-15727984D01*
X2765348Y-15717266D01*
X2748889Y-15708122D01*
X2731566Y-15700654D01*
X2713583Y-15695015D01*
X2695143Y-15691256D01*
X2676398Y-15689326D01*
X2657602Y-15689326D01*
X2638856Y-15691256D01*
X2620416Y-15695015D01*
X2602433Y-15700654D01*
X2585110Y-15708122D01*
X2568651Y-15717266D01*
X2553208Y-15727984D01*
X2538933Y-15740278D01*
X2525928Y-15753892D01*
X2514447Y-15768828D01*
X2504440Y-15784779D01*
X2496159Y-15801695D01*
X2489606Y-15819374D01*
X2484932Y-15837560D01*
X2482037Y-15856204D01*
X2481122Y-15875000D01*
X2482037Y-15893796D01*
X2484932Y-15912439D01*
X2489606Y-15930626D01*
X2496159Y-15948304D01*
X2504440Y-15965220D01*
X2514447Y-15981172D01*
X2525928Y-15996107D01*
X2538933Y-16009721D01*
X2553208Y-16022015D01*
X2568651Y-16032734D01*
X2585110Y-16041878D01*
X2602433Y-16049345D01*
X2620416Y-16054984D01*
X2638856Y-16058743D01*
G37*
G36*
X8192058Y-15977107D02*
G01*
X8223250Y-15977107D01*
X8223250Y-15919450D01*
X8165592Y-15919450D01*
X8165592Y-15950641D01*
X8166303Y-15956940D01*
X8168233Y-15962426D01*
X8171281Y-15967303D01*
X8175396Y-15971418D01*
X8180273Y-15974466D01*
X8185759Y-15976396D01*
G37*
G36*
X8312150Y-15977107D02*
G01*
X8343341Y-15977107D01*
X8349640Y-15976396D01*
X8355126Y-15974466D01*
X8360003Y-15971418D01*
X8364118Y-15967303D01*
X8367166Y-15962426D01*
X8369096Y-15956940D01*
X8369808Y-15950641D01*
X8369808Y-15919450D01*
X8312150Y-15919450D01*
G37*
G36*
X7938058Y-15977107D02*
G01*
X8089341Y-15977107D01*
X8095640Y-15976396D01*
X8101126Y-15974466D01*
X8106003Y-15971418D01*
X8110118Y-15967303D01*
X8113166Y-15962426D01*
X8115096Y-15956940D01*
X8115808Y-15950641D01*
X8115808Y-15799358D01*
X8115096Y-15793059D01*
X8113166Y-15787573D01*
X8110118Y-15782696D01*
X8106003Y-15778581D01*
X8101126Y-15775533D01*
X8095640Y-15773603D01*
X8089341Y-15772892D01*
X7938058Y-15772892D01*
X7931759Y-15773603D01*
X7926273Y-15775533D01*
X7921396Y-15778581D01*
X7917281Y-15782696D01*
X7914233Y-15787573D01*
X7912303Y-15793059D01*
X7911592Y-15799358D01*
X7911592Y-15950641D01*
X7912303Y-15956940D01*
X7914233Y-15962426D01*
X7917281Y-15967303D01*
X7921396Y-15971418D01*
X7926273Y-15974466D01*
X7931759Y-15976396D01*
G37*
G36*
X8446058Y-15977107D02*
G01*
X8597341Y-15977107D01*
X8603640Y-15976396D01*
X8609126Y-15974466D01*
X8614003Y-15971418D01*
X8618118Y-15967303D01*
X8621166Y-15962426D01*
X8623096Y-15956940D01*
X8623808Y-15950641D01*
X8623808Y-15799358D01*
X8623096Y-15793059D01*
X8621166Y-15787573D01*
X8618118Y-15782696D01*
X8614003Y-15778581D01*
X8609126Y-15775533D01*
X8603640Y-15773603D01*
X8597341Y-15772892D01*
X8446058Y-15772892D01*
X8439759Y-15773603D01*
X8434273Y-15775533D01*
X8429396Y-15778581D01*
X8425281Y-15782696D01*
X8422233Y-15787573D01*
X8420303Y-15793059D01*
X8419592Y-15799358D01*
X8419592Y-15950641D01*
X8420303Y-15956940D01*
X8422233Y-15962426D01*
X8425281Y-15967303D01*
X8429396Y-15971418D01*
X8434273Y-15974466D01*
X8439759Y-15976396D01*
G37*
G36*
X8165592Y-15830550D02*
G01*
X8223250Y-15830550D01*
X8223250Y-15772892D01*
X8192058Y-15772892D01*
X8185759Y-15773603D01*
X8180273Y-15775533D01*
X8175396Y-15778581D01*
X8171281Y-15782696D01*
X8168233Y-15787573D01*
X8166303Y-15793059D01*
X8165592Y-15799358D01*
G37*
G36*
X8312150Y-15830550D02*
G01*
X8369808Y-15830550D01*
X8369808Y-15799358D01*
X8369096Y-15793059D01*
X8367166Y-15787573D01*
X8364118Y-15782696D01*
X8360003Y-15778581D01*
X8355126Y-15775533D01*
X8349640Y-15773603D01*
X8343341Y-15772892D01*
X8312150Y-15772892D01*
G37*
G36*
X6148578Y-15759988D02*
G01*
X6297422Y-15759988D01*
X6303772Y-15759277D01*
X6309207Y-15757398D01*
X6314135Y-15754299D01*
X6318199Y-15750235D01*
X6321298Y-15745307D01*
X6323177Y-15739872D01*
X6323888Y-15733522D01*
X6323888Y-15584678D01*
X6323177Y-15578328D01*
X6321298Y-15572892D01*
X6318199Y-15567964D01*
X6314135Y-15563900D01*
X6309207Y-15560801D01*
X6303772Y-15558922D01*
X6297422Y-15558211D01*
X6148578Y-15558211D01*
X6142228Y-15558922D01*
X6136792Y-15560801D01*
X6131864Y-15563900D01*
X6127800Y-15567964D01*
X6124702Y-15572892D01*
X6122822Y-15578328D01*
X6122111Y-15584678D01*
X6122111Y-15733522D01*
X6122822Y-15739872D01*
X6124702Y-15745307D01*
X6127800Y-15750235D01*
X6131864Y-15754299D01*
X6136792Y-15757398D01*
X6142228Y-15759277D01*
G37*
G36*
X6656578Y-15759988D02*
G01*
X6805422Y-15759988D01*
X6811772Y-15759277D01*
X6817207Y-15757398D01*
X6822135Y-15754299D01*
X6826199Y-15750235D01*
X6829298Y-15745307D01*
X6831177Y-15739872D01*
X6831888Y-15733522D01*
X6831888Y-15584678D01*
X6831177Y-15578328D01*
X6829298Y-15572892D01*
X6826199Y-15567964D01*
X6822135Y-15563900D01*
X6817207Y-15560801D01*
X6811772Y-15558922D01*
X6805422Y-15558211D01*
X6656578Y-15558211D01*
X6650228Y-15558922D01*
X6644792Y-15560801D01*
X6639864Y-15563900D01*
X6635800Y-15567964D01*
X6632702Y-15572892D01*
X6630822Y-15578328D01*
X6630111Y-15584678D01*
X6630111Y-15733522D01*
X6630822Y-15739872D01*
X6632702Y-15745307D01*
X6635800Y-15750235D01*
X6639864Y-15754299D01*
X6644792Y-15757398D01*
X6650228Y-15759277D01*
G37*
G36*
X6402578Y-15759988D02*
G01*
X6551422Y-15759988D01*
X6557772Y-15759277D01*
X6563207Y-15757398D01*
X6568135Y-15754299D01*
X6572199Y-15750235D01*
X6575298Y-15745307D01*
X6577177Y-15739872D01*
X6577888Y-15733522D01*
X6577888Y-15584678D01*
X6577177Y-15578328D01*
X6575298Y-15572892D01*
X6572199Y-15567964D01*
X6568135Y-15563900D01*
X6563207Y-15560801D01*
X6557772Y-15558922D01*
X6551422Y-15558211D01*
X6402578Y-15558211D01*
X6396228Y-15558922D01*
X6390792Y-15560801D01*
X6385864Y-15563900D01*
X6381800Y-15567964D01*
X6378702Y-15572892D01*
X6376822Y-15578328D01*
X6376111Y-15584678D01*
X6376111Y-15733522D01*
X6376822Y-15739872D01*
X6378702Y-15745307D01*
X6381800Y-15750235D01*
X6385864Y-15754299D01*
X6390792Y-15757398D01*
X6396228Y-15759277D01*
G37*
G36*
X5894578Y-15759988D02*
G01*
X6043422Y-15759988D01*
X6049772Y-15759277D01*
X6055207Y-15757398D01*
X6060135Y-15754299D01*
X6064199Y-15750235D01*
X6067298Y-15745307D01*
X6069177Y-15739872D01*
X6069888Y-15733522D01*
X6069888Y-15584678D01*
X6069177Y-15578328D01*
X6067298Y-15572892D01*
X6064199Y-15567964D01*
X6060135Y-15563900D01*
X6055207Y-15560801D01*
X6049772Y-15558922D01*
X6043422Y-15558211D01*
X5894578Y-15558211D01*
X5888228Y-15558922D01*
X5882792Y-15560801D01*
X5877864Y-15563900D01*
X5873800Y-15567964D01*
X5870702Y-15572892D01*
X5868822Y-15578328D01*
X5868111Y-15584678D01*
X5868111Y-15733522D01*
X5868822Y-15739872D01*
X5870702Y-15745307D01*
X5873800Y-15750235D01*
X5877864Y-15754299D01*
X5882792Y-15757398D01*
X5888228Y-15759277D01*
G37*
G36*
X6520840Y-15505988D02*
G01*
X6551422Y-15505988D01*
X6557772Y-15505277D01*
X6563207Y-15503398D01*
X6568135Y-15500299D01*
X6572199Y-15496235D01*
X6575298Y-15491307D01*
X6577177Y-15485872D01*
X6577888Y-15479522D01*
X6577888Y-15448940D01*
X6520840Y-15448940D01*
G37*
G36*
X6148578Y-15505988D02*
G01*
X6179159Y-15505988D01*
X6179159Y-15448940D01*
X6122111Y-15448940D01*
X6122111Y-15479522D01*
X6122822Y-15485872D01*
X6124702Y-15491307D01*
X6127800Y-15496235D01*
X6131864Y-15500299D01*
X6136792Y-15503398D01*
X6142228Y-15505277D01*
G37*
G36*
X6266840Y-15505988D02*
G01*
X6297422Y-15505988D01*
X6303772Y-15505277D01*
X6309207Y-15503398D01*
X6314135Y-15500299D01*
X6318199Y-15496235D01*
X6321298Y-15491307D01*
X6323177Y-15485872D01*
X6323888Y-15479522D01*
X6323888Y-15448940D01*
X6266840Y-15448940D01*
G37*
G36*
X6402578Y-15505988D02*
G01*
X6433159Y-15505988D01*
X6433159Y-15448940D01*
X6376111Y-15448940D01*
X6376111Y-15479522D01*
X6376822Y-15485872D01*
X6378702Y-15491307D01*
X6381800Y-15496235D01*
X6385864Y-15500299D01*
X6390792Y-15503398D01*
X6396228Y-15505277D01*
G37*
G36*
X6012840Y-15505988D02*
G01*
X6043422Y-15505988D01*
X6049772Y-15505277D01*
X6055207Y-15503398D01*
X6060135Y-15500299D01*
X6064199Y-15496235D01*
X6067298Y-15491307D01*
X6069177Y-15485872D01*
X6069888Y-15479522D01*
X6069888Y-15448940D01*
X6012840Y-15448940D01*
G37*
G36*
X6774840Y-15505988D02*
G01*
X6805422Y-15505988D01*
X6811772Y-15505277D01*
X6817207Y-15503398D01*
X6822135Y-15500299D01*
X6826199Y-15496235D01*
X6829298Y-15491307D01*
X6831177Y-15485872D01*
X6831888Y-15479522D01*
X6831888Y-15448940D01*
X6774840Y-15448940D01*
G37*
G36*
X6656578Y-15505988D02*
G01*
X6687159Y-15505988D01*
X6687159Y-15448940D01*
X6630111Y-15448940D01*
X6630111Y-15479522D01*
X6630822Y-15485872D01*
X6632702Y-15491307D01*
X6635800Y-15496235D01*
X6639864Y-15500299D01*
X6644792Y-15503398D01*
X6650228Y-15505277D01*
G37*
G36*
X5894578Y-15505988D02*
G01*
X5925159Y-15505988D01*
X5925159Y-15448940D01*
X5868111Y-15448940D01*
X5868111Y-15479522D01*
X5868822Y-15485872D01*
X5870702Y-15491307D01*
X5873800Y-15496235D01*
X5877864Y-15500299D01*
X5882792Y-15503398D01*
X5888228Y-15505277D01*
G37*
G36*
X8179358Y-15469107D02*
G01*
X8210550Y-15469107D01*
X8210550Y-15411450D01*
X8152892Y-15411450D01*
X8152892Y-15442641D01*
X8153603Y-15448940D01*
X8155533Y-15454426D01*
X8158581Y-15459303D01*
X8162696Y-15463418D01*
X8167573Y-15466466D01*
X8173059Y-15468396D01*
G37*
G36*
X8299450Y-15469107D02*
G01*
X8330641Y-15469107D01*
X8336940Y-15468396D01*
X8342426Y-15466466D01*
X8347303Y-15463418D01*
X8351418Y-15459303D01*
X8354466Y-15454426D01*
X8356396Y-15448940D01*
X8357108Y-15442641D01*
X8357108Y-15411450D01*
X8299450Y-15411450D01*
G37*
G36*
X7925358Y-15469107D02*
G01*
X8076641Y-15469107D01*
X8082940Y-15468396D01*
X8088426Y-15466466D01*
X8093303Y-15463418D01*
X8097418Y-15459303D01*
X8100466Y-15454426D01*
X8102396Y-15448940D01*
X8103108Y-15442641D01*
X8103108Y-15291358D01*
X8102396Y-15285059D01*
X8100466Y-15279573D01*
X8097418Y-15274696D01*
X8093303Y-15270581D01*
X8088426Y-15267533D01*
X8082940Y-15265603D01*
X8076641Y-15264892D01*
X7925358Y-15264892D01*
X7919059Y-15265603D01*
X7913573Y-15267533D01*
X7908696Y-15270581D01*
X7904581Y-15274696D01*
X7901533Y-15279573D01*
X7899603Y-15285059D01*
X7898892Y-15291358D01*
X7898892Y-15442641D01*
X7899603Y-15448940D01*
X7901533Y-15454426D01*
X7904581Y-15459303D01*
X7908696Y-15463418D01*
X7913573Y-15466466D01*
X7919059Y-15468396D01*
G37*
G36*
X8433358Y-15469107D02*
G01*
X8584641Y-15469107D01*
X8590940Y-15468396D01*
X8596426Y-15466466D01*
X8601303Y-15463418D01*
X8605418Y-15459303D01*
X8608466Y-15454426D01*
X8610396Y-15448940D01*
X8611108Y-15442641D01*
X8611108Y-15291358D01*
X8610396Y-15285059D01*
X8608466Y-15279573D01*
X8605418Y-15274696D01*
X8601303Y-15270581D01*
X8596426Y-15267533D01*
X8590940Y-15265603D01*
X8584641Y-15264892D01*
X8433358Y-15264892D01*
X8427059Y-15265603D01*
X8421573Y-15267533D01*
X8416696Y-15270581D01*
X8412581Y-15274696D01*
X8409533Y-15279573D01*
X8407603Y-15285059D01*
X8406892Y-15291358D01*
X8406892Y-15442641D01*
X8407603Y-15448940D01*
X8409533Y-15454426D01*
X8412581Y-15459303D01*
X8416696Y-15463418D01*
X8421573Y-15466466D01*
X8427059Y-15468396D01*
G37*
G36*
X6122111Y-15361259D02*
G01*
X6179159Y-15361259D01*
X6179159Y-15304211D01*
X6148578Y-15304211D01*
X6142228Y-15304922D01*
X6136792Y-15306801D01*
X6131864Y-15309900D01*
X6127800Y-15313964D01*
X6124702Y-15318892D01*
X6122822Y-15324328D01*
X6122111Y-15330678D01*
G37*
G36*
X6630111Y-15361259D02*
G01*
X6687159Y-15361259D01*
X6687159Y-15304211D01*
X6656578Y-15304211D01*
X6650228Y-15304922D01*
X6644792Y-15306801D01*
X6639864Y-15309900D01*
X6635800Y-15313964D01*
X6632702Y-15318892D01*
X6630822Y-15324328D01*
X6630111Y-15330678D01*
G37*
G36*
X6376111Y-15361259D02*
G01*
X6433159Y-15361259D01*
X6433159Y-15304211D01*
X6402578Y-15304211D01*
X6396228Y-15304922D01*
X6390792Y-15306801D01*
X6385864Y-15309900D01*
X6381800Y-15313964D01*
X6378702Y-15318892D01*
X6376822Y-15324328D01*
X6376111Y-15330678D01*
G37*
G36*
X6012840Y-15361259D02*
G01*
X6069888Y-15361259D01*
X6069888Y-15330678D01*
X6069177Y-15324328D01*
X6067298Y-15318892D01*
X6064199Y-15313964D01*
X6060135Y-15309900D01*
X6055207Y-15306801D01*
X6049772Y-15304922D01*
X6043422Y-15304211D01*
X6012840Y-15304211D01*
G37*
G36*
X6520840Y-15361259D02*
G01*
X6577888Y-15361259D01*
X6577888Y-15330678D01*
X6577177Y-15324328D01*
X6575298Y-15318892D01*
X6572199Y-15313964D01*
X6568135Y-15309900D01*
X6563207Y-15306801D01*
X6557772Y-15304922D01*
X6551422Y-15304211D01*
X6520840Y-15304211D01*
G37*
G36*
X6266840Y-15361259D02*
G01*
X6323888Y-15361259D01*
X6323888Y-15330678D01*
X6323177Y-15324328D01*
X6321298Y-15318892D01*
X6318199Y-15313964D01*
X6314135Y-15309900D01*
X6309207Y-15306801D01*
X6303772Y-15304922D01*
X6297422Y-15304211D01*
X6266840Y-15304211D01*
G37*
G36*
X6774840Y-15361259D02*
G01*
X6831888Y-15361259D01*
X6831888Y-15330678D01*
X6831177Y-15324328D01*
X6829298Y-15318892D01*
X6826199Y-15313964D01*
X6822135Y-15309900D01*
X6817207Y-15306801D01*
X6811772Y-15304922D01*
X6805422Y-15304211D01*
X6774840Y-15304211D01*
G37*
G36*
X5868111Y-15361259D02*
G01*
X5925159Y-15361259D01*
X5925159Y-15304211D01*
X5894578Y-15304211D01*
X5888228Y-15304922D01*
X5882792Y-15306801D01*
X5877864Y-15309900D01*
X5873800Y-15313964D01*
X5870702Y-15318892D01*
X5868822Y-15324328D01*
X5868111Y-15330678D01*
G37*
G36*
X8152892Y-15322550D02*
G01*
X8210550Y-15322550D01*
X8210550Y-15264892D01*
X8179358Y-15264892D01*
X8173059Y-15265603D01*
X8167573Y-15267533D01*
X8162696Y-15270581D01*
X8158581Y-15274696D01*
X8155533Y-15279573D01*
X8153603Y-15285059D01*
X8152892Y-15291358D01*
G37*
G36*
X8299450Y-15322550D02*
G01*
X8357108Y-15322550D01*
X8357108Y-15291358D01*
X8356396Y-15285059D01*
X8354466Y-15279573D01*
X8351418Y-15274696D01*
X8347303Y-15270581D01*
X8342426Y-15267533D01*
X8336940Y-15265603D01*
X8330641Y-15264892D01*
X8299450Y-15264892D01*
G37*
G36*
X6148578Y-15251988D02*
G01*
X6297422Y-15251988D01*
X6303772Y-15251277D01*
X6309207Y-15249398D01*
X6314135Y-15246299D01*
X6318199Y-15242235D01*
X6321298Y-15237307D01*
X6323177Y-15231872D01*
X6323888Y-15225522D01*
X6323888Y-15076678D01*
X6323177Y-15070328D01*
X6321298Y-15064892D01*
X6318199Y-15059964D01*
X6314135Y-15055900D01*
X6309207Y-15052801D01*
X6303772Y-15050922D01*
X6297422Y-15050211D01*
X6148578Y-15050211D01*
X6142228Y-15050922D01*
X6136792Y-15052801D01*
X6131864Y-15055900D01*
X6127800Y-15059964D01*
X6124702Y-15064892D01*
X6122822Y-15070328D01*
X6122111Y-15076678D01*
X6122111Y-15225522D01*
X6122822Y-15231872D01*
X6124702Y-15237307D01*
X6127800Y-15242235D01*
X6131864Y-15246299D01*
X6136792Y-15249398D01*
X6142228Y-15251277D01*
G37*
G36*
X6402578Y-15251988D02*
G01*
X6551422Y-15251988D01*
X6557772Y-15251277D01*
X6563207Y-15249398D01*
X6568135Y-15246299D01*
X6572199Y-15242235D01*
X6575298Y-15237307D01*
X6577177Y-15231872D01*
X6577888Y-15225522D01*
X6577888Y-15076678D01*
X6577177Y-15070328D01*
X6575298Y-15064892D01*
X6572199Y-15059964D01*
X6568135Y-15055900D01*
X6563207Y-15052801D01*
X6557772Y-15050922D01*
X6551422Y-15050211D01*
X6402578Y-15050211D01*
X6396228Y-15050922D01*
X6390792Y-15052801D01*
X6385864Y-15055900D01*
X6381800Y-15059964D01*
X6378702Y-15064892D01*
X6376822Y-15070328D01*
X6376111Y-15076678D01*
X6376111Y-15225522D01*
X6376822Y-15231872D01*
X6378702Y-15237307D01*
X6381800Y-15242235D01*
X6385864Y-15246299D01*
X6390792Y-15249398D01*
X6396228Y-15251277D01*
G37*
G36*
X6656578Y-15251988D02*
G01*
X6805422Y-15251988D01*
X6811772Y-15251277D01*
X6817207Y-15249398D01*
X6822135Y-15246299D01*
X6826199Y-15242235D01*
X6829298Y-15237307D01*
X6831177Y-15231872D01*
X6831888Y-15225522D01*
X6831888Y-15076678D01*
X6831177Y-15070328D01*
X6829298Y-15064892D01*
X6826199Y-15059964D01*
X6822135Y-15055900D01*
X6817207Y-15052801D01*
X6811772Y-15050922D01*
X6805422Y-15050211D01*
X6656578Y-15050211D01*
X6650228Y-15050922D01*
X6644792Y-15052801D01*
X6639864Y-15055900D01*
X6635800Y-15059964D01*
X6632702Y-15064892D01*
X6630822Y-15070328D01*
X6630111Y-15076678D01*
X6630111Y-15225522D01*
X6630822Y-15231872D01*
X6632702Y-15237307D01*
X6635800Y-15242235D01*
X6639864Y-15246299D01*
X6644792Y-15249398D01*
X6650228Y-15251277D01*
G37*
G36*
X9561576Y-15135860D02*
G01*
X9561576Y-15063724D01*
X9489440Y-15063724D01*
X9491319Y-15065959D01*
X9559340Y-15133980D01*
G37*
G36*
X9691624Y-15135860D02*
G01*
X9693859Y-15133980D01*
X9761880Y-15065959D01*
X9763760Y-15063724D01*
X9691624Y-15063724D01*
G37*
G36*
X9691624Y-14933676D02*
G01*
X9763760Y-14933676D01*
X9761880Y-14931440D01*
X9693859Y-14863419D01*
X9691624Y-14861540D01*
G37*
G36*
X9489440Y-14933676D02*
G01*
X9561576Y-14933676D01*
X9561576Y-14861540D01*
X9559340Y-14863419D01*
X9491319Y-14931440D01*
G37*
G36*
X7981137Y-14361820D02*
G01*
X7983321Y-14360855D01*
X7996326Y-14352981D01*
X8008264Y-14343634D01*
X8019034Y-14332864D01*
X8028381Y-14320926D01*
X8036255Y-14307921D01*
X8037220Y-14305737D01*
X7981137Y-14305737D01*
G37*
G36*
X6349441Y-14353133D02*
G01*
X6349441Y-14300758D01*
X6297117Y-14300758D01*
X6299250Y-14305229D01*
X6307023Y-14317522D01*
X6316319Y-14328749D01*
X6326936Y-14338706D01*
X6338722Y-14347240D01*
G37*
G36*
X1219504Y-14313407D02*
G01*
X1320495Y-14313407D01*
X1336192Y-14312442D01*
X1351330Y-14309699D01*
X1366012Y-14305127D01*
X1380032Y-14298777D01*
X1393240Y-14290801D01*
X1405331Y-14281302D01*
X1416202Y-14270431D01*
X1425702Y-14258340D01*
X1433677Y-14245132D01*
X1434744Y-14242796D01*
X1436979Y-14239646D01*
X1440230Y-14237563D01*
X1443990Y-14236801D01*
X1858010Y-14236801D01*
X1861769Y-14237563D01*
X1865020Y-14239646D01*
X1867255Y-14242796D01*
X1868322Y-14245132D01*
X1876298Y-14258340D01*
X1885797Y-14270431D01*
X1896668Y-14281302D01*
X1908759Y-14290801D01*
X1921967Y-14298777D01*
X1935988Y-14305127D01*
X1950669Y-14309699D01*
X1965807Y-14312442D01*
X1981504Y-14313407D01*
X2082495Y-14313407D01*
X2098192Y-14312442D01*
X2113330Y-14309699D01*
X2128012Y-14305127D01*
X2142032Y-14298777D01*
X2155240Y-14290801D01*
X2167331Y-14281302D01*
X2178202Y-14270431D01*
X2187702Y-14258340D01*
X2195677Y-14245132D01*
X2202027Y-14231112D01*
X2206599Y-14216430D01*
X2209342Y-14201292D01*
X2210308Y-14185900D01*
X2209342Y-14170507D01*
X2206599Y-14155369D01*
X2202027Y-14140688D01*
X2195677Y-14126667D01*
X2187702Y-14113459D01*
X2178202Y-14101368D01*
X2167331Y-14090497D01*
X2155240Y-14080998D01*
X2142032Y-14073022D01*
X2128012Y-14066672D01*
X2113330Y-14062100D01*
X2098192Y-14059357D01*
X2082495Y-14058392D01*
X1981504Y-14058392D01*
X1965807Y-14059357D01*
X1950669Y-14062100D01*
X1935988Y-14066672D01*
X1921967Y-14073022D01*
X1908759Y-14080998D01*
X1896668Y-14090497D01*
X1885797Y-14101368D01*
X1876298Y-14113459D01*
X1868322Y-14126667D01*
X1867255Y-14129004D01*
X1865020Y-14132153D01*
X1861769Y-14134236D01*
X1858010Y-14134998D01*
X1443990Y-14134998D01*
X1440230Y-14134236D01*
X1436979Y-14132153D01*
X1434744Y-14129004D01*
X1433677Y-14126667D01*
X1425702Y-14113459D01*
X1416202Y-14101368D01*
X1405331Y-14090497D01*
X1393240Y-14080998D01*
X1380032Y-14073022D01*
X1366012Y-14066672D01*
X1351330Y-14062100D01*
X1336192Y-14059357D01*
X1320495Y-14058392D01*
X1219504Y-14058392D01*
X1203807Y-14059357D01*
X1188669Y-14062100D01*
X1173988Y-14066672D01*
X1159967Y-14073022D01*
X1146759Y-14080998D01*
X1134668Y-14090497D01*
X1123797Y-14101368D01*
X1114298Y-14113459D01*
X1106322Y-14126667D01*
X1099972Y-14140688D01*
X1095400Y-14155369D01*
X1092657Y-14170507D01*
X1091692Y-14185900D01*
X1092657Y-14201292D01*
X1095400Y-14216430D01*
X1099972Y-14231112D01*
X1106322Y-14245132D01*
X1114298Y-14258340D01*
X1123797Y-14270431D01*
X1134668Y-14281302D01*
X1146759Y-14290801D01*
X1159967Y-14298777D01*
X1173988Y-14305127D01*
X1188669Y-14309699D01*
X1203807Y-14312442D01*
G37*
G36*
X9470440Y-14308226D02*
G01*
X9485477Y-14307769D01*
X9500362Y-14305483D01*
X9514890Y-14301368D01*
X9528759Y-14295475D01*
X9541814Y-14287957D01*
X9553854Y-14278863D01*
X9564674Y-14268348D01*
X9574123Y-14256613D01*
X9582048Y-14243812D01*
X9588347Y-14230096D01*
X9592919Y-14215770D01*
X9595662Y-14200936D01*
X9596628Y-14185900D01*
X9595662Y-14170863D01*
X9592919Y-14156029D01*
X9588347Y-14141704D01*
X9582048Y-14127988D01*
X9574123Y-14115186D01*
X9564674Y-14103451D01*
X9553854Y-14092936D01*
X9541814Y-14083842D01*
X9528759Y-14076324D01*
X9514890Y-14070431D01*
X9500362Y-14066316D01*
X9485477Y-14064030D01*
X9470440Y-14063573D01*
X9455404Y-14064945D01*
X9440722Y-14068145D01*
X9426498Y-14073174D01*
X9412986Y-14079880D01*
X9400438Y-14088211D01*
X9389008Y-14098016D01*
X9378848Y-14109141D01*
X9370110Y-14121485D01*
X9362998Y-14134744D01*
X9357563Y-14148816D01*
X9353854Y-14163395D01*
X9352026Y-14178381D01*
X9352026Y-14193418D01*
X9353854Y-14208404D01*
X9357563Y-14222984D01*
X9362998Y-14237055D01*
X9370110Y-14250365D01*
X9378848Y-14262658D01*
X9389008Y-14273784D01*
X9400438Y-14283588D01*
X9412986Y-14291919D01*
X9426498Y-14298625D01*
X9440722Y-14303654D01*
X9455404Y-14306854D01*
G37*
G36*
X8458200Y-14300707D02*
G01*
X8472576Y-14299793D01*
X8486749Y-14297101D01*
X8500465Y-14292630D01*
X8513521Y-14286484D01*
X8525662Y-14278762D01*
X8536787Y-14269567D01*
X8546642Y-14259051D01*
X8555126Y-14247418D01*
X8562086Y-14234769D01*
X8567369Y-14221358D01*
X8570976Y-14207388D01*
X8572754Y-14193113D01*
X8572754Y-14178686D01*
X8570976Y-14164411D01*
X8567369Y-14150441D01*
X8562086Y-14137030D01*
X8555126Y-14124381D01*
X8546642Y-14112748D01*
X8536787Y-14102232D01*
X8525662Y-14093037D01*
X8513521Y-14085316D01*
X8500465Y-14079169D01*
X8486749Y-14074698D01*
X8472576Y-14072006D01*
X8458200Y-14071092D01*
X8443823Y-14072006D01*
X8429650Y-14074698D01*
X8427567Y-14075410D01*
X8423859Y-14075867D01*
X8420252Y-14075003D01*
X8417204Y-14072920D01*
X8018830Y-13674547D01*
X8015427Y-13671397D01*
X8011871Y-13668705D01*
X8008112Y-13666317D01*
X8004200Y-13664234D01*
X8000085Y-13662558D01*
X7995869Y-13661237D01*
X7991500Y-13660272D01*
X7987131Y-13659662D01*
X7982458Y-13659459D01*
X7962239Y-13659459D01*
X7958429Y-13658748D01*
X7955178Y-13656614D01*
X7952943Y-13653414D01*
X7952079Y-13649655D01*
X7952689Y-13645794D01*
X7954721Y-13642492D01*
X7956651Y-13640358D01*
X7965389Y-13628065D01*
X7972501Y-13614755D01*
X7977936Y-13600684D01*
X7978495Y-13598550D01*
X7980425Y-13594689D01*
X7983829Y-13591946D01*
X7988046Y-13590879D01*
X7992313Y-13591692D01*
X7995869Y-13594181D01*
X7998002Y-13597940D01*
X8001152Y-13607796D01*
X8007451Y-13621512D01*
X8015376Y-13634313D01*
X8024825Y-13646048D01*
X8035645Y-13656563D01*
X8047685Y-13665657D01*
X8060740Y-13673175D01*
X8074609Y-13679068D01*
X8089138Y-13683183D01*
X8104022Y-13685469D01*
X8119059Y-13685926D01*
X8134096Y-13684554D01*
X8148777Y-13681354D01*
X8163001Y-13676325D01*
X8176514Y-13669619D01*
X8189061Y-13661288D01*
X8200491Y-13651484D01*
X8210651Y-13640358D01*
X8219389Y-13628065D01*
X8226501Y-13614755D01*
X8231936Y-13600684D01*
X8232495Y-13598550D01*
X8234425Y-13594689D01*
X8237829Y-13591946D01*
X8242046Y-13590879D01*
X8246313Y-13591692D01*
X8249869Y-13594181D01*
X8252002Y-13597940D01*
X8255152Y-13607796D01*
X8261451Y-13621512D01*
X8269376Y-13634313D01*
X8278825Y-13646048D01*
X8289645Y-13656563D01*
X8301685Y-13665657D01*
X8314740Y-13673175D01*
X8328609Y-13679068D01*
X8343138Y-13683183D01*
X8358022Y-13685469D01*
X8373059Y-13685926D01*
X8388096Y-13684554D01*
X8402777Y-13681354D01*
X8417001Y-13676325D01*
X8430514Y-13669619D01*
X8443061Y-13661288D01*
X8454491Y-13651484D01*
X8464651Y-13640358D01*
X8473389Y-13628065D01*
X8480501Y-13614755D01*
X8485936Y-13600684D01*
X8486495Y-13598550D01*
X8488426Y-13594689D01*
X8491829Y-13591946D01*
X8496046Y-13590879D01*
X8500313Y-13591692D01*
X8503869Y-13594181D01*
X8506002Y-13597940D01*
X8509152Y-13607796D01*
X8515451Y-13621512D01*
X8523376Y-13634313D01*
X8532825Y-13646048D01*
X8543645Y-13656563D01*
X8555685Y-13665657D01*
X8568740Y-13673175D01*
X8582609Y-13679068D01*
X8597138Y-13683183D01*
X8612022Y-13685469D01*
X8627059Y-13685926D01*
X8642096Y-13684554D01*
X8656777Y-13681354D01*
X8671001Y-13676325D01*
X8684514Y-13669619D01*
X8697061Y-13661288D01*
X8708491Y-13651484D01*
X8718651Y-13640358D01*
X8727389Y-13628065D01*
X8734501Y-13614755D01*
X8739936Y-13600684D01*
X8740495Y-13598550D01*
X8742426Y-13594689D01*
X8745829Y-13591946D01*
X8750046Y-13590879D01*
X8754313Y-13591692D01*
X8757869Y-13594181D01*
X8760002Y-13597940D01*
X8763152Y-13607796D01*
X8769451Y-13621512D01*
X8777376Y-13634313D01*
X8786825Y-13646048D01*
X8797645Y-13656563D01*
X8809685Y-13665657D01*
X8822740Y-13673175D01*
X8836609Y-13679068D01*
X8851138Y-13683183D01*
X8866022Y-13685469D01*
X8881059Y-13685926D01*
X8896096Y-13684554D01*
X8910777Y-13681354D01*
X8925001Y-13676325D01*
X8938514Y-13669619D01*
X8951061Y-13661288D01*
X8962491Y-13651484D01*
X8972651Y-13640358D01*
X8981389Y-13628065D01*
X8988501Y-13614755D01*
X8993936Y-13600684D01*
X8994495Y-13598550D01*
X8996426Y-13594689D01*
X8999829Y-13591946D01*
X9004046Y-13590879D01*
X9008313Y-13591692D01*
X9011869Y-13594181D01*
X9014002Y-13597940D01*
X9017152Y-13607796D01*
X9023451Y-13621512D01*
X9031376Y-13634313D01*
X9040825Y-13646048D01*
X9051645Y-13656563D01*
X9063685Y-13665657D01*
X9076740Y-13673175D01*
X9090609Y-13679068D01*
X9105138Y-13683183D01*
X9120022Y-13685469D01*
X9135059Y-13685926D01*
X9150096Y-13684554D01*
X9164777Y-13681354D01*
X9179001Y-13676325D01*
X9192514Y-13669619D01*
X9205061Y-13661288D01*
X9216491Y-13651484D01*
X9226651Y-13640358D01*
X9235389Y-13628065D01*
X9242501Y-13614755D01*
X9247936Y-13600684D01*
X9248495Y-13598550D01*
X9250426Y-13594689D01*
X9253829Y-13591946D01*
X9258046Y-13590879D01*
X9262313Y-13591692D01*
X9265869Y-13594181D01*
X9268002Y-13597940D01*
X9271152Y-13607796D01*
X9277451Y-13621512D01*
X9285376Y-13634313D01*
X9294825Y-13646048D01*
X9305645Y-13656563D01*
X9317685Y-13665657D01*
X9330740Y-13673175D01*
X9344609Y-13679068D01*
X9359138Y-13683183D01*
X9374022Y-13685469D01*
X9389059Y-13685926D01*
X9404096Y-13684554D01*
X9418777Y-13681354D01*
X9433001Y-13676325D01*
X9446514Y-13669619D01*
X9459061Y-13661288D01*
X9470491Y-13651484D01*
X9480651Y-13640358D01*
X9489389Y-13628065D01*
X9496501Y-13614755D01*
X9501936Y-13600684D01*
X9505645Y-13586104D01*
X9507474Y-13571118D01*
X9507474Y-13556081D01*
X9505645Y-13541095D01*
X9501936Y-13526516D01*
X9496501Y-13512444D01*
X9489389Y-13499185D01*
X9480651Y-13486841D01*
X9470491Y-13475716D01*
X9459061Y-13465911D01*
X9446514Y-13457580D01*
X9433001Y-13450874D01*
X9418777Y-13445845D01*
X9404096Y-13442645D01*
X9389059Y-13441273D01*
X9374022Y-13441730D01*
X9359138Y-13444016D01*
X9344609Y-13448131D01*
X9330740Y-13454024D01*
X9317685Y-13461542D01*
X9305645Y-13470636D01*
X9294825Y-13481151D01*
X9285376Y-13492886D01*
X9277451Y-13505688D01*
X9271152Y-13519404D01*
X9268002Y-13529259D01*
X9265869Y-13533018D01*
X9262313Y-13535507D01*
X9258046Y-13536320D01*
X9253829Y-13535253D01*
X9250426Y-13532510D01*
X9248495Y-13528649D01*
X9247936Y-13526516D01*
X9242501Y-13512444D01*
X9235389Y-13499185D01*
X9226651Y-13486841D01*
X9216491Y-13475716D01*
X9205061Y-13465911D01*
X9192514Y-13457580D01*
X9179001Y-13450874D01*
X9164777Y-13445845D01*
X9150096Y-13442645D01*
X9135059Y-13441273D01*
X9120022Y-13441730D01*
X9105138Y-13444016D01*
X9090609Y-13448131D01*
X9076740Y-13454024D01*
X9063685Y-13461542D01*
X9051645Y-13470636D01*
X9040825Y-13481151D01*
X9031376Y-13492886D01*
X9023451Y-13505688D01*
X9017152Y-13519404D01*
X9014002Y-13529259D01*
X9011869Y-13533018D01*
X9008313Y-13535507D01*
X9004046Y-13536320D01*
X8999829Y-13535253D01*
X8996426Y-13532510D01*
X8994495Y-13528649D01*
X8993936Y-13526516D01*
X8988501Y-13512444D01*
X8981389Y-13499185D01*
X8972651Y-13486841D01*
X8962491Y-13475716D01*
X8951061Y-13465911D01*
X8938514Y-13457580D01*
X8925001Y-13450874D01*
X8910777Y-13445845D01*
X8896096Y-13442645D01*
X8881059Y-13441273D01*
X8866022Y-13441730D01*
X8851138Y-13444016D01*
X8836609Y-13448131D01*
X8822740Y-13454024D01*
X8809685Y-13461542D01*
X8797645Y-13470636D01*
X8786825Y-13481151D01*
X8777376Y-13492886D01*
X8769451Y-13505688D01*
X8763152Y-13519404D01*
X8760002Y-13529259D01*
X8757869Y-13533018D01*
X8754313Y-13535507D01*
X8750046Y-13536320D01*
X8745829Y-13535253D01*
X8742426Y-13532510D01*
X8740495Y-13528649D01*
X8739936Y-13526516D01*
X8734501Y-13512444D01*
X8727389Y-13499185D01*
X8718651Y-13486841D01*
X8708491Y-13475716D01*
X8697061Y-13465911D01*
X8684514Y-13457580D01*
X8671001Y-13450874D01*
X8656777Y-13445845D01*
X8642096Y-13442645D01*
X8627059Y-13441273D01*
X8612022Y-13441730D01*
X8597138Y-13444016D01*
X8582609Y-13448131D01*
X8568740Y-13454024D01*
X8555685Y-13461542D01*
X8543645Y-13470636D01*
X8532825Y-13481151D01*
X8523376Y-13492886D01*
X8515451Y-13505688D01*
X8509152Y-13519404D01*
X8506002Y-13529259D01*
X8503869Y-13533018D01*
X8500313Y-13535507D01*
X8496046Y-13536320D01*
X8491829Y-13535253D01*
X8488426Y-13532510D01*
X8486495Y-13528649D01*
X8485936Y-13526516D01*
X8480501Y-13512444D01*
X8473389Y-13499185D01*
X8464651Y-13486841D01*
X8454491Y-13475716D01*
X8443061Y-13465911D01*
X8430514Y-13457580D01*
X8417001Y-13450874D01*
X8402777Y-13445845D01*
X8388096Y-13442645D01*
X8373059Y-13441273D01*
X8358022Y-13441730D01*
X8343138Y-13444016D01*
X8328609Y-13448131D01*
X8314740Y-13454024D01*
X8301685Y-13461542D01*
X8289645Y-13470636D01*
X8278825Y-13481151D01*
X8269376Y-13492886D01*
X8261451Y-13505688D01*
X8255152Y-13519404D01*
X8252002Y-13529259D01*
X8249869Y-13533018D01*
X8246313Y-13535507D01*
X8242046Y-13536320D01*
X8237829Y-13535253D01*
X8234425Y-13532510D01*
X8232495Y-13528649D01*
X8231936Y-13526516D01*
X8226501Y-13512444D01*
X8219389Y-13499185D01*
X8210651Y-13486841D01*
X8200491Y-13475716D01*
X8189061Y-13465911D01*
X8176514Y-13457580D01*
X8163001Y-13450874D01*
X8148777Y-13445845D01*
X8134096Y-13442645D01*
X8119059Y-13441273D01*
X8104022Y-13441730D01*
X8089138Y-13444016D01*
X8074609Y-13448131D01*
X8060740Y-13454024D01*
X8047685Y-13461542D01*
X8035645Y-13470636D01*
X8024825Y-13481151D01*
X8015376Y-13492886D01*
X8007451Y-13505688D01*
X8001152Y-13519404D01*
X7998002Y-13529259D01*
X7995869Y-13533018D01*
X7992313Y-13535507D01*
X7988046Y-13536320D01*
X7983829Y-13535253D01*
X7980425Y-13532510D01*
X7978495Y-13528649D01*
X7977936Y-13526516D01*
X7972501Y-13512444D01*
X7965389Y-13499185D01*
X7956651Y-13486841D01*
X7946491Y-13475716D01*
X7935061Y-13465911D01*
X7922514Y-13457580D01*
X7909001Y-13450874D01*
X7894777Y-13445845D01*
X7880096Y-13442645D01*
X7865059Y-13441273D01*
X7850022Y-13441730D01*
X7835138Y-13444016D01*
X7820609Y-13448131D01*
X7806740Y-13454024D01*
X7793685Y-13461542D01*
X7781645Y-13470636D01*
X7770825Y-13481151D01*
X7761376Y-13492886D01*
X7753451Y-13505688D01*
X7747152Y-13519404D01*
X7744002Y-13529259D01*
X7741869Y-13533018D01*
X7738313Y-13535507D01*
X7734046Y-13536320D01*
X7729829Y-13535253D01*
X7726425Y-13532510D01*
X7724495Y-13528649D01*
X7723936Y-13526516D01*
X7718501Y-13512444D01*
X7711389Y-13499185D01*
X7702651Y-13486841D01*
X7692491Y-13475716D01*
X7681061Y-13465911D01*
X7668514Y-13457580D01*
X7655001Y-13450874D01*
X7640777Y-13445845D01*
X7626096Y-13442645D01*
X7611059Y-13441273D01*
X7596022Y-13441730D01*
X7581138Y-13444016D01*
X7566609Y-13448131D01*
X7552740Y-13454024D01*
X7539685Y-13461542D01*
X7527645Y-13470636D01*
X7516825Y-13481151D01*
X7507376Y-13492886D01*
X7499451Y-13505688D01*
X7493152Y-13519404D01*
X7490002Y-13529259D01*
X7487869Y-13533018D01*
X7484313Y-13535507D01*
X7480046Y-13536320D01*
X7475829Y-13535253D01*
X7472425Y-13532510D01*
X7470495Y-13528649D01*
X7469936Y-13526516D01*
X7464501Y-13512444D01*
X7457389Y-13499185D01*
X7448651Y-13486841D01*
X7438491Y-13475716D01*
X7427061Y-13465911D01*
X7414514Y-13457580D01*
X7401001Y-13450874D01*
X7386777Y-13445845D01*
X7372096Y-13442645D01*
X7357059Y-13441273D01*
X7342022Y-13441730D01*
X7327138Y-13444016D01*
X7312609Y-13448131D01*
X7298740Y-13454024D01*
X7285685Y-13461542D01*
X7273645Y-13470636D01*
X7262825Y-13481151D01*
X7253376Y-13492886D01*
X7245451Y-13505688D01*
X7239152Y-13519404D01*
X7236002Y-13529259D01*
X7233869Y-13533018D01*
X7230313Y-13535507D01*
X7226046Y-13536320D01*
X7221829Y-13535253D01*
X7218425Y-13532510D01*
X7216495Y-13528649D01*
X7215936Y-13526516D01*
X7210501Y-13512444D01*
X7203389Y-13499185D01*
X7194651Y-13486841D01*
X7184491Y-13475716D01*
X7173061Y-13465911D01*
X7160514Y-13457580D01*
X7147001Y-13450874D01*
X7132777Y-13445845D01*
X7118096Y-13442645D01*
X7103059Y-13441273D01*
X7088022Y-13441730D01*
X7073138Y-13444016D01*
X7058609Y-13448131D01*
X7044740Y-13454024D01*
X7031685Y-13461542D01*
X7019645Y-13470636D01*
X7008825Y-13481151D01*
X6999376Y-13492886D01*
X6991451Y-13505688D01*
X6985152Y-13519404D01*
X6982002Y-13529259D01*
X6979869Y-13533018D01*
X6976313Y-13535507D01*
X6972046Y-13536320D01*
X6967829Y-13535253D01*
X6964425Y-13532510D01*
X6962495Y-13528649D01*
X6961936Y-13526516D01*
X6956501Y-13512444D01*
X6949389Y-13499185D01*
X6940651Y-13486841D01*
X6930491Y-13475716D01*
X6919061Y-13465911D01*
X6906514Y-13457580D01*
X6893001Y-13450874D01*
X6878777Y-13445845D01*
X6864096Y-13442645D01*
X6849059Y-13441273D01*
X6834022Y-13441730D01*
X6819138Y-13444016D01*
X6804609Y-13448131D01*
X6790740Y-13454024D01*
X6777685Y-13461542D01*
X6765645Y-13470636D01*
X6754825Y-13481151D01*
X6745376Y-13492886D01*
X6737451Y-13505688D01*
X6731152Y-13519404D01*
X6726580Y-13533729D01*
X6723837Y-13548563D01*
X6722872Y-13563600D01*
X6723837Y-13578636D01*
X6726580Y-13593470D01*
X6731152Y-13607796D01*
X6737451Y-13621512D01*
X6745376Y-13634313D01*
X6752336Y-13642949D01*
X6754114Y-13646302D01*
X6754571Y-13650061D01*
X6753555Y-13653719D01*
X6751320Y-13656767D01*
X6748119Y-13658748D01*
X6744411Y-13659459D01*
X6692239Y-13659459D01*
X6688429Y-13658748D01*
X6685178Y-13656614D01*
X6682943Y-13653414D01*
X6682079Y-13649655D01*
X6682689Y-13645794D01*
X6684721Y-13642492D01*
X6686651Y-13640358D01*
X6695389Y-13628065D01*
X6700672Y-13618210D01*
X6645909Y-13618210D01*
X6645909Y-13649299D01*
X6645148Y-13653211D01*
X6642912Y-13656513D01*
X6639661Y-13658697D01*
X6635750Y-13659459D01*
X6546850Y-13659459D01*
X6542938Y-13658697D01*
X6539687Y-13656513D01*
X6537452Y-13653211D01*
X6536690Y-13649299D01*
X6536690Y-13618210D01*
X6481927Y-13618210D01*
X6483451Y-13621512D01*
X6491376Y-13634313D01*
X6498336Y-13642949D01*
X6500114Y-13646302D01*
X6500571Y-13650061D01*
X6499555Y-13653719D01*
X6497320Y-13656767D01*
X6494119Y-13658748D01*
X6490411Y-13659459D01*
X6438239Y-13659459D01*
X6434429Y-13658748D01*
X6431178Y-13656614D01*
X6428943Y-13653414D01*
X6428079Y-13649655D01*
X6428689Y-13645794D01*
X6430721Y-13642492D01*
X6432651Y-13640358D01*
X6441389Y-13628065D01*
X6448501Y-13614755D01*
X6453936Y-13600684D01*
X6457645Y-13586104D01*
X6459474Y-13571118D01*
X6459474Y-13556081D01*
X6457645Y-13541095D01*
X6453936Y-13526516D01*
X6448501Y-13512444D01*
X6441389Y-13499185D01*
X6432651Y-13486841D01*
X6422491Y-13475716D01*
X6411061Y-13465911D01*
X6398514Y-13457580D01*
X6385001Y-13450874D01*
X6370777Y-13445845D01*
X6356096Y-13442645D01*
X6341059Y-13441273D01*
X6326022Y-13441730D01*
X6311138Y-13444016D01*
X6296609Y-13448131D01*
X6282740Y-13454024D01*
X6269685Y-13461542D01*
X6257645Y-13470636D01*
X6246825Y-13481151D01*
X6237376Y-13492886D01*
X6229451Y-13505688D01*
X6223152Y-13519404D01*
X6220002Y-13529259D01*
X6217869Y-13533018D01*
X6214313Y-13535507D01*
X6210046Y-13536320D01*
X6205829Y-13535253D01*
X6202426Y-13532510D01*
X6200495Y-13528649D01*
X6199936Y-13526516D01*
X6194501Y-13512444D01*
X6187389Y-13499185D01*
X6178651Y-13486841D01*
X6168491Y-13475716D01*
X6157061Y-13465911D01*
X6144514Y-13457580D01*
X6131001Y-13450874D01*
X6116777Y-13445845D01*
X6102096Y-13442645D01*
X6087059Y-13441273D01*
X6072022Y-13441730D01*
X6057138Y-13444016D01*
X6042609Y-13448131D01*
X6028740Y-13454024D01*
X6015685Y-13461542D01*
X6003645Y-13470636D01*
X5992825Y-13481151D01*
X5983376Y-13492886D01*
X5975451Y-13505688D01*
X5969152Y-13519404D01*
X5964580Y-13533729D01*
X5964275Y-13535507D01*
X5962599Y-13539469D01*
X5959500Y-13542365D01*
X5955487Y-13543737D01*
X5951220Y-13543330D01*
X5947511Y-13541248D01*
X5945022Y-13537844D01*
X5944108Y-13533678D01*
X5944108Y-13475258D01*
X5943396Y-13468959D01*
X5941466Y-13463473D01*
X5938418Y-13458596D01*
X5934303Y-13454481D01*
X5929426Y-13451433D01*
X5923940Y-13449503D01*
X5917641Y-13448792D01*
X5740958Y-13448792D01*
X5734659Y-13449503D01*
X5729173Y-13451433D01*
X5724296Y-13454481D01*
X5720181Y-13458596D01*
X5717133Y-13463473D01*
X5715203Y-13468959D01*
X5714492Y-13475258D01*
X5714492Y-13649299D01*
X5713730Y-13653211D01*
X5711494Y-13656513D01*
X5708243Y-13658697D01*
X5704332Y-13659459D01*
X3159353Y-13659459D01*
X3155492Y-13658697D01*
X3152190Y-13656513D01*
X2840329Y-13344601D01*
X2838297Y-13341705D01*
X2834640Y-13333984D01*
X2829052Y-13325906D01*
X2822092Y-13318947D01*
X2814015Y-13313359D01*
X2805125Y-13309193D01*
X2795625Y-13306653D01*
X2785872Y-13305790D01*
X2776067Y-13306653D01*
X2766568Y-13309193D01*
X2757678Y-13313359D01*
X2749600Y-13318947D01*
X2742641Y-13325906D01*
X2737053Y-13333984D01*
X2732887Y-13342874D01*
X2730347Y-13352373D01*
X2729484Y-13362178D01*
X2730347Y-13371931D01*
X2732887Y-13381431D01*
X2737053Y-13390321D01*
X2742641Y-13398398D01*
X2749600Y-13405357D01*
X2757678Y-13410946D01*
X2765399Y-13414603D01*
X2768295Y-13416635D01*
X3097936Y-13746226D01*
X3101340Y-13749375D01*
X3104896Y-13752068D01*
X3108655Y-13754455D01*
X3112566Y-13756538D01*
X3116681Y-13758214D01*
X3120898Y-13759535D01*
X3125266Y-13760500D01*
X3129635Y-13761110D01*
X3134309Y-13761313D01*
X7957413Y-13761313D01*
X7961274Y-13762075D01*
X7964576Y-13764260D01*
X8345271Y-14144955D01*
X8347303Y-14147850D01*
X8348218Y-14151203D01*
X8347913Y-14154708D01*
X8345424Y-14164411D01*
X8343646Y-14178686D01*
X8343646Y-14193113D01*
X8345424Y-14207388D01*
X8349030Y-14221358D01*
X8354314Y-14234769D01*
X8361273Y-14247418D01*
X8369757Y-14259051D01*
X8379612Y-14269567D01*
X8390737Y-14278762D01*
X8402878Y-14286484D01*
X8415934Y-14292630D01*
X8429650Y-14297101D01*
X8443823Y-14299793D01*
G37*
G36*
X3644900Y-14260576D02*
G01*
X3658057Y-14259712D01*
X3671011Y-14257172D01*
X3683508Y-14252905D01*
X3695344Y-14247063D01*
X3706317Y-14239748D01*
X3716223Y-14231061D01*
X3724960Y-14221104D01*
X3732276Y-14210131D01*
X3738118Y-14198295D01*
X3742334Y-14185798D01*
X3744925Y-14172844D01*
X3745788Y-14159382D01*
X3745788Y-14060017D01*
X3744925Y-14046555D01*
X3742334Y-14033601D01*
X3738118Y-14021104D01*
X3732276Y-14009268D01*
X3724960Y-13998295D01*
X3716223Y-13988338D01*
X3706317Y-13979651D01*
X3695344Y-13972336D01*
X3683508Y-13966494D01*
X3671011Y-13962227D01*
X3658057Y-13959687D01*
X3644900Y-13958824D01*
X3631742Y-13959687D01*
X3618788Y-13962227D01*
X3606292Y-13966494D01*
X3594455Y-13972336D01*
X3583482Y-13979651D01*
X3573576Y-13988338D01*
X3564839Y-13998295D01*
X3557524Y-14009268D01*
X3551682Y-14021104D01*
X3547465Y-14033601D01*
X3544874Y-14046555D01*
X3544011Y-14060017D01*
X3544011Y-14159382D01*
X3544874Y-14172844D01*
X3547465Y-14185798D01*
X3551682Y-14198295D01*
X3557524Y-14210131D01*
X3564839Y-14221104D01*
X3573576Y-14231061D01*
X3583482Y-14239748D01*
X3594455Y-14247063D01*
X3606292Y-14252905D01*
X3618788Y-14257172D01*
X3631742Y-14259712D01*
G37*
G36*
X9515602Y-16060674D02*
G01*
X9534398Y-16060674D01*
X9553143Y-16058743D01*
X9571583Y-16054984D01*
X9589566Y-16049345D01*
X9606889Y-16041878D01*
X9623348Y-16032734D01*
X9638792Y-16022015D01*
X9653066Y-16009721D01*
X9666071Y-15996107D01*
X9677552Y-15981172D01*
X9687560Y-15965220D01*
X9695840Y-15948304D01*
X9702393Y-15930626D01*
X9707067Y-15912439D01*
X9709962Y-15893796D01*
X9710877Y-15875000D01*
X9709962Y-15856204D01*
X9707067Y-15837560D01*
X9702393Y-15819374D01*
X9695840Y-15801695D01*
X9687560Y-15784779D01*
X9677552Y-15768828D01*
X9666071Y-15753892D01*
X9653066Y-15740278D01*
X9638792Y-15727984D01*
X9623348Y-15717266D01*
X9606889Y-15708122D01*
X9589566Y-15700654D01*
X9571583Y-15695015D01*
X9553143Y-15691256D01*
X9534398Y-15689326D01*
X9515602Y-15689326D01*
X9496856Y-15691256D01*
X9478416Y-15695015D01*
X9460433Y-15700654D01*
X9443110Y-15708122D01*
X9426651Y-15717266D01*
X9411208Y-15727984D01*
X9396933Y-15740278D01*
X9383928Y-15753892D01*
X9372447Y-15768828D01*
X9362440Y-15784779D01*
X9354159Y-15801695D01*
X9347606Y-15819374D01*
X9342932Y-15837560D01*
X9340037Y-15856204D01*
X9339122Y-15875000D01*
X9340037Y-15893796D01*
X9342932Y-15912439D01*
X9347606Y-15930626D01*
X9354159Y-15948304D01*
X9362440Y-15965220D01*
X9372447Y-15981172D01*
X9383928Y-15996107D01*
X9396933Y-16009721D01*
X9411208Y-16022015D01*
X9426651Y-16032734D01*
X9443110Y-16041878D01*
X9460433Y-16049345D01*
X9478416Y-16054984D01*
X9496856Y-16058743D01*
G37*
G36*
X4406900Y-14260576D02*
G01*
X4420057Y-14259712D01*
X4433011Y-14257172D01*
X4445508Y-14252905D01*
X4457344Y-14247063D01*
X4468317Y-14239748D01*
X4478223Y-14231061D01*
X4486960Y-14221104D01*
X4494276Y-14210131D01*
X4500118Y-14198295D01*
X4504334Y-14185798D01*
X4506925Y-14172844D01*
X4508144Y-14153997D01*
X4510735Y-14148562D01*
X4516069Y-14135150D01*
X4519625Y-14121180D01*
X4521454Y-14106906D01*
X4521454Y-14092478D01*
X4519625Y-14078153D01*
X4516069Y-14064183D01*
X4510735Y-14050822D01*
X4506823Y-14043710D01*
X4505756Y-14040764D01*
X4504334Y-14033601D01*
X4500118Y-14021104D01*
X4494276Y-14009268D01*
X4486960Y-13998295D01*
X4478223Y-13988338D01*
X4468317Y-13979651D01*
X4457344Y-13972336D01*
X4445508Y-13966494D01*
X4433011Y-13962227D01*
X4420057Y-13959687D01*
X4406900Y-13958824D01*
X4393742Y-13959687D01*
X4380788Y-13962227D01*
X4368292Y-13966494D01*
X4356455Y-13972336D01*
X4345482Y-13979651D01*
X4335576Y-13988338D01*
X4326839Y-13998295D01*
X4319524Y-14009268D01*
X4313682Y-14021104D01*
X4309465Y-14033601D01*
X4308043Y-14040713D01*
X4306976Y-14043609D01*
X4303014Y-14050822D01*
X4297730Y-14064183D01*
X4294124Y-14078153D01*
X4292346Y-14092478D01*
X4292346Y-14106906D01*
X4294124Y-14121180D01*
X4297730Y-14135150D01*
X4303014Y-14148562D01*
X4305655Y-14154048D01*
X4306874Y-14172844D01*
X4309465Y-14185798D01*
X4313682Y-14198295D01*
X4319524Y-14210131D01*
X4326839Y-14221104D01*
X4335576Y-14231061D01*
X4345482Y-14239748D01*
X4356455Y-14247063D01*
X4368292Y-14252905D01*
X4380788Y-14257172D01*
X4393742Y-14259712D01*
G37*
G36*
X3898900Y-14260576D02*
G01*
X3912057Y-14259712D01*
X3925011Y-14257172D01*
X3937508Y-14252905D01*
X3949344Y-14247063D01*
X3960317Y-14239748D01*
X3970223Y-14231061D01*
X3978960Y-14221104D01*
X3986276Y-14210131D01*
X3992118Y-14198295D01*
X3996334Y-14185798D01*
X3998925Y-14172844D01*
X4000144Y-14154048D01*
X4002786Y-14148562D01*
X4008069Y-14135150D01*
X4011676Y-14121231D01*
X4013454Y-14106906D01*
X4013454Y-14092478D01*
X4011676Y-14078204D01*
X4008069Y-14064234D01*
X4002786Y-14050822D01*
X3998823Y-14043660D01*
X3997756Y-14040764D01*
X3996334Y-14033601D01*
X3992118Y-14021104D01*
X3986276Y-14009268D01*
X3978960Y-13998295D01*
X3970223Y-13988338D01*
X3960317Y-13979651D01*
X3949344Y-13972336D01*
X3937508Y-13966494D01*
X3925011Y-13962227D01*
X3912057Y-13959687D01*
X3898900Y-13958824D01*
X3885742Y-13959687D01*
X3872788Y-13962227D01*
X3860292Y-13966494D01*
X3848455Y-13972336D01*
X3837482Y-13979651D01*
X3827576Y-13988338D01*
X3818839Y-13998295D01*
X3811524Y-14009268D01*
X3805682Y-14021104D01*
X3801465Y-14033601D01*
X3799992Y-14040815D01*
X3798976Y-14043710D01*
X3795064Y-14050822D01*
X3789730Y-14064234D01*
X3786174Y-14078204D01*
X3784346Y-14092478D01*
X3784346Y-14106906D01*
X3786174Y-14121231D01*
X3789730Y-14135150D01*
X3795064Y-14148562D01*
X3797655Y-14153997D01*
X3798874Y-14172844D01*
X3801465Y-14185798D01*
X3805682Y-14198295D01*
X3811524Y-14210131D01*
X3818839Y-14221104D01*
X3827576Y-14231061D01*
X3837482Y-14239748D01*
X3848455Y-14247063D01*
X3860292Y-14252905D01*
X3872788Y-14257172D01*
X3885742Y-14259712D01*
G37*
G36*
X4152900Y-14260576D02*
G01*
X4166057Y-14259712D01*
X4179011Y-14257172D01*
X4191508Y-14252905D01*
X4203344Y-14247063D01*
X4214317Y-14239748D01*
X4224223Y-14231061D01*
X4232960Y-14221104D01*
X4240276Y-14210131D01*
X4246118Y-14198295D01*
X4250334Y-14185798D01*
X4252925Y-14172844D01*
X4254144Y-14153997D01*
X4256735Y-14148562D01*
X4262069Y-14135150D01*
X4265625Y-14121180D01*
X4267454Y-14106906D01*
X4267454Y-14092478D01*
X4265625Y-14078153D01*
X4262069Y-14064183D01*
X4256735Y-14050822D01*
X4252823Y-14043710D01*
X4251756Y-14040764D01*
X4250334Y-14033601D01*
X4246118Y-14021104D01*
X4240276Y-14009268D01*
X4232960Y-13998295D01*
X4224223Y-13988338D01*
X4214317Y-13979651D01*
X4203344Y-13972336D01*
X4191508Y-13966494D01*
X4179011Y-13962227D01*
X4166057Y-13959687D01*
X4152900Y-13958824D01*
X4139742Y-13959687D01*
X4126788Y-13962227D01*
X4114292Y-13966494D01*
X4102455Y-13972336D01*
X4091482Y-13979651D01*
X4081576Y-13988338D01*
X4072839Y-13998295D01*
X4065524Y-14009268D01*
X4059682Y-14021104D01*
X4055465Y-14033601D01*
X4054043Y-14040713D01*
X4052976Y-14043609D01*
X4049014Y-14050822D01*
X4043730Y-14064183D01*
X4040124Y-14078153D01*
X4038346Y-14092478D01*
X4038346Y-14106906D01*
X4040124Y-14121180D01*
X4043730Y-14135150D01*
X4049014Y-14148562D01*
X4051655Y-14154048D01*
X4052874Y-14172844D01*
X4055465Y-14185798D01*
X4059682Y-14198295D01*
X4065524Y-14210131D01*
X4072839Y-14221104D01*
X4081576Y-14231061D01*
X4091482Y-14239748D01*
X4102455Y-14247063D01*
X4114292Y-14252905D01*
X4126788Y-14257172D01*
X4139742Y-14259712D01*
G37*
G36*
X4660900Y-14260576D02*
G01*
X4674057Y-14259712D01*
X4687011Y-14257172D01*
X4699508Y-14252905D01*
X4711344Y-14247063D01*
X4722317Y-14239748D01*
X4732223Y-14231061D01*
X4740960Y-14221104D01*
X4748276Y-14210131D01*
X4754118Y-14198295D01*
X4758334Y-14185798D01*
X4760925Y-14172844D01*
X4762144Y-14153997D01*
X4764735Y-14148562D01*
X4770069Y-14135150D01*
X4773625Y-14121180D01*
X4775454Y-14106906D01*
X4775454Y-14092478D01*
X4773625Y-14078153D01*
X4770069Y-14064183D01*
X4764735Y-14050822D01*
X4760823Y-14043710D01*
X4759756Y-14040764D01*
X4758334Y-14033601D01*
X4754118Y-14021104D01*
X4748276Y-14009268D01*
X4740960Y-13998295D01*
X4732223Y-13988338D01*
X4722317Y-13979651D01*
X4711344Y-13972336D01*
X4699508Y-13966494D01*
X4687011Y-13962227D01*
X4674057Y-13959687D01*
X4660900Y-13958824D01*
X4647742Y-13959687D01*
X4634788Y-13962227D01*
X4622292Y-13966494D01*
X4610455Y-13972336D01*
X4599482Y-13979651D01*
X4589576Y-13988338D01*
X4580839Y-13998295D01*
X4573524Y-14009268D01*
X4567682Y-14021104D01*
X4563465Y-14033601D01*
X4562043Y-14040713D01*
X4560976Y-14043609D01*
X4557014Y-14050822D01*
X4551730Y-14064183D01*
X4548124Y-14078153D01*
X4546346Y-14092478D01*
X4546346Y-14106906D01*
X4548124Y-14121180D01*
X4551730Y-14135150D01*
X4557014Y-14148562D01*
X4559655Y-14154048D01*
X4560874Y-14172844D01*
X4563465Y-14185798D01*
X4567682Y-14198295D01*
X4573524Y-14210131D01*
X4580839Y-14221104D01*
X4589576Y-14231061D01*
X4599482Y-14239748D01*
X4610455Y-14247063D01*
X4622292Y-14252905D01*
X4634788Y-14257172D01*
X4647742Y-14259712D01*
G37*
G36*
X4958740Y-14250314D02*
G01*
X4965344Y-14247063D01*
X4976317Y-14239748D01*
X4986223Y-14231061D01*
X4994960Y-14221104D01*
X5002276Y-14210131D01*
X5008118Y-14198295D01*
X5012334Y-14185798D01*
X5013807Y-14178534D01*
X4965700Y-14178534D01*
X4965700Y-14217599D01*
X4964836Y-14221713D01*
X4962347Y-14225117D01*
X4958740Y-14227251D01*
G37*
G36*
X4871059Y-14250314D02*
G01*
X4871110Y-14227251D01*
X4867452Y-14225168D01*
X4864963Y-14221764D01*
X4864100Y-14217599D01*
X4864100Y-14178534D01*
X4815992Y-14178534D01*
X4817465Y-14185798D01*
X4821682Y-14198295D01*
X4827524Y-14210131D01*
X4834839Y-14221104D01*
X4843576Y-14231061D01*
X4853482Y-14239748D01*
X4864455Y-14247063D01*
G37*
G36*
X7812379Y-14193062D02*
G01*
X7868462Y-14193062D01*
X7868462Y-14136979D01*
X7866278Y-14137944D01*
X7853273Y-14145818D01*
X7841335Y-14155166D01*
X7830566Y-14165935D01*
X7821218Y-14177873D01*
X7813344Y-14190878D01*
G37*
G36*
X7981137Y-14193062D02*
G01*
X8037220Y-14193062D01*
X8036255Y-14190878D01*
X8028381Y-14177873D01*
X8019034Y-14165935D01*
X8008264Y-14155166D01*
X7996326Y-14145818D01*
X7983321Y-14137944D01*
X7981137Y-14136979D01*
G37*
G36*
X4965700Y-14040866D02*
G01*
X5013807Y-14040866D01*
X5012334Y-14033601D01*
X5008118Y-14021104D01*
X5002276Y-14009268D01*
X4994960Y-13998295D01*
X4986223Y-13988338D01*
X4976317Y-13979651D01*
X4965344Y-13972336D01*
X4958740Y-13969085D01*
X4958740Y-13972082D01*
X4962347Y-13974216D01*
X4964836Y-13977619D01*
X4965700Y-13981734D01*
G37*
G36*
X4815992Y-14040866D02*
G01*
X4864100Y-14040866D01*
X4864100Y-13981734D01*
X4864963Y-13977619D01*
X4867402Y-13974216D01*
X4871059Y-13972082D01*
X4871059Y-13969085D01*
X4864455Y-13972336D01*
X4853482Y-13979651D01*
X4843576Y-13988338D01*
X4834839Y-13998295D01*
X4827524Y-14009268D01*
X4821682Y-14021104D01*
X4817465Y-14033601D01*
G37*
G36*
X1401368Y-13853820D02*
G01*
X1494637Y-13853820D01*
X1494637Y-13759230D01*
X1401368Y-13759230D01*
G37*
G36*
X1807362Y-13853820D02*
G01*
X1900631Y-13853820D01*
X1900631Y-13759230D01*
X1807362Y-13759230D01*
G37*
G36*
X1138631Y-13850823D02*
G01*
X1138631Y-13759230D01*
X1014221Y-13759230D01*
X1020724Y-13770965D01*
X1030884Y-13785545D01*
X1042517Y-13799108D01*
X1055420Y-13811351D01*
X1069492Y-13822273D01*
X1084630Y-13831671D01*
X1100632Y-13839545D01*
X1117346Y-13845743D01*
X1134618Y-13850213D01*
G37*
G36*
X2163368Y-13850823D02*
G01*
X2167382Y-13850213D01*
X2184654Y-13845743D01*
X2201367Y-13839545D01*
X2217369Y-13831671D01*
X2232507Y-13822273D01*
X2246579Y-13811351D01*
X2259482Y-13799108D01*
X2271115Y-13785545D01*
X2281275Y-13770965D01*
X2287778Y-13759230D01*
X2163368Y-13759230D01*
G37*
G36*
X1401368Y-13596569D02*
G01*
X1494637Y-13596569D01*
X1494637Y-13501979D01*
X1401368Y-13501979D01*
G37*
G36*
X1807362Y-13596569D02*
G01*
X1900631Y-13596569D01*
X1900631Y-13501979D01*
X1807362Y-13501979D01*
G37*
G36*
X1014221Y-13596569D02*
G01*
X1138631Y-13596569D01*
X1138631Y-13504976D01*
X1134618Y-13505586D01*
X1117346Y-13510056D01*
X1100632Y-13516254D01*
X1084630Y-13524128D01*
X1069492Y-13533526D01*
X1055420Y-13544448D01*
X1042517Y-13556691D01*
X1030884Y-13570254D01*
X1020724Y-13584834D01*
G37*
G36*
X2163368Y-13596569D02*
G01*
X2287778Y-13596569D01*
X2281275Y-13584834D01*
X2271115Y-13570254D01*
X2259482Y-13556691D01*
X2246579Y-13544448D01*
X2232507Y-13533526D01*
X2217369Y-13524128D01*
X2201367Y-13516254D01*
X2184654Y-13510056D01*
X2167382Y-13505586D01*
X2163368Y-13504976D01*
G37*
G36*
X6645909Y-13508990D02*
G01*
X6700672Y-13508990D01*
X6695389Y-13499185D01*
X6686651Y-13486841D01*
X6676491Y-13475716D01*
X6665061Y-13465911D01*
X6652514Y-13457580D01*
X6645909Y-13454329D01*
G37*
G36*
X6481927Y-13508990D02*
G01*
X6536690Y-13508990D01*
X6536690Y-13454075D01*
X6523685Y-13461542D01*
X6511645Y-13470636D01*
X6500825Y-13481151D01*
X6491376Y-13492886D01*
X6483451Y-13505688D01*
G37*
G36*
X3112058Y-13386307D02*
G01*
X4850841Y-13386307D01*
X4857140Y-13385596D01*
X4862626Y-13383666D01*
X4867503Y-13380618D01*
X4871618Y-13376503D01*
X4874666Y-13371626D01*
X4876596Y-13366140D01*
X4877308Y-13359841D01*
X4877308Y-12332258D01*
X4876596Y-12325959D01*
X4874666Y-12320473D01*
X4871618Y-12315596D01*
X4867503Y-12311481D01*
X4862626Y-12308433D01*
X4857140Y-12306503D01*
X4850841Y-12305792D01*
X3112058Y-12305792D01*
X3105759Y-12306503D01*
X3100273Y-12308433D01*
X3095396Y-12311481D01*
X3091281Y-12315596D01*
X3088233Y-12320473D01*
X3086303Y-12325959D01*
X3085592Y-12332258D01*
X3085592Y-13359841D01*
X3086303Y-13366140D01*
X3088233Y-13371626D01*
X3091281Y-13376503D01*
X3095396Y-13380618D01*
X3100273Y-13383666D01*
X3105759Y-13385596D01*
G37*
G36*
X1219504Y-13297407D02*
G01*
X1320495Y-13297407D01*
X1336192Y-13296442D01*
X1351330Y-13293699D01*
X1366012Y-13289127D01*
X1380032Y-13282777D01*
X1393240Y-13274801D01*
X1405331Y-13265302D01*
X1416202Y-13254431D01*
X1425702Y-13242340D01*
X1433677Y-13229132D01*
X1434744Y-13226796D01*
X1436979Y-13223646D01*
X1440230Y-13221563D01*
X1443990Y-13220801D01*
X1858010Y-13220801D01*
X1861769Y-13221563D01*
X1865020Y-13223646D01*
X1867255Y-13226796D01*
X1868322Y-13229132D01*
X1876298Y-13242340D01*
X1885797Y-13254431D01*
X1896668Y-13265302D01*
X1908759Y-13274801D01*
X1921967Y-13282777D01*
X1935988Y-13289127D01*
X1950669Y-13293699D01*
X1965807Y-13296442D01*
X1981504Y-13297407D01*
X2082495Y-13297407D01*
X2098192Y-13296442D01*
X2113330Y-13293699D01*
X2128012Y-13289127D01*
X2142032Y-13282777D01*
X2155240Y-13274801D01*
X2167331Y-13265302D01*
X2178202Y-13254431D01*
X2187702Y-13242340D01*
X2195677Y-13229132D01*
X2202027Y-13215112D01*
X2206599Y-13200430D01*
X2209342Y-13185292D01*
X2210308Y-13169900D01*
X2209342Y-13154507D01*
X2206599Y-13139369D01*
X2202027Y-13124688D01*
X2195677Y-13110667D01*
X2187702Y-13097459D01*
X2178202Y-13085368D01*
X2167331Y-13074497D01*
X2155240Y-13064998D01*
X2142032Y-13057022D01*
X2128012Y-13050672D01*
X2113330Y-13046100D01*
X2098192Y-13043357D01*
X2082495Y-13042392D01*
X1981504Y-13042392D01*
X1965807Y-13043357D01*
X1950669Y-13046100D01*
X1935988Y-13050672D01*
X1921967Y-13057022D01*
X1908759Y-13064998D01*
X1896668Y-13074497D01*
X1885797Y-13085368D01*
X1876298Y-13097459D01*
X1868322Y-13110667D01*
X1867255Y-13113004D01*
X1865020Y-13116153D01*
X1861769Y-13118236D01*
X1858010Y-13118998D01*
X1443990Y-13118998D01*
X1440230Y-13118236D01*
X1436979Y-13116153D01*
X1434744Y-13113004D01*
X1433677Y-13110667D01*
X1425702Y-13097459D01*
X1416202Y-13085368D01*
X1405331Y-13074497D01*
X1393240Y-13064998D01*
X1380032Y-13057022D01*
X1366012Y-13050672D01*
X1351330Y-13046100D01*
X1336192Y-13043357D01*
X1320495Y-13042392D01*
X1219504Y-13042392D01*
X1203807Y-13043357D01*
X1188669Y-13046100D01*
X1173988Y-13050672D01*
X1159967Y-13057022D01*
X1146759Y-13064998D01*
X1134668Y-13074497D01*
X1123797Y-13085368D01*
X1114298Y-13097459D01*
X1106322Y-13110667D01*
X1099972Y-13124688D01*
X1095400Y-13139369D01*
X1092657Y-13154507D01*
X1091692Y-13169900D01*
X1092657Y-13185292D01*
X1095400Y-13200430D01*
X1099972Y-13215112D01*
X1106322Y-13229132D01*
X1114298Y-13242340D01*
X1123797Y-13254431D01*
X1134668Y-13265302D01*
X1146759Y-13274801D01*
X1159967Y-13282777D01*
X1173988Y-13289127D01*
X1188669Y-13293699D01*
X1203807Y-13296442D01*
G37*
G36*
X2927350Y-12928650D02*
G01*
X2934309Y-12928193D01*
X2947416Y-12925602D01*
X2960065Y-12921335D01*
X2972054Y-12915392D01*
X2983128Y-12907975D01*
X2993186Y-12899186D01*
X3001975Y-12889128D01*
X3009392Y-12878054D01*
X3012643Y-12871450D01*
X2927350Y-12871450D01*
G37*
G36*
X1949450Y-12785293D02*
G01*
X1949450Y-12719050D01*
X1867357Y-12719050D01*
X1868322Y-12721132D01*
X1876298Y-12734340D01*
X1885797Y-12746431D01*
X1896668Y-12757302D01*
X1908759Y-12766802D01*
X1921967Y-12774777D01*
X1935988Y-12781127D01*
G37*
G36*
X2114550Y-12785293D02*
G01*
X2128012Y-12781127D01*
X2142032Y-12774777D01*
X2155240Y-12766802D01*
X2167331Y-12757302D01*
X2178202Y-12746431D01*
X2187702Y-12734340D01*
X2195677Y-12721132D01*
X2196642Y-12719050D01*
X2114550Y-12719050D01*
G37*
G36*
X1187450Y-12785293D02*
G01*
X1187450Y-12719050D01*
X1105357Y-12719050D01*
X1106322Y-12721132D01*
X1114298Y-12734340D01*
X1123797Y-12746431D01*
X1134668Y-12757302D01*
X1146759Y-12766802D01*
X1159967Y-12774777D01*
X1173988Y-12781127D01*
G37*
G36*
X1352550Y-12785293D02*
G01*
X1366012Y-12781127D01*
X1380032Y-12774777D01*
X1393240Y-12766802D01*
X1405331Y-12757302D01*
X1416202Y-12746431D01*
X1425702Y-12734340D01*
X1433677Y-12721132D01*
X1434642Y-12719050D01*
X1352550Y-12719050D01*
G37*
G36*
X1867357Y-12604750D02*
G01*
X1949450Y-12604750D01*
X1949450Y-12538506D01*
X1935988Y-12542672D01*
X1921967Y-12549022D01*
X1908759Y-12556998D01*
X1896668Y-12566497D01*
X1885797Y-12577368D01*
X1876298Y-12589459D01*
X1868322Y-12602667D01*
G37*
G36*
X2114550Y-12604750D02*
G01*
X2196642Y-12604750D01*
X2195677Y-12602667D01*
X2187702Y-12589459D01*
X2178202Y-12577368D01*
X2167331Y-12566497D01*
X2155240Y-12556998D01*
X2142032Y-12549022D01*
X2128012Y-12542672D01*
X2114550Y-12538506D01*
G37*
G36*
X1352550Y-12604750D02*
G01*
X1434642Y-12604750D01*
X1433677Y-12602667D01*
X1425702Y-12589459D01*
X1416202Y-12577368D01*
X1405331Y-12566497D01*
X1393240Y-12556998D01*
X1380032Y-12549022D01*
X1366012Y-12542672D01*
X1352550Y-12538506D01*
G37*
G36*
X1105357Y-12604750D02*
G01*
X1187450Y-12604750D01*
X1187450Y-12538506D01*
X1173988Y-12542672D01*
X1159967Y-12549022D01*
X1146759Y-12556998D01*
X1134668Y-12566497D01*
X1123797Y-12577368D01*
X1114298Y-12589459D01*
X1106322Y-12602667D01*
G37*
G36*
X1401368Y-12329820D02*
G01*
X1456537Y-12329820D01*
X1456537Y-12235230D01*
X1401368Y-12235230D01*
G37*
G36*
X1769262Y-12329820D02*
G01*
X1900631Y-12329820D01*
X1900631Y-12235230D01*
X1769262Y-12235230D01*
G37*
G36*
X1138631Y-12326823D02*
G01*
X1138631Y-12235230D01*
X1014221Y-12235230D01*
X1020724Y-12246965D01*
X1030884Y-12261545D01*
X1042517Y-12275108D01*
X1055420Y-12287351D01*
X1069492Y-12298273D01*
X1084630Y-12307671D01*
X1100632Y-12315545D01*
X1117346Y-12321743D01*
X1134618Y-12326213D01*
G37*
G36*
X2163368Y-12326823D02*
G01*
X2167382Y-12326213D01*
X2184654Y-12321743D01*
X2201367Y-12315545D01*
X2217369Y-12307671D01*
X2232507Y-12298273D01*
X2246579Y-12287351D01*
X2259482Y-12275108D01*
X2271115Y-12261545D01*
X2281275Y-12246965D01*
X2287778Y-12235230D01*
X2163368Y-12235230D01*
G37*
G36*
X5833059Y-12161926D02*
G01*
X5848096Y-12160554D01*
X5862777Y-12157354D01*
X5877001Y-12152325D01*
X5890514Y-12145619D01*
X5903061Y-12137288D01*
X5914491Y-12127484D01*
X5924651Y-12116358D01*
X5933389Y-12104065D01*
X5940501Y-12090755D01*
X5945936Y-12076684D01*
X5946495Y-12074550D01*
X5948426Y-12070689D01*
X5951829Y-12067946D01*
X5956046Y-12066879D01*
X5960313Y-12067692D01*
X5963869Y-12070181D01*
X5966002Y-12073940D01*
X5969152Y-12083796D01*
X5975451Y-12097512D01*
X5983376Y-12110313D01*
X5992825Y-12122048D01*
X6003645Y-12132564D01*
X6015685Y-12141657D01*
X6028740Y-12149175D01*
X6042609Y-12155068D01*
X6057138Y-12159183D01*
X6072022Y-12161469D01*
X6087059Y-12161926D01*
X6102096Y-12160554D01*
X6116777Y-12157354D01*
X6131001Y-12152325D01*
X6144514Y-12145619D01*
X6157061Y-12137288D01*
X6168491Y-12127484D01*
X6178651Y-12116358D01*
X6187389Y-12104065D01*
X6194501Y-12090755D01*
X6199936Y-12076684D01*
X6200495Y-12074550D01*
X6202426Y-12070689D01*
X6205829Y-12067946D01*
X6210046Y-12066879D01*
X6214313Y-12067692D01*
X6217869Y-12070181D01*
X6220002Y-12073940D01*
X6223152Y-12083796D01*
X6229451Y-12097512D01*
X6237376Y-12110313D01*
X6246825Y-12122048D01*
X6257645Y-12132564D01*
X6269685Y-12141657D01*
X6282740Y-12149175D01*
X6296609Y-12155068D01*
X6311138Y-12159183D01*
X6326022Y-12161469D01*
X6341059Y-12161926D01*
X6356096Y-12160554D01*
X6370777Y-12157354D01*
X6385001Y-12152325D01*
X6398514Y-12145619D01*
X6411061Y-12137288D01*
X6422491Y-12127484D01*
X6432651Y-12116358D01*
X6441389Y-12104065D01*
X6448501Y-12090755D01*
X6453936Y-12076684D01*
X6454495Y-12074550D01*
X6456426Y-12070689D01*
X6459829Y-12067946D01*
X6464046Y-12066879D01*
X6468313Y-12067692D01*
X6471869Y-12070181D01*
X6474002Y-12073940D01*
X6477152Y-12083796D01*
X6483451Y-12097512D01*
X6491376Y-12110313D01*
X6500825Y-12122048D01*
X6511645Y-12132564D01*
X6523685Y-12141657D01*
X6536740Y-12149175D01*
X6550609Y-12155068D01*
X6565138Y-12159183D01*
X6580022Y-12161469D01*
X6595059Y-12161926D01*
X6610096Y-12160554D01*
X6624777Y-12157354D01*
X6639001Y-12152325D01*
X6652514Y-12145619D01*
X6665061Y-12137288D01*
X6676491Y-12127484D01*
X6686651Y-12116358D01*
X6695389Y-12104065D01*
X6702501Y-12090755D01*
X6707936Y-12076684D01*
X6708495Y-12074550D01*
X6710425Y-12070689D01*
X6713829Y-12067946D01*
X6718046Y-12066879D01*
X6722313Y-12067692D01*
X6725869Y-12070181D01*
X6728002Y-12073940D01*
X6731152Y-12083796D01*
X6737451Y-12097512D01*
X6745376Y-12110313D01*
X6754825Y-12122048D01*
X6765645Y-12132564D01*
X6777685Y-12141657D01*
X6790740Y-12149175D01*
X6804609Y-12155068D01*
X6819138Y-12159183D01*
X6834022Y-12161469D01*
X6849059Y-12161926D01*
X6864096Y-12160554D01*
X6878777Y-12157354D01*
X6893001Y-12152325D01*
X6906514Y-12145619D01*
X6919061Y-12137288D01*
X6930491Y-12127484D01*
X6940651Y-12116358D01*
X6949389Y-12104065D01*
X6956501Y-12090755D01*
X6961936Y-12076684D01*
X6962495Y-12074550D01*
X6964425Y-12070689D01*
X6967829Y-12067946D01*
X6972046Y-12066879D01*
X6976313Y-12067692D01*
X6979869Y-12070181D01*
X6982002Y-12073940D01*
X6985152Y-12083796D01*
X6991451Y-12097512D01*
X6999376Y-12110313D01*
X7008825Y-12122048D01*
X7019645Y-12132564D01*
X7031685Y-12141657D01*
X7044740Y-12149175D01*
X7058609Y-12155068D01*
X7073138Y-12159183D01*
X7088022Y-12161469D01*
X7103059Y-12161926D01*
X7118096Y-12160554D01*
X7132777Y-12157354D01*
X7147001Y-12152325D01*
X7160514Y-12145619D01*
X7173061Y-12137288D01*
X7184491Y-12127484D01*
X7194651Y-12116358D01*
X7203389Y-12104065D01*
X7210501Y-12090755D01*
X7215936Y-12076684D01*
X7216495Y-12074550D01*
X7218425Y-12070689D01*
X7221829Y-12067946D01*
X7226046Y-12066879D01*
X7230313Y-12067692D01*
X7233869Y-12070181D01*
X7236002Y-12073940D01*
X7239152Y-12083796D01*
X7245451Y-12097512D01*
X7253376Y-12110313D01*
X7262825Y-12122048D01*
X7273645Y-12132564D01*
X7285685Y-12141657D01*
X7298740Y-12149175D01*
X7312609Y-12155068D01*
X7327138Y-12159183D01*
X7342022Y-12161469D01*
X7357059Y-12161926D01*
X7372096Y-12160554D01*
X7386777Y-12157354D01*
X7401001Y-12152325D01*
X7414514Y-12145619D01*
X7427061Y-12137288D01*
X7438491Y-12127484D01*
X7448651Y-12116358D01*
X7457389Y-12104065D01*
X7464501Y-12090755D01*
X7469936Y-12076684D01*
X7470495Y-12074550D01*
X7472425Y-12070689D01*
X7475829Y-12067946D01*
X7480046Y-12066879D01*
X7484313Y-12067692D01*
X7487869Y-12070181D01*
X7490002Y-12073940D01*
X7493152Y-12083796D01*
X7499451Y-12097512D01*
X7507376Y-12110313D01*
X7516825Y-12122048D01*
X7527645Y-12132564D01*
X7539685Y-12141657D01*
X7552740Y-12149175D01*
X7566609Y-12155068D01*
X7581138Y-12159183D01*
X7596022Y-12161469D01*
X7611059Y-12161926D01*
X7626096Y-12160554D01*
X7640777Y-12157354D01*
X7655001Y-12152325D01*
X7668514Y-12145619D01*
X7681061Y-12137288D01*
X7692491Y-12127484D01*
X7702651Y-12116358D01*
X7711389Y-12104065D01*
X7718501Y-12090755D01*
X7723936Y-12076684D01*
X7724495Y-12074550D01*
X7726425Y-12070689D01*
X7729829Y-12067946D01*
X7734046Y-12066879D01*
X7738313Y-12067692D01*
X7741869Y-12070181D01*
X7744002Y-12073940D01*
X7747152Y-12083796D01*
X7753451Y-12097512D01*
X7761376Y-12110313D01*
X7770825Y-12122048D01*
X7781645Y-12132564D01*
X7793685Y-12141657D01*
X7806740Y-12149175D01*
X7820609Y-12155068D01*
X7835138Y-12159183D01*
X7850022Y-12161469D01*
X7865059Y-12161926D01*
X7880096Y-12160554D01*
X7894777Y-12157354D01*
X7909001Y-12152325D01*
X7922514Y-12145619D01*
X7935061Y-12137288D01*
X7946491Y-12127484D01*
X7956651Y-12116358D01*
X7965389Y-12104065D01*
X7972501Y-12090755D01*
X7977936Y-12076684D01*
X7978495Y-12074550D01*
X7980425Y-12070689D01*
X7983829Y-12067946D01*
X7988046Y-12066879D01*
X7992313Y-12067692D01*
X7995869Y-12070181D01*
X7998002Y-12073940D01*
X8001152Y-12083796D01*
X8007451Y-12097512D01*
X8015376Y-12110313D01*
X8024825Y-12122048D01*
X8035645Y-12132564D01*
X8047685Y-12141657D01*
X8060740Y-12149175D01*
X8074609Y-12155068D01*
X8089138Y-12159183D01*
X8104022Y-12161469D01*
X8119059Y-12161926D01*
X8134096Y-12160554D01*
X8148777Y-12157354D01*
X8163001Y-12152325D01*
X8176514Y-12145619D01*
X8189061Y-12137288D01*
X8200491Y-12127484D01*
X8210651Y-12116358D01*
X8219389Y-12104065D01*
X8226501Y-12090755D01*
X8231936Y-12076684D01*
X8232495Y-12074550D01*
X8234425Y-12070689D01*
X8237829Y-12067946D01*
X8242046Y-12066879D01*
X8246313Y-12067692D01*
X8249869Y-12070181D01*
X8252002Y-12073940D01*
X8255152Y-12083796D01*
X8261451Y-12097512D01*
X8269376Y-12110313D01*
X8278825Y-12122048D01*
X8289645Y-12132564D01*
X8301685Y-12141657D01*
X8314740Y-12149175D01*
X8328609Y-12155068D01*
X8343138Y-12159183D01*
X8358022Y-12161469D01*
X8373059Y-12161926D01*
X8388096Y-12160554D01*
X8402777Y-12157354D01*
X8417001Y-12152325D01*
X8430514Y-12145619D01*
X8443061Y-12137288D01*
X8454491Y-12127484D01*
X8464651Y-12116358D01*
X8473389Y-12104065D01*
X8480501Y-12090755D01*
X8485936Y-12076684D01*
X8486495Y-12074550D01*
X8488426Y-12070689D01*
X8491829Y-12067946D01*
X8496046Y-12066879D01*
X8500313Y-12067692D01*
X8503869Y-12070181D01*
X8506002Y-12073940D01*
X8509152Y-12083796D01*
X8515451Y-12097512D01*
X8523376Y-12110313D01*
X8532825Y-12122048D01*
X8543645Y-12132564D01*
X8555685Y-12141657D01*
X8568740Y-12149175D01*
X8582609Y-12155068D01*
X8597138Y-12159183D01*
X8612022Y-12161469D01*
X8627059Y-12161926D01*
X8642096Y-12160554D01*
X8656777Y-12157354D01*
X8671001Y-12152325D01*
X8684514Y-12145619D01*
X8697061Y-12137288D01*
X8708491Y-12127484D01*
X8718651Y-12116358D01*
X8727389Y-12104065D01*
X8734501Y-12090755D01*
X8739936Y-12076684D01*
X8740495Y-12074550D01*
X8742426Y-12070689D01*
X8745829Y-12067946D01*
X8750046Y-12066879D01*
X8754313Y-12067692D01*
X8757869Y-12070181D01*
X8760002Y-12073940D01*
X8763152Y-12083796D01*
X8769451Y-12097512D01*
X8777376Y-12110313D01*
X8786825Y-12122048D01*
X8797645Y-12132564D01*
X8809685Y-12141657D01*
X8822740Y-12149175D01*
X8836609Y-12155068D01*
X8851138Y-12159183D01*
X8866022Y-12161469D01*
X8881059Y-12161926D01*
X8896096Y-12160554D01*
X8910777Y-12157354D01*
X8925001Y-12152325D01*
X8938514Y-12145619D01*
X8951061Y-12137288D01*
X8962491Y-12127484D01*
X8972651Y-12116358D01*
X8981389Y-12104065D01*
X8988501Y-12090755D01*
X8993936Y-12076684D01*
X8994495Y-12074550D01*
X8996426Y-12070689D01*
X8999829Y-12067946D01*
X9004046Y-12066879D01*
X9008313Y-12067692D01*
X9011869Y-12070181D01*
X9014002Y-12073940D01*
X9017152Y-12083796D01*
X9023451Y-12097512D01*
X9031376Y-12110313D01*
X9040825Y-12122048D01*
X9051645Y-12132564D01*
X9063685Y-12141657D01*
X9076740Y-12149175D01*
X9090609Y-12155068D01*
X9105138Y-12159183D01*
X9120022Y-12161469D01*
X9135059Y-12161926D01*
X9150096Y-12160554D01*
X9164777Y-12157354D01*
X9179001Y-12152325D01*
X9192514Y-12145619D01*
X9205061Y-12137288D01*
X9216491Y-12127484D01*
X9226651Y-12116358D01*
X9235389Y-12104065D01*
X9242501Y-12090755D01*
X9247936Y-12076684D01*
X9248495Y-12074550D01*
X9250426Y-12070689D01*
X9253829Y-12067946D01*
X9258046Y-12066879D01*
X9262313Y-12067692D01*
X9265869Y-12070181D01*
X9268002Y-12073940D01*
X9271152Y-12083796D01*
X9277451Y-12097512D01*
X9285376Y-12110313D01*
X9294825Y-12122048D01*
X9305645Y-12132564D01*
X9317685Y-12141657D01*
X9330740Y-12149175D01*
X9344609Y-12155068D01*
X9359138Y-12159183D01*
X9374022Y-12161469D01*
X9389059Y-12161926D01*
X9404096Y-12160554D01*
X9418777Y-12157354D01*
X9433001Y-12152325D01*
X9446514Y-12145619D01*
X9459061Y-12137288D01*
X9470491Y-12127484D01*
X9480651Y-12116358D01*
X9489389Y-12104065D01*
X9496501Y-12090755D01*
X9501936Y-12076684D01*
X9505645Y-12062104D01*
X9507474Y-12047118D01*
X9507474Y-12032081D01*
X9505645Y-12017095D01*
X9501936Y-12002516D01*
X9496501Y-11988444D01*
X9489389Y-11975185D01*
X9480651Y-11962841D01*
X9470491Y-11951716D01*
X9459061Y-11941911D01*
X9446514Y-11933580D01*
X9433001Y-11926874D01*
X9418777Y-11921845D01*
X9404096Y-11918645D01*
X9389059Y-11917273D01*
X9374022Y-11917730D01*
X9359138Y-11920016D01*
X9344609Y-11924131D01*
X9330740Y-11930024D01*
X9317685Y-11937542D01*
X9305645Y-11946636D01*
X9294825Y-11957151D01*
X9285376Y-11968886D01*
X9277451Y-11981688D01*
X9271152Y-11995404D01*
X9268002Y-12005259D01*
X9265869Y-12009018D01*
X9262313Y-12011507D01*
X9258046Y-12012320D01*
X9253829Y-12011253D01*
X9250426Y-12008510D01*
X9248495Y-12004649D01*
X9247936Y-12002516D01*
X9242501Y-11988444D01*
X9235389Y-11975185D01*
X9226651Y-11962841D01*
X9216491Y-11951716D01*
X9205061Y-11941911D01*
X9192514Y-11933580D01*
X9179001Y-11926874D01*
X9164777Y-11921845D01*
X9150096Y-11918645D01*
X9135059Y-11917273D01*
X9120022Y-11917730D01*
X9105138Y-11920016D01*
X9090609Y-11924131D01*
X9076740Y-11930024D01*
X9063685Y-11937542D01*
X9051645Y-11946636D01*
X9040825Y-11957151D01*
X9031376Y-11968886D01*
X9023451Y-11981688D01*
X9017152Y-11995404D01*
X9014002Y-12005259D01*
X9011869Y-12009018D01*
X9008313Y-12011507D01*
X9004046Y-12012320D01*
X8999829Y-12011253D01*
X8996426Y-12008510D01*
X8994495Y-12004649D01*
X8993936Y-12002516D01*
X8988501Y-11988444D01*
X8981389Y-11975185D01*
X8972651Y-11962841D01*
X8962491Y-11951716D01*
X8951061Y-11941911D01*
X8938514Y-11933580D01*
X8925001Y-11926874D01*
X8910777Y-11921845D01*
X8896096Y-11918645D01*
X8881059Y-11917273D01*
X8866022Y-11917730D01*
X8851138Y-11920016D01*
X8836609Y-11924131D01*
X8822740Y-11930024D01*
X8809685Y-11937542D01*
X8797645Y-11946636D01*
X8786825Y-11957151D01*
X8777376Y-11968886D01*
X8769451Y-11981688D01*
X8763152Y-11995404D01*
X8760002Y-12005259D01*
X8757869Y-12009018D01*
X8754313Y-12011507D01*
X8750046Y-12012320D01*
X8745829Y-12011253D01*
X8742426Y-12008510D01*
X8740495Y-12004649D01*
X8739936Y-12002516D01*
X8734501Y-11988444D01*
X8727389Y-11975185D01*
X8718651Y-11962841D01*
X8708491Y-11951716D01*
X8697061Y-11941911D01*
X8684514Y-11933580D01*
X8671001Y-11926874D01*
X8656777Y-11921845D01*
X8642096Y-11918645D01*
X8627059Y-11917273D01*
X8612022Y-11917730D01*
X8597138Y-11920016D01*
X8582609Y-11924131D01*
X8568740Y-11930024D01*
X8555685Y-11937542D01*
X8543645Y-11946636D01*
X8532825Y-11957151D01*
X8523376Y-11968886D01*
X8515451Y-11981688D01*
X8509152Y-11995404D01*
X8506002Y-12005259D01*
X8503869Y-12009018D01*
X8500313Y-12011507D01*
X8496046Y-12012320D01*
X8491829Y-12011253D01*
X8488426Y-12008510D01*
X8486495Y-12004649D01*
X8485936Y-12002516D01*
X8480501Y-11988444D01*
X8473389Y-11975185D01*
X8464651Y-11962841D01*
X8454491Y-11951716D01*
X8443061Y-11941911D01*
X8430514Y-11933580D01*
X8417001Y-11926874D01*
X8402777Y-11921845D01*
X8388096Y-11918645D01*
X8373059Y-11917273D01*
X8358022Y-11917730D01*
X8343138Y-11920016D01*
X8328609Y-11924131D01*
X8314740Y-11930024D01*
X8301685Y-11937542D01*
X8289645Y-11946636D01*
X8278825Y-11957151D01*
X8269376Y-11968886D01*
X8261451Y-11981688D01*
X8255152Y-11995404D01*
X8252002Y-12005259D01*
X8249869Y-12009018D01*
X8246313Y-12011507D01*
X8242046Y-12012320D01*
X8237829Y-12011253D01*
X8234425Y-12008510D01*
X8232495Y-12004649D01*
X8231936Y-12002516D01*
X8226501Y-11988444D01*
X8219389Y-11975185D01*
X8210651Y-11962841D01*
X8200491Y-11951716D01*
X8189061Y-11941911D01*
X8176514Y-11933580D01*
X8163001Y-11926874D01*
X8148777Y-11921845D01*
X8134096Y-11918645D01*
X8119059Y-11917273D01*
X8104022Y-11917730D01*
X8089138Y-11920016D01*
X8074609Y-11924131D01*
X8060740Y-11930024D01*
X8047685Y-11937542D01*
X8035645Y-11946636D01*
X8024825Y-11957151D01*
X8015376Y-11968886D01*
X8007451Y-11981688D01*
X8001152Y-11995404D01*
X7998002Y-12005259D01*
X7995869Y-12009018D01*
X7992313Y-12011507D01*
X7988046Y-12012320D01*
X7983829Y-12011253D01*
X7980425Y-12008510D01*
X7978495Y-12004649D01*
X7977936Y-12002516D01*
X7972501Y-11988444D01*
X7965389Y-11975185D01*
X7956651Y-11962841D01*
X7946491Y-11951716D01*
X7935061Y-11941911D01*
X7922514Y-11933580D01*
X7909001Y-11926874D01*
X7894777Y-11921845D01*
X7880096Y-11918645D01*
X7865059Y-11917273D01*
X7850022Y-11917730D01*
X7835138Y-11920016D01*
X7820609Y-11924131D01*
X7806740Y-11930024D01*
X7793685Y-11937542D01*
X7781645Y-11946636D01*
X7770825Y-11957151D01*
X7761376Y-11968886D01*
X7753451Y-11981688D01*
X7747152Y-11995404D01*
X7744002Y-12005259D01*
X7741869Y-12009018D01*
X7738313Y-12011507D01*
X7734046Y-12012320D01*
X7729829Y-12011253D01*
X7726425Y-12008510D01*
X7724495Y-12004649D01*
X7723936Y-12002516D01*
X7718501Y-11988444D01*
X7711389Y-11975185D01*
X7702651Y-11962841D01*
X7692491Y-11951716D01*
X7681061Y-11941911D01*
X7668514Y-11933580D01*
X7655001Y-11926874D01*
X7640777Y-11921845D01*
X7626096Y-11918645D01*
X7611059Y-11917273D01*
X7596022Y-11917730D01*
X7581138Y-11920016D01*
X7566609Y-11924131D01*
X7552740Y-11930024D01*
X7539685Y-11937542D01*
X7527645Y-11946636D01*
X7516825Y-11957151D01*
X7507376Y-11968886D01*
X7499451Y-11981688D01*
X7493152Y-11995404D01*
X7490002Y-12005259D01*
X7487869Y-12009018D01*
X7484313Y-12011507D01*
X7480046Y-12012320D01*
X7475829Y-12011253D01*
X7472425Y-12008510D01*
X7470495Y-12004649D01*
X7469936Y-12002516D01*
X7464501Y-11988444D01*
X7457389Y-11975185D01*
X7448651Y-11962841D01*
X7438491Y-11951716D01*
X7427061Y-11941911D01*
X7414514Y-11933580D01*
X7401001Y-11926874D01*
X7386777Y-11921845D01*
X7372096Y-11918645D01*
X7357059Y-11917273D01*
X7342022Y-11917730D01*
X7327138Y-11920016D01*
X7312609Y-11924131D01*
X7298740Y-11930024D01*
X7285685Y-11937542D01*
X7273645Y-11946636D01*
X7262825Y-11957151D01*
X7253376Y-11968886D01*
X7245451Y-11981688D01*
X7239152Y-11995404D01*
X7236002Y-12005259D01*
X7233869Y-12009018D01*
X7230313Y-12011507D01*
X7226046Y-12012320D01*
X7221829Y-12011253D01*
X7218425Y-12008510D01*
X7216495Y-12004649D01*
X7215936Y-12002516D01*
X7210501Y-11988444D01*
X7203389Y-11975185D01*
X7194651Y-11962841D01*
X7184491Y-11951716D01*
X7173061Y-11941911D01*
X7160514Y-11933580D01*
X7147001Y-11926874D01*
X7132777Y-11921845D01*
X7118096Y-11918645D01*
X7103059Y-11917273D01*
X7088022Y-11917730D01*
X7073138Y-11920016D01*
X7058609Y-11924131D01*
X7044740Y-11930024D01*
X7031685Y-11937542D01*
X7019645Y-11946636D01*
X7008825Y-11957151D01*
X6999376Y-11968886D01*
X6991451Y-11981688D01*
X6985152Y-11995404D01*
X6982002Y-12005259D01*
X6979869Y-12009018D01*
X6976313Y-12011507D01*
X6972046Y-12012320D01*
X6967829Y-12011253D01*
X6964425Y-12008510D01*
X6962495Y-12004649D01*
X6961936Y-12002516D01*
X6956501Y-11988444D01*
X6949389Y-11975185D01*
X6940651Y-11962841D01*
X6930491Y-11951716D01*
X6919061Y-11941911D01*
X6906514Y-11933580D01*
X6893001Y-11926874D01*
X6878777Y-11921845D01*
X6864096Y-11918645D01*
X6849059Y-11917273D01*
X6834022Y-11917730D01*
X6819138Y-11920016D01*
X6804609Y-11924131D01*
X6790740Y-11930024D01*
X6777685Y-11937542D01*
X6765645Y-11946636D01*
X6754825Y-11957151D01*
X6745376Y-11968886D01*
X6737451Y-11981688D01*
X6731152Y-11995404D01*
X6728002Y-12005259D01*
X6725869Y-12009018D01*
X6722313Y-12011507D01*
X6718046Y-12012320D01*
X6713829Y-12011253D01*
X6710425Y-12008510D01*
X6708495Y-12004649D01*
X6707936Y-12002516D01*
X6702501Y-11988444D01*
X6695389Y-11975185D01*
X6686651Y-11962841D01*
X6676491Y-11951716D01*
X6665061Y-11941911D01*
X6652514Y-11933580D01*
X6639001Y-11926874D01*
X6624777Y-11921845D01*
X6610096Y-11918645D01*
X6595059Y-11917273D01*
X6580022Y-11917730D01*
X6565138Y-11920016D01*
X6550609Y-11924131D01*
X6536740Y-11930024D01*
X6523685Y-11937542D01*
X6511645Y-11946636D01*
X6500825Y-11957151D01*
X6491376Y-11968886D01*
X6483451Y-11981688D01*
X6477152Y-11995404D01*
X6474002Y-12005259D01*
X6471869Y-12009018D01*
X6468313Y-12011507D01*
X6464046Y-12012320D01*
X6459829Y-12011253D01*
X6456426Y-12008510D01*
X6454495Y-12004649D01*
X6453936Y-12002516D01*
X6448501Y-11988444D01*
X6441389Y-11975185D01*
X6432651Y-11962841D01*
X6422491Y-11951716D01*
X6411061Y-11941911D01*
X6398514Y-11933580D01*
X6385001Y-11926874D01*
X6370777Y-11921845D01*
X6356096Y-11918645D01*
X6341059Y-11917273D01*
X6326022Y-11917730D01*
X6311138Y-11920016D01*
X6296609Y-11924131D01*
X6282740Y-11930024D01*
X6269685Y-11937542D01*
X6257645Y-11946636D01*
X6246825Y-11957151D01*
X6237376Y-11968886D01*
X6229451Y-11981688D01*
X6223152Y-11995404D01*
X6220002Y-12005259D01*
X6217869Y-12009018D01*
X6214313Y-12011507D01*
X6210046Y-12012320D01*
X6205829Y-12011253D01*
X6202426Y-12008510D01*
X6200495Y-12004649D01*
X6199936Y-12002516D01*
X6194501Y-11988444D01*
X6187389Y-11975185D01*
X6178651Y-11962841D01*
X6168491Y-11951716D01*
X6157061Y-11941911D01*
X6144514Y-11933580D01*
X6131001Y-11926874D01*
X6116777Y-11921845D01*
X6102096Y-11918645D01*
X6087059Y-11917273D01*
X6072022Y-11917730D01*
X6057138Y-11920016D01*
X6042609Y-11924131D01*
X6028740Y-11930024D01*
X6015685Y-11937542D01*
X6003645Y-11946636D01*
X5992825Y-11957151D01*
X5983376Y-11968886D01*
X5975451Y-11981688D01*
X5969152Y-11995404D01*
X5966002Y-12005259D01*
X5963869Y-12009018D01*
X5960313Y-12011507D01*
X5956046Y-12012320D01*
X5951829Y-12011253D01*
X5948426Y-12008510D01*
X5946495Y-12004649D01*
X5945936Y-12002516D01*
X5940501Y-11988444D01*
X5933389Y-11975185D01*
X5924651Y-11962841D01*
X5914491Y-11951716D01*
X5903061Y-11941911D01*
X5890514Y-11933580D01*
X5877001Y-11926874D01*
X5862777Y-11921845D01*
X5848096Y-11918645D01*
X5833059Y-11917273D01*
X5818022Y-11917730D01*
X5803138Y-11920016D01*
X5788609Y-11924131D01*
X5774740Y-11930024D01*
X5761685Y-11937542D01*
X5749645Y-11946636D01*
X5738825Y-11957151D01*
X5729376Y-11968886D01*
X5721451Y-11981688D01*
X5715152Y-11995404D01*
X5710580Y-12009729D01*
X5707837Y-12024563D01*
X5706872Y-12039600D01*
X5707837Y-12054636D01*
X5710580Y-12069470D01*
X5715152Y-12083796D01*
X5721451Y-12097512D01*
X5729376Y-12110313D01*
X5738825Y-12122048D01*
X5749645Y-12132564D01*
X5761685Y-12141657D01*
X5774740Y-12149175D01*
X5788609Y-12155068D01*
X5803138Y-12159183D01*
X5818022Y-12161469D01*
G37*
G36*
X3914901Y-12123674D02*
G01*
X3933698Y-12123674D01*
X3952443Y-12121743D01*
X3970883Y-12117984D01*
X3988866Y-12112345D01*
X4006189Y-12104878D01*
X4022648Y-12095734D01*
X4038092Y-12085015D01*
X4052366Y-12072721D01*
X4065371Y-12059107D01*
X4076852Y-12044172D01*
X4086860Y-12028220D01*
X4095140Y-12011304D01*
X4101693Y-11993626D01*
X4106367Y-11975439D01*
X4109262Y-11956796D01*
X4110177Y-11938000D01*
X4109262Y-11919204D01*
X4106367Y-11900560D01*
X4101693Y-11882374D01*
X4095140Y-11864695D01*
X4086860Y-11847779D01*
X4076852Y-11831828D01*
X4065371Y-11816892D01*
X4052366Y-11803278D01*
X4038092Y-11790984D01*
X4022648Y-11780266D01*
X4006189Y-11771122D01*
X3988866Y-11763654D01*
X3970883Y-11758015D01*
X3952443Y-11754256D01*
X3933698Y-11752326D01*
X3914901Y-11752326D01*
X3896156Y-11754256D01*
X3877716Y-11758015D01*
X3859733Y-11763654D01*
X3842410Y-11771122D01*
X3825951Y-11780266D01*
X3810508Y-11790984D01*
X3796233Y-11803278D01*
X3783228Y-11816892D01*
X3771747Y-11831828D01*
X3761740Y-11847779D01*
X3753459Y-11864695D01*
X3746906Y-11882374D01*
X3742232Y-11900560D01*
X3739337Y-11919204D01*
X3738422Y-11938000D01*
X3739337Y-11956796D01*
X3742232Y-11975439D01*
X3746906Y-11993626D01*
X3753459Y-12011304D01*
X3761740Y-12028220D01*
X3771747Y-12044172D01*
X3783228Y-12059107D01*
X3796233Y-12072721D01*
X3810508Y-12085015D01*
X3825951Y-12095734D01*
X3842410Y-12104878D01*
X3859733Y-12112345D01*
X3877716Y-12117984D01*
X3896156Y-12121743D01*
G37*
G36*
X1401368Y-12072569D02*
G01*
X1456537Y-12072569D01*
X1456537Y-11977979D01*
X1401368Y-11977979D01*
G37*
G36*
X1014221Y-12072569D02*
G01*
X1138631Y-12072569D01*
X1138631Y-11980976D01*
X1134618Y-11981586D01*
X1117346Y-11986056D01*
X1100632Y-11992254D01*
X1084630Y-12000128D01*
X1069492Y-12009526D01*
X1055420Y-12020448D01*
X1042517Y-12032691D01*
X1030884Y-12046254D01*
X1020724Y-12060834D01*
G37*
G36*
X2163368Y-12072569D02*
G01*
X2287778Y-12072569D01*
X2281275Y-12060834D01*
X2271115Y-12046254D01*
X2259482Y-12032691D01*
X2246579Y-12020448D01*
X2232507Y-12009526D01*
X2217369Y-12000128D01*
X2201367Y-11992254D01*
X2184654Y-11986056D01*
X2167382Y-11981586D01*
X2163368Y-11980976D01*
G37*
G36*
X1769262Y-12072569D02*
G01*
X1900631Y-12072569D01*
X1900631Y-11977979D01*
X1769262Y-11977979D01*
G37*
G36*
X4509109Y-11872518D02*
G01*
X4558690Y-11872518D01*
X4564227Y-11871960D01*
X4569053Y-11870486D01*
X4573524Y-11868099D01*
X4577842Y-11864594D01*
X4612894Y-11829542D01*
X4616399Y-11825224D01*
X4618786Y-11820753D01*
X4620260Y-11815927D01*
X4620818Y-11810390D01*
X4620818Y-11760809D01*
X4620260Y-11755272D01*
X4618786Y-11750446D01*
X4616399Y-11745976D01*
X4612894Y-11741658D01*
X4577842Y-11706606D01*
X4573524Y-11703100D01*
X4569053Y-11700713D01*
X4564227Y-11699240D01*
X4558690Y-11698681D01*
X4509109Y-11698681D01*
X4503572Y-11699240D01*
X4498746Y-11700713D01*
X4494276Y-11703100D01*
X4489958Y-11706606D01*
X4464862Y-11731701D01*
X4461560Y-11733936D01*
X4457700Y-11734698D01*
X4447946Y-11734698D01*
X4444034Y-11733936D01*
X4440783Y-11731701D01*
X4217517Y-11508435D01*
X4214063Y-11505285D01*
X4210558Y-11502593D01*
X4206798Y-11500205D01*
X4202836Y-11498173D01*
X4198772Y-11496446D01*
X4194505Y-11495125D01*
X4190187Y-11494160D01*
X4185767Y-11493601D01*
X4181144Y-11493398D01*
X3724351Y-11493398D01*
X3720592Y-11492687D01*
X3717391Y-11490604D01*
X3706723Y-11473586D01*
X3697274Y-11461851D01*
X3686454Y-11451336D01*
X3674414Y-11442242D01*
X3661359Y-11434724D01*
X3647490Y-11428831D01*
X3632962Y-11424716D01*
X3618077Y-11422430D01*
X3603040Y-11421973D01*
X3588004Y-11423345D01*
X3573322Y-11426545D01*
X3559098Y-11431574D01*
X3545586Y-11438280D01*
X3533038Y-11446611D01*
X3521608Y-11456416D01*
X3511448Y-11467541D01*
X3502710Y-11479885D01*
X3495598Y-11493144D01*
X3490163Y-11507216D01*
X3486454Y-11521795D01*
X3484626Y-11536781D01*
X3484626Y-11551818D01*
X3486454Y-11566804D01*
X3490163Y-11581384D01*
X3495598Y-11595455D01*
X3502710Y-11608765D01*
X3511448Y-11621058D01*
X3521608Y-11632184D01*
X3533038Y-11641988D01*
X3545586Y-11650319D01*
X3559098Y-11657025D01*
X3573322Y-11662054D01*
X3588004Y-11665254D01*
X3603040Y-11666626D01*
X3618077Y-11666169D01*
X3632962Y-11663883D01*
X3647490Y-11659768D01*
X3661359Y-11653875D01*
X3674414Y-11646357D01*
X3686454Y-11637264D01*
X3697274Y-11626748D01*
X3706723Y-11615013D01*
X3717391Y-11597995D01*
X3720592Y-11595912D01*
X3724351Y-11595201D01*
X4156049Y-11595201D01*
X4159961Y-11595963D01*
X4163212Y-11598198D01*
X4386478Y-11821464D01*
X4389932Y-11824614D01*
X4393438Y-11827306D01*
X4397197Y-11829694D01*
X4401159Y-11831726D01*
X4405223Y-11833453D01*
X4409490Y-11834774D01*
X4413808Y-11835739D01*
X4418228Y-11836298D01*
X4422851Y-11836501D01*
X4457700Y-11836501D01*
X4461560Y-11837263D01*
X4464862Y-11839498D01*
X4489958Y-11864594D01*
X4494276Y-11868099D01*
X4498746Y-11870486D01*
X4503572Y-11871960D01*
G37*
G36*
X4824730Y-11869623D02*
G01*
X4827524Y-11868099D01*
X4831842Y-11864594D01*
X4866894Y-11829542D01*
X4870399Y-11825224D01*
X4871923Y-11822480D01*
X4824730Y-11822480D01*
G37*
G36*
X4751070Y-11869623D02*
G01*
X4751070Y-11822480D01*
X4703876Y-11822480D01*
X4705400Y-11825224D01*
X4708906Y-11829542D01*
X4743958Y-11864594D01*
X4748276Y-11868099D01*
G37*
G36*
X9502902Y-11806174D02*
G01*
X9521698Y-11806174D01*
X9540443Y-11804243D01*
X9558883Y-11800484D01*
X9576866Y-11794845D01*
X9594189Y-11787378D01*
X9610648Y-11778234D01*
X9626092Y-11767515D01*
X9640366Y-11755221D01*
X9653371Y-11741607D01*
X9664852Y-11726672D01*
X9674860Y-11710720D01*
X9683140Y-11693804D01*
X9689693Y-11676126D01*
X9694367Y-11657939D01*
X9697262Y-11639296D01*
X9698177Y-11620500D01*
X9697262Y-11601704D01*
X9694367Y-11583060D01*
X9689693Y-11564874D01*
X9683140Y-11547195D01*
X9674860Y-11530279D01*
X9664852Y-11514328D01*
X9653371Y-11499392D01*
X9640366Y-11485778D01*
X9626092Y-11473484D01*
X9610648Y-11462766D01*
X9594189Y-11453622D01*
X9576866Y-11446154D01*
X9558883Y-11440515D01*
X9540443Y-11436756D01*
X9521698Y-11434826D01*
X9502902Y-11434826D01*
X9484156Y-11436756D01*
X9465716Y-11440515D01*
X9447733Y-11446154D01*
X9430410Y-11453622D01*
X9413951Y-11462766D01*
X9398508Y-11473484D01*
X9384233Y-11485778D01*
X9371228Y-11499392D01*
X9359747Y-11514328D01*
X9349740Y-11530279D01*
X9341459Y-11547195D01*
X9334906Y-11564874D01*
X9330232Y-11583060D01*
X9327337Y-11601704D01*
X9326422Y-11620500D01*
X9327337Y-11639296D01*
X9330232Y-11657939D01*
X9334906Y-11676126D01*
X9341459Y-11693804D01*
X9349740Y-11710720D01*
X9359747Y-11726672D01*
X9371228Y-11741607D01*
X9384233Y-11755221D01*
X9398508Y-11767515D01*
X9413951Y-11778234D01*
X9430410Y-11787378D01*
X9447733Y-11794845D01*
X9465716Y-11800484D01*
X9484156Y-11804243D01*
G37*
G36*
X4824730Y-11748719D02*
G01*
X4871923Y-11748719D01*
X4870399Y-11745976D01*
X4866894Y-11741658D01*
X4831842Y-11706606D01*
X4827524Y-11703100D01*
X4824730Y-11701576D01*
G37*
G36*
X4703876Y-11748719D02*
G01*
X4751070Y-11748719D01*
X4751070Y-11701576D01*
X4748276Y-11703100D01*
X4743958Y-11706606D01*
X4708906Y-11741658D01*
X4705400Y-11745976D01*
G37*
G36*
X3390900Y-14260576D02*
G01*
X3404057Y-14259712D01*
X3417011Y-14257172D01*
X3429508Y-14252905D01*
X3441344Y-14247063D01*
X3452317Y-14239748D01*
X3462223Y-14231061D01*
X3470960Y-14221104D01*
X3478276Y-14210131D01*
X3484118Y-14198295D01*
X3488334Y-14185798D01*
X3490925Y-14172844D01*
X3491788Y-14159382D01*
X3491788Y-14060017D01*
X3490925Y-14046555D01*
X3488334Y-14033601D01*
X3484118Y-14021104D01*
X3478276Y-14009268D01*
X3470960Y-13998295D01*
X3462223Y-13988338D01*
X3452317Y-13979651D01*
X3441344Y-13972336D01*
X3429508Y-13966494D01*
X3417011Y-13962227D01*
X3404057Y-13959687D01*
X3390900Y-13958824D01*
X3377742Y-13959687D01*
X3364788Y-13962227D01*
X3352292Y-13966494D01*
X3340455Y-13972336D01*
X3329482Y-13979651D01*
X3319576Y-13988338D01*
X3310839Y-13998295D01*
X3303524Y-14009268D01*
X3297682Y-14021104D01*
X3293465Y-14033601D01*
X3290874Y-14046555D01*
X3290011Y-14060017D01*
X3290011Y-14159382D01*
X3290874Y-14172844D01*
X3293465Y-14185798D01*
X3297682Y-14198295D01*
X3303524Y-14210131D01*
X3310839Y-14221104D01*
X3319576Y-14231061D01*
X3329482Y-14239748D01*
X3340455Y-14247063D01*
X3352292Y-14252905D01*
X3364788Y-14257172D01*
X3377742Y-14259712D01*
G37*

%LPD*%
G36*
X3111500Y-12331700D02*
G01*
X3111500Y-13360400D01*
X4851400Y-13360400D01*
X4851400Y-12331700D01*
G37*
D11*
X5168900Y-14099692D02*
G01*
X5184419Y-14084172D01*
X7523251Y-14084172D01*
X8437778Y-14998700D01*
X9118600Y-14998700D01*
X2032000Y-14185900D02*
G01*
X1270000Y-14185900D01*
D12*
X1270000Y-15201900D02*
G01*
X1651000Y-15201900D01*
X2032000Y-15201900D02*
G01*
X1651000Y-15201900D01*
X2507868Y-14852091D02*
G01*
X2158060Y-15201900D01*
X2032000Y-15201900D01*
X4542891Y-15755213D02*
G01*
X4542891Y-15623616D01*
X3771366Y-14852091D01*
X2507868Y-14852091D01*
X2844800Y-12573000D02*
G01*
X2660243Y-12573000D01*
X2507868Y-12725374D01*
X2507868Y-14852091D01*
D11*
X2785846Y-13362152D02*
G01*
X3134080Y-13710386D01*
X7982686Y-13710386D01*
X8458200Y-14185900D01*
X2032000Y-13169900D02*
G01*
X1270000Y-13169900D01*
X4533900Y-11785600D02*
G01*
X4422647Y-11785600D01*
X3606800Y-11544300D02*
G01*
X4181347Y-11544300D01*
X4422647Y-11785600D01*
D12*
X1625600Y-14693900D02*
G01*
X1270000Y-14693900D01*
X2032000Y-14693900D02*
G01*
X1625600Y-14693900D01*
D11*
X2032000Y-15709900D02*
G01*
X2456027Y-16133927D01*
X4714646Y-16133927D01*
X6599174Y-14249400D01*
X7416800Y-14249400D01*
X1270000Y-15709900D02*
G01*
X2032000Y-15709900D01*
G36*
X1351000Y-15051900D02*
G01*
X1950999Y-15051900D01*
X1950999Y-15351899D01*
X1351000Y-15351899D01*
G37*
G36*
X1351000Y-13527900D02*
G01*
X1950999Y-13527900D01*
X1950999Y-13827899D01*
X1351000Y-13827899D01*
G37*
G36*
X1312900Y-12003900D02*
G01*
X1912899Y-12003900D01*
X1912899Y-12303899D01*
X1312900Y-12303899D01*
G37*
G36*
X1325600Y-14543900D02*
G01*
X1925599Y-14543900D01*
X1925599Y-14843899D01*
X1325600Y-14843899D01*
G37*
D15*
G01*
X9118600Y-14998700D03*
G36*
X9743922Y-14950109D02*
G01*
X9675190Y-14881377D01*
X9578009Y-14881377D01*
X9509277Y-14950109D01*
X9509277Y-15047290D01*
X9578009Y-15116022D01*
X9675190Y-15116022D01*
X9743922Y-15047290D01*
G37*
D16*
G01*
X8458200Y-14185900D03*
D17*
G01*
X9474200Y-14185900D03*
D18*
G01*
X6146800Y-14249400D03*
G01*
X6400800Y-14249400D03*
D19*
G01*
X7416800Y-14249400D03*
G01*
X7924800Y-14249400D03*
G36*
X4594910Y-11760327D02*
G01*
X4559172Y-11724589D01*
X4508627Y-11724589D01*
X4472889Y-11760327D01*
X4472889Y-11810872D01*
X4508627Y-11846610D01*
X4559172Y-11846610D01*
X4594910Y-11810872D01*
G37*
G36*
X4848910Y-11760327D02*
G01*
X4813172Y-11724589D01*
X4762627Y-11724589D01*
X4726889Y-11760327D01*
X4726889Y-11810872D01*
X4762627Y-11846610D01*
X4813172Y-11846610D01*
X4848910Y-11810872D01*
G37*
D16*
G01*
X4914874Y-14099667D03*
G01*
X4660874Y-14099667D03*
G01*
X4406874Y-14099667D03*
G01*
X4152874Y-14099667D03*
G01*
X3898900Y-14099692D03*
G01*
X5168900Y-14099692D03*
D20*
G01*
X5829300Y-13563600D03*
D17*
G01*
X6083300Y-13563600D03*
G01*
X6337300Y-13563600D03*
G01*
X6591300Y-13563600D03*
G01*
X6845300Y-13563600D03*
G01*
X7099300Y-13563600D03*
G01*
X7353300Y-13563600D03*
G01*
X7607300Y-13563600D03*
G01*
X7861300Y-13563600D03*
G01*
X8115300Y-13563600D03*
G01*
X8369300Y-13563600D03*
G01*
X8623300Y-13563600D03*
G01*
X5829300Y-12039600D03*
G01*
X6083300Y-12039600D03*
G01*
X6337300Y-12039600D03*
G01*
X6591300Y-12039600D03*
G01*
X6845300Y-12039600D03*
G01*
X7099300Y-12039600D03*
G01*
X7607300Y-12039600D03*
G01*
X7861300Y-12039600D03*
G01*
X8369300Y-12039600D03*
G01*
X8623300Y-12039600D03*
G01*
X8115300Y-12039600D03*
G01*
X7353300Y-12039600D03*
G01*
X8877300Y-13563600D03*
G01*
X9131300Y-13563600D03*
G01*
X9385300Y-13563600D03*
G01*
X8877300Y-12039600D03*
G01*
X9131300Y-12039600D03*
G01*
X9385300Y-12039600D03*
D16*
G01*
X2590800Y-11544300D03*
D17*
G01*
X3606800Y-11544300D03*
G36*
X6655998Y-15076098D02*
G01*
X6806001Y-15076098D01*
X6806001Y-15226101D01*
X6655998Y-15226101D01*
G37*
G36*
X6401998Y-15076098D02*
G01*
X6552001Y-15076098D01*
X6552001Y-15226101D01*
X6401998Y-15226101D01*
G37*
G36*
X6147998Y-15076098D02*
G01*
X6298001Y-15076098D01*
X6298001Y-15226101D01*
X6147998Y-15226101D01*
G37*
G36*
X5893998Y-15076098D02*
G01*
X6044001Y-15076098D01*
X6044001Y-15226101D01*
X5893998Y-15226101D01*
G37*
G36*
X5893998Y-15330098D02*
G01*
X6044001Y-15330098D01*
X6044001Y-15480101D01*
X5893998Y-15480101D01*
G37*
G36*
X6147998Y-15330098D02*
G01*
X6298001Y-15330098D01*
X6298001Y-15480101D01*
X6147998Y-15480101D01*
G37*
G36*
X6401998Y-15330098D02*
G01*
X6552001Y-15330098D01*
X6552001Y-15480101D01*
X6401998Y-15480101D01*
G37*
G36*
X6655998Y-15330098D02*
G01*
X6806001Y-15330098D01*
X6806001Y-15480101D01*
X6655998Y-15480101D01*
G37*
G36*
X5893998Y-15584098D02*
G01*
X6044001Y-15584098D01*
X6044001Y-15734101D01*
X5893998Y-15734101D01*
G37*
G36*
X6147998Y-15584098D02*
G01*
X6298001Y-15584098D01*
X6298001Y-15734101D01*
X6147998Y-15734101D01*
G37*
G36*
X6401998Y-15584098D02*
G01*
X6552001Y-15584098D01*
X6552001Y-15734101D01*
X6401998Y-15734101D01*
G37*
G36*
X6655998Y-15584098D02*
G01*
X6806001Y-15584098D01*
X6806001Y-15734101D01*
X6655998Y-15734101D01*
G37*
G36*
X8178800Y-15290800D02*
G01*
X8331200Y-15290800D01*
X8331200Y-15443200D01*
X8178800Y-15443200D01*
G37*
G36*
X8432800Y-15290800D02*
G01*
X8585200Y-15290800D01*
X8585200Y-15443200D01*
X8432800Y-15443200D01*
G37*
G36*
X7924800Y-15290800D02*
G01*
X8077200Y-15290800D01*
X8077200Y-15443200D01*
X7924800Y-15443200D01*
G37*
G36*
X8445500Y-15798800D02*
G01*
X8597900Y-15798800D01*
X8597900Y-15951200D01*
X8445500Y-15951200D01*
G37*
G36*
X8191500Y-15798800D02*
G01*
X8343900Y-15798800D01*
X8343900Y-15951200D01*
X8191500Y-15951200D01*
G37*
G36*
X7937500Y-15798800D02*
G01*
X8089900Y-15798800D01*
X8089900Y-15951200D01*
X7937500Y-15951200D01*
G37*
D13*
G01*
X2785846Y-13362152D03*
D23*
X1219200Y-14185900D02*
G01*
X1320800Y-14185900D01*
D24*
X1170000Y-13677900D02*
G01*
X1369999Y-13677900D01*
D23*
X1219200Y-13169900D02*
G01*
X1320800Y-13169900D01*
X1981200Y-14185900D02*
G01*
X2082800Y-14185900D01*
D24*
X1932000Y-13677900D02*
G01*
X2131999Y-13677900D01*
D23*
X1981200Y-13169900D02*
G01*
X2082800Y-13169900D01*
X1981200Y-12661900D02*
G01*
X2082800Y-12661900D01*
D24*
X1932000Y-12153900D02*
G01*
X2131999Y-12153900D01*
D23*
X1219200Y-12661900D02*
G01*
X1320800Y-12661900D01*
D24*
X1170000Y-12153900D02*
G01*
X1369999Y-12153900D01*
X1170000Y-14693900D02*
G01*
X1369999Y-14693900D01*
X1932000Y-14693900D02*
G01*
X2131999Y-14693900D01*
X1170000Y-15201900D02*
G01*
X1369999Y-15201900D01*
X1932000Y-15201900D02*
G01*
X2131999Y-15201900D01*
D23*
X1219200Y-15709900D02*
G01*
X1320800Y-15709900D01*
X1981200Y-15709900D02*
G01*
X2082800Y-15709900D01*
D25*
X4542891Y-15607614D02*
G01*
X4542891Y-15902812D01*
X4034891Y-15902812D02*
G01*
X4034891Y-15607614D01*
D26*
X3390900Y-14159699D02*
G01*
X3390900Y-14059700D01*
X5168900Y-14159699D02*
G01*
X5168900Y-14059700D01*
X3644900Y-14159699D02*
G01*
X3644900Y-14059700D01*
X3898900Y-14159699D02*
G01*
X3898900Y-14059700D01*
X4152900Y-14159699D02*
G01*
X4152900Y-14059700D01*
X4406900Y-14159699D02*
G01*
X4406900Y-14059700D01*
X4660900Y-14159699D02*
G01*
X4660900Y-14059700D01*
X4914900Y-14159699D02*
G01*
X4914900Y-14059700D01*
D27*
X2768600Y-12573000D02*
G01*
X2921000Y-12573000D01*
X2768600Y-12827000D02*
G01*
X2921000Y-12827000D01*
X2768600Y-13081000D02*
G01*
X2921000Y-13081000D01*
M02*
