G04 Layer: TopSilkLayer*
G04 EasyEDA v6.4.20.6, 2021-08-10T12:41:07+02:00*
G04 b7c102a2acce44a19693fb55b2eed2e6,dded15cb907e4d9595cc142038e9c969,10*
G04 Gerber Generator version 0.2*
G04 Scale: 100 percent, Rotated: No, Reflected: No *
G04 Dimensions in millimeters *
G04 leading zeros omitted , absolute positions ,4 integer and 5 decimal *
%FSLAX45Y45*%
%MOMM*%

%ADD10C,0.2540*%
%ADD28C,0.1524*%
%ADD29C,0.1270*%
%ADD30C,0.2032*%
%ADD31C,0.6000*%
%ADD32C,0.3048*%
%ADD33C,0.1422*%

%LPD*%
G36*
X3858920Y-15579953D02*
G01*
X3710076Y-15627705D01*
X3710076Y-15647009D01*
X3858920Y-15694507D01*
X3858920Y-15677489D01*
X3734003Y-15639999D01*
X3727602Y-15637865D01*
X3727602Y-15637103D01*
X3740200Y-15633090D01*
X3776624Y-15622625D01*
X3858920Y-15597479D01*
G37*
G36*
X3710076Y-15715335D02*
G01*
X3710076Y-15732353D01*
X3858920Y-15732353D01*
X3858920Y-15715335D01*
G37*
G36*
X3710076Y-15773755D02*
G01*
X3710076Y-15789503D01*
X3797401Y-15789452D01*
X3808831Y-15789097D01*
X3836822Y-15787471D01*
X3836822Y-15788487D01*
X3806342Y-15804743D01*
X3710076Y-15860623D01*
X3710076Y-15878149D01*
X3858920Y-15878149D01*
X3858920Y-15862147D01*
X3772611Y-15862249D01*
X3760927Y-15862604D01*
X3731920Y-15864433D01*
X3731920Y-15863417D01*
X3762400Y-15847161D01*
X3858920Y-15791027D01*
X3858920Y-15773755D01*
G37*
G36*
X3760368Y-15908121D02*
G01*
X3760368Y-15959683D01*
X3773322Y-15959683D01*
X3773322Y-15908121D01*
G37*
G36*
X4868926Y-15556788D02*
G01*
X4720082Y-15604540D01*
X4720082Y-15623844D01*
X4868926Y-15671342D01*
X4868926Y-15654324D01*
X4743958Y-15616783D01*
X4737608Y-15614700D01*
X4737608Y-15613938D01*
X4750054Y-15609976D01*
X4780178Y-15601391D01*
X4868926Y-15574314D01*
G37*
G36*
X4720082Y-15692170D02*
G01*
X4720082Y-15709188D01*
X4868926Y-15709188D01*
X4868926Y-15692170D01*
G37*
G36*
X4720082Y-15750590D02*
G01*
X4720082Y-15766338D01*
X4807305Y-15766288D01*
X4818735Y-15765983D01*
X4846828Y-15764306D01*
X4846828Y-15765322D01*
X4816348Y-15781578D01*
X4720082Y-15837458D01*
X4720082Y-15854984D01*
X4868926Y-15854984D01*
X4868926Y-15838982D01*
X4782616Y-15839033D01*
X4759198Y-15840100D01*
X4741926Y-15841268D01*
X4741926Y-15840252D01*
X4772406Y-15823996D01*
X4868926Y-15767862D01*
X4868926Y-15750590D01*
G37*
G36*
X4788662Y-15883432D02*
G01*
X4788662Y-15924834D01*
X4743704Y-15924834D01*
X4743704Y-15938296D01*
X4788662Y-15938296D01*
X4788662Y-15979698D01*
X4800854Y-15979698D01*
X4800854Y-15938296D01*
X4845558Y-15938296D01*
X4845558Y-15924834D01*
X4800854Y-15924834D01*
X4800854Y-15883432D01*
G37*
G36*
X3460699Y-14327886D02*
G01*
X3312058Y-14375638D01*
X3312058Y-14394942D01*
X3460699Y-14442440D01*
X3460699Y-14425422D01*
X3342081Y-14389811D01*
X3329635Y-14385798D01*
X3329635Y-14385036D01*
X3342081Y-14381022D01*
X3372205Y-14372386D01*
X3460699Y-14345412D01*
G37*
G36*
X3312058Y-14463268D02*
G01*
X3312058Y-14480286D01*
X3460699Y-14480286D01*
X3460699Y-14463268D01*
G37*
G36*
X3312058Y-14521688D02*
G01*
X3312058Y-14537436D01*
X3399332Y-14537385D01*
X3410712Y-14536978D01*
X3438804Y-14535404D01*
X3438804Y-14536419D01*
X3408324Y-14552676D01*
X3312058Y-14608556D01*
X3312058Y-14626082D01*
X3460699Y-14626082D01*
X3460699Y-14610080D01*
X3374644Y-14610130D01*
X3362960Y-14610537D01*
X3333902Y-14612366D01*
X3333902Y-14611350D01*
X3364433Y-14595094D01*
X3460699Y-14538960D01*
X3460699Y-14521688D01*
G37*
G36*
X3362147Y-14656054D02*
G01*
X3362147Y-14707616D01*
X3375304Y-14707616D01*
X3375304Y-14656054D01*
G37*
G36*
X3714699Y-14327886D02*
G01*
X3566058Y-14375638D01*
X3566058Y-14394942D01*
X3714699Y-14442440D01*
X3714699Y-14425422D01*
X3596081Y-14389811D01*
X3583635Y-14385798D01*
X3583635Y-14385036D01*
X3596081Y-14381022D01*
X3626205Y-14372386D01*
X3714699Y-14345412D01*
G37*
G36*
X3566058Y-14463268D02*
G01*
X3566058Y-14480286D01*
X3714699Y-14480286D01*
X3714699Y-14463268D01*
G37*
G36*
X3566058Y-14521688D02*
G01*
X3566058Y-14537436D01*
X3653332Y-14537385D01*
X3664712Y-14536978D01*
X3692804Y-14535404D01*
X3692804Y-14536419D01*
X3662324Y-14552676D01*
X3566058Y-14608556D01*
X3566058Y-14626082D01*
X3714699Y-14626082D01*
X3714699Y-14610080D01*
X3628644Y-14610130D01*
X3616960Y-14610537D01*
X3587902Y-14612366D01*
X3587902Y-14611350D01*
X3618433Y-14595094D01*
X3714699Y-14538960D01*
X3714699Y-14521688D01*
G37*
G36*
X3634435Y-14654530D02*
G01*
X3634435Y-14695678D01*
X3589731Y-14695678D01*
X3589731Y-14709394D01*
X3634435Y-14709394D01*
X3634435Y-14750542D01*
X3646881Y-14750542D01*
X3646881Y-14709394D01*
X3691585Y-14709394D01*
X3691585Y-14695678D01*
X3646881Y-14695678D01*
X3646881Y-14654530D01*
G37*
G36*
X4356455Y-14323974D02*
G01*
X4351578Y-14329054D01*
X4347260Y-14334540D01*
X4343450Y-14340433D01*
X4340301Y-14346732D01*
X4337761Y-14353438D01*
X4335881Y-14360499D01*
X4334764Y-14367967D01*
X4334357Y-14375790D01*
X4334764Y-14383156D01*
X4335830Y-14390065D01*
X4337608Y-14396415D01*
X4339996Y-14402257D01*
X4342942Y-14407489D01*
X4346448Y-14412112D01*
X4350410Y-14416074D01*
X4354830Y-14419427D01*
X4359656Y-14422069D01*
X4364837Y-14423999D01*
X4370324Y-14425168D01*
X4376013Y-14425574D01*
X4383786Y-14424964D01*
X4390491Y-14423136D01*
X4396333Y-14420342D01*
X4401362Y-14416582D01*
X4405731Y-14412010D01*
X4409490Y-14406829D01*
X4412742Y-14401038D01*
X4415637Y-14394840D01*
X4426762Y-14368881D01*
X4428845Y-14364512D01*
X4431233Y-14360347D01*
X4433925Y-14356486D01*
X4437176Y-14353235D01*
X4440936Y-14350644D01*
X4445457Y-14348968D01*
X4450689Y-14348358D01*
X4455718Y-14348866D01*
X4460189Y-14350441D01*
X4464100Y-14352981D01*
X4467402Y-14356334D01*
X4470044Y-14360550D01*
X4471974Y-14365478D01*
X4473143Y-14371116D01*
X4473549Y-14377314D01*
X4473295Y-14382496D01*
X4472584Y-14387372D01*
X4471365Y-14391995D01*
X4469688Y-14396364D01*
X4467656Y-14400479D01*
X4465218Y-14404390D01*
X4462424Y-14408099D01*
X4459325Y-14411604D01*
X4469993Y-14420494D01*
X4473854Y-14416430D01*
X4477359Y-14411960D01*
X4480509Y-14407032D01*
X4483150Y-14401749D01*
X4485335Y-14396110D01*
X4486960Y-14390116D01*
X4487976Y-14383867D01*
X4488281Y-14377314D01*
X4487976Y-14370862D01*
X4487011Y-14364716D01*
X4485386Y-14358975D01*
X4483252Y-14353641D01*
X4480560Y-14348764D01*
X4477359Y-14344396D01*
X4473651Y-14340586D01*
X4469587Y-14337385D01*
X4465066Y-14334794D01*
X4460189Y-14332915D01*
X4454956Y-14331746D01*
X4449419Y-14331340D01*
X4441850Y-14332051D01*
X4435297Y-14334134D01*
X4429607Y-14337284D01*
X4424730Y-14341297D01*
X4420565Y-14345970D01*
X4417060Y-14351050D01*
X4414062Y-14356334D01*
X4411573Y-14361566D01*
X4399838Y-14388338D01*
X4397502Y-14393113D01*
X4394962Y-14397431D01*
X4392117Y-14401190D01*
X4388815Y-14404238D01*
X4384903Y-14406575D01*
X4380280Y-14408048D01*
X4374743Y-14408556D01*
X4369308Y-14407946D01*
X4364329Y-14406270D01*
X4359960Y-14403527D01*
X4356201Y-14399768D01*
X4353204Y-14395094D01*
X4350969Y-14389455D01*
X4349597Y-14383004D01*
X4349089Y-14375790D01*
X4349445Y-14369897D01*
X4350461Y-14364157D01*
X4352036Y-14358569D01*
X4354220Y-14353133D01*
X4356963Y-14347951D01*
X4360164Y-14343024D01*
X4363821Y-14338401D01*
X4367885Y-14334134D01*
G37*
G36*
X4336897Y-14455292D02*
G01*
X4336897Y-14472310D01*
X4471771Y-14472310D01*
X4471771Y-14490598D01*
X4471517Y-14497151D01*
X4470806Y-14503247D01*
X4469536Y-14508937D01*
X4467809Y-14514169D01*
X4465574Y-14518995D01*
X4462881Y-14523415D01*
X4459732Y-14527377D01*
X4456125Y-14530933D01*
X4452061Y-14534032D01*
X4447540Y-14536724D01*
X4442612Y-14539010D01*
X4437278Y-14540890D01*
X4431538Y-14542312D01*
X4425340Y-14543379D01*
X4418787Y-14543989D01*
X4411827Y-14544192D01*
X4404918Y-14543989D01*
X4398365Y-14543379D01*
X4392168Y-14542312D01*
X4386326Y-14540890D01*
X4380890Y-14539010D01*
X4375861Y-14536724D01*
X4371238Y-14534032D01*
X4367072Y-14530933D01*
X4363313Y-14527377D01*
X4360011Y-14523415D01*
X4357217Y-14518995D01*
X4354880Y-14514169D01*
X4353052Y-14508937D01*
X4351731Y-14503247D01*
X4350918Y-14497151D01*
X4350613Y-14490598D01*
X4350613Y-14472310D01*
X4336897Y-14472310D01*
X4336897Y-14492630D01*
X4337151Y-14499183D01*
X4337761Y-14505482D01*
X4338777Y-14511426D01*
X4340250Y-14517065D01*
X4342079Y-14522348D01*
X4344263Y-14527326D01*
X4346854Y-14531949D01*
X4349851Y-14536267D01*
X4353153Y-14540230D01*
X4356862Y-14543887D01*
X4360926Y-14547189D01*
X4365294Y-14550186D01*
X4370019Y-14552777D01*
X4375048Y-14555063D01*
X4380433Y-14557044D01*
X4386122Y-14558619D01*
X4392117Y-14559838D01*
X4398416Y-14560753D01*
X4404969Y-14561261D01*
X4411827Y-14561464D01*
X4418736Y-14561261D01*
X4425289Y-14560753D01*
X4431538Y-14559838D01*
X4437481Y-14558619D01*
X4443120Y-14556994D01*
X4448403Y-14555063D01*
X4453432Y-14552777D01*
X4458055Y-14550136D01*
X4462373Y-14547138D01*
X4466336Y-14543786D01*
X4469942Y-14540128D01*
X4473194Y-14536115D01*
X4476089Y-14531746D01*
X4478629Y-14527072D01*
X4480763Y-14522043D01*
X4482541Y-14516658D01*
X4483963Y-14510969D01*
X4484979Y-14504924D01*
X4485538Y-14498574D01*
X4485741Y-14491868D01*
X4485741Y-14455292D01*
G37*
G36*
X4336897Y-14572132D02*
G01*
X4336897Y-14589150D01*
X4383887Y-14604390D01*
X4383887Y-14608454D01*
X4397095Y-14608454D01*
X4446117Y-14624151D01*
X4471517Y-14631568D01*
X4471517Y-14632330D01*
X4439970Y-14641677D01*
X4397095Y-14655444D01*
X4397095Y-14608454D01*
X4383887Y-14608454D01*
X4383887Y-14659762D01*
X4336897Y-14674494D01*
X4336897Y-14692528D01*
X4485741Y-14641474D01*
X4485741Y-14622932D01*
G37*
G36*
X4610455Y-14323974D02*
G01*
X4605578Y-14329054D01*
X4601260Y-14334540D01*
X4597450Y-14340433D01*
X4594301Y-14346732D01*
X4591761Y-14353438D01*
X4589881Y-14360499D01*
X4588764Y-14367967D01*
X4588357Y-14375790D01*
X4588764Y-14383156D01*
X4589830Y-14390065D01*
X4591608Y-14396415D01*
X4593996Y-14402206D01*
X4596942Y-14407489D01*
X4600448Y-14412112D01*
X4604410Y-14416074D01*
X4608830Y-14419427D01*
X4613656Y-14422069D01*
X4618837Y-14423999D01*
X4624324Y-14425168D01*
X4630013Y-14425574D01*
X4637786Y-14424913D01*
X4644491Y-14423136D01*
X4650333Y-14420342D01*
X4655362Y-14416582D01*
X4659731Y-14412010D01*
X4663490Y-14406829D01*
X4666742Y-14401038D01*
X4669637Y-14394840D01*
X4680762Y-14368881D01*
X4682845Y-14364512D01*
X4685233Y-14360347D01*
X4687925Y-14356486D01*
X4691176Y-14353184D01*
X4694936Y-14350644D01*
X4699457Y-14348968D01*
X4704689Y-14348358D01*
X4709718Y-14348866D01*
X4714189Y-14350441D01*
X4718100Y-14352930D01*
X4721402Y-14356334D01*
X4724044Y-14360550D01*
X4725974Y-14365478D01*
X4727143Y-14371116D01*
X4727549Y-14377314D01*
X4727295Y-14382496D01*
X4726584Y-14387372D01*
X4725365Y-14391995D01*
X4723688Y-14396364D01*
X4721656Y-14400479D01*
X4719218Y-14404390D01*
X4716424Y-14408099D01*
X4713325Y-14411604D01*
X4723993Y-14420494D01*
X4727854Y-14416430D01*
X4731359Y-14411960D01*
X4734509Y-14407032D01*
X4737150Y-14401749D01*
X4739335Y-14396110D01*
X4740960Y-14390116D01*
X4741976Y-14383867D01*
X4742281Y-14377314D01*
X4741976Y-14370862D01*
X4741011Y-14364716D01*
X4739386Y-14358975D01*
X4737252Y-14353641D01*
X4734560Y-14348764D01*
X4731359Y-14344396D01*
X4727651Y-14340586D01*
X4723587Y-14337385D01*
X4719066Y-14334794D01*
X4714189Y-14332915D01*
X4708956Y-14331746D01*
X4703419Y-14331340D01*
X4695850Y-14332051D01*
X4689297Y-14334134D01*
X4683607Y-14337284D01*
X4678730Y-14341297D01*
X4674565Y-14345970D01*
X4671060Y-14351050D01*
X4668062Y-14356334D01*
X4665573Y-14361566D01*
X4653838Y-14388338D01*
X4651502Y-14393113D01*
X4648962Y-14397431D01*
X4646117Y-14401190D01*
X4642815Y-14404238D01*
X4638903Y-14406575D01*
X4634280Y-14408048D01*
X4628743Y-14408556D01*
X4623308Y-14407946D01*
X4618329Y-14406270D01*
X4613960Y-14403527D01*
X4610201Y-14399768D01*
X4607204Y-14395094D01*
X4604969Y-14389455D01*
X4603597Y-14383004D01*
X4603089Y-14375790D01*
X4603445Y-14369897D01*
X4604461Y-14364157D01*
X4606036Y-14358569D01*
X4608220Y-14353133D01*
X4610963Y-14347951D01*
X4614164Y-14343024D01*
X4617821Y-14338401D01*
X4621885Y-14334134D01*
G37*
G36*
X4665319Y-14446656D02*
G01*
X4658258Y-14446859D01*
X4651451Y-14447418D01*
X4644999Y-14448434D01*
X4638802Y-14449755D01*
X4632960Y-14451482D01*
X4627422Y-14453514D01*
X4622241Y-14455901D01*
X4617415Y-14458543D01*
X4612894Y-14461540D01*
X4608779Y-14464842D01*
X4604969Y-14468398D01*
X4601565Y-14472208D01*
X4598517Y-14476272D01*
X4595876Y-14480590D01*
X4593640Y-14485112D01*
X4591761Y-14489836D01*
X4590288Y-14494763D01*
X4589221Y-14499894D01*
X4588611Y-14505178D01*
X4588357Y-14510664D01*
X4588713Y-14517674D01*
X4589780Y-14524228D01*
X4591507Y-14530425D01*
X4593894Y-14536216D01*
X4596942Y-14541601D01*
X4600600Y-14546681D01*
X4604867Y-14551406D01*
X4609693Y-14555876D01*
X4620107Y-14546478D01*
X4616246Y-14542769D01*
X4612843Y-14538960D01*
X4609947Y-14534946D01*
X4607509Y-14530730D01*
X4605629Y-14526310D01*
X4604258Y-14521637D01*
X4603394Y-14516658D01*
X4603089Y-14511426D01*
X4603394Y-14506041D01*
X4604207Y-14500961D01*
X4605578Y-14496186D01*
X4607458Y-14491665D01*
X4609896Y-14487448D01*
X4612792Y-14483537D01*
X4616145Y-14479981D01*
X4619955Y-14476730D01*
X4624273Y-14473783D01*
X4628946Y-14471243D01*
X4634128Y-14469059D01*
X4639665Y-14467230D01*
X4645609Y-14465807D01*
X4651908Y-14464741D01*
X4658563Y-14464131D01*
X4665573Y-14463928D01*
X4672634Y-14464131D01*
X4679289Y-14464792D01*
X4685538Y-14465858D01*
X4691481Y-14467332D01*
X4696968Y-14469211D01*
X4702048Y-14471446D01*
X4706721Y-14474088D01*
X4710988Y-14477034D01*
X4714748Y-14480387D01*
X4718100Y-14483994D01*
X4720945Y-14487956D01*
X4723282Y-14492224D01*
X4725162Y-14496745D01*
X4726482Y-14501520D01*
X4727295Y-14506600D01*
X4727549Y-14511934D01*
X4726533Y-14521281D01*
X4723587Y-14529511D01*
X4719116Y-14536724D01*
X4713325Y-14542922D01*
X4724247Y-14552320D01*
X4727752Y-14548815D01*
X4731054Y-14544903D01*
X4734102Y-14540484D01*
X4736795Y-14535657D01*
X4739081Y-14530324D01*
X4740808Y-14524634D01*
X4741926Y-14518487D01*
X4742281Y-14511934D01*
X4742078Y-14506346D01*
X4741418Y-14500961D01*
X4740351Y-14495729D01*
X4738878Y-14490700D01*
X4736998Y-14485874D01*
X4734712Y-14481251D01*
X4732020Y-14476831D01*
X4728972Y-14472716D01*
X4725517Y-14468805D01*
X4721707Y-14465198D01*
X4717592Y-14461845D01*
X4713071Y-14458797D01*
X4708194Y-14456054D01*
X4703013Y-14453616D01*
X4697526Y-14451533D01*
X4691684Y-14449806D01*
X4685538Y-14448434D01*
X4679086Y-14447469D01*
X4672380Y-14446859D01*
G37*
G36*
X4590897Y-14584070D02*
G01*
X4590897Y-14666620D01*
X4605121Y-14666620D01*
X4605121Y-14601088D01*
X4739741Y-14601088D01*
X4739741Y-14584070D01*
G37*
G36*
X4919319Y-14326260D02*
G01*
X4912258Y-14326463D01*
X4905451Y-14327022D01*
X4898999Y-14328038D01*
X4892802Y-14329410D01*
X4886960Y-14331086D01*
X4881422Y-14333169D01*
X4876241Y-14335556D01*
X4871415Y-14338300D01*
X4866894Y-14341348D01*
X4862779Y-14344700D01*
X4858969Y-14348358D01*
X4855565Y-14352320D01*
X4852517Y-14356486D01*
X4849876Y-14360956D01*
X4847640Y-14365681D01*
X4845761Y-14370608D01*
X4844288Y-14375790D01*
X4843221Y-14381175D01*
X4842611Y-14386763D01*
X4842357Y-14392554D01*
X4842713Y-14399818D01*
X4843627Y-14406676D01*
X4845151Y-14413128D01*
X4847183Y-14419173D01*
X4849672Y-14424710D01*
X4852568Y-14429740D01*
X4855819Y-14434159D01*
X4859375Y-14438020D01*
X4921097Y-14438020D01*
X4921097Y-14390014D01*
X4907127Y-14390014D01*
X4907127Y-14422526D01*
X4866487Y-14422526D01*
X4862576Y-14417090D01*
X4859629Y-14410182D01*
X4857750Y-14402358D01*
X4857089Y-14394078D01*
X4857394Y-14388185D01*
X4858207Y-14382648D01*
X4859578Y-14377416D01*
X4861458Y-14372539D01*
X4863896Y-14368068D01*
X4866792Y-14363903D01*
X4870145Y-14360093D01*
X4873955Y-14356689D01*
X4878273Y-14353641D01*
X4882946Y-14351000D01*
X4888128Y-14348764D01*
X4893665Y-14346885D01*
X4899609Y-14345412D01*
X4905908Y-14344345D01*
X4912563Y-14343735D01*
X4919573Y-14343532D01*
X4926634Y-14343735D01*
X4933289Y-14344446D01*
X4939538Y-14345564D01*
X4945481Y-14347088D01*
X4950968Y-14349069D01*
X4956048Y-14351406D01*
X4960721Y-14354149D01*
X4964988Y-14357248D01*
X4968748Y-14360753D01*
X4972100Y-14364563D01*
X4974945Y-14368729D01*
X4977282Y-14373199D01*
X4979162Y-14377974D01*
X4980482Y-14383054D01*
X4981295Y-14388439D01*
X4981549Y-14394078D01*
X4980432Y-14404695D01*
X4977434Y-14413484D01*
X4972913Y-14420799D01*
X4967325Y-14426844D01*
X4978247Y-14436242D01*
X4981549Y-14432788D01*
X4984750Y-14428825D01*
X4987747Y-14424456D01*
X4990541Y-14419478D01*
X4992878Y-14413992D01*
X4994706Y-14407896D01*
X4995875Y-14401190D01*
X4996281Y-14393824D01*
X4996078Y-14387982D01*
X4995418Y-14382343D01*
X4994351Y-14376907D01*
X4992878Y-14371675D01*
X4990998Y-14366646D01*
X4988712Y-14361871D01*
X4986020Y-14357299D01*
X4982972Y-14353032D01*
X4979517Y-14349018D01*
X4975707Y-14345259D01*
X4971592Y-14341805D01*
X4967071Y-14338706D01*
X4962194Y-14335861D01*
X4957013Y-14333423D01*
X4951526Y-14331289D01*
X4945684Y-14329511D01*
X4939538Y-14328089D01*
X4933086Y-14327073D01*
X4926380Y-14326463D01*
G37*
G36*
X4844897Y-14474088D02*
G01*
X4844897Y-14489836D01*
X4932222Y-14489785D01*
X4943703Y-14489379D01*
X4971643Y-14487804D01*
X4971643Y-14488820D01*
X4941163Y-14505076D01*
X4844897Y-14560956D01*
X4844897Y-14578482D01*
X4993741Y-14578482D01*
X4993741Y-14562480D01*
X4907483Y-14562531D01*
X4884013Y-14563598D01*
X4866741Y-14564766D01*
X4866741Y-14563750D01*
X4897221Y-14547494D01*
X4993741Y-14491360D01*
X4993741Y-14474088D01*
G37*
G36*
X4844897Y-14619884D02*
G01*
X4844897Y-14636902D01*
X4979771Y-14636902D01*
X4979771Y-14655190D01*
X4979517Y-14661743D01*
X4978806Y-14667839D01*
X4977536Y-14673529D01*
X4975809Y-14678761D01*
X4973574Y-14683587D01*
X4970881Y-14688007D01*
X4967732Y-14691969D01*
X4964125Y-14695474D01*
X4960061Y-14698624D01*
X4955540Y-14701316D01*
X4950612Y-14703602D01*
X4945278Y-14705482D01*
X4939538Y-14706904D01*
X4933340Y-14707920D01*
X4926787Y-14708581D01*
X4919827Y-14708784D01*
X4912918Y-14708581D01*
X4906365Y-14707920D01*
X4900168Y-14706904D01*
X4894326Y-14705482D01*
X4888890Y-14703602D01*
X4883861Y-14701316D01*
X4879238Y-14698624D01*
X4875072Y-14695474D01*
X4871313Y-14691969D01*
X4868011Y-14688007D01*
X4865217Y-14683587D01*
X4862880Y-14678761D01*
X4861052Y-14673529D01*
X4859731Y-14667839D01*
X4858918Y-14661743D01*
X4858613Y-14655190D01*
X4858613Y-14636902D01*
X4844897Y-14636902D01*
X4844897Y-14657222D01*
X4845151Y-14663775D01*
X4845761Y-14670074D01*
X4846777Y-14676018D01*
X4848250Y-14681606D01*
X4850079Y-14686940D01*
X4852263Y-14691918D01*
X4854854Y-14696541D01*
X4857851Y-14700859D01*
X4861153Y-14704822D01*
X4864862Y-14708479D01*
X4868926Y-14711781D01*
X4873294Y-14714778D01*
X4878019Y-14717369D01*
X4883048Y-14719655D01*
X4888433Y-14721586D01*
X4894122Y-14723211D01*
X4900117Y-14724430D01*
X4906416Y-14725345D01*
X4912969Y-14725853D01*
X4919827Y-14726056D01*
X4926736Y-14725853D01*
X4933289Y-14725345D01*
X4939538Y-14724430D01*
X4945481Y-14723211D01*
X4951120Y-14721586D01*
X4956403Y-14719655D01*
X4961432Y-14717369D01*
X4966055Y-14714728D01*
X4970373Y-14711730D01*
X4974336Y-14708378D01*
X4977942Y-14704720D01*
X4981194Y-14700707D01*
X4984089Y-14696338D01*
X4986629Y-14691664D01*
X4988763Y-14686584D01*
X4990541Y-14681250D01*
X4991963Y-14675561D01*
X4992979Y-14669516D01*
X4993538Y-14663115D01*
X4993741Y-14656460D01*
X4993741Y-14619884D01*
G37*
G36*
X5247741Y-14340230D02*
G01*
X5098897Y-14387982D01*
X5098897Y-14407286D01*
X5247741Y-14454784D01*
X5247741Y-14437766D01*
X5122875Y-14400225D01*
X5116423Y-14398142D01*
X5116423Y-14397380D01*
X5129022Y-14393367D01*
X5165445Y-14382902D01*
X5247741Y-14357756D01*
G37*
G36*
X5173319Y-14464690D02*
G01*
X5166258Y-14464893D01*
X5159451Y-14465452D01*
X5152999Y-14466468D01*
X5146802Y-14467789D01*
X5140960Y-14469516D01*
X5135422Y-14471548D01*
X5130241Y-14473885D01*
X5125415Y-14476577D01*
X5120894Y-14479574D01*
X5116779Y-14482876D01*
X5112969Y-14486432D01*
X5109565Y-14490242D01*
X5106517Y-14494306D01*
X5103876Y-14498624D01*
X5101640Y-14503146D01*
X5099761Y-14507870D01*
X5098288Y-14512798D01*
X5097221Y-14517928D01*
X5096611Y-14523212D01*
X5096357Y-14528698D01*
X5096713Y-14535708D01*
X5097780Y-14542262D01*
X5099507Y-14548459D01*
X5101894Y-14554250D01*
X5104942Y-14559635D01*
X5108600Y-14564715D01*
X5112867Y-14569440D01*
X5117693Y-14573910D01*
X5128107Y-14564766D01*
X5124246Y-14560956D01*
X5120843Y-14557095D01*
X5117947Y-14553031D01*
X5115509Y-14548815D01*
X5113629Y-14544344D01*
X5112258Y-14539671D01*
X5111394Y-14534692D01*
X5111089Y-14529460D01*
X5111394Y-14524075D01*
X5112207Y-14518995D01*
X5113578Y-14514220D01*
X5115458Y-14509699D01*
X5117896Y-14505482D01*
X5120792Y-14501571D01*
X5124145Y-14498015D01*
X5127955Y-14494763D01*
X5132273Y-14491817D01*
X5136946Y-14489277D01*
X5142128Y-14487093D01*
X5147665Y-14485264D01*
X5153609Y-14483842D01*
X5159908Y-14482775D01*
X5166563Y-14482165D01*
X5173573Y-14481962D01*
X5180634Y-14482165D01*
X5187289Y-14482826D01*
X5193538Y-14483892D01*
X5199481Y-14485366D01*
X5204968Y-14487245D01*
X5210048Y-14489531D01*
X5214721Y-14492122D01*
X5218988Y-14495119D01*
X5222748Y-14498421D01*
X5226100Y-14502079D01*
X5228945Y-14506092D01*
X5231282Y-14510359D01*
X5233162Y-14514880D01*
X5234482Y-14519757D01*
X5235295Y-14524837D01*
X5235549Y-14530222D01*
X5234533Y-14539417D01*
X5231587Y-14547596D01*
X5227116Y-14554758D01*
X5221325Y-14560956D01*
X5232247Y-14570354D01*
X5235752Y-14566849D01*
X5239054Y-14562937D01*
X5242102Y-14558518D01*
X5244795Y-14553692D01*
X5247081Y-14548357D01*
X5248808Y-14542668D01*
X5249926Y-14536521D01*
X5250281Y-14529968D01*
X5250078Y-14524380D01*
X5249418Y-14518995D01*
X5248351Y-14513763D01*
X5246878Y-14508734D01*
X5244998Y-14503907D01*
X5242712Y-14499285D01*
X5240020Y-14494865D01*
X5236972Y-14490750D01*
X5233517Y-14486839D01*
X5229707Y-14483232D01*
X5225592Y-14479879D01*
X5221071Y-14476831D01*
X5216194Y-14474088D01*
X5211013Y-14471650D01*
X5205526Y-14469567D01*
X5199684Y-14467840D01*
X5193538Y-14466468D01*
X5187086Y-14465503D01*
X5180380Y-14464893D01*
G37*
G36*
X5173319Y-14587372D02*
G01*
X5166258Y-14587575D01*
X5159451Y-14588134D01*
X5152999Y-14589150D01*
X5146802Y-14590471D01*
X5140960Y-14592198D01*
X5135422Y-14594230D01*
X5130241Y-14596567D01*
X5125415Y-14599259D01*
X5120894Y-14602256D01*
X5116779Y-14605558D01*
X5112969Y-14609114D01*
X5109565Y-14612924D01*
X5106517Y-14616988D01*
X5103876Y-14621306D01*
X5101640Y-14625828D01*
X5099761Y-14630552D01*
X5098288Y-14635480D01*
X5097221Y-14640610D01*
X5096611Y-14645894D01*
X5096357Y-14651380D01*
X5096713Y-14658390D01*
X5097780Y-14664944D01*
X5099507Y-14671141D01*
X5101894Y-14676932D01*
X5104942Y-14682419D01*
X5108600Y-14687499D01*
X5112867Y-14692325D01*
X5117693Y-14696846D01*
X5128107Y-14687448D01*
X5124246Y-14683638D01*
X5120843Y-14679777D01*
X5117947Y-14675713D01*
X5115509Y-14671497D01*
X5113629Y-14667026D01*
X5112258Y-14662353D01*
X5111394Y-14657374D01*
X5111089Y-14652142D01*
X5111394Y-14646757D01*
X5112207Y-14641677D01*
X5113578Y-14636902D01*
X5115458Y-14632381D01*
X5117896Y-14628164D01*
X5120792Y-14624253D01*
X5124145Y-14620697D01*
X5127955Y-14617446D01*
X5132273Y-14614499D01*
X5136946Y-14611959D01*
X5142128Y-14609775D01*
X5147665Y-14607946D01*
X5153609Y-14606524D01*
X5159908Y-14605457D01*
X5166563Y-14604847D01*
X5173573Y-14604644D01*
X5180634Y-14604847D01*
X5187289Y-14605507D01*
X5193538Y-14606574D01*
X5199481Y-14608048D01*
X5204968Y-14609927D01*
X5210048Y-14612213D01*
X5214721Y-14614804D01*
X5218988Y-14617801D01*
X5222748Y-14621103D01*
X5226100Y-14624761D01*
X5228945Y-14628774D01*
X5231282Y-14633041D01*
X5233162Y-14637562D01*
X5234482Y-14642439D01*
X5235295Y-14647519D01*
X5235549Y-14652904D01*
X5234533Y-14662099D01*
X5231587Y-14670278D01*
X5227116Y-14677440D01*
X5221325Y-14683638D01*
X5232247Y-14693036D01*
X5235752Y-14689632D01*
X5239054Y-14685721D01*
X5242102Y-14681301D01*
X5244795Y-14676424D01*
X5247081Y-14671141D01*
X5248808Y-14665350D01*
X5249926Y-14659203D01*
X5250281Y-14652650D01*
X5250078Y-14647062D01*
X5249418Y-14641677D01*
X5248351Y-14636445D01*
X5246878Y-14631416D01*
X5244998Y-14626590D01*
X5242712Y-14621967D01*
X5240020Y-14617547D01*
X5236972Y-14613432D01*
X5233517Y-14609521D01*
X5229707Y-14605914D01*
X5225592Y-14602561D01*
X5221071Y-14599513D01*
X5216194Y-14596770D01*
X5211013Y-14594332D01*
X5205526Y-14592249D01*
X5199684Y-14590522D01*
X5193538Y-14589150D01*
X5187086Y-14588185D01*
X5180380Y-14587575D01*
G37*
G36*
X3979367Y-14329816D02*
G01*
X3830523Y-14377568D01*
X3830523Y-14396872D01*
X3979367Y-14444370D01*
X3979367Y-14427352D01*
X3878529Y-14397075D01*
X3860647Y-14391894D01*
X3848049Y-14387982D01*
X3848049Y-14386966D01*
X3860647Y-14383004D01*
X3890822Y-14374418D01*
X3979367Y-14347342D01*
G37*
G36*
X3830523Y-14465198D02*
G01*
X3830523Y-14482216D01*
X3965905Y-14482216D01*
X3965905Y-14505838D01*
X3965600Y-14514423D01*
X3964584Y-14521840D01*
X3962857Y-14528139D01*
X3960317Y-14533270D01*
X3956913Y-14537283D01*
X3952646Y-14540128D01*
X3947363Y-14541855D01*
X3941013Y-14542414D01*
X3935425Y-14541906D01*
X3930396Y-14540331D01*
X3926078Y-14537639D01*
X3922420Y-14533727D01*
X3919524Y-14528546D01*
X3917391Y-14522094D01*
X3916070Y-14514169D01*
X3915613Y-14504822D01*
X3915613Y-14482216D01*
X3902659Y-14482216D01*
X3902659Y-14508886D01*
X3902456Y-14515439D01*
X3901897Y-14521484D01*
X3900982Y-14527022D01*
X3899662Y-14532051D01*
X3897934Y-14536521D01*
X3895851Y-14540433D01*
X3893312Y-14543786D01*
X3890416Y-14546580D01*
X3887114Y-14548713D01*
X3883406Y-14550288D01*
X3879291Y-14551253D01*
X3874719Y-14551558D01*
X3869690Y-14551253D01*
X3865118Y-14550237D01*
X3861003Y-14548612D01*
X3857396Y-14546376D01*
X3854196Y-14543532D01*
X3851452Y-14540128D01*
X3849166Y-14536216D01*
X3847287Y-14531695D01*
X3845814Y-14526717D01*
X3844798Y-14521230D01*
X3844188Y-14515287D01*
X3843985Y-14508886D01*
X3843985Y-14482216D01*
X3830523Y-14482216D01*
X3830675Y-14517827D01*
X3831183Y-14523669D01*
X3832047Y-14529257D01*
X3833266Y-14534489D01*
X3834790Y-14539468D01*
X3836670Y-14544090D01*
X3838854Y-14548357D01*
X3841394Y-14552269D01*
X3844340Y-14555774D01*
X3847541Y-14558822D01*
X3851148Y-14561515D01*
X3855059Y-14563750D01*
X3859326Y-14565528D01*
X3863949Y-14566798D01*
X3868928Y-14567560D01*
X3874211Y-14567814D01*
X3881424Y-14567255D01*
X3887876Y-14565579D01*
X3893515Y-14562937D01*
X3898392Y-14559330D01*
X3902456Y-14554860D01*
X3905707Y-14549628D01*
X3908145Y-14543684D01*
X3909771Y-14537080D01*
X3910787Y-14537080D01*
X3912870Y-14542109D01*
X3915664Y-14546529D01*
X3919067Y-14550339D01*
X3923029Y-14553488D01*
X3927449Y-14555978D01*
X3932326Y-14557756D01*
X3937558Y-14558822D01*
X3943045Y-14559178D01*
X3949141Y-14558772D01*
X3954627Y-14557552D01*
X3959555Y-14555520D01*
X3963873Y-14552726D01*
X3967632Y-14549272D01*
X3970832Y-14545157D01*
X3973525Y-14540382D01*
X3975658Y-14534997D01*
X3977284Y-14529104D01*
X3978452Y-14522653D01*
X3979164Y-14515744D01*
X3979367Y-14508378D01*
X3979367Y-14465198D01*
G37*
G36*
X3870655Y-14594738D02*
G01*
X3863949Y-14594992D01*
X3857802Y-14595652D01*
X3852214Y-14596719D01*
X3847185Y-14598294D01*
X3842715Y-14600326D01*
X3838854Y-14602815D01*
X3835552Y-14605812D01*
X3832860Y-14609267D01*
X3830726Y-14613178D01*
X3829202Y-14617649D01*
X3828287Y-14622576D01*
X3827983Y-14628012D01*
X3828338Y-14633549D01*
X3829456Y-14638731D01*
X3831183Y-14643557D01*
X3833520Y-14648129D01*
X3836466Y-14652498D01*
X3839870Y-14656663D01*
X3843782Y-14660676D01*
X3848049Y-14664588D01*
X3848049Y-14665350D01*
X3830523Y-14666620D01*
X3830523Y-14680336D01*
X3940251Y-14680336D01*
X3940251Y-14663826D01*
X3861765Y-14663826D01*
X3857091Y-14659863D01*
X3853078Y-14656054D01*
X3849725Y-14652345D01*
X3847084Y-14648637D01*
X3845001Y-14644928D01*
X3843578Y-14641118D01*
X3842765Y-14637105D01*
X3842461Y-14632838D01*
X3842918Y-14627555D01*
X3844239Y-14623034D01*
X3846474Y-14619325D01*
X3849674Y-14616328D01*
X3853840Y-14614093D01*
X3859072Y-14612518D01*
X3865321Y-14611553D01*
X3872687Y-14611248D01*
X3940251Y-14611248D01*
X3940251Y-14594738D01*
G37*
G36*
X3842969Y-14705736D02*
G01*
X3839921Y-14709851D01*
X3837076Y-14714372D01*
X3834536Y-14719198D01*
X3832351Y-14724278D01*
X3830523Y-14729663D01*
X3829151Y-14735200D01*
X3828287Y-14740890D01*
X3827983Y-14746630D01*
X3828643Y-14755622D01*
X3830574Y-14763496D01*
X3833571Y-14770252D01*
X3837533Y-14775840D01*
X3842258Y-14780260D01*
X3847693Y-14783460D01*
X3853637Y-14785390D01*
X3859987Y-14786000D01*
X3867251Y-14785238D01*
X3873246Y-14782952D01*
X3878275Y-14779447D01*
X3882390Y-14775027D01*
X3885793Y-14769795D01*
X3888689Y-14764054D01*
X3897020Y-14742871D01*
X3901033Y-14734997D01*
X3906265Y-14729460D01*
X3913327Y-14727326D01*
X3919677Y-14728596D01*
X3925062Y-14732457D01*
X3928719Y-14739010D01*
X3930091Y-14748408D01*
X3929329Y-14755672D01*
X3927246Y-14762175D01*
X3924096Y-14768169D01*
X3920185Y-14773808D01*
X3931107Y-14781936D01*
X3935780Y-14775027D01*
X3939692Y-14767001D01*
X3942334Y-14758060D01*
X3943299Y-14748408D01*
X3942689Y-14740128D01*
X3940911Y-14732762D01*
X3938066Y-14726412D01*
X3934307Y-14721128D01*
X3929786Y-14716912D01*
X3924554Y-14713864D01*
X3918762Y-14711984D01*
X3912565Y-14711324D01*
X3906062Y-14712137D01*
X3900474Y-14714321D01*
X3895750Y-14717725D01*
X3891737Y-14722094D01*
X3888384Y-14727174D01*
X3885488Y-14732762D01*
X3882999Y-14738654D01*
X3879087Y-14749221D01*
X3877208Y-14753742D01*
X3875125Y-14758009D01*
X3872788Y-14761870D01*
X3870096Y-14765172D01*
X3866997Y-14767763D01*
X3863390Y-14769439D01*
X3859225Y-14769998D01*
X3852062Y-14768626D01*
X3846271Y-14764410D01*
X3842359Y-14757349D01*
X3840937Y-14747392D01*
X3841902Y-14737689D01*
X3844594Y-14729155D01*
X3848760Y-14721433D01*
X3854145Y-14714118D01*
G37*
G36*
X4090517Y-14320367D02*
G01*
X4090517Y-14337385D01*
X4137507Y-14352625D01*
X4137507Y-14356689D01*
X4150715Y-14356689D01*
X4193641Y-14370456D01*
X4225391Y-14379803D01*
X4225391Y-14380565D01*
X4199940Y-14387982D01*
X4150715Y-14403679D01*
X4150715Y-14356689D01*
X4137507Y-14356689D01*
X4137507Y-14407997D01*
X4090517Y-14422729D01*
X4090517Y-14440763D01*
X4239361Y-14389709D01*
X4239361Y-14371167D01*
G37*
G36*
X4090517Y-14462099D02*
G01*
X4090517Y-14544649D01*
X4104741Y-14544649D01*
X4104741Y-14479117D01*
X4239361Y-14479117D01*
X4239361Y-14462099D01*
G37*
G36*
X4090517Y-14571065D02*
G01*
X4090517Y-14658187D01*
X4104741Y-14658187D01*
X4104741Y-14588083D01*
X4161891Y-14588083D01*
X4161891Y-14645233D01*
X4176115Y-14645233D01*
X4176115Y-14588083D01*
X4225137Y-14588083D01*
X4225137Y-14655901D01*
X4239361Y-14655901D01*
X4239361Y-14571065D01*
G37*
G36*
X4090517Y-14689937D02*
G01*
X4090517Y-14706701D01*
X4225645Y-14706701D01*
X4225645Y-14732609D01*
X4225290Y-14741144D01*
X4224223Y-14748611D01*
X4222343Y-14755012D01*
X4219549Y-14760295D01*
X4215841Y-14764461D01*
X4211066Y-14767509D01*
X4205224Y-14769338D01*
X4198213Y-14769947D01*
X4191203Y-14769338D01*
X4185158Y-14767509D01*
X4180078Y-14764461D01*
X4175963Y-14760295D01*
X4172813Y-14755012D01*
X4170527Y-14748611D01*
X4169206Y-14741144D01*
X4168749Y-14732609D01*
X4168749Y-14706701D01*
X4154779Y-14706701D01*
X4154779Y-14734641D01*
X4090517Y-14771725D01*
X4090517Y-14790521D01*
X4156557Y-14752167D01*
X4157878Y-14757247D01*
X4159605Y-14762022D01*
X4161739Y-14766442D01*
X4164228Y-14770455D01*
X4167073Y-14774113D01*
X4170324Y-14777313D01*
X4173982Y-14780107D01*
X4178046Y-14782444D01*
X4182516Y-14784273D01*
X4187342Y-14785594D01*
X4192574Y-14786406D01*
X4198213Y-14786711D01*
X4205427Y-14786254D01*
X4211878Y-14784984D01*
X4217517Y-14782901D01*
X4222445Y-14780107D01*
X4226661Y-14776551D01*
X4230217Y-14772386D01*
X4233164Y-14767560D01*
X4235500Y-14762124D01*
X4237228Y-14756130D01*
X4238447Y-14749678D01*
X4239158Y-14742718D01*
X4239361Y-14735403D01*
X4239361Y-14689937D01*
G37*
G36*
X4225137Y-14799919D02*
G01*
X4225137Y-14845385D01*
X4090517Y-14845385D01*
X4090517Y-14862403D01*
X4225137Y-14862403D01*
X4225137Y-14907869D01*
X4239361Y-14907869D01*
X4239361Y-14799919D01*
G37*
D30*
X5956300Y-15830550D02*
G01*
X5966713Y-15825470D01*
X5982461Y-15809721D01*
X5982461Y-15919450D01*
X6183122Y-15835884D02*
G01*
X6183122Y-15830550D01*
X6188456Y-15820136D01*
X6193536Y-15815055D01*
X6203950Y-15809721D01*
X6225031Y-15809721D01*
X6235445Y-15815055D01*
X6240779Y-15820136D01*
X6245859Y-15830550D01*
X6245859Y-15841218D01*
X6240779Y-15851631D01*
X6230111Y-15867379D01*
X6178041Y-15919450D01*
X6251193Y-15919450D01*
X6457188Y-15809721D02*
G01*
X6514591Y-15809721D01*
X6483095Y-15851631D01*
X6498843Y-15851631D01*
X6509258Y-15856712D01*
X6514591Y-15862045D01*
X6519925Y-15877794D01*
X6519925Y-15888207D01*
X6514591Y-15903955D01*
X6504177Y-15914370D01*
X6488429Y-15919450D01*
X6472681Y-15919450D01*
X6457188Y-15914370D01*
X6451854Y-15909036D01*
X6446520Y-15898621D01*
X6767575Y-15809721D02*
G01*
X6715252Y-15882874D01*
X6793738Y-15882874D01*
X6767575Y-15809721D02*
G01*
X6767575Y-15919450D01*
X7018527Y-15074137D02*
G01*
X6999986Y-15083536D01*
X6981443Y-15101824D01*
X6972300Y-15129510D01*
X6972300Y-15148052D01*
X6981443Y-15175737D01*
X6999986Y-15194279D01*
X7018527Y-15203424D01*
X7046213Y-15203424D01*
X7064756Y-15194279D01*
X7083043Y-15175737D01*
X7092441Y-15148052D01*
X7092441Y-15129510D01*
X7083043Y-15101824D01*
X7064756Y-15083536D01*
X7046213Y-15074137D01*
X7018527Y-15074137D01*
X7153402Y-15074137D02*
G01*
X7153402Y-15203424D01*
X7153402Y-15111221D02*
G01*
X7181088Y-15083536D01*
X7199629Y-15074137D01*
X7227315Y-15074137D01*
X7245604Y-15083536D01*
X7255002Y-15111221D01*
X7255002Y-15203424D01*
X7018527Y-15594837D02*
G01*
X6999986Y-15604236D01*
X6981443Y-15622524D01*
X6972300Y-15650210D01*
X6972300Y-15668752D01*
X6981443Y-15696437D01*
X6999986Y-15714979D01*
X7018527Y-15724124D01*
X7046213Y-15724124D01*
X7064756Y-15714979D01*
X7083043Y-15696437D01*
X7092441Y-15668752D01*
X7092441Y-15650210D01*
X7083043Y-15622524D01*
X7064756Y-15604236D01*
X7046213Y-15594837D01*
X7018527Y-15594837D01*
X7227315Y-15530321D02*
G01*
X7208774Y-15530321D01*
X7190231Y-15539466D01*
X7181088Y-15567152D01*
X7181088Y-15724124D01*
X7153402Y-15594837D02*
G01*
X7217918Y-15594837D01*
X7362190Y-15530321D02*
G01*
X7343647Y-15530321D01*
X7325106Y-15539466D01*
X7315961Y-15567152D01*
X7315961Y-15724124D01*
X7288275Y-15594837D02*
G01*
X7352791Y-15594837D01*
X8458961Y-15629889D02*
G01*
X8458961Y-15675355D01*
X8499856Y-15679928D01*
X8495284Y-15675355D01*
X8490711Y-15661894D01*
X8490711Y-15648178D01*
X8495284Y-15634462D01*
X8504427Y-15625318D01*
X8517890Y-15620745D01*
X8527034Y-15620745D01*
X8540750Y-15625318D01*
X8549893Y-15634462D01*
X8554465Y-15648178D01*
X8554465Y-15661894D01*
X8549893Y-15675355D01*
X8545322Y-15679928D01*
X8536177Y-15684500D01*
X8490711Y-15590774D02*
G01*
X8554465Y-15563595D01*
X8490711Y-15536418D02*
G01*
X8554465Y-15563595D01*
X8224011Y-15667989D02*
G01*
X8296656Y-15667989D01*
X8310372Y-15672562D01*
X8314943Y-15677134D01*
X8319515Y-15686278D01*
X8319515Y-15699994D01*
X8314943Y-15708884D01*
X8237727Y-15667989D02*
G01*
X8228584Y-15677134D01*
X8224011Y-15686278D01*
X8224011Y-15699994D01*
X8228584Y-15708884D01*
X8237727Y-15718028D01*
X8251190Y-15722600D01*
X8260334Y-15722600D01*
X8274050Y-15718028D01*
X8283193Y-15708884D01*
X8287765Y-15699994D01*
X8287765Y-15686278D01*
X8283193Y-15677134D01*
X8274050Y-15667989D01*
X8224011Y-15638018D02*
G01*
X8287765Y-15638018D01*
X8242300Y-15638018D02*
G01*
X8228584Y-15624302D01*
X8224011Y-15615412D01*
X8224011Y-15601695D01*
X8228584Y-15592552D01*
X8242300Y-15587979D01*
X8287765Y-15587979D01*
X8192261Y-15503397D02*
G01*
X8287765Y-15503397D01*
X8237727Y-15503397D02*
G01*
X8228584Y-15512542D01*
X8224011Y-15521686D01*
X8224011Y-15535402D01*
X8228584Y-15544292D01*
X8237727Y-15553436D01*
X8251190Y-15558007D01*
X8260334Y-15558007D01*
X8274050Y-15553436D01*
X8283193Y-15544292D01*
X8287765Y-15535402D01*
X8287765Y-15521686D01*
X8283193Y-15512542D01*
X8274050Y-15503397D01*
X7645400Y-15132812D02*
G01*
X7645400Y-15228316D01*
X7645400Y-15146528D02*
G01*
X7654543Y-15137384D01*
X7663688Y-15132812D01*
X7677150Y-15132812D01*
X7686293Y-15137384D01*
X7695438Y-15146528D01*
X7700009Y-15159989D01*
X7700009Y-15169134D01*
X7695438Y-15182850D01*
X7686293Y-15191994D01*
X7677150Y-15196566D01*
X7663688Y-15196566D01*
X7654543Y-15191994D01*
X7645400Y-15182850D01*
X7752588Y-15132812D02*
G01*
X7743697Y-15137384D01*
X7734554Y-15146528D01*
X7729981Y-15159989D01*
X7729981Y-15169134D01*
X7734554Y-15182850D01*
X7743697Y-15191994D01*
X7752588Y-15196566D01*
X7766304Y-15196566D01*
X7775447Y-15191994D01*
X7784591Y-15182850D01*
X7788909Y-15169134D01*
X7788909Y-15159989D01*
X7784591Y-15146528D01*
X7775447Y-15137384D01*
X7766304Y-15132812D01*
X7752588Y-15132812D01*
X7832597Y-15101062D02*
G01*
X7832597Y-15178278D01*
X7837170Y-15191994D01*
X7846313Y-15196566D01*
X7855458Y-15196566D01*
X7819136Y-15132812D02*
G01*
X7850886Y-15132812D01*
X8005318Y-15146528D02*
G01*
X8000745Y-15137384D01*
X7987284Y-15132812D01*
X7973568Y-15132812D01*
X7959852Y-15137384D01*
X7955279Y-15146528D01*
X7959852Y-15155418D01*
X7968995Y-15159989D01*
X7991856Y-15164562D01*
X8000745Y-15169134D01*
X8005318Y-15178278D01*
X8005318Y-15182850D01*
X8000745Y-15191994D01*
X7987284Y-15196566D01*
X7973568Y-15196566D01*
X7959852Y-15191994D01*
X7955279Y-15182850D01*
X8035290Y-15101062D02*
G01*
X8039861Y-15105634D01*
X8044434Y-15101062D01*
X8039861Y-15096489D01*
X8035290Y-15101062D01*
X8039861Y-15132812D02*
G01*
X8039861Y-15196566D01*
X8129015Y-15132812D02*
G01*
X8129015Y-15205455D01*
X8124443Y-15219171D01*
X8119872Y-15223744D01*
X8110727Y-15228316D01*
X8097265Y-15228316D01*
X8088122Y-15223744D01*
X8129015Y-15146528D02*
G01*
X8119872Y-15137384D01*
X8110727Y-15132812D01*
X8097265Y-15132812D01*
X8088122Y-15137384D01*
X8078977Y-15146528D01*
X8074406Y-15159989D01*
X8074406Y-15169134D01*
X8078977Y-15182850D01*
X8088122Y-15191994D01*
X8097265Y-15196566D01*
X8110727Y-15196566D01*
X8119872Y-15191994D01*
X8129015Y-15182850D01*
X8158988Y-15132812D02*
G01*
X8158988Y-15196566D01*
X8158988Y-15151100D02*
G01*
X8172704Y-15137384D01*
X8181847Y-15132812D01*
X8195309Y-15132812D01*
X8204454Y-15137384D01*
X8209025Y-15151100D01*
X8209025Y-15196566D01*
X8293608Y-15132812D02*
G01*
X8293608Y-15196566D01*
X8293608Y-15146528D02*
G01*
X8284463Y-15137384D01*
X8275320Y-15132812D01*
X8261858Y-15132812D01*
X8252713Y-15137384D01*
X8243570Y-15146528D01*
X8238997Y-15159989D01*
X8238997Y-15169134D01*
X8243570Y-15182850D01*
X8252713Y-15191994D01*
X8261858Y-15196566D01*
X8275320Y-15196566D01*
X8284463Y-15191994D01*
X8293608Y-15182850D01*
X8323579Y-15101062D02*
G01*
X8323579Y-15196566D01*
X2298700Y-12678918D02*
G01*
X2380488Y-12678918D01*
X2410459Y-12624562D02*
G01*
X2410459Y-12720065D01*
X2440431Y-12683489D02*
G01*
X2495041Y-12683489D01*
X2495041Y-12674600D01*
X2490470Y-12665455D01*
X2485897Y-12660884D01*
X2477008Y-12656312D01*
X2463291Y-12656312D01*
X2454147Y-12660884D01*
X2445004Y-12670028D01*
X2440431Y-12683489D01*
X2440431Y-12692634D01*
X2445004Y-12706350D01*
X2454147Y-12715494D01*
X2463291Y-12720065D01*
X2477008Y-12720065D01*
X2485897Y-12715494D01*
X2495041Y-12706350D01*
X2579624Y-12624562D02*
G01*
X2579624Y-12720065D01*
X2579624Y-12670028D02*
G01*
X2570479Y-12660884D01*
X2561336Y-12656312D01*
X2547874Y-12656312D01*
X2538729Y-12660884D01*
X2529586Y-12670028D01*
X2525013Y-12683489D01*
X2525013Y-12692634D01*
X2529586Y-12706350D01*
X2538729Y-12715494D01*
X2547874Y-12720065D01*
X2561336Y-12720065D01*
X2570479Y-12715494D01*
X2579624Y-12706350D01*
X2298700Y-12170918D02*
G01*
X2380488Y-12170918D01*
X2465070Y-12162028D02*
G01*
X2455925Y-12152884D01*
X2446781Y-12148312D01*
X2433320Y-12148312D01*
X2424175Y-12152884D01*
X2415031Y-12162028D01*
X2410459Y-12175489D01*
X2410459Y-12184634D01*
X2415031Y-12198350D01*
X2424175Y-12207494D01*
X2433320Y-12212065D01*
X2446781Y-12212065D01*
X2455925Y-12207494D01*
X2465070Y-12198350D01*
X2499613Y-12148312D02*
G01*
X2526791Y-12212065D01*
X2554224Y-12148312D02*
G01*
X2526791Y-12212065D01*
X2517902Y-12230100D01*
X2508758Y-12239244D01*
X2499613Y-12243815D01*
X2495041Y-12243815D01*
X2597911Y-12116562D02*
G01*
X2597911Y-12193778D01*
X2602229Y-12207494D01*
X2611374Y-12212065D01*
X2620518Y-12212065D01*
X2584195Y-12148312D02*
G01*
X2615945Y-12148312D01*
X2650490Y-12148312D02*
G01*
X2650490Y-12212065D01*
X2650490Y-12175489D02*
G01*
X2655061Y-12162028D01*
X2664206Y-12152884D01*
X2673350Y-12148312D01*
X2686811Y-12148312D01*
X2739643Y-12148312D02*
G01*
X2730500Y-12152884D01*
X2721356Y-12162028D01*
X2716784Y-12175489D01*
X2716784Y-12184634D01*
X2721356Y-12198350D01*
X2730500Y-12207494D01*
X2739643Y-12212065D01*
X2753359Y-12212065D01*
X2762250Y-12207494D01*
X2771393Y-12198350D01*
X2775965Y-12184634D01*
X2775965Y-12175489D01*
X2771393Y-12162028D01*
X2762250Y-12152884D01*
X2753359Y-12148312D01*
X2739643Y-12148312D01*
X2805938Y-12148312D02*
G01*
X2805938Y-12212065D01*
X2805938Y-12166600D02*
G01*
X2819654Y-12152884D01*
X2828797Y-12148312D01*
X2842259Y-12148312D01*
X2851404Y-12152884D01*
X2855975Y-12166600D01*
X2855975Y-12212065D01*
X7700009Y-16047212D02*
G01*
X7700009Y-16110966D01*
X7700009Y-16060928D02*
G01*
X7690865Y-16051784D01*
X7681722Y-16047212D01*
X7668006Y-16047212D01*
X7659115Y-16051784D01*
X7649972Y-16060928D01*
X7645400Y-16074389D01*
X7645400Y-16083534D01*
X7649972Y-16097250D01*
X7659115Y-16106394D01*
X7668006Y-16110966D01*
X7681722Y-16110966D01*
X7690865Y-16106394D01*
X7700009Y-16097250D01*
X7729981Y-16047212D02*
G01*
X7729981Y-16092678D01*
X7734554Y-16106394D01*
X7743697Y-16110966D01*
X7757159Y-16110966D01*
X7766304Y-16106394D01*
X7780020Y-16092678D01*
X7780020Y-16047212D02*
G01*
X7780020Y-16110966D01*
X7823708Y-16015462D02*
G01*
X7823708Y-16092678D01*
X7828025Y-16106394D01*
X7837170Y-16110966D01*
X7846313Y-16110966D01*
X7809991Y-16047212D02*
G01*
X7841741Y-16047212D01*
X7876286Y-16015462D02*
G01*
X7876286Y-16110966D01*
X7876286Y-16065500D02*
G01*
X7890002Y-16051784D01*
X7899145Y-16047212D01*
X7912608Y-16047212D01*
X7921752Y-16051784D01*
X7926324Y-16065500D01*
X7926324Y-16110966D01*
X8006334Y-16060928D02*
G01*
X8001761Y-16051784D01*
X7988045Y-16047212D01*
X7974584Y-16047212D01*
X7960868Y-16051784D01*
X7956295Y-16060928D01*
X7960868Y-16069818D01*
X7970011Y-16074389D01*
X7992618Y-16078962D01*
X8001761Y-16083534D01*
X8006334Y-16092678D01*
X8006334Y-16097250D01*
X8001761Y-16106394D01*
X7988045Y-16110966D01*
X7974584Y-16110966D01*
X7960868Y-16106394D01*
X7956295Y-16097250D01*
X8050022Y-16015462D02*
G01*
X8050022Y-16092678D01*
X8054593Y-16106394D01*
X8063484Y-16110966D01*
X8072627Y-16110966D01*
X8036306Y-16047212D02*
G01*
X8068056Y-16047212D01*
X8102600Y-16074389D02*
G01*
X8157209Y-16074389D01*
X8157209Y-16065500D01*
X8152638Y-16056355D01*
X8148065Y-16051784D01*
X8138922Y-16047212D01*
X8125459Y-16047212D01*
X8116315Y-16051784D01*
X8107172Y-16060928D01*
X8102600Y-16074389D01*
X8102600Y-16083534D01*
X8107172Y-16097250D01*
X8116315Y-16106394D01*
X8125459Y-16110966D01*
X8138922Y-16110966D01*
X8148065Y-16106394D01*
X8157209Y-16097250D01*
X8187181Y-16074389D02*
G01*
X8241791Y-16074389D01*
X8241791Y-16065500D01*
X8237220Y-16056355D01*
X8232647Y-16051784D01*
X8223504Y-16047212D01*
X8210041Y-16047212D01*
X8200897Y-16051784D01*
X8191754Y-16060928D01*
X8187181Y-16074389D01*
X8187181Y-16083534D01*
X8191754Y-16097250D01*
X8200897Y-16106394D01*
X8210041Y-16110966D01*
X8223504Y-16110966D01*
X8232647Y-16106394D01*
X8241791Y-16097250D01*
X8271763Y-16047212D02*
G01*
X8271763Y-16110966D01*
X8271763Y-16074389D02*
G01*
X8276336Y-16060928D01*
X8285479Y-16051784D01*
X8294370Y-16047212D01*
X8308086Y-16047212D01*
D28*
X8750300Y-14688312D02*
G01*
X8760713Y-14682978D01*
X8776208Y-14667484D01*
X8776208Y-14776450D01*
X8841740Y-14667484D02*
G01*
X8826245Y-14672563D01*
X8815831Y-14688312D01*
X8810497Y-14714220D01*
X8810497Y-14729713D01*
X8815831Y-14755876D01*
X8826245Y-14771370D01*
X8841740Y-14776450D01*
X8852154Y-14776450D01*
X8867647Y-14771370D01*
X8878061Y-14755876D01*
X8883395Y-14729713D01*
X8883395Y-14714220D01*
X8878061Y-14688312D01*
X8867647Y-14672563D01*
X8852154Y-14667484D01*
X8841740Y-14667484D01*
X8948674Y-14667484D02*
G01*
X8933179Y-14672563D01*
X8922765Y-14688312D01*
X8917686Y-14714220D01*
X8917686Y-14729713D01*
X8922765Y-14755876D01*
X8933179Y-14771370D01*
X8948674Y-14776450D01*
X8959088Y-14776450D01*
X8974836Y-14771370D01*
X8985250Y-14755876D01*
X8990329Y-14729713D01*
X8990329Y-14714220D01*
X8985250Y-14688312D01*
X8974836Y-14672563D01*
X8959088Y-14667484D01*
X8948674Y-14667484D01*
X9055861Y-14667484D02*
G01*
X9040113Y-14672563D01*
X9029700Y-14688312D01*
X9024620Y-14714220D01*
X9024620Y-14729713D01*
X9029700Y-14755876D01*
X9040113Y-14771370D01*
X9055861Y-14776450D01*
X9066275Y-14776450D01*
X9081770Y-14771370D01*
X9092184Y-14755876D01*
X9097263Y-14729713D01*
X9097263Y-14714220D01*
X9092184Y-14688312D01*
X9081770Y-14672563D01*
X9066275Y-14667484D01*
X9055861Y-14667484D01*
X9131554Y-14703805D02*
G01*
X9131554Y-14755876D01*
X9136888Y-14771370D01*
X9147302Y-14776450D01*
X9162795Y-14776450D01*
X9173209Y-14771370D01*
X9188704Y-14755876D01*
X9188704Y-14703805D02*
G01*
X9188704Y-14776450D01*
X9222993Y-14667484D02*
G01*
X9222993Y-14776450D01*
X9222993Y-14667484D02*
G01*
X9290558Y-14667484D01*
X9222993Y-14719300D02*
G01*
X9264650Y-14719300D01*
X9272777Y-15264892D02*
G01*
X9267443Y-15254478D01*
X9257029Y-15244063D01*
X9246870Y-15238984D01*
X9226041Y-15238984D01*
X9215627Y-15244063D01*
X9205213Y-15254478D01*
X9199879Y-15264892D01*
X9194800Y-15280639D01*
X9194800Y-15306547D01*
X9199879Y-15322042D01*
X9205213Y-15332455D01*
X9215627Y-15342870D01*
X9226041Y-15347950D01*
X9246870Y-15347950D01*
X9257029Y-15342870D01*
X9267443Y-15332455D01*
X9272777Y-15322042D01*
X9312147Y-15264892D02*
G01*
X9312147Y-15259812D01*
X9317481Y-15249397D01*
X9322561Y-15244063D01*
X9332975Y-15238984D01*
X9353804Y-15238984D01*
X9364218Y-15244063D01*
X9369297Y-15249397D01*
X9374631Y-15259812D01*
X9374631Y-15270226D01*
X9369297Y-15280639D01*
X9358884Y-15296134D01*
X9307068Y-15347950D01*
X9379711Y-15347950D01*
X9445243Y-15238984D02*
G01*
X9429750Y-15244063D01*
X9419336Y-15259812D01*
X9414002Y-15285720D01*
X9414002Y-15301213D01*
X9419336Y-15327376D01*
X9429750Y-15342870D01*
X9445243Y-15347950D01*
X9455658Y-15347950D01*
X9471152Y-15342870D01*
X9481565Y-15327376D01*
X9486900Y-15301213D01*
X9486900Y-15285720D01*
X9481565Y-15259812D01*
X9471152Y-15244063D01*
X9455658Y-15238984D01*
X9445243Y-15238984D01*
X8915400Y-14142212D02*
G01*
X8925813Y-14136878D01*
X8941308Y-14121384D01*
X8941308Y-14230350D01*
X8975597Y-14121384D02*
G01*
X8975597Y-14230350D01*
X9027668Y-14157705D02*
G01*
X8975597Y-14209776D01*
X8996425Y-14188947D02*
G01*
X9032747Y-14230350D01*
X9626600Y-14134084D02*
G01*
X9626600Y-14243050D01*
X9626600Y-14134084D02*
G01*
X9673336Y-14134084D01*
X9688829Y-14139163D01*
X9694163Y-14144497D01*
X9699243Y-14154912D01*
X9699243Y-14165326D01*
X9694163Y-14175739D01*
X9688829Y-14180820D01*
X9673336Y-14185900D01*
X9626600Y-14185900D01*
X9662922Y-14185900D02*
G01*
X9699243Y-14243050D01*
X9785604Y-14134084D02*
G01*
X9733534Y-14206728D01*
X9811511Y-14206728D01*
X9785604Y-14134084D02*
G01*
X9785604Y-14243050D01*
X7010400Y-13981684D02*
G01*
X7010400Y-14090650D01*
X7083043Y-13981684D02*
G01*
X7010400Y-14054328D01*
X7036308Y-14028420D02*
G01*
X7083043Y-14090650D01*
X7117334Y-14002512D02*
G01*
X7127747Y-13997178D01*
X7143495Y-13981684D01*
X7143495Y-14090650D01*
X4953000Y-11733784D02*
G01*
X4953000Y-11842750D01*
X4953000Y-11842750D02*
G01*
X5015229Y-11842750D01*
X5049520Y-11733784D02*
G01*
X5049520Y-11842750D01*
X5049520Y-11733784D02*
G01*
X5117084Y-11733784D01*
X5049520Y-11785600D02*
G01*
X5091175Y-11785600D01*
X5049520Y-11842750D02*
G01*
X5117084Y-11842750D01*
X5151374Y-11733784D02*
G01*
X5151374Y-11842750D01*
X5151374Y-11733784D02*
G01*
X5187950Y-11733784D01*
X5203443Y-11738863D01*
X5213858Y-11749278D01*
X5218938Y-11759692D01*
X5224272Y-11775439D01*
X5224272Y-11801347D01*
X5218938Y-11816842D01*
X5213858Y-11827255D01*
X5203443Y-11837670D01*
X5187950Y-11842750D01*
X5151374Y-11842750D01*
X5258561Y-11754612D02*
G01*
X5268975Y-11749278D01*
X5284470Y-11733784D01*
X5284470Y-11842750D01*
X1601978Y-11505692D02*
G01*
X1596644Y-11495278D01*
X1586229Y-11484863D01*
X1576070Y-11479784D01*
X1555242Y-11479784D01*
X1544828Y-11484863D01*
X1534413Y-11495278D01*
X1529079Y-11505692D01*
X1524000Y-11521439D01*
X1524000Y-11547347D01*
X1529079Y-11562842D01*
X1534413Y-11573255D01*
X1544828Y-11583670D01*
X1555242Y-11588750D01*
X1576070Y-11588750D01*
X1586229Y-11583670D01*
X1596644Y-11573255D01*
X1601978Y-11562842D01*
X1667510Y-11479784D02*
G01*
X1657095Y-11484863D01*
X1646681Y-11495278D01*
X1641347Y-11505692D01*
X1636268Y-11521439D01*
X1636268Y-11547347D01*
X1641347Y-11562842D01*
X1646681Y-11573255D01*
X1657095Y-11583670D01*
X1667510Y-11588750D01*
X1688084Y-11588750D01*
X1698497Y-11583670D01*
X1708912Y-11573255D01*
X1714245Y-11562842D01*
X1719326Y-11547347D01*
X1719326Y-11521439D01*
X1714245Y-11505692D01*
X1708912Y-11495278D01*
X1698497Y-11484863D01*
X1688084Y-11479784D01*
X1667510Y-11479784D01*
X1753615Y-11479784D02*
G01*
X1753615Y-11588750D01*
X1753615Y-11479784D02*
G01*
X1826260Y-11588750D01*
X1826260Y-11479784D02*
G01*
X1826260Y-11588750D01*
X1860550Y-11500612D02*
G01*
X1870963Y-11495278D01*
X1886712Y-11479784D01*
X1886712Y-11588750D01*
D30*
X2301493Y-14149324D02*
G01*
X2301493Y-14231366D01*
X2260600Y-14190218D02*
G01*
X2342388Y-14190218D01*
X2426970Y-14135862D02*
G01*
X2381504Y-14135862D01*
X2376931Y-14176755D01*
X2381504Y-14172184D01*
X2395220Y-14167612D01*
X2408681Y-14167612D01*
X2422397Y-14172184D01*
X2431541Y-14181328D01*
X2436113Y-14194789D01*
X2436113Y-14203934D01*
X2431541Y-14217650D01*
X2422397Y-14226794D01*
X2408681Y-14231366D01*
X2395220Y-14231366D01*
X2381504Y-14226794D01*
X2376931Y-14222221D01*
X2372359Y-14213078D01*
X2466086Y-14167612D02*
G01*
X2493263Y-14231366D01*
X2520695Y-14167612D02*
G01*
X2493263Y-14231366D01*
X2573274Y-14167612D02*
G01*
X2564129Y-14172184D01*
X2555240Y-14181328D01*
X2550668Y-14194789D01*
X2550668Y-14203934D01*
X2555240Y-14217650D01*
X2564129Y-14226794D01*
X2573274Y-14231366D01*
X2586990Y-14231366D01*
X2596134Y-14226794D01*
X2605024Y-14217650D01*
X2609595Y-14203934D01*
X2609595Y-14194789D01*
X2605024Y-14181328D01*
X2596134Y-14172184D01*
X2586990Y-14167612D01*
X2573274Y-14167612D01*
X2639568Y-14167612D02*
G01*
X2639568Y-14213078D01*
X2644140Y-14226794D01*
X2653284Y-14231366D01*
X2667000Y-14231366D01*
X2676143Y-14226794D01*
X2689606Y-14213078D01*
X2689606Y-14167612D02*
G01*
X2689606Y-14231366D01*
X2733293Y-14135862D02*
G01*
X2733293Y-14213078D01*
X2737865Y-14226794D01*
X2747009Y-14231366D01*
X2756154Y-14231366D01*
X2719577Y-14167612D02*
G01*
X2751581Y-14167612D01*
X2298700Y-13682218D02*
G01*
X2380488Y-13682218D01*
X2465070Y-13659612D02*
G01*
X2465070Y-13723366D01*
X2465070Y-13673328D02*
G01*
X2455925Y-13664184D01*
X2446781Y-13659612D01*
X2433320Y-13659612D01*
X2424175Y-13664184D01*
X2415031Y-13673328D01*
X2410459Y-13686789D01*
X2410459Y-13695934D01*
X2415031Y-13709650D01*
X2424175Y-13718794D01*
X2433320Y-13723366D01*
X2446781Y-13723366D01*
X2455925Y-13718794D01*
X2465070Y-13709650D01*
X2495041Y-13627862D02*
G01*
X2495041Y-13723366D01*
X2525013Y-13627862D02*
G01*
X2529586Y-13632434D01*
X2534158Y-13627862D01*
X2529586Y-13623289D01*
X2525013Y-13627862D01*
X2529586Y-13659612D02*
G01*
X2529586Y-13723366D01*
X2564129Y-13659612D02*
G01*
X2564129Y-13723366D01*
X2564129Y-13677900D02*
G01*
X2577845Y-13664184D01*
X2586990Y-13659612D01*
X2600452Y-13659612D01*
X2609595Y-13664184D01*
X2614168Y-13677900D01*
X2614168Y-13723366D01*
X2614168Y-13677900D02*
G01*
X2627884Y-13664184D01*
X2636774Y-13659612D01*
X2650490Y-13659612D01*
X2659634Y-13664184D01*
X2664206Y-13677900D01*
X2664206Y-13723366D01*
X2339593Y-13146024D02*
G01*
X2339593Y-13228066D01*
X2298700Y-13186918D02*
G01*
X2380488Y-13186918D01*
X2410459Y-13132562D02*
G01*
X2410459Y-13228066D01*
X2440431Y-13191489D02*
G01*
X2495041Y-13191489D01*
X2495041Y-13182600D01*
X2490470Y-13173455D01*
X2485897Y-13168884D01*
X2477008Y-13164312D01*
X2463291Y-13164312D01*
X2454147Y-13168884D01*
X2445004Y-13178028D01*
X2440431Y-13191489D01*
X2440431Y-13200634D01*
X2445004Y-13214350D01*
X2454147Y-13223494D01*
X2463291Y-13228066D01*
X2477008Y-13228066D01*
X2485897Y-13223494D01*
X2495041Y-13214350D01*
X2579624Y-13132562D02*
G01*
X2579624Y-13228066D01*
X2579624Y-13178028D02*
G01*
X2570479Y-13168884D01*
X2561336Y-13164312D01*
X2547874Y-13164312D01*
X2538729Y-13168884D01*
X2529586Y-13178028D01*
X2525013Y-13191489D01*
X2525013Y-13200634D01*
X2529586Y-13214350D01*
X2538729Y-13223494D01*
X2547874Y-13228066D01*
X2561336Y-13228066D01*
X2570479Y-13223494D01*
X2579624Y-13214350D01*
X1604771Y-12703555D02*
G01*
X1595628Y-12703555D01*
X1577086Y-12694158D01*
X1567942Y-12685013D01*
X1558797Y-12666471D01*
X1558797Y-12629642D01*
X1567942Y-12611100D01*
X1577086Y-12601955D01*
X1595628Y-12592558D01*
X1614170Y-12592558D01*
X1632712Y-12601955D01*
X1660397Y-12620244D01*
X1752600Y-12712700D01*
X1752600Y-12583413D01*
X1577086Y-11976100D02*
G01*
X1567942Y-11957558D01*
X1540255Y-11929871D01*
X1734057Y-11929871D01*
X2326893Y-14644624D02*
G01*
X2326893Y-14726666D01*
X2286000Y-14685518D02*
G01*
X2367788Y-14685518D01*
X2452370Y-14676628D02*
G01*
X2443225Y-14667484D01*
X2434081Y-14662912D01*
X2420620Y-14662912D01*
X2411475Y-14667484D01*
X2402331Y-14676628D01*
X2397759Y-14690089D01*
X2397759Y-14699234D01*
X2402331Y-14712950D01*
X2411475Y-14722094D01*
X2420620Y-14726666D01*
X2434081Y-14726666D01*
X2443225Y-14722094D01*
X2452370Y-14712950D01*
X2486913Y-14662912D02*
G01*
X2514091Y-14726666D01*
X2541524Y-14662912D02*
G01*
X2514091Y-14726666D01*
X2505202Y-14744700D01*
X2496058Y-14753844D01*
X2486913Y-14758416D01*
X2482341Y-14758416D01*
X2585211Y-14631162D02*
G01*
X2585211Y-14708378D01*
X2589529Y-14722094D01*
X2598674Y-14726666D01*
X2607818Y-14726666D01*
X2571495Y-14662912D02*
G01*
X2603245Y-14662912D01*
X2637790Y-14662912D02*
G01*
X2637790Y-14726666D01*
X2637790Y-14690089D02*
G01*
X2642361Y-14676628D01*
X2651506Y-14667484D01*
X2660650Y-14662912D01*
X2674111Y-14662912D01*
X2726943Y-14662912D02*
G01*
X2717800Y-14667484D01*
X2708656Y-14676628D01*
X2704084Y-14690089D01*
X2704084Y-14699234D01*
X2708656Y-14712950D01*
X2717800Y-14722094D01*
X2726943Y-14726666D01*
X2740659Y-14726666D01*
X2749550Y-14722094D01*
X2758693Y-14712950D01*
X2763265Y-14699234D01*
X2763265Y-14690089D01*
X2758693Y-14676628D01*
X2749550Y-14667484D01*
X2740659Y-14662912D01*
X2726943Y-14662912D01*
X2793238Y-14662912D02*
G01*
X2793238Y-14726666D01*
X2793238Y-14681200D02*
G01*
X2806954Y-14667484D01*
X2816097Y-14662912D01*
X2829559Y-14662912D01*
X2838704Y-14667484D01*
X2843275Y-14681200D01*
X2843275Y-14726666D01*
X2352293Y-15165324D02*
G01*
X2352293Y-15247366D01*
X2311400Y-15206218D02*
G01*
X2393188Y-15206218D01*
X2477770Y-15183612D02*
G01*
X2477770Y-15247366D01*
X2477770Y-15197328D02*
G01*
X2468625Y-15188184D01*
X2459481Y-15183612D01*
X2446020Y-15183612D01*
X2436875Y-15188184D01*
X2427731Y-15197328D01*
X2423159Y-15210789D01*
X2423159Y-15219934D01*
X2427731Y-15233650D01*
X2436875Y-15242794D01*
X2446020Y-15247366D01*
X2459481Y-15247366D01*
X2468625Y-15242794D01*
X2477770Y-15233650D01*
X2507741Y-15151862D02*
G01*
X2507741Y-15247366D01*
X2537713Y-15151862D02*
G01*
X2542286Y-15156434D01*
X2546858Y-15151862D01*
X2542286Y-15147289D01*
X2537713Y-15151862D01*
X2542286Y-15183612D02*
G01*
X2542286Y-15247366D01*
X2576829Y-15183612D02*
G01*
X2576829Y-15247366D01*
X2576829Y-15201900D02*
G01*
X2590545Y-15188184D01*
X2599690Y-15183612D01*
X2613152Y-15183612D01*
X2622295Y-15188184D01*
X2626868Y-15201900D01*
X2626868Y-15247366D01*
X2626868Y-15201900D02*
G01*
X2640584Y-15188184D01*
X2649474Y-15183612D01*
X2663190Y-15183612D01*
X2672334Y-15188184D01*
X2676906Y-15201900D01*
X2676906Y-15247366D01*
X2295906Y-15577312D02*
G01*
X2287015Y-15581884D01*
X2277872Y-15591028D01*
X2273300Y-15604489D01*
X2273300Y-15613634D01*
X2277872Y-15627350D01*
X2287015Y-15636494D01*
X2295906Y-15641066D01*
X2309622Y-15641066D01*
X2318765Y-15636494D01*
X2327909Y-15627350D01*
X2332481Y-15613634D01*
X2332481Y-15604489D01*
X2327909Y-15591028D01*
X2318765Y-15581884D01*
X2309622Y-15577312D01*
X2295906Y-15577312D01*
X2362454Y-15577312D02*
G01*
X2362454Y-15622778D01*
X2367025Y-15636494D01*
X2375915Y-15641066D01*
X2389631Y-15641066D01*
X2398775Y-15636494D01*
X2412491Y-15622778D01*
X2412491Y-15577312D02*
G01*
X2412491Y-15641066D01*
X2455925Y-15545562D02*
G01*
X2455925Y-15622778D01*
X2460497Y-15636494D01*
X2469641Y-15641066D01*
X2478786Y-15641066D01*
X2442463Y-15577312D02*
G01*
X2474213Y-15577312D01*
X2558795Y-15591028D02*
G01*
X2554224Y-15581884D01*
X2540508Y-15577312D01*
X2527045Y-15577312D01*
X2513329Y-15581884D01*
X2508758Y-15591028D01*
X2513329Y-15599918D01*
X2522474Y-15604489D01*
X2545079Y-15609062D01*
X2554224Y-15613634D01*
X2558795Y-15622778D01*
X2558795Y-15627350D01*
X2554224Y-15636494D01*
X2540508Y-15641066D01*
X2527045Y-15641066D01*
X2513329Y-15636494D01*
X2508758Y-15627350D01*
X2588768Y-15545562D02*
G01*
X2593340Y-15550134D01*
X2597911Y-15545562D01*
X2593340Y-15540989D01*
X2588768Y-15545562D01*
X2593340Y-15577312D02*
G01*
X2593340Y-15641066D01*
X2682493Y-15577312D02*
G01*
X2682493Y-15649955D01*
X2677922Y-15663671D01*
X2673350Y-15668244D01*
X2664206Y-15672816D01*
X2650490Y-15672816D01*
X2641600Y-15668244D01*
X2682493Y-15591028D02*
G01*
X2673350Y-15581884D01*
X2664206Y-15577312D01*
X2650490Y-15577312D01*
X2641600Y-15581884D01*
X2632456Y-15591028D01*
X2627884Y-15604489D01*
X2627884Y-15613634D01*
X2632456Y-15627350D01*
X2641600Y-15636494D01*
X2650490Y-15641066D01*
X2664206Y-15641066D01*
X2673350Y-15636494D01*
X2682493Y-15627350D01*
X2712465Y-15577312D02*
G01*
X2712465Y-15641066D01*
X2712465Y-15595600D02*
G01*
X2725927Y-15581884D01*
X2735072Y-15577312D01*
X2748788Y-15577312D01*
X2757931Y-15581884D01*
X2762504Y-15595600D01*
X2762504Y-15641066D01*
X2846831Y-15577312D02*
G01*
X2846831Y-15641066D01*
X2846831Y-15591028D02*
G01*
X2837941Y-15581884D01*
X2828797Y-15577312D01*
X2815081Y-15577312D01*
X2805938Y-15581884D01*
X2797047Y-15591028D01*
X2792475Y-15604489D01*
X2792475Y-15613634D01*
X2797047Y-15627350D01*
X2805938Y-15636494D01*
X2815081Y-15641066D01*
X2828797Y-15641066D01*
X2837941Y-15636494D01*
X2846831Y-15627350D01*
X2877058Y-15545562D02*
G01*
X2877058Y-15641066D01*
D28*
X4517516Y-15157272D02*
G01*
X4517516Y-15266238D01*
X4551806Y-15157272D02*
G01*
X4551806Y-15266238D01*
X4551806Y-15157272D02*
G01*
X4624450Y-15266238D01*
X4624450Y-15157272D02*
G01*
X4624450Y-15266238D01*
X4700397Y-15157272D02*
G01*
X4658740Y-15266238D01*
X4700397Y-15157272D02*
G01*
X4742052Y-15266238D01*
X4674488Y-15229916D02*
G01*
X4726304Y-15229916D01*
X4781422Y-15183180D02*
G01*
X4781422Y-15178100D01*
X4786756Y-15167686D01*
X4791836Y-15162352D01*
X4802250Y-15157272D01*
X4823079Y-15157272D01*
X4833493Y-15162352D01*
X4838572Y-15167686D01*
X4843906Y-15178100D01*
X4843906Y-15188514D01*
X4838572Y-15198928D01*
X4828159Y-15214422D01*
X4776343Y-15266238D01*
X4848986Y-15266238D01*
X4945506Y-15172766D02*
G01*
X4940427Y-15162352D01*
X4924933Y-15157272D01*
X4914518Y-15157272D01*
X4898770Y-15162352D01*
X4888356Y-15178100D01*
X4883277Y-15204008D01*
X4883277Y-15229916D01*
X4888356Y-15250744D01*
X4898770Y-15261158D01*
X4914518Y-15266238D01*
X4919599Y-15266238D01*
X4935347Y-15261158D01*
X4945506Y-15250744D01*
X4950840Y-15235250D01*
X4950840Y-15229916D01*
X4945506Y-15214422D01*
X4935347Y-15204008D01*
X4919599Y-15198928D01*
X4914518Y-15198928D01*
X4898770Y-15204008D01*
X4888356Y-15214422D01*
X4883277Y-15229916D01*
X5016372Y-15157272D02*
G01*
X5000625Y-15162352D01*
X4990211Y-15178100D01*
X4985131Y-15204008D01*
X4985131Y-15219502D01*
X4990211Y-15245664D01*
X5000625Y-15261158D01*
X5016372Y-15266238D01*
X5026786Y-15266238D01*
X5042281Y-15261158D01*
X5052695Y-15245664D01*
X5057775Y-15219502D01*
X5057775Y-15204008D01*
X5052695Y-15178100D01*
X5042281Y-15162352D01*
X5026786Y-15157272D01*
X5016372Y-15157272D01*
D32*
X4949316Y-15872358D02*
G01*
X4949316Y-15581274D01*
D28*
X7683500Y-13831316D02*
G01*
X7683500Y-13722350D01*
X7683500Y-13831316D02*
G01*
X7641843Y-13722350D01*
X7600441Y-13831316D02*
G01*
X7641843Y-13722350D01*
X7600441Y-13831316D02*
G01*
X7600441Y-13722350D01*
X7566152Y-13810487D02*
G01*
X7555738Y-13815821D01*
X7539990Y-13831316D01*
X7539990Y-13722350D01*
D33*
X9625329Y-12980924D02*
G01*
X9625329Y-12859765D01*
X9617202Y-12835636D01*
X9601200Y-12819379D01*
X9576815Y-12811252D01*
X9560559Y-12811252D01*
X9536429Y-12819379D01*
X9520174Y-12835636D01*
X9512300Y-12859765D01*
X9512300Y-12980924D01*
X9345675Y-12956794D02*
G01*
X9361931Y-12973050D01*
X9386061Y-12980924D01*
X9418320Y-12980924D01*
X9442704Y-12973050D01*
X9458959Y-12956794D01*
X9458959Y-12940537D01*
X9450831Y-12924536D01*
X9442704Y-12916408D01*
X9426447Y-12908279D01*
X9377934Y-12892024D01*
X9361931Y-12884150D01*
X9353804Y-12876021D01*
X9345675Y-12859765D01*
X9345675Y-12835636D01*
X9361931Y-12819379D01*
X9386061Y-12811252D01*
X9418320Y-12811252D01*
X9442704Y-12819379D01*
X9458959Y-12835636D01*
X9292336Y-12980924D02*
G01*
X9292336Y-12811252D01*
X9292336Y-12980924D02*
G01*
X9219691Y-12980924D01*
X9195308Y-12973050D01*
X9187179Y-12964921D01*
X9179306Y-12948665D01*
X9179306Y-12932410D01*
X9187179Y-12916408D01*
X9195308Y-12908279D01*
X9219691Y-12900152D01*
X9292336Y-12900152D02*
G01*
X9219691Y-12900152D01*
X9195308Y-12892024D01*
X9187179Y-12884150D01*
X9179306Y-12867894D01*
X9179306Y-12843510D01*
X9187179Y-12827508D01*
X9195308Y-12819379D01*
X9219691Y-12811252D01*
X9292336Y-12811252D01*
D28*
X3806443Y-12800584D02*
G01*
X3754627Y-12909550D01*
X3733800Y-12800584D02*
G01*
X3806443Y-12800584D01*
X3866895Y-12800584D02*
G01*
X3851147Y-12805663D01*
X3846068Y-12816078D01*
X3846068Y-12826492D01*
X3851147Y-12836905D01*
X3861561Y-12842239D01*
X3882390Y-12847320D01*
X3897884Y-12852400D01*
X3908297Y-12862813D01*
X3913631Y-12873228D01*
X3913631Y-12888976D01*
X3908297Y-12899389D01*
X3903218Y-12904470D01*
X3887470Y-12909550D01*
X3866895Y-12909550D01*
X3851147Y-12904470D01*
X3846068Y-12899389D01*
X3840734Y-12888976D01*
X3840734Y-12873228D01*
X3846068Y-12862813D01*
X3856481Y-12852400D01*
X3871975Y-12847320D01*
X3892804Y-12842239D01*
X3903218Y-12836905D01*
X3908297Y-12826492D01*
X3908297Y-12816078D01*
X3903218Y-12805663D01*
X3887470Y-12800584D01*
X3866895Y-12800584D01*
X3978909Y-12800584D02*
G01*
X3963415Y-12805663D01*
X3953002Y-12821412D01*
X3947922Y-12847320D01*
X3947922Y-12862813D01*
X3953002Y-12888976D01*
X3963415Y-12904470D01*
X3978909Y-12909550D01*
X3989324Y-12909550D01*
X4005072Y-12904470D01*
X4015486Y-12888976D01*
X4020565Y-12862813D01*
X4020565Y-12847320D01*
X4015486Y-12821412D01*
X4005072Y-12805663D01*
X3989324Y-12800584D01*
X3978909Y-12800584D01*
X4117340Y-12800584D02*
G01*
X4065270Y-12800584D01*
X4060190Y-12847320D01*
X4065270Y-12842239D01*
X4080763Y-12836905D01*
X4096511Y-12836905D01*
X4112006Y-12842239D01*
X4122420Y-12852400D01*
X4127500Y-12868147D01*
X4127500Y-12878562D01*
X4122420Y-12894055D01*
X4112006Y-12904470D01*
X4096511Y-12909550D01*
X4080763Y-12909550D01*
X4065270Y-12904470D01*
X4060190Y-12899389D01*
X4054856Y-12888976D01*
X3079241Y-11479784D02*
G01*
X3063493Y-11484863D01*
X3053079Y-11500612D01*
X3048000Y-11526520D01*
X3048000Y-11542013D01*
X3053079Y-11568176D01*
X3063493Y-11583670D01*
X3079241Y-11588750D01*
X3089656Y-11588750D01*
X3105150Y-11583670D01*
X3115563Y-11568176D01*
X3120643Y-11542013D01*
X3120643Y-11526520D01*
X3115563Y-11500612D01*
X3105150Y-11484863D01*
X3089656Y-11479784D01*
X3079241Y-11479784D01*
X3771900Y-11390884D02*
G01*
X3771900Y-11499850D01*
X3771900Y-11390884D02*
G01*
X3818636Y-11390884D01*
X3834129Y-11395963D01*
X3839463Y-11401297D01*
X3844543Y-11411712D01*
X3844543Y-11422126D01*
X3839463Y-11432539D01*
X3834129Y-11437620D01*
X3818636Y-11442700D01*
X3771900Y-11442700D01*
X3808222Y-11442700D02*
G01*
X3844543Y-11499850D01*
X3889247Y-11390884D02*
G01*
X3946397Y-11390884D01*
X3915409Y-11432539D01*
X3930904Y-11432539D01*
X3941318Y-11437620D01*
X3946397Y-11442700D01*
X3951731Y-11458447D01*
X3951731Y-11468862D01*
X3946397Y-11484355D01*
X3935984Y-11494770D01*
X3920490Y-11499850D01*
X3904995Y-11499850D01*
X3889247Y-11494770D01*
X3884168Y-11489689D01*
X3878834Y-11479276D01*
G36*
X9398000Y-14884400D02*
G01*
X9398000Y-15113000D01*
X9461500Y-15113000D01*
X9461500Y-14884400D01*
G37*
G36*
X2727960Y-12339320D02*
G01*
X2724759Y-12339523D01*
X2721610Y-12340132D01*
X2718612Y-12341098D01*
X2715717Y-12342469D01*
X2713024Y-12344146D01*
X2710586Y-12346178D01*
X2708402Y-12348514D01*
X2706522Y-12351105D01*
X2704947Y-12353899D01*
X2703779Y-12356846D01*
X2703017Y-12359944D01*
X2702610Y-12363145D01*
X2702610Y-12366294D01*
X2703017Y-12369495D01*
X2703779Y-12372543D01*
X2704947Y-12375540D01*
X2706522Y-12378334D01*
X2708402Y-12380874D01*
X2710586Y-12383211D01*
X2713024Y-12385243D01*
X2715717Y-12386970D01*
X2718612Y-12388342D01*
X2721610Y-12389307D01*
X2724759Y-12389916D01*
X2727960Y-12390120D01*
X2731109Y-12389916D01*
X2734310Y-12389307D01*
X2737307Y-12388342D01*
X2740202Y-12386970D01*
X2742895Y-12385243D01*
X2745384Y-12383211D01*
X2747568Y-12380874D01*
X2749397Y-12378334D01*
X2750972Y-12375540D01*
X2752090Y-12372543D01*
X2752902Y-12369495D01*
X2753309Y-12366294D01*
X2753309Y-12363145D01*
X2752902Y-12359944D01*
X2752090Y-12356846D01*
X2750972Y-12353899D01*
X2749397Y-12351105D01*
X2747568Y-12348514D01*
X2745384Y-12346178D01*
X2742895Y-12344146D01*
X2740202Y-12342469D01*
X2737307Y-12341098D01*
X2734310Y-12340132D01*
X2731109Y-12339523D01*
G37*
G36*
X2971800Y-12293600D02*
G01*
X2971800Y-12484100D01*
X3098800Y-12484100D01*
X3098800Y-12293600D01*
G37*
G36*
X3022600Y-12484100D02*
G01*
X3022600Y-12661900D01*
X3098800Y-12661900D01*
X3098800Y-12484100D01*
G37*
G36*
X2971800Y-12661900D02*
G01*
X2971800Y-12738100D01*
X3098800Y-12738100D01*
X3098800Y-12661900D01*
G37*
G36*
X3022600Y-12738100D02*
G01*
X3022600Y-12915900D01*
X3098800Y-12915900D01*
X3098800Y-12738100D01*
G37*
G36*
X2971800Y-12915900D02*
G01*
X2971800Y-12992100D01*
X3098800Y-12992100D01*
X3098800Y-12915900D01*
G37*
G36*
X3022600Y-12992100D02*
G01*
X3022600Y-13169900D01*
X3098800Y-13169900D01*
X3098800Y-12992100D01*
G37*
G36*
X2971800Y-13169900D02*
G01*
X2971800Y-13360400D01*
X3098800Y-13360400D01*
X3098800Y-13169900D01*
G37*
D10*
X5842000Y-14986000D02*
G01*
X5842000Y-15532100D01*
X6858000Y-15532100D01*
X6858000Y-14986000D01*
X5842000Y-14986000D01*
X7112000Y-15455900D02*
G01*
X7112000Y-15570200D01*
X7213600Y-15392400D02*
G01*
X7010400Y-15392400D01*
X7112000Y-15455900D02*
G01*
X7112000Y-15240000D01*
X3086100Y-12306300D02*
G01*
X4876800Y-12306300D01*
X4876800Y-13385800D01*
X3378200Y-13385800D01*
X3086100Y-13385800D01*
X3086100Y-13335000D01*
D28*
X9258300Y-14998700D02*
G01*
X9283700Y-14998700D01*
X9283700Y-15113000D01*
X9347200Y-15113000D01*
X9347200Y-14884400D01*
X9283700Y-14884400D01*
X9283700Y-14998700D01*
X9436100Y-14998700D02*
G01*
X9486900Y-14998700D01*
X8991600Y-14833600D02*
G01*
X8991600Y-14909800D01*
X9029700Y-14871700D02*
G01*
X8953500Y-14871700D01*
X8661400Y-14312900D02*
G01*
X8661400Y-14058900D01*
X8686800Y-14033500D02*
G01*
X8750300Y-14033500D01*
X8763000Y-14046200D01*
X9169400Y-14046200D01*
X9182100Y-14033500D01*
X9245600Y-14033500D01*
X8686800Y-14338300D02*
G01*
X8750300Y-14338300D01*
X8763000Y-14325600D01*
X9169400Y-14325600D01*
X9182100Y-14338300D01*
X9245600Y-14338300D01*
X9271000Y-14312900D02*
G01*
X9271000Y-14058900D01*
D29*
X8585200Y-14185900D02*
G01*
X8712200Y-14185900D01*
X9220200Y-14185900D02*
G01*
X9347200Y-14185900D01*
D10*
X8026400Y-14659396D02*
G01*
X5994400Y-14659399D01*
X5994400Y-14659396D02*
G01*
X5994400Y-14159400D01*
X5994400Y-14159402D02*
G01*
X6078443Y-14159402D01*
X6215156Y-14159402D02*
G01*
X6332443Y-14159402D01*
X6469156Y-14159402D02*
G01*
X7332908Y-14159402D01*
X7500691Y-14159402D02*
G01*
X7840908Y-14159402D01*
X8008691Y-14159402D02*
G01*
X8026400Y-14159402D01*
X8026400Y-14159402D02*
G01*
X8026400Y-14180065D01*
X8026400Y-14318734D02*
G01*
X8026400Y-14655800D01*
D30*
X4914900Y-11976100D02*
G01*
X4914900Y-11595100D01*
D31*
X993142Y-12118339D02*
G01*
X993142Y-12372339D01*
X990602Y-12623802D02*
G01*
X990602Y-12877802D01*
X988062Y-13131802D02*
G01*
X988062Y-13385802D01*
X985522Y-13639802D02*
G01*
X985522Y-13893802D01*
X985522Y-14145262D02*
G01*
X985522Y-14399262D01*
X984671Y-14659310D02*
G01*
X984671Y-14913310D01*
X982979Y-15161986D02*
G01*
X982979Y-15415986D01*
X982979Y-15671802D02*
G01*
X982979Y-15925802D01*
D10*
X1115999Y-11645900D02*
G01*
X2196007Y-11645900D01*
X2196007Y-11899900D01*
X1115999Y-11899900D01*
X1115999Y-11645900D01*
X1115999Y-11899900D02*
G01*
X2196007Y-11899900D01*
X2196007Y-15963900D01*
X1115999Y-15963900D01*
X1115999Y-11899900D01*
X899160Y-11927839D02*
G01*
X1088999Y-11927839D01*
X1088999Y-12387529D01*
X899160Y-12387529D01*
X899160Y-11927839D01*
X896620Y-12433300D02*
G01*
X1086459Y-12433300D01*
X1086459Y-12892989D01*
X896620Y-12892989D01*
X896620Y-12433300D01*
X894079Y-12941300D02*
G01*
X1083919Y-12941300D01*
X1083919Y-13400989D01*
X894079Y-13400989D01*
X894079Y-12941300D01*
X891539Y-13449300D02*
G01*
X1081379Y-13449300D01*
X1081379Y-13908989D01*
X891539Y-13908989D01*
X891539Y-13449300D01*
X891539Y-13954760D02*
G01*
X1081379Y-13954760D01*
X1081379Y-14414449D01*
X891539Y-14414449D01*
X891539Y-13954760D01*
X890701Y-14468805D02*
G01*
X1080541Y-14468805D01*
X1080541Y-14928494D01*
X890701Y-14928494D01*
X890701Y-14468805D01*
X889000Y-14971496D02*
G01*
X1078839Y-14971496D01*
X1078839Y-15431185D01*
X889000Y-15431185D01*
X889000Y-14971496D01*
X889000Y-15481300D02*
G01*
X1078839Y-15481300D01*
X1078839Y-15940989D01*
X889000Y-15940989D01*
X889000Y-15481300D01*
D28*
X5558909Y-14114376D02*
G01*
X5558909Y-15831416D01*
X5304909Y-16085416D02*
G01*
X3272909Y-16085416D01*
X3018909Y-15831416D02*
G01*
X3018909Y-14114376D01*
X3272909Y-13860376D02*
G01*
X5304909Y-13860376D01*
D29*
X8686800Y-13690600D02*
G01*
X8750300Y-13627100D01*
X8813800Y-13690600D01*
X8940800Y-13690600D01*
X9004300Y-13627100D01*
X9067800Y-13690600D01*
X9194800Y-13690600D01*
X9258300Y-13627100D01*
X9321800Y-13690600D01*
X9448800Y-13690600D01*
X9512300Y-13627100D01*
X9512300Y-13500100D01*
X9448800Y-13436600D01*
X9321800Y-13436600D01*
X9258300Y-13500100D01*
X9194800Y-13436600D01*
X9067800Y-13436600D01*
X9004300Y-13500100D01*
X8940800Y-13436600D01*
X8813800Y-13436600D01*
X8750300Y-13500100D01*
X8686800Y-13436600D01*
X8559800Y-13436600D01*
X8496300Y-13500100D01*
X8432800Y-13436600D01*
X8305800Y-13436600D01*
X8242300Y-13500100D01*
X8178800Y-13436600D01*
X8051800Y-13436600D01*
X7988300Y-13500100D01*
X7924800Y-13436600D01*
X7797800Y-13436600D01*
X7734300Y-13500100D01*
X7670800Y-13436600D01*
X7543800Y-13436600D01*
X7480300Y-13500100D01*
X7416800Y-13436600D01*
X7289800Y-13436600D01*
X7226300Y-13500100D01*
X7162800Y-13436600D01*
X7035800Y-13436600D01*
X6972300Y-13500100D01*
X6908800Y-13436600D01*
X6781800Y-13436600D01*
X6718300Y-13500100D01*
X6654800Y-13436600D01*
X6527800Y-13436600D01*
X6464300Y-13500100D01*
X6400800Y-13436600D01*
X6273800Y-13436600D01*
X6210300Y-13500100D01*
X6146800Y-13436600D01*
X6019800Y-13436600D01*
X5956300Y-13500100D01*
X5892800Y-13436600D01*
X5765800Y-13436600D01*
X5702300Y-13500100D01*
X5702300Y-13627100D01*
X5765800Y-13690600D01*
X5892800Y-13690600D02*
G01*
X5956300Y-13627100D01*
X6019800Y-13690600D01*
X5448300Y-13690600D01*
X5448300Y-11912600D01*
X5892800Y-11912600D01*
X6019800Y-11912600D01*
X5956300Y-11976100D01*
X5892800Y-11912600D01*
X6146800Y-13690600D02*
G01*
X6210300Y-13627100D01*
X6273800Y-13690600D01*
X6019800Y-13690600D02*
G01*
X6400800Y-13690600D01*
X6464300Y-13627100D01*
X6527800Y-13690600D01*
X6654800Y-13690600D02*
G01*
X6718300Y-13627100D01*
X6781800Y-13690600D01*
X6908800Y-13690600D02*
G01*
X6972300Y-13627100D01*
X7035800Y-13690600D01*
X7162800Y-13690600D02*
G01*
X7226300Y-13627100D01*
X7289800Y-13690600D01*
X7416800Y-13690600D02*
G01*
X7480300Y-13627100D01*
X7543800Y-13690600D01*
X7670800Y-13690600D02*
G01*
X7734300Y-13627100D01*
X7797800Y-13690600D01*
X7924800Y-13690600D02*
G01*
X7988300Y-13627100D01*
X8051800Y-13690600D01*
X8813800Y-13690600D01*
X8178800Y-13690600D02*
G01*
X8242300Y-13627100D01*
X8305800Y-13690600D01*
X8432800Y-13690600D02*
G01*
X8496300Y-13627100D01*
X8559800Y-13690600D01*
X5765800Y-11912600D02*
G01*
X5702300Y-11976100D01*
X5702300Y-12103100D01*
X5765800Y-12166600D01*
X5892800Y-12166600D01*
X5956300Y-12103100D01*
X6019800Y-12166600D01*
X6146800Y-12166600D01*
X6210300Y-12103100D01*
X6273800Y-12166600D01*
X6400800Y-12166600D01*
X6464300Y-12103100D01*
X6527800Y-12166600D01*
X6654800Y-12166600D01*
X6718300Y-12103100D01*
X6781800Y-12166600D01*
X6908800Y-12166600D01*
X6972300Y-12103100D01*
X7035800Y-12166600D01*
X7162800Y-12166600D01*
X7226300Y-12103100D01*
X7289800Y-12166600D01*
X7416800Y-12166600D01*
X7480300Y-12103100D01*
X7543800Y-12166600D01*
X7670800Y-12166600D01*
X7734300Y-12103100D01*
X7797800Y-12166600D01*
X7924800Y-12166600D01*
X7988300Y-12103100D01*
X8051800Y-12166600D01*
X8178800Y-12166600D01*
X8242300Y-12103100D01*
X8305800Y-12166600D01*
X8432800Y-12166600D01*
X8496300Y-12103100D01*
X8559800Y-12166600D01*
X8686800Y-12166600D01*
X8750300Y-12103100D01*
X8813800Y-12166600D01*
X8940800Y-12166600D01*
X9004300Y-12103100D01*
X9067800Y-12166600D01*
X9194800Y-12166600D01*
X9258300Y-12103100D01*
X9321800Y-12166600D01*
X9448800Y-12166600D01*
X9512300Y-12103100D01*
X9512300Y-11976100D01*
X9448800Y-11912600D01*
X9766300Y-11912600D01*
X9766300Y-12484100D01*
X9004300Y-12484100D01*
X9004300Y-13119100D01*
X9766300Y-13119100D01*
X9893300Y-13119100D01*
X9893300Y-12484100D01*
X9766300Y-12484100D01*
X8686800Y-11912600D02*
G01*
X8750300Y-11976100D01*
X8813800Y-11912600D01*
X8940800Y-11912600D01*
X9004300Y-11976100D01*
X9067800Y-11912600D01*
X9194800Y-11912600D01*
X9258300Y-11976100D01*
X9321800Y-11912600D01*
X9448800Y-11912600D01*
X6400800Y-13690600D02*
G01*
X8051800Y-13690600D01*
X8432800Y-11912600D02*
G01*
X8496300Y-11976100D01*
X8559800Y-11912600D01*
X8432800Y-11912600D01*
X8305800Y-11912600D01*
X8178800Y-11912600D01*
X8051800Y-11912600D01*
X7924800Y-11912600D01*
X7797800Y-11912600D01*
X7670800Y-11912600D01*
X7543800Y-11912600D01*
X7416800Y-11912600D01*
X7289800Y-11912600D01*
X7162800Y-11912600D01*
X7035800Y-11912600D01*
X6908800Y-11912600D01*
X6781800Y-11912600D01*
X6654800Y-11912600D01*
X6527800Y-11912600D01*
X6400800Y-11912600D01*
X6273800Y-11912600D01*
X6146800Y-11912600D01*
X6019800Y-11912600D01*
X8305800Y-11912600D02*
G01*
X8242300Y-11976100D01*
X8178800Y-11912600D01*
X8051800Y-11912600D02*
G01*
X7988300Y-11976100D01*
X7924800Y-11912600D01*
X7797800Y-11912600D02*
G01*
X7734300Y-11976100D01*
X7670800Y-11912600D01*
X7543800Y-11912600D02*
G01*
X7480300Y-11976100D01*
X7416800Y-11912600D01*
X7289800Y-11912600D02*
G01*
X7226300Y-11976100D01*
X7162800Y-11912600D01*
X7035800Y-11912600D02*
G01*
X6972300Y-11976100D01*
X6908800Y-11912600D01*
X6781800Y-11912600D02*
G01*
X6718300Y-11976100D01*
X6654800Y-11912600D01*
X6527800Y-11912600D02*
G01*
X6464300Y-11976100D01*
X6400800Y-11912600D01*
X6273800Y-11912600D02*
G01*
X6210300Y-11976100D01*
X6146800Y-11912600D01*
X8940800Y-13690600D02*
G01*
X9067800Y-13690600D01*
X9194800Y-13690600D02*
G01*
X9321800Y-13690600D01*
X9448800Y-13690600D02*
G01*
X9766300Y-13690600D01*
X9766300Y-13119100D01*
X9321800Y-11912600D02*
G01*
X9194800Y-11912600D01*
X9067800Y-11912600D02*
G01*
X8940800Y-11912600D01*
X8813800Y-11912600D02*
G01*
X8559800Y-11912600D01*
D28*
X2984500Y-12319000D02*
G01*
X2692400Y-12319000D01*
X2667000Y-12344400D01*
X2667000Y-13309600D01*
X2692400Y-13335000D01*
X2984500Y-13335000D01*
X2794000Y-11671300D02*
G01*
X2794000Y-11417300D01*
X2819400Y-11391900D02*
G01*
X2882900Y-11391900D01*
X2895600Y-11404600D01*
X3302000Y-11404600D01*
X3314700Y-11391900D01*
X3378200Y-11391900D01*
X2819400Y-11696700D02*
G01*
X2882900Y-11696700D01*
X2895600Y-11684000D01*
X3302000Y-11684000D01*
X3314700Y-11696700D01*
X3378200Y-11696700D01*
X3403600Y-11671300D02*
G01*
X3403600Y-11417300D01*
D29*
X2717800Y-11544300D02*
G01*
X2844800Y-11544300D01*
X3352800Y-11544300D02*
G01*
X3479800Y-11544300D01*
D28*
G75*
G01*
X9880600Y-14998700D02*
G03*
X9880600Y-14999233I-508000J-267D01*
G75*
G01*
X8661400Y-14058900D02*
G02*
X8686800Y-14033500I25400J0D01*
G75*
G01*
X8661400Y-14312900D02*
G03*
X8686800Y-14338300I25400J0D01*
G75*
G01*
X9245600Y-14338300D02*
G03*
X9271000Y-14312900I0J25400D01*
G75*
G01*
X9245600Y-14033500D02*
G02*
X9271000Y-14058900I0J-25400D01*
D10*
G75*
G01*
X4914900Y-11976100D02*
G02*
X4914900Y-11595100I-254000J190500D01*
D28*
G75*
G01*
X4914900Y-11785600D02*
G03*
X4914900Y-11786210I-254000J-305D01*
G75*
G01*
X5558909Y-15830400D02*
G02*
X5304909Y-16084400I-253999J-1D01*
G75*
G01*
X3272909Y-16084400D02*
G02*
X3018909Y-15830400I0J253999D01*
G75*
G01*
X3018909Y-14114376D02*
G02*
X3272909Y-13860376I254000J0D01*
G75*
G01*
X5304909Y-13860376D02*
G02*
X5558909Y-14114376I1J-254000D01*
G75*
G01*
X2794000Y-11417300D02*
G02*
X2819400Y-11391900I25400J0D01*
G75*
G01*
X2794000Y-11671300D02*
G03*
X2819400Y-11696700I25400J0D01*
G75*
G01*
X3378200Y-11696700D02*
G03*
X3403600Y-11671300I0J25400D01*
G75*
G01*
X3378200Y-11391900D02*
G02*
X3403600Y-11417300I0J-25400D01*
M02*
