G04 Layer: BottomSolderMaskLayer*
G04 EasyEDA v6.4.20.6, 2021-08-10T12:41:07+02:00*
G04 b7c102a2acce44a19693fb55b2eed2e6,dded15cb907e4d9595cc142038e9c969,10*
G04 Gerber Generator version 0.2*
G04 Scale: 100 percent, Rotated: No, Reflected: No *
G04 Dimensions in millimeters *
G04 leading zeros omitted , absolute positions ,4 integer and 5 decimal *
%FSLAX45Y45*%
%MOMM*%

%ADD34C,2.2352*%
%ADD35C,3.2032*%
%ADD36C,3.2512*%
%ADD37C,1.7032*%
%ADD38C,1.7272*%
%ADD40C,2.7432*%
%ADD41C,1.9812*%
%ADD42C,2.1336*%
%ADD43C,2.0032*%
%ADD44C,2.2032*%

%LPD*%
D34*
X1219200Y-14185900D02*
G01*
X1320800Y-14185900D01*
D35*
X1170000Y-13677900D02*
G01*
X1369999Y-13677900D01*
D34*
X1219200Y-13169900D02*
G01*
X1320800Y-13169900D01*
X1981200Y-14185900D02*
G01*
X2082800Y-14185900D01*
D35*
X1932000Y-13677900D02*
G01*
X2131999Y-13677900D01*
D34*
X1981200Y-13169900D02*
G01*
X2082800Y-13169900D01*
X1981200Y-12661900D02*
G01*
X2082800Y-12661900D01*
D35*
X1932000Y-12153900D02*
G01*
X2131999Y-12153900D01*
D34*
X1219200Y-12661900D02*
G01*
X1320800Y-12661900D01*
D35*
X1170000Y-12153900D02*
G01*
X1369999Y-12153900D01*
X1170000Y-14693900D02*
G01*
X1369999Y-14693900D01*
X1932000Y-14693900D02*
G01*
X2131999Y-14693900D01*
X1170000Y-15201900D02*
G01*
X1369999Y-15201900D01*
X1932000Y-15201900D02*
G01*
X2131999Y-15201900D01*
D34*
X1219200Y-15709900D02*
G01*
X1320800Y-15709900D01*
X1981200Y-15709900D02*
G01*
X2082800Y-15709900D01*
D36*
X4542891Y-15607614D02*
G01*
X4542891Y-15902812D01*
X4034891Y-15902812D02*
G01*
X4034891Y-15607614D01*
D37*
X3390900Y-14159699D02*
G01*
X3390900Y-14059700D01*
X5168900Y-14159699D02*
G01*
X5168900Y-14059700D01*
X3644900Y-14159699D02*
G01*
X3644900Y-14059700D01*
X3898900Y-14159699D02*
G01*
X3898900Y-14059700D01*
X4152900Y-14159699D02*
G01*
X4152900Y-14059700D01*
X4406900Y-14159699D02*
G01*
X4406900Y-14059700D01*
X4660900Y-14159699D02*
G01*
X4660900Y-14059700D01*
X4914900Y-14159699D02*
G01*
X4914900Y-14059700D01*
D38*
X2768600Y-12573000D02*
G01*
X2921000Y-12573000D01*
X2768600Y-12827000D02*
G01*
X2921000Y-12827000D01*
X2768600Y-13081000D02*
G01*
X2921000Y-13081000D01*
D40*
G01*
X9118600Y-14998700D03*
G36*
X9573768Y-15126207D02*
G01*
X9499091Y-15051531D01*
X9499091Y-14945868D01*
X9573768Y-14871192D01*
X9679431Y-14871192D01*
X9754108Y-14945868D01*
X9754108Y-15051531D01*
X9679431Y-15126207D01*
G37*
D41*
G01*
X8458200Y-14185900D03*
D42*
G01*
X9474200Y-14185900D03*
D43*
G01*
X6146800Y-14249400D03*
G01*
X6400800Y-14249400D03*
D44*
G01*
X7416800Y-14249400D03*
G01*
X7924800Y-14249400D03*
G36*
X4504436Y-11856720D02*
G01*
X4462779Y-11815063D01*
X4462779Y-11756136D01*
X4504436Y-11714479D01*
X4563363Y-11714479D01*
X4605020Y-11756136D01*
X4605020Y-11815063D01*
X4563363Y-11856720D01*
G37*
G36*
X4758436Y-11856720D02*
G01*
X4716779Y-11815063D01*
X4716779Y-11756136D01*
X4758436Y-11714479D01*
X4817363Y-11714479D01*
X4859020Y-11756136D01*
X4859020Y-11815063D01*
X4817363Y-11856720D01*
G37*
D41*
G01*
X4914874Y-14099667D03*
G01*
X4660874Y-14099667D03*
G01*
X4406874Y-14099667D03*
G01*
X4152874Y-14099667D03*
G01*
X3898900Y-14099692D03*
G01*
X5168900Y-14099692D03*
G36*
X5730240Y-13662660D02*
G01*
X5730240Y-13464539D01*
X5928359Y-13464539D01*
X5928359Y-13662660D01*
G37*
D42*
G01*
X6083300Y-13563600D03*
G01*
X6337300Y-13563600D03*
G01*
X6591300Y-13563600D03*
G01*
X6845300Y-13563600D03*
G01*
X7099300Y-13563600D03*
G01*
X7353300Y-13563600D03*
G01*
X7607300Y-13563600D03*
G01*
X7861300Y-13563600D03*
G01*
X8115300Y-13563600D03*
G01*
X8369300Y-13563600D03*
G01*
X8623300Y-13563600D03*
G01*
X5829300Y-12039600D03*
G01*
X6083300Y-12039600D03*
G01*
X6337300Y-12039600D03*
G01*
X6591300Y-12039600D03*
G01*
X6845300Y-12039600D03*
G01*
X7099300Y-12039600D03*
G01*
X7607300Y-12039600D03*
G01*
X7861300Y-12039600D03*
G01*
X8369300Y-12039600D03*
G01*
X8623300Y-12039600D03*
G01*
X8115300Y-12039600D03*
G01*
X7353300Y-12039600D03*
G01*
X8877300Y-13563600D03*
G01*
X9131300Y-13563600D03*
G01*
X9385300Y-13563600D03*
G01*
X8877300Y-12039600D03*
G01*
X9131300Y-12039600D03*
G01*
X9385300Y-12039600D03*
D41*
G01*
X2590800Y-11544300D03*
D42*
G01*
X3606800Y-11544300D03*
G36*
X6645909Y-15236189D02*
G01*
X6645909Y-15066010D01*
X6816090Y-15066010D01*
X6816090Y-15236189D01*
G37*
G36*
X6391909Y-15236189D02*
G01*
X6391909Y-15066010D01*
X6562090Y-15066010D01*
X6562090Y-15236189D01*
G37*
G36*
X6137909Y-15236189D02*
G01*
X6137909Y-15066010D01*
X6308090Y-15066010D01*
X6308090Y-15236189D01*
G37*
G36*
X5883909Y-15236189D02*
G01*
X5883909Y-15066010D01*
X6054090Y-15066010D01*
X6054090Y-15236189D01*
G37*
G36*
X5883909Y-15490189D02*
G01*
X5883909Y-15320010D01*
X6054090Y-15320010D01*
X6054090Y-15490189D01*
G37*
G36*
X6137909Y-15490189D02*
G01*
X6137909Y-15320010D01*
X6308090Y-15320010D01*
X6308090Y-15490189D01*
G37*
G36*
X6391909Y-15490189D02*
G01*
X6391909Y-15320010D01*
X6562090Y-15320010D01*
X6562090Y-15490189D01*
G37*
G36*
X6645909Y-15490189D02*
G01*
X6645909Y-15320010D01*
X6816090Y-15320010D01*
X6816090Y-15490189D01*
G37*
G36*
X5883909Y-15744189D02*
G01*
X5883909Y-15574010D01*
X6054090Y-15574010D01*
X6054090Y-15744189D01*
G37*
G36*
X6137909Y-15744189D02*
G01*
X6137909Y-15574010D01*
X6308090Y-15574010D01*
X6308090Y-15744189D01*
G37*
G36*
X6391909Y-15744189D02*
G01*
X6391909Y-15574010D01*
X6562090Y-15574010D01*
X6562090Y-15744189D01*
G37*
G36*
X6645909Y-15744189D02*
G01*
X6645909Y-15574010D01*
X6816090Y-15574010D01*
X6816090Y-15744189D01*
G37*
G36*
X8168640Y-15453360D02*
G01*
X8168640Y-15280639D01*
X8341359Y-15280639D01*
X8341359Y-15453360D01*
G37*
G36*
X8422640Y-15453360D02*
G01*
X8422640Y-15280639D01*
X8595359Y-15280639D01*
X8595359Y-15453360D01*
G37*
G36*
X7914640Y-15453360D02*
G01*
X7914640Y-15280639D01*
X8087359Y-15280639D01*
X8087359Y-15453360D01*
G37*
G36*
X8435340Y-15961360D02*
G01*
X8435340Y-15788639D01*
X8608059Y-15788639D01*
X8608059Y-15961360D01*
G37*
G36*
X8181340Y-15961360D02*
G01*
X8181340Y-15788639D01*
X8354059Y-15788639D01*
X8354059Y-15961360D01*
G37*
G36*
X7927340Y-15961360D02*
G01*
X7927340Y-15788639D01*
X8100059Y-15788639D01*
X8100059Y-15961360D01*
G37*
M02*
